<svg width="87" height="31" viewBox="0 0 87 31" fill="none" xmlns="http://www.w3.org/2000/svg">
<g id="&#60;&#62; code">
<rect id="Rectangle 122" x="0.5" y="0.5" width="86" height="29.0254" rx="7.5" fill="#1A7733" stroke="#1C6B31"/>
<path id="&#60; &#62; Code" d="M8.55682 16.7746V15.5019L16.1023 11.8428V13.5757L10.5341 16.1155L10.5852 16.0132V16.2575L10.5341 16.161L16.1023 18.695V20.4337L8.55682 16.7746ZM30.9929 15.6837L23.4474 19.3428V17.6041L29.0156 15.07L28.9588 15.1666V14.9223L29.0156 15.0246L23.4474 12.4848V10.7519L30.9929 14.411V15.6837ZM47.7244 12.8655H45.9517C45.8835 12.4867 45.7566 12.1534 45.571 11.8655C45.3854 11.5776 45.1581 11.3333 44.8892 11.1325C44.6203 10.9318 44.3191 10.7803 43.9858 10.678C43.6563 10.5757 43.3059 10.5246 42.9347 10.5246C42.2642 10.5246 41.6638 10.6932 41.1335 11.0303C40.607 11.3674 40.1903 11.8617 39.8835 12.5132C39.5805 13.1647 39.429 13.9602 39.429 14.8996C39.429 15.8466 39.5805 16.6458 39.8835 17.2973C40.1903 17.9488 40.6089 18.4413 41.1392 18.7746C41.6695 19.1079 42.2661 19.2746 42.929 19.2746C43.2964 19.2746 43.6449 19.2253 43.9744 19.1269C44.3078 19.0246 44.6089 18.875 44.8778 18.678C45.1468 18.481 45.3741 18.2405 45.5597 17.9564C45.7491 17.6685 45.8797 17.339 45.9517 16.9678L47.7244 16.9735C47.6297 17.5454 47.446 18.0719 47.1733 18.553C46.9044 19.0303 46.5578 19.4432 46.1335 19.7916C45.7131 20.1363 45.232 20.4034 44.6903 20.5928C44.1487 20.7822 43.5578 20.8769 42.9176 20.8769C41.91 20.8769 41.0123 20.6382 40.2244 20.161C39.4366 19.6799 38.8153 18.9924 38.3608 18.0985C37.91 17.2045 37.6847 16.1382 37.6847 14.8996C37.6847 13.6572 37.9119 12.5909 38.3665 11.7007C38.821 10.8068 39.4422 10.1212 40.2301 9.64391C41.018 9.16285 41.9138 8.92232 42.9176 8.92232C43.535 8.92232 44.1108 9.01133 44.6449 9.18936C45.1828 9.36361 45.6657 9.62118 46.0938 9.96209C46.5218 10.2992 46.8759 10.7121 47.1562 11.2007C47.4366 11.6856 47.6259 12.2405 47.7244 12.8655ZM53.3651 20.8939C52.5469 20.8939 51.8329 20.7064 51.223 20.3314C50.6132 19.9564 50.1397 19.4318 49.8026 18.7575C49.4654 18.0833 49.2969 17.2954 49.2969 16.3939C49.2969 15.4886 49.4654 14.6969 49.8026 14.0189C50.1397 13.3409 50.6132 12.8144 51.223 12.4394C51.8329 12.0644 52.5469 11.8769 53.3651 11.8769C54.1832 11.8769 54.8973 12.0644 55.5071 12.4394C56.117 12.8144 56.5904 13.3409 56.9276 14.0189C57.2647 14.6969 57.4332 15.4886 57.4332 16.3939C57.4332 17.2954 57.2647 18.0833 56.9276 18.7575C56.5904 19.4318 56.117 19.9564 55.5071 20.3314C54.8973 20.7064 54.1832 20.8939 53.3651 20.8939ZM53.3707 19.4678C53.901 19.4678 54.3404 19.3276 54.6889 19.0473C55.0374 18.767 55.295 18.3939 55.4616 17.928C55.6321 17.4621 55.7173 16.9488 55.7173 16.3882C55.7173 15.8314 55.6321 15.32 55.4616 14.8541C55.295 14.3844 55.0374 14.0075 54.6889 13.7235C54.3404 13.4394 53.901 13.2973 53.3707 13.2973C52.8366 13.2973 52.3935 13.4394 52.0412 13.7235C51.6927 14.0075 51.4332 14.3844 51.2628 14.8541C51.0961 15.32 51.0128 15.8314 51.0128 16.3882C51.0128 16.9488 51.0961 17.4621 51.2628 17.928C51.4332 18.3939 51.6927 18.767 52.0412 19.0473C52.3935 19.3276 52.8366 19.4678 53.3707 19.4678ZM62.5966 20.8882C61.892 20.8882 61.2633 20.7083 60.7102 20.3485C60.161 19.9848 59.7292 19.4678 59.4148 18.7973C59.1042 18.1231 58.9489 17.3144 58.9489 16.3712C58.9489 15.428 59.1061 14.6212 59.4205 13.9507C59.7386 13.2803 60.1742 12.767 60.7273 12.411C61.2803 12.0549 61.9072 11.8769 62.608 11.8769C63.1496 11.8769 63.5852 11.9678 63.9148 12.1496C64.2481 12.3276 64.5057 12.536 64.6875 12.7746C64.8731 13.0132 65.017 13.2235 65.1193 13.4053H65.2216V9.08141H66.9205V20.7178H65.2614V19.3598H65.1193C65.017 19.5454 64.8693 19.7575 64.6761 19.9962C64.4867 20.2348 64.2254 20.4432 63.892 20.6212C63.5587 20.7992 63.1269 20.8882 62.5966 20.8882ZM62.9716 19.4394C63.4602 19.4394 63.8731 19.3106 64.2102 19.053C64.5511 18.7916 64.8087 18.4299 64.983 17.9678C65.161 17.5057 65.25 16.9678 65.25 16.3541C65.25 15.7481 65.1629 15.2178 64.9886 14.7632C64.8144 14.3087 64.5587 13.9545 64.2216 13.7007C63.8845 13.4469 63.4678 13.32 62.9716 13.32C62.4602 13.32 62.0341 13.4526 61.6932 13.7178C61.3523 13.9829 61.0947 14.3447 60.9205 14.803C60.75 15.2613 60.6648 15.7784 60.6648 16.3541C60.6648 16.9375 60.7519 17.4621 60.9261 17.928C61.1004 18.3939 61.358 18.7632 61.6989 19.036C62.0436 19.3049 62.4678 19.4394 62.9716 19.4394ZM73.1065 20.8939C72.2467 20.8939 71.5062 20.7102 70.8849 20.3428C70.2675 19.9716 69.7902 19.4507 69.4531 18.7803C69.1198 18.106 68.9531 17.3163 68.9531 16.411C68.9531 15.517 69.1198 14.7291 69.4531 14.0473C69.7902 13.3655 70.2599 12.8333 70.8622 12.4507C71.4683 12.0682 72.1766 11.8769 72.9872 11.8769C73.4796 11.8769 73.9569 11.9583 74.419 12.1212C74.8812 12.2841 75.2959 12.5397 75.6634 12.8882C76.0308 13.2367 76.3205 13.6894 76.5327 14.2462C76.7448 14.7992 76.8509 15.4716 76.8509 16.2632V16.8655H69.9134V15.5928H75.1861C75.1861 15.1458 75.0952 14.75 74.9134 14.4053C74.7315 14.0568 74.4759 13.7822 74.1463 13.5814C73.8205 13.3807 73.438 13.2803 72.9986 13.2803C72.5213 13.2803 72.1046 13.3977 71.7486 13.6325C71.3963 13.8636 71.1236 14.1666 70.9304 14.5416C70.741 14.9128 70.6463 15.3163 70.6463 15.7519V16.7462C70.6463 17.3295 70.7486 17.8257 70.9531 18.2348C71.1615 18.6439 71.4512 18.9564 71.8224 19.1723C72.1937 19.3844 72.6274 19.4905 73.1236 19.4905C73.4455 19.4905 73.7391 19.445 74.0043 19.3541C74.2694 19.2594 74.4986 19.1193 74.6918 18.9337C74.8849 18.7481 75.0327 18.5189 75.1349 18.2462L76.7429 18.536C76.6141 19.0094 76.383 19.4242 76.0497 19.7803C75.7202 20.1325 75.3054 20.4072 74.8054 20.6041C74.3092 20.7973 73.7429 20.8939 73.1065 20.8939Z" fill="white"/>
</g>
</svg>
