<svg width="43" height="55" viewBox="0 0 43 55" fill="none" xmlns="http://www.w3.org/2000/svg">
<g id="arrow">
<g id="arrow_back_ios">
<mask id="mask0_438_1100" style="mask-type:alpha" maskUnits="userSpaceOnUse" x="0" y="12" width="43" height="43">
<rect id="Bounding box" y="55" width="42.4684" height="42.4684" transform="rotate(-90 0 55)" fill="#D9D9D9"/>
</mask>
<g mask="url(#mask0_438_1100)">
<path id="arrow_back_ios_2" d="M21.2341 49.9921L35.0125 36.2023C35.3082 35.9142 35.6696 35.7701 36.0966 35.77C36.5236 35.7698 36.8907 35.9154 37.198 36.2067C37.5052 36.5176 37.6588 36.8865 37.6588 37.3133C37.6588 37.7402 37.5049 38.1071 37.1972 38.4142L23.1715 52.4376C22.8955 52.7174 22.5888 52.9195 22.2516 53.0439C21.9143 53.1683 21.5761 53.2305 21.2369 53.2305C20.8978 53.2305 20.5586 53.1692 20.2195 53.0467C19.8803 52.9242 19.5689 52.7212 19.2854 52.4376L5.24384 38.396C4.93606 38.0852 4.78672 37.7188 4.7958 37.2969C4.80488 36.875 4.9633 36.5101 5.27105 36.2023C5.57882 35.9142 5.94293 35.7672 6.36337 35.7611C6.78381 35.7551 7.14791 35.9021 7.45569 36.2023L21.2341 49.9921Z" fill="black"/>
</g>
</g>
<g id="arrow_back_ios_3">
<mask id="mask1_438_1100" style="mask-type:alpha" maskUnits="userSpaceOnUse" x="0" y="0" width="43" height="43">
<rect id="Bounding box_2" y="42.4688" width="42.4684" height="42.4684" transform="rotate(-90 0 42.4688)" fill="#D9D9D9"/>
</mask>
<g mask="url(#mask1_438_1100)">
<path id="arrow_back_ios_4" d="M21.2341 37.4609L35.0125 23.6711C35.3082 23.383 35.6696 23.2389 36.0966 23.2387C36.5236 23.2386 36.8907 23.3841 37.198 23.6754C37.5052 23.9864 37.6588 24.3552 37.6588 24.7821C37.6588 25.2089 37.5049 25.5759 37.1972 25.8829L23.1715 39.9063C22.8955 40.1861 22.5888 40.3882 22.2516 40.5126C21.9143 40.637 21.5761 40.6992 21.2369 40.6992C20.8978 40.6992 20.5586 40.638 20.2195 40.5155C19.8803 40.3929 19.5689 40.1899 19.2854 39.9063L5.24384 25.8648C4.93606 25.5539 4.78672 25.1875 4.7958 24.7656C4.80488 24.3437 4.9633 23.9789 5.27105 23.6711C5.57882 23.383 5.94293 23.2359 6.36337 23.2299C6.78381 23.2238 7.14791 23.3709 7.45569 23.6711L21.2341 37.4609Z" fill="black"/>
</g>
</g>
</g>
</svg>
