<svg width="24" height="24" viewBox="0 0 24 24" fill="none" xmlns="http://www.w3.org/2000/svg">
<mask id="mask0_212_304" style="mask-type:alpha" maskUnits="userSpaceOnUse" x="0" y="0" width="24" height="24">
<rect width="24" height="24" fill="#D9D9D9"/>
</mask>
<g mask="url(#mask0_212_304)">
<path d="M2.5999 12.0004L10.4249 19.8254C10.5416 19.9421 10.5999 20.0837 10.5999 20.2504C10.5999 20.4171 10.5416 20.5587 10.4249 20.6754C10.3082 20.7921 10.1666 20.8504 9.9999 20.8504C9.83324 20.8504 9.69157 20.7921 9.5749 20.6754L1.9499 13.0504C1.7999 12.9004 1.69157 12.7337 1.6249 12.5504C1.55824 12.3671 1.5249 12.1837 1.5249 12.0004C1.5249 11.8171 1.55824 11.6337 1.6249 11.4504C1.69157 11.2671 1.7999 11.1004 1.9499 10.9504L9.5749 3.32539C9.69157 3.20872 9.83324 3.15039 9.9999 3.15039C10.1666 3.15039 10.3082 3.20872 10.4249 3.32539C10.5416 3.44206 10.5999 3.58372 10.5999 3.75039C10.5999 3.91706 10.5416 4.05872 10.4249 4.17539L2.5999 12.0004Z" fill="white"/>
</g>
</svg>
