<svg width="40" height="40" viewBox="0 0 40 40" fill="none" xmlns="http://www.w3.org/2000/svg">
<mask id="mask0_991_829" style="mask-type:alpha" maskUnits="userSpaceOnUse" x="0" y="0" width="40" height="40">
<rect width="40" height="40" fill="#D9D9D9"/>
</mask>
<g mask="url(#mask0_991_829)">
<path d="M20.0003 20.8337L11.0837 29.7503C10.9725 29.8614 10.8406 29.9239 10.6878 29.9378C10.535 29.9517 10.3892 29.8892 10.2503 29.7503C10.1114 29.6114 10.042 29.4725 10.042 29.3337C10.042 29.1948 10.1114 29.0559 10.2503 28.917L19.167 20.0003L10.2503 11.0837C10.1392 10.9725 10.0767 10.8406 10.0628 10.6878C10.0489 10.535 10.1114 10.3892 10.2503 10.2503C10.3892 10.1114 10.5281 10.042 10.667 10.042C10.8059 10.042 10.9448 10.1114 11.0837 10.2503L20.0003 19.167L28.917 10.2503C29.0281 10.1392 29.16 10.0767 29.3128 10.0628C29.4656 10.0489 29.6114 10.1114 29.7503 10.2503C29.8892 10.3892 29.9587 10.5281 29.9587 10.667C29.9587 10.8059 29.8892 10.9448 29.7503 11.0837L20.8337 20.0003L29.7503 28.917C29.8614 29.0281 29.9239 29.16 29.9378 29.3128C29.9517 29.4656 29.8892 29.6114 29.7503 29.7503C29.6114 29.8892 29.4725 29.9587 29.3337 29.9587C29.1948 29.9587 29.0559 29.8892 28.917 29.7503L20.0003 20.8337Z" fill="white"/>
</g>
</svg>
