<svg width="29" height="29" viewBox="0 0 29 29" fill="none" xmlns="http://www.w3.org/2000/svg">
<path d="M15.048 28.1664C11.1107 28.1664 7.76524 26.7896 5.01168 24.0361C2.25813 21.2825 0.881348 17.9371 0.881348 13.9998C0.881348 10.7527 1.82844 7.90013 3.72264 5.44218C5.61686 2.98421 8.1804 1.31789 11.4133 0.443226C11.8648 0.314309 12.2505 0.291879 12.5703 0.375934C12.8901 0.459962 13.1483 0.620559 13.3449 0.857726C13.5343 1.08353 13.6383 1.36504 13.6568 1.70227C13.6754 2.03952 13.6002 2.41399 13.4314 2.82568C13.1928 3.41043 13.0137 4.00634 12.8941 4.61339C12.7744 5.22048 12.7146 5.84927 12.7146 6.49977C12.7146 9.23127 13.6706 11.553 15.5826 13.4651C17.4947 15.3771 19.8165 16.3331 22.548 16.3331C23.2837 16.3331 23.9774 16.2605 24.6291 16.1152C25.2808 15.9699 25.8716 15.8132 26.4016 15.6451C26.8289 15.5141 27.2021 15.4708 27.5212 15.5154C27.8403 15.5599 28.1012 15.6687 28.3039 15.8418C28.5086 16.0148 28.6428 16.2554 28.7066 16.5634C28.7703 16.8715 28.7431 17.2385 28.6248 17.6644C27.8563 20.7128 26.2382 23.2252 23.7706 25.2017C21.3031 27.1782 18.3955 28.1664 15.048 28.1664ZM15.048 26.0724C17.7745 26.0724 20.1851 25.2692 22.2798 23.6627C24.3745 22.0562 25.7837 20.0849 26.5074 17.7487C25.8877 17.9702 25.2428 18.1387 24.5726 18.2541C23.9023 18.3694 23.2274 18.4271 22.548 18.4271C19.238 18.4271 16.4227 17.2667 14.1018 14.9459C11.781 12.6251 10.6206 9.80971 10.6206 6.49977C10.6206 5.88438 10.6755 5.24904 10.7851 4.59377C10.8948 3.93852 11.0754 3.23339 11.3268 2.47839C8.8895 3.29606 6.88826 4.76334 5.3231 6.88023C3.7579 8.99711 2.97531 11.3703 2.97531 13.9998C2.97531 17.3474 4.15053 20.1964 6.50097 22.5468C8.85139 24.8972 11.7004 26.0724 15.048 26.0724Z" fill="#C8C8C8"/>
</svg>
