<svg width="127" height="31" viewBox="0 0 127 31" fill="none" xmlns="http://www.w3.org/2000/svg">
<g id="develop">
<rect id="Rectangle 122" x="0.5" y="0.5" width="126" height="29.0254" rx="7.5" fill="#F6F8FA" stroke="#D6D8DB"/>
<g id="Frame 13">
<path id="Vector" d="M40 8.6783C39.9997 8.08599 39.8353 7.50564 39.5253 7.00315C39.2154 6.50066 38.7724 6.09617 38.2467 5.83561C37.7209 5.57505 37.1335 5.46887 36.5511 5.52913C35.9687 5.58939 35.4147 5.81366 34.952 6.17649C34.4892 6.53932 34.1363 7.02616 33.9333 7.58172C33.7303 8.13728 33.6854 8.7393 33.8036 9.31941C33.9218 9.89951 34.1984 10.4345 34.6021 10.8635C35.0057 11.2925 35.5201 11.5984 36.087 11.7465V12.6373C36.087 13.0573 35.9221 13.4601 35.6285 13.7571C35.335 14.0541 34.9369 14.2209 34.5217 14.2209H27.4783C26.9284 14.2202 26.3882 14.3674 25.913 14.6475V11.7465C26.6508 11.5538 27.2937 11.0955 27.7213 10.4575C28.149 9.81945 28.3319 9.04555 28.2359 8.28081C28.1399 7.51608 27.7715 6.81303 27.1998 6.30344C26.6281 5.79384 25.8924 5.5127 25.1304 5.5127C24.3685 5.5127 23.6327 5.79384 23.061 6.30344C22.4893 6.81303 22.121 7.51608 22.025 8.28081C21.929 9.04555 22.1119 9.81945 22.5395 10.4575C22.9672 11.0955 23.6101 11.5538 24.3478 11.7465V18.2789C23.6101 18.4716 22.9672 18.9299 22.5395 19.5679C22.1119 20.2059 21.929 20.9798 22.025 21.7446C22.121 22.5093 22.4893 23.2124 23.061 23.722C23.6327 24.2315 24.3685 24.5127 25.1304 24.5127C25.8924 24.5127 26.6281 24.2315 27.1998 23.722C27.7715 23.2124 28.1399 22.5093 28.2359 21.7446C28.3319 20.9798 28.149 20.2059 27.7213 19.5679C27.2937 18.9299 26.6508 18.4716 25.913 18.2789V17.3881C25.913 16.9681 26.078 16.5653 26.3715 16.2683C26.665 15.9713 27.0631 15.8045 27.4783 15.8045H34.5217C35.352 15.8045 36.1482 15.4708 36.7353 14.8768C37.3224 14.2829 37.6522 13.4773 37.6522 12.6373V11.7465C38.3239 11.57 38.9188 11.173 39.3436 10.6178C39.7685 10.0626 39.9993 9.38047 40 8.6783ZM23.5652 8.6783C23.5652 8.36509 23.657 8.05892 23.829 7.7985C24.001 7.53808 24.2455 7.3351 24.5315 7.21524C24.8175 7.09538 25.1322 7.06402 25.4358 7.12513C25.7394 7.18623 26.0183 7.33705 26.2372 7.55852C26.4561 7.78 26.6052 8.06217 26.6656 8.36935C26.726 8.67654 26.695 8.99495 26.5765 9.28432C26.458 9.57368 26.2574 9.821 26 9.99501C25.7426 10.169 25.44 10.2619 25.1304 10.2619C24.7153 10.2619 24.3172 10.0951 24.0237 9.79807C23.7301 9.50109 23.5652 9.0983 23.5652 8.6783ZM26.6957 21.3471C26.6957 21.6603 26.6039 21.9665 26.4319 22.2269C26.2599 22.4873 26.0154 22.6903 25.7294 22.8101C25.4434 22.93 25.1287 22.9614 24.8251 22.9003C24.5215 22.8392 24.2426 22.6883 24.0237 22.4669C23.8048 22.2454 23.6557 21.9632 23.5953 21.656C23.5349 21.3488 23.5659 21.0304 23.6844 20.7411C23.8028 20.4517 24.0035 20.2044 24.2609 20.0304C24.5183 19.8564 24.8209 19.7635 25.1304 19.7635C25.5456 19.7635 25.9437 19.9303 26.2372 20.2273C26.5308 20.5243 26.6957 20.9271 26.6957 21.3471ZM36.8696 10.2619C36.56 10.2619 36.2574 10.169 36 9.99501C35.7426 9.821 35.542 9.57368 35.4235 9.28432C35.305 8.99495 35.274 8.67654 35.3344 8.36935C35.3948 8.06217 35.5439 7.78 35.7628 7.55852C35.9817 7.33705 36.2606 7.18623 36.5642 7.12513C36.8678 7.06402 37.1825 7.09538 37.4685 7.21524C37.7546 7.3351 37.999 7.53808 38.171 7.7985C38.343 8.05892 38.4348 8.36509 38.4348 8.6783C38.4348 9.0983 38.2699 9.50109 37.9763 9.79807C37.6828 10.0951 37.2847 10.2619 36.8696 10.2619Z" fill="#666666"/>
<path id="develop_2" d="M48.4091 20.6831C47.7045 20.6831 47.0758 20.5032 46.5227 20.1434C45.9735 19.7797 45.5417 19.2627 45.2273 18.5922C44.9167 17.918 44.7614 17.1093 44.7614 16.1661C44.7614 15.2229 44.9186 14.4161 45.233 13.7456C45.5511 13.0752 45.9867 12.5619 46.5398 12.2059C47.0928 11.8498 47.7197 11.6718 48.4205 11.6718C48.9621 11.6718 49.3977 11.7627 49.7273 11.9445C50.0606 12.1225 50.3182 12.3309 50.5 12.5695C50.6856 12.8081 50.8295 13.0184 50.9318 13.2002H51.0341V8.87633H52.733V20.5127H51.0739V19.1547H50.9318C50.8295 19.3403 50.6818 19.5525 50.4886 19.7911C50.2992 20.0297 50.0379 20.2381 49.7045 20.4161C49.3712 20.5941 48.9394 20.6831 48.4091 20.6831ZM48.7841 19.2343C49.2727 19.2343 49.6856 19.1055 50.0227 18.8479C50.3636 18.5866 50.6212 18.2248 50.7955 17.7627C50.9735 17.3006 51.0625 16.7627 51.0625 16.1491C51.0625 15.543 50.9754 15.0127 50.8011 14.5581C50.6269 14.1036 50.3712 13.7494 50.0341 13.4956C49.697 13.2419 49.2803 13.115 48.7841 13.115C48.2727 13.115 47.8466 13.2475 47.5057 13.5127C47.1648 13.7778 46.9072 14.1396 46.733 14.5979C46.5625 15.0563 46.4773 15.5733 46.4773 16.1491C46.4773 16.7324 46.5644 17.257 46.7386 17.7229C46.9129 18.1888 47.1705 18.5581 47.5114 18.8309C47.8561 19.0998 48.2803 19.2343 48.7841 19.2343ZM58.919 20.6888C58.0592 20.6888 57.3187 20.5051 56.6974 20.1377C56.08 19.7665 55.6027 19.2456 55.2656 18.5752C54.9323 17.901 54.7656 17.1112 54.7656 16.2059C54.7656 15.3119 54.9323 14.5241 55.2656 13.8422C55.6027 13.1604 56.0724 12.6282 56.6747 12.2456C57.2808 11.8631 57.9891 11.6718 58.7997 11.6718C59.2921 11.6718 59.7694 11.7532 60.2315 11.9161C60.6937 12.079 61.1084 12.3347 61.4759 12.6831C61.8433 13.0316 62.133 13.4843 62.3452 14.0411C62.5573 14.5941 62.6634 15.2665 62.6634 16.0581V16.6604H55.7259V15.3877H60.9986C60.9986 14.9407 60.9077 14.5449 60.7259 14.2002C60.544 13.8517 60.2884 13.5771 59.9588 13.3763C59.633 13.1756 59.2505 13.0752 58.8111 13.0752C58.3338 13.0752 57.9171 13.1926 57.5611 13.4275C57.2088 13.6585 56.9361 13.9616 56.7429 14.3366C56.5535 14.7078 56.4588 15.1112 56.4588 15.5468V16.5411C56.4588 17.1244 56.5611 17.6206 56.7656 18.0297C56.974 18.4388 57.2637 18.7513 57.6349 18.9672C58.0062 19.1794 58.4399 19.2854 58.9361 19.2854C59.258 19.2854 59.5516 19.24 59.8168 19.1491C60.0819 19.0544 60.3111 18.9142 60.5043 18.7286C60.6974 18.543 60.8452 18.3138 60.9474 18.0411L62.5554 18.3309C62.4266 18.8044 62.1955 19.2191 61.8622 19.5752C61.5327 19.9275 61.1179 20.2021 60.6179 20.3991C60.1217 20.5922 59.5554 20.6888 58.919 20.6888ZM71.7642 11.7854L68.5994 20.5127H66.7812L63.6108 11.7854H65.4347L67.6449 18.5013H67.7358L69.9403 11.7854H71.7642ZM76.8253 20.6888C75.9654 20.6888 75.2249 20.5051 74.6037 20.1377C73.9863 19.7665 73.509 19.2456 73.1719 18.5752C72.8385 17.901 72.6719 17.1112 72.6719 16.2059C72.6719 15.3119 72.8385 14.5241 73.1719 13.8422C73.509 13.1604 73.9787 12.6282 74.581 12.2456C75.187 11.8631 75.8954 11.6718 76.706 11.6718C77.1984 11.6718 77.6757 11.7532 78.1378 11.9161C78.5999 12.079 79.0147 12.3347 79.3821 12.6831C79.7495 13.0316 80.0393 13.4843 80.2514 14.0411C80.4635 14.5941 80.5696 15.2665 80.5696 16.0581V16.6604H73.6321V15.3877H78.9048C78.9048 14.9407 78.8139 14.5449 78.6321 14.2002C78.4503 13.8517 78.1946 13.5771 77.8651 13.3763C77.5393 13.1756 77.1567 13.0752 76.7173 13.0752C76.2401 13.0752 75.8234 13.1926 75.4673 13.4275C75.1151 13.6585 74.8423 13.9616 74.6491 14.3366C74.4598 14.7078 74.3651 15.1112 74.3651 15.5468V16.5411C74.3651 17.1244 74.4673 17.6206 74.6719 18.0297C74.8802 18.4388 75.17 18.7513 75.5412 18.9672C75.9124 19.1794 76.3461 19.2854 76.8423 19.2854C77.1643 19.2854 77.4579 19.24 77.723 19.1491C77.9882 19.0544 78.2173 18.9142 78.4105 18.7286C78.6037 18.543 78.7514 18.3138 78.8537 18.0411L80.4616 18.3309C80.3329 18.8044 80.1018 19.2191 79.7685 19.5752C79.4389 19.9275 79.0241 20.2021 78.5241 20.3991C78.0279 20.5922 77.4616 20.6888 76.8253 20.6888ZM84.1534 8.87633V20.5127H82.4545V8.87633H84.1534ZM90.1151 20.6888C89.2969 20.6888 88.5829 20.5013 87.973 20.1263C87.3632 19.7513 86.8897 19.2267 86.5526 18.5525C86.2154 17.8782 86.0469 17.0903 86.0469 16.1888C86.0469 15.2835 86.2154 14.4919 86.5526 13.8138C86.8897 13.1358 87.3632 12.6093 87.973 12.2343C88.5829 11.8593 89.2969 11.6718 90.1151 11.6718C90.9332 11.6718 91.6473 11.8593 92.2571 12.2343C92.867 12.6093 93.3404 13.1358 93.6776 13.8138C94.0147 14.4919 94.1832 15.2835 94.1832 16.1888C94.1832 17.0903 94.0147 17.8782 93.6776 18.5525C93.3404 19.2267 92.867 19.7513 92.2571 20.1263C91.6473 20.5013 90.9332 20.6888 90.1151 20.6888ZM90.1207 19.2627C90.651 19.2627 91.0904 19.1225 91.4389 18.8422C91.7874 18.5619 92.045 18.1888 92.2116 17.7229C92.3821 17.257 92.4673 16.7438 92.4673 16.1831C92.4673 15.6263 92.3821 15.115 92.2116 14.6491C92.045 14.1794 91.7874 13.8025 91.4389 13.5184C91.0904 13.2343 90.651 13.0922 90.1207 13.0922C89.5866 13.0922 89.1435 13.2343 88.7912 13.5184C88.4427 13.8025 88.1832 14.1794 88.0128 14.6491C87.8461 15.115 87.7628 15.6263 87.7628 16.1831C87.7628 16.7438 87.8461 17.257 88.0128 17.7229C88.1832 18.1888 88.4427 18.5619 88.7912 18.8422C89.1435 19.1225 89.5866 19.2627 90.1207 19.2627ZM96.0795 23.7854V11.7854H97.7386V13.2002H97.8807C97.9792 13.0184 98.1212 12.8081 98.3068 12.5695C98.4924 12.3309 98.75 12.1225 99.0795 11.9445C99.4091 11.7627 99.8447 11.6718 100.386 11.6718C101.091 11.6718 101.72 11.8498 102.273 12.2059C102.826 12.5619 103.259 13.0752 103.574 13.7456C103.892 14.4161 104.051 15.2229 104.051 16.1661C104.051 17.1093 103.894 17.918 103.58 18.5922C103.265 19.2627 102.833 19.7797 102.284 20.1434C101.735 20.5032 101.108 20.6831 100.403 20.6831C99.8731 20.6831 99.4394 20.5941 99.1023 20.4161C98.7689 20.2381 98.5076 20.0297 98.3182 19.7911C98.1288 19.5525 97.983 19.3403 97.8807 19.1547H97.7784V23.7854H96.0795ZM97.7443 16.1491C97.7443 16.7627 97.8333 17.3006 98.0114 17.7627C98.1894 18.2248 98.447 18.5866 98.7841 18.8479C99.1212 19.1055 99.5341 19.2343 100.023 19.2343C100.53 19.2343 100.955 19.0998 101.295 18.8309C101.636 18.5581 101.894 18.1888 102.068 17.7229C102.246 17.257 102.335 16.7324 102.335 16.1491C102.335 15.5733 102.248 15.0563 102.074 14.5979C101.903 14.1396 101.646 13.7778 101.301 13.5127C100.96 13.2475 100.534 13.115 100.023 13.115C99.5303 13.115 99.1136 13.2419 98.7727 13.4956C98.4356 13.7494 98.1799 14.1036 98.0057 14.5581C97.8314 15.0127 97.7443 15.543 97.7443 16.1491Z" fill="black"/>
</g>
</g>
</svg>
