<svg width="720" height="47" viewBox="0 0 720 47" fill="none" xmlns="http://www.w3.org/2000/svg">
<g id="edit">
<path id="Line 20" d="M1 1H719" stroke="url(#paint0_linear_614_811)" stroke-width="0.7" stroke-linecap="round"/>
<path id="edit_2" d="M693.423 46.7501C693.086 46.7501 692.806 46.6388 692.584 46.4161C692.361 46.1934 692.25 45.9138 692.25 45.5771V43.4146C692.25 43.0963 692.313 42.7899 692.44 42.4956C692.567 42.2012 692.738 41.9496 692.953 41.7406L712.893 21.8002C713.072 21.6378 713.278 21.5081 713.51 21.4111C713.741 21.3141 713.984 21.2656 714.237 21.2656C714.48 21.2656 714.717 21.3113 714.949 21.4026C715.18 21.494 715.391 21.6291 715.581 21.8079L717.215 23.4493C717.404 23.6332 717.54 23.8429 717.624 24.0782C717.708 24.3136 717.749 24.5489 717.749 24.7843C717.749 25.0282 717.703 25.2686 717.61 25.5055C717.518 25.7424 717.386 25.9505 717.215 26.1299L697.259 46.0463C697.05 46.2617 696.798 46.4328 696.504 46.5597C696.21 46.6867 695.903 46.7501 695.585 46.7501H693.423ZM713.972 26.6434L715.849 24.78L714.245 23.1656L712.372 25.0435L713.972 26.6434Z" fill="#454545"/>
</g>
<defs>
<linearGradient id="paint0_linear_614_811" x1="719" y1="1" x2="1" y2="1" gradientUnits="userSpaceOnUse">
<stop stop-color="#AD51DE"/>
<stop offset="1" stop-color="#76CAE8"/>
</linearGradient>
</defs>
</svg>
