<svg width="40" height="40" viewBox="0 0 40 40" fill="none" xmlns="http://www.w3.org/2000/svg">
<mask id="mask0_991_815" style="mask-type:alpha" maskUnits="userSpaceOnUse" x="0" y="0" width="40" height="40">
<rect width="40" height="40" fill="#D9D9D9"/>
</mask>
<g mask="url(#mask0_991_815)">
<path d="M19.9999 22.2852C19.7841 22.2852 19.5791 22.2589 19.385 22.2062C19.1909 22.1535 18.9945 22.0776 18.7958 21.9786L4.70824 14.5417C4.46893 14.4042 4.29693 14.2372 4.19224 14.0406C4.08752 13.8441 4.03516 13.6261 4.03516 13.3868C4.03516 13.1546 4.08752 12.9402 4.19224 12.7436C4.29693 12.5471 4.46893 12.38 4.70824 12.2426L18.7958 4.80565C18.9945 4.70665 19.1909 4.63079 19.385 4.57806C19.5791 4.52537 19.7841 4.49902 19.9999 4.49902C20.2157 4.49902 20.4206 4.52537 20.6147 4.57806C20.8088 4.63079 21.0052 4.70665 21.2039 4.80565L35.3075 12.2426C35.5468 12.38 35.7217 12.5471 35.8321 12.7436C35.9425 12.9402 35.9977 13.1546 35.9977 13.3868C35.9977 13.6261 35.9425 13.8441 35.8321 14.0406C35.7217 14.2372 35.5468 14.4042 35.3075 14.5417L21.2039 21.9786C21.0052 22.0776 20.8088 22.1535 20.6147 22.2062C20.4206 22.2589 20.2157 22.2852 19.9999 22.2852ZM19.9999 20.2223L33.1452 13.3868L19.9999 6.56198L6.89828 13.3868L19.9999 20.2223ZM19.9999 26.8419L33.8524 19.578C33.9187 19.5467 34.1096 19.5243 34.4251 19.5107C34.6872 19.5321 34.9085 19.6364 35.0891 19.8238C35.2696 20.0111 35.3599 20.245 35.3599 20.5256C35.3599 20.7151 35.3166 20.885 35.2301 21.0353C35.1435 21.1856 35.0055 21.317 34.8161 21.4295L21.2039 28.5812C21.0052 28.6873 20.8088 28.7649 20.6147 28.8141C20.4206 28.8632 20.2157 28.8878 19.9999 28.8878C19.7841 28.8878 19.5791 28.8632 19.385 28.8141C19.1909 28.7649 18.9945 28.6873 18.7958 28.5812L5.22745 21.4295C5.038 21.317 4.89556 21.1856 4.80011 21.0353C4.70467 20.885 4.65695 20.7151 4.65695 20.5256C4.65695 20.245 4.74989 20.0111 4.93578 19.8238C5.12167 19.6364 5.34566 19.5321 5.60774 19.5107C5.71388 19.4894 5.81396 19.486 5.90799 19.5006C6.00199 19.5152 6.09635 19.5503 6.19107 19.6058L19.9999 26.8419ZM19.9999 33.4552L33.8524 26.1913C33.9187 26.1528 34.1096 26.1268 34.4251 26.1133C34.6872 26.1418 34.9085 26.2497 35.0891 26.437C35.2696 26.6243 35.3599 26.8547 35.3599 27.1282C35.3599 27.3177 35.3166 27.4893 35.2301 27.6431C35.1435 27.797 35.0055 27.9302 34.8161 28.0427L21.2039 35.1944C21.0052 35.3005 20.8088 35.3782 20.6147 35.4273C20.4206 35.4765 20.2157 35.501 19.9999 35.501C19.7841 35.501 19.5791 35.4765 19.385 35.4273C19.1909 35.3782 18.9945 35.3005 18.7958 35.1944L5.22745 28.0427C5.038 27.9302 4.89556 27.797 4.80011 27.6431C4.70467 27.4893 4.65695 27.3177 4.65695 27.1282C4.65695 26.8547 4.74989 26.6243 4.93578 26.437C5.12167 26.2497 5.34566 26.1418 5.60774 26.1133C5.71388 26.099 5.81396 26.0992 5.90799 26.1138C6.00199 26.1284 6.09635 26.1599 6.19107 26.2084L19.9999 33.4552Z" fill="white"/>
</g>
</svg>
