<svg width="55" height="53" viewBox="0 0 55 53" fill="none" xmlns="http://www.w3.org/2000/svg">
<path id="Vector 3" d="M20.8349 42.7025C20.8699 40.8411 21.9865 39.5714 22.5405 39.1693C13.7061 38.1783 10.8196 34.128 10.0762 28.3542C9.33267 22.5805 11.4319 19.909 12.744 18.4871C11.9567 17.0222 12.0442 13.015 13.0501 11.1622C14.7995 10.6452 19.3479 12.9288 20.6162 14.006C21.5346 13.1012 30.9813 12.4118 34.6113 14.006C38.11 11.5069 41.565 10.7745 42.0461 11.2915C42.5272 11.8086 43.4019 16.1173 42.2648 18.4871C45.6761 21.848 46.2446 29.216 43.0083 34.0849C39.2034 38.5229 36.7105 38.3075 32.512 39.1693C33.8415 40.1 34.2905 42.1423 34.3488 43.0471C34.3634 44.5696 34.3838 48.0367 34.3488 49.7257C34.3051 51.837 34.2614 52.311 35.0923 52.8712C35.9233 53.4313 38.941 51.837 40.7341 50.9753C42.5272 50.1135 46.2446 47.8299 49.9183 43.0472C53.592 38.2644 55.6476 31.8443 54.8166 23.6577C53.9857 15.471 48.3002 7.62906 41.6525 3.83735C35.0049 0.0456288 23.7213 -2.45346 13.1813 3.83735C2.6413 10.1282 -3.04422 23.3561 1.67912 36.1962C6.40245 49.0363 16.3302 52.2248 18.5169 52.8712C20.2663 53.3882 20.7036 52.2248 20.7036 51.5785V46.4942C19.3479 46.925 17.2486 46.7958 15.5867 46.6234C14.1435 46.5373 11.9567 45.417 11.2133 43.0472C10.4698 40.6773 8.72039 39.6001 8.54546 39.5571C8.37052 39.514 6.97101 38.523 7.27715 38.049C7.5833 37.575 8.72039 37.6612 9.85749 38.049C10.9946 38.4368 12.5253 39.8156 13.1813 41.1513C13.7061 42.2199 15.1494 43.0041 15.8054 43.2626C16.5635 43.5355 18.6306 43.8055 20.8349 42.7025Z" fill="black"/>
</svg>
