<svg width="56" height="56" viewBox="0 0 56 56" fill="none" xmlns="http://www.w3.org/2000/svg">
<g id="arrow_back_ios">
<mask id="mask0_212_543" style="mask-type:alpha" maskUnits="userSpaceOnUse" x="0" y="-1" width="56" height="57">
<rect id="Bounding box" y="23.3721" width="40" height="40" transform="rotate(-35.7564 0 23.3721)" fill="#D9D9D9"/>
</mask>
<g mask="url(#mask0_212_543)">
<path id="arrow_back_ios_2" d="M15.5137 36.8469L33.6371 39.7888C34.0201 39.8562 34.3291 40.0531 34.5643 40.3794C34.7994 40.7057 34.8902 41.0664 34.8366 41.4616C34.7681 41.8675 34.5706 42.1879 34.2444 42.4229C33.9181 42.6578 33.553 42.7421 33.1489 42.6759L14.7108 39.6737C14.345 39.6167 14.0218 39.4936 13.7411 39.3042C13.4604 39.1149 13.2267 38.8906 13.04 38.6314C12.8534 38.3722 12.7135 38.0792 12.6205 37.7526C12.5275 37.4259 12.5113 37.0762 12.572 36.7034L15.5764 18.2427C15.6446 17.8363 15.8424 17.5205 16.1699 17.2953C16.4974 17.07 16.8635 16.9903 17.2681 17.0561C17.6577 17.1328 17.9705 17.3301 18.2065 17.6482C18.4426 17.9662 18.5305 18.3254 18.4705 18.7259L15.5137 36.8469Z" fill="white" fill-opacity="0.7"/>
</g>
</g>
</svg>
