<svg width="668" height="24" viewBox="0 0 668 24" fill="none" xmlns="http://www.w3.org/2000/svg">
<g id="menu">
<g id="Issues">
<g id="adjust">
<mask id="mask0_438_1001" style="mask-type:alpha" maskUnits="userSpaceOnUse" x="93" y="0" width="24" height="24">
<rect id="Bounding box" x="93" width="24" height="24" fill="#D9D9D9"/>
</mask>
<g mask="url(#mask0_438_1001)">
<path id="adjust_2" d="M105 14C105.564 14 106.038 13.8077 106.423 13.4231C106.808 13.0385 107 12.5641 107 12C107 11.4359 106.808 10.9615 106.423 10.5769C106.038 10.1923 105.564 10 105 10C104.436 10 103.962 10.1923 103.577 10.5769C103.192 10.9615 103 11.4359 103 12C103 12.5641 103.192 13.0385 103.577 13.4231C103.962 13.8077 104.436 14 105 14ZM105.003 21C103.759 21 102.589 20.7638 101.493 20.2915C100.397 19.8192 99.4444 19.1782 98.634 18.3685C97.8235 17.5588 97.1819 16.6066 96.7091 15.512C96.2364 14.4174 96 13.2479 96 12.0034C96 10.7588 96.2362 9.58872 96.7085 8.4931C97.1808 7.39748 97.8218 6.44444 98.6315 5.63398C99.4412 4.82353 100.393 4.18192 101.488 3.70915C102.583 3.23638 103.752 3 104.997 3C106.241 3 107.411 3.23616 108.507 3.70847C109.603 4.18081 110.556 4.82182 111.366 5.63152C112.176 6.44122 112.818 7.39337 113.291 8.48795C113.764 9.58255 114 10.7521 114 11.9966C114 13.2412 113.764 14.4113 113.292 15.5069C112.819 16.6025 112.178 17.5556 111.368 18.366C110.559 19.1765 109.607 19.8181 108.512 20.2909C107.417 20.7636 106.248 21 105.003 21ZM105 20C107.233 20 109.125 19.225 110.675 17.675C112.225 16.125 113 14.2333 113 12C113 9.76667 112.225 7.875 110.675 6.325C109.125 4.775 107.233 4 105 4C102.767 4 100.875 4.775 99.325 6.325C97.775 7.875 97 9.76667 97 12C97 14.2333 97.775 16.125 99.325 17.675C100.875 19.225 102.767 20 105 20Z" fill="#1C1B1F"/>
</g>
</g>
<path id="Issues_2" d="M123.818 6.36364V18H122.409V6.36364H123.818ZM132.643 11.2273L131.439 11.5682C131.363 11.3674 131.251 11.1723 131.104 10.983C130.96 10.7898 130.763 10.6307 130.513 10.5057C130.263 10.3807 129.943 10.3182 129.553 10.3182C129.018 10.3182 128.573 10.4413 128.217 10.6875C127.865 10.9299 127.689 11.2386 127.689 11.6136C127.689 11.947 127.81 12.2102 128.053 12.4034C128.295 12.5966 128.674 12.7576 129.189 12.8864L130.484 13.2045C131.265 13.3939 131.846 13.6837 132.229 14.0739C132.611 14.4602 132.803 14.9583 132.803 15.5682C132.803 16.0682 132.659 16.5152 132.371 16.9091C132.087 17.303 131.689 17.6136 131.178 17.8409C130.666 18.0682 130.071 18.1818 129.393 18.1818C128.503 18.1818 127.767 17.9886 127.183 17.6023C126.6 17.2159 126.231 16.6515 126.075 15.9091L127.348 15.5909C127.469 16.0606 127.698 16.4129 128.036 16.6477C128.376 16.8826 128.821 17 129.371 17C129.996 17 130.492 16.8674 130.859 16.6023C131.231 16.3333 131.416 16.0114 131.416 15.6364C131.416 15.3333 131.31 15.0795 131.098 14.875C130.886 14.6667 130.56 14.5114 130.121 14.4091L128.666 14.0682C127.867 13.8788 127.28 13.5852 126.905 13.1875C126.534 12.786 126.348 12.2841 126.348 11.6818C126.348 11.1894 126.486 10.7538 126.763 10.375C127.043 9.99621 127.424 9.69886 127.905 9.48295C128.39 9.26705 128.939 9.15909 129.553 9.15909C130.416 9.15909 131.094 9.34848 131.587 9.72727C132.083 10.1061 132.435 10.6061 132.643 11.2273ZM141.003 11.2273L139.798 11.5682C139.723 11.3674 139.611 11.1723 139.463 10.983C139.319 10.7898 139.122 10.6307 138.872 10.5057C138.622 10.3807 138.302 10.3182 137.912 10.3182C137.378 10.3182 136.933 10.4413 136.577 10.6875C136.224 10.9299 136.048 11.2386 136.048 11.6136C136.048 11.947 136.17 12.2102 136.412 12.4034C136.654 12.5966 137.033 12.7576 137.548 12.8864L138.844 13.2045C139.624 13.3939 140.205 13.6837 140.588 14.0739C140.971 14.4602 141.162 14.9583 141.162 15.5682C141.162 16.0682 141.018 16.5152 140.73 16.9091C140.446 17.303 140.048 17.6136 139.537 17.8409C139.026 18.0682 138.431 18.1818 137.753 18.1818C136.863 18.1818 136.126 17.9886 135.543 17.6023C134.959 17.2159 134.59 16.6515 134.435 15.9091L135.707 15.5909C135.829 16.0606 136.058 16.4129 136.395 16.6477C136.736 16.8826 137.181 17 137.73 17C138.355 17 138.851 16.8674 139.219 16.6023C139.59 16.3333 139.776 16.0114 139.776 15.6364C139.776 15.3333 139.67 15.0795 139.457 14.875C139.245 14.6667 138.92 14.5114 138.48 14.4091L137.026 14.0682C136.226 13.8788 135.639 13.5852 135.264 13.1875C134.893 12.786 134.707 12.2841 134.707 11.6818C134.707 11.1894 134.846 10.7538 135.122 10.375C135.402 9.99621 135.783 9.69886 136.264 9.48295C136.749 9.26705 137.298 9.15909 137.912 9.15909C138.776 9.15909 139.454 9.34848 139.946 9.72727C140.442 10.1061 140.795 10.6061 141.003 11.2273ZM148.68 14.4318V9.27273H150.021V18H148.68V16.5227H148.589C148.385 16.9659 148.067 17.3428 147.635 17.6534C147.203 17.9602 146.658 18.1136 145.999 18.1136C145.453 18.1136 144.968 17.9943 144.544 17.7557C144.12 17.5133 143.786 17.1496 143.544 16.6648C143.302 16.1761 143.18 15.5606 143.18 14.8182V9.27273H144.521V14.7273C144.521 15.3636 144.699 15.8712 145.055 16.25C145.415 16.6288 145.874 16.8182 146.43 16.8182C146.764 16.8182 147.103 16.733 147.447 16.5625C147.796 16.392 148.088 16.1307 148.322 15.7784C148.561 15.4261 148.68 14.9773 148.68 14.4318ZM156.136 18.1818C155.295 18.1818 154.57 17.9962 153.96 17.625C153.354 17.25 152.886 16.7273 152.557 16.0568C152.231 15.3826 152.068 14.5985 152.068 13.7045C152.068 12.8106 152.231 12.0227 152.557 11.3409C152.886 10.6553 153.345 10.1212 153.932 9.73864C154.523 9.35227 155.212 9.15909 156 9.15909C156.455 9.15909 156.903 9.23485 157.347 9.38636C157.79 9.53788 158.193 9.78409 158.557 10.125C158.92 10.4621 159.21 10.9091 159.426 11.4659C159.642 12.0227 159.75 12.7083 159.75 13.5227V14.0909H153.023V12.9318H158.386C158.386 12.4394 158.288 12 158.091 11.6136C157.898 11.2273 157.621 10.9223 157.261 10.6989C156.905 10.4754 156.485 10.3636 156 10.3636C155.466 10.3636 155.004 10.4962 154.614 10.7614C154.227 11.0227 153.93 11.3636 153.722 11.7841C153.513 12.2045 153.409 12.6553 153.409 13.1364V13.9091C153.409 14.5682 153.523 15.1269 153.75 15.5852C153.981 16.0398 154.301 16.3864 154.71 16.625C155.119 16.8598 155.595 16.9773 156.136 16.9773C156.489 16.9773 156.807 16.928 157.091 16.8295C157.379 16.7273 157.627 16.5758 157.835 16.375C158.044 16.1705 158.205 15.9167 158.318 15.6136L159.614 15.9773C159.477 16.4167 159.248 16.803 158.926 17.1364C158.604 17.4659 158.206 17.7235 157.733 17.9091C157.259 18.0909 156.727 18.1818 156.136 18.1818ZM167.972 11.2273L166.767 11.5682C166.691 11.3674 166.58 11.1723 166.432 10.983C166.288 10.7898 166.091 10.6307 165.841 10.5057C165.591 10.3807 165.271 10.3182 164.881 10.3182C164.347 10.3182 163.902 10.4413 163.545 10.6875C163.193 10.9299 163.017 11.2386 163.017 11.6136C163.017 11.947 163.138 12.2102 163.381 12.4034C163.623 12.5966 164.002 12.7576 164.517 12.8864L165.812 13.2045C166.593 13.3939 167.174 13.6837 167.557 14.0739C167.939 14.4602 168.131 14.9583 168.131 15.5682C168.131 16.0682 167.987 16.5152 167.699 16.9091C167.415 17.303 167.017 17.6136 166.506 17.8409C165.994 18.0682 165.4 18.1818 164.722 18.1818C163.831 18.1818 163.095 17.9886 162.511 17.6023C161.928 17.2159 161.559 16.6515 161.403 15.9091L162.676 15.5909C162.797 16.0606 163.027 16.4129 163.364 16.6477C163.705 16.8826 164.15 17 164.699 17C165.324 17 165.82 16.8674 166.188 16.6023C166.559 16.3333 166.744 16.0114 166.744 15.6364C166.744 15.3333 166.638 15.0795 166.426 14.875C166.214 14.6667 165.888 14.5114 165.449 14.4091L163.994 14.0682C163.195 13.8788 162.608 13.5852 162.233 13.1875C161.862 12.786 161.676 12.2841 161.676 11.6818C161.676 11.1894 161.814 10.7538 162.091 10.375C162.371 9.99621 162.752 9.69886 163.233 9.48295C163.718 9.26705 164.267 9.15909 164.881 9.15909C165.744 9.15909 166.422 9.34848 166.915 9.72727C167.411 10.1061 167.763 10.6061 167.972 11.2273Z" fill="black"/>
</g>
<g id="Pull requests">
<g id="account_tree">
<mask id="mask1_438_1001" style="mask-type:alpha" maskUnits="userSpaceOnUse" x="198" y="0" width="24" height="24">
<rect id="Bounding box_2" x="198" width="24" height="24" fill="#D9D9D9"/>
</mask>
<g mask="url(#mask1_438_1001)">
<path id="account_tree_2" d="M213.65 20.3504V17.3504H209.65V7.35039H206.35V10.3504H200.65V3.65039H206.35V6.65039H213.65V3.65039H219.35V10.3504H213.65V7.35039H210.35V16.6504H213.65V13.6504H219.35V20.3504H213.65ZM214.35 9.65039H218.65V4.35039H214.35V9.65039ZM214.35 19.6504H218.65V14.3504H214.35V19.6504ZM201.35 9.65039H205.65V4.35039H201.35V9.65039Z" fill="#1C1B1F"/>
</g>
</g>
<path id="Pull requests_2" d="M227.409 18V6.36364H231.341C232.254 6.36364 233 6.52841 233.58 6.85795C234.163 7.18371 234.595 7.625 234.875 8.18182C235.155 8.73864 235.295 9.35985 235.295 10.0455C235.295 10.7311 235.155 11.3542 234.875 11.9148C234.598 12.4754 234.17 12.9223 233.591 13.2557C233.011 13.5852 232.269 13.75 231.364 13.75H228.545V12.5H231.318C231.943 12.5 232.445 12.392 232.824 12.1761C233.203 11.9602 233.477 11.6686 233.648 11.3011C233.822 10.9299 233.909 10.5114 233.909 10.0455C233.909 9.57955 233.822 9.16288 233.648 8.79545C233.477 8.42803 233.201 8.14015 232.818 7.93182C232.436 7.7197 231.928 7.61364 231.295 7.61364H228.818V18H227.409ZM242.884 14.4318V9.27273H244.224V18H242.884V16.5227H242.793C242.588 16.9659 242.27 17.3428 241.838 17.6534C241.406 17.9602 240.861 18.1136 240.202 18.1136C239.656 18.1136 239.171 17.9943 238.747 17.7557C238.323 17.5133 237.99 17.1496 237.747 16.6648C237.505 16.1761 237.384 15.5606 237.384 14.8182V9.27273H238.724V14.7273C238.724 15.3636 238.902 15.8712 239.259 16.25C239.618 16.6288 240.077 16.8182 240.634 16.8182C240.967 16.8182 241.306 16.733 241.651 16.5625C241.999 16.392 242.291 16.1307 242.526 15.7784C242.764 15.4261 242.884 14.9773 242.884 14.4318ZM248.021 6.36364V18H246.68V6.36364H248.021ZM251.818 6.36364V18H250.477V6.36364H251.818ZM258.774 18V9.27273H260.07V10.5909H260.161C260.32 10.1591 260.607 9.80871 261.024 9.53977C261.441 9.27083 261.911 9.13636 262.433 9.13636C262.532 9.13636 262.655 9.13826 262.803 9.14205C262.95 9.14583 263.062 9.15152 263.138 9.15909V10.5227C263.092 10.5114 262.988 10.4943 262.825 10.4716C262.666 10.4451 262.498 10.4318 262.32 10.4318C261.895 10.4318 261.517 10.5208 261.183 10.6989C260.854 10.8731 260.592 11.1155 260.399 11.4261C260.21 11.733 260.115 12.0833 260.115 12.4773V18H258.774ZM268.121 18.1818C267.28 18.1818 266.554 17.9962 265.945 17.625C265.339 17.25 264.871 16.7273 264.541 16.0568C264.215 15.3826 264.053 14.5985 264.053 13.7045C264.053 12.8106 264.215 12.0227 264.541 11.3409C264.871 10.6553 265.329 10.1212 265.916 9.73864C266.507 9.35227 267.196 9.15909 267.984 9.15909C268.439 9.15909 268.888 9.23485 269.331 9.38636C269.774 9.53788 270.178 9.78409 270.541 10.125C270.905 10.4621 271.195 10.9091 271.411 11.4659C271.626 12.0227 271.734 12.7083 271.734 13.5227V14.0909H265.007V12.9318H270.371C270.371 12.4394 270.272 12 270.075 11.6136C269.882 11.2273 269.606 10.9223 269.246 10.6989C268.89 10.4754 268.469 10.3636 267.984 10.3636C267.45 10.3636 266.988 10.4962 266.598 10.7614C266.212 11.0227 265.914 11.3636 265.706 11.7841C265.498 12.2045 265.393 12.6553 265.393 13.1364V13.9091C265.393 14.5682 265.507 15.1269 265.734 15.5852C265.965 16.0398 266.286 16.3864 266.695 16.625C267.104 16.8598 267.579 16.9773 268.121 16.9773C268.473 16.9773 268.791 16.928 269.075 16.8295C269.363 16.7273 269.611 16.5758 269.82 16.375C270.028 16.1705 270.189 15.9167 270.303 15.6136L271.598 15.9773C271.462 16.4167 271.232 16.803 270.911 17.1364C270.589 17.4659 270.191 17.7235 269.717 17.9091C269.244 18.0909 268.712 18.1818 268.121 18.1818ZM279.729 21.2727V16.6591H279.615C279.517 16.8182 279.376 17.0189 279.195 17.2614C279.013 17.5 278.753 17.714 278.416 17.9034C278.079 18.089 277.63 18.1818 277.07 18.1818C276.342 18.1818 275.7 17.9981 275.143 17.6307C274.587 17.2595 274.151 16.7367 273.837 16.0625C273.522 15.3845 273.365 14.5833 273.365 13.6591C273.365 12.7424 273.522 11.947 273.837 11.2727C274.151 10.5985 274.589 10.0777 275.149 9.71023C275.71 9.3428 276.357 9.15909 277.092 9.15909C277.661 9.15909 278.109 9.25379 278.439 9.44318C278.772 9.62879 279.026 9.84091 279.2 10.0795C279.378 10.3144 279.517 10.5076 279.615 10.6591H279.774V9.27273H281.07V21.2727H279.729ZM277.251 16.9773C277.789 16.9773 278.244 16.8371 278.615 16.5568C278.986 16.2727 279.268 15.8807 279.462 15.3807C279.655 14.8769 279.751 14.2955 279.751 13.6364C279.751 12.9848 279.657 12.4148 279.467 11.9261C279.278 11.4337 278.998 11.0511 278.626 10.7784C278.255 10.5019 277.797 10.3636 277.251 10.3636C276.683 10.3636 276.21 10.5095 275.831 10.8011C275.456 11.089 275.174 11.4811 274.984 11.9773C274.799 12.4697 274.706 13.0227 274.706 13.6364C274.706 14.2576 274.801 14.822 274.99 15.3295C275.183 15.8333 275.467 16.2348 275.842 16.5341C276.221 16.8295 276.691 16.9773 277.251 16.9773ZM289.024 14.4318V9.27273H290.365V18H289.024V16.5227H288.933C288.729 16.9659 288.411 17.3428 287.979 17.6534C287.547 17.9602 287.001 18.1136 286.342 18.1136C285.797 18.1136 285.312 17.9943 284.888 17.7557C284.464 17.5133 284.13 17.1496 283.888 16.6648C283.645 16.1761 283.524 15.5606 283.524 14.8182V9.27273H284.865V14.7273C284.865 15.3636 285.043 15.8712 285.399 16.25C285.759 16.6288 286.217 16.8182 286.774 16.8182C287.107 16.8182 287.446 16.733 287.791 16.5625C288.14 16.392 288.431 16.1307 288.666 15.7784C288.905 15.4261 289.024 14.9773 289.024 14.4318ZM296.48 18.1818C295.639 18.1818 294.914 17.9962 294.304 17.625C293.698 17.25 293.23 16.7273 292.901 16.0568C292.575 15.3826 292.412 14.5985 292.412 13.7045C292.412 12.8106 292.575 12.0227 292.901 11.3409C293.23 10.6553 293.688 10.1212 294.276 9.73864C294.866 9.35227 295.556 9.15909 296.344 9.15909C296.798 9.15909 297.247 9.23485 297.69 9.38636C298.134 9.53788 298.537 9.78409 298.901 10.125C299.264 10.4621 299.554 10.9091 299.77 11.4659C299.986 12.0227 300.094 12.7083 300.094 13.5227V14.0909H293.366V12.9318H298.73C298.73 12.4394 298.632 12 298.435 11.6136C298.241 11.2273 297.965 10.9223 297.605 10.6989C297.249 10.4754 296.829 10.3636 296.344 10.3636C295.81 10.3636 295.348 10.4962 294.957 10.7614C294.571 11.0227 294.274 11.3636 294.065 11.7841C293.857 12.2045 293.753 12.6553 293.753 13.1364V13.9091C293.753 14.5682 293.866 15.1269 294.094 15.5852C294.325 16.0398 294.645 16.3864 295.054 16.625C295.463 16.8598 295.938 16.9773 296.48 16.9773C296.832 16.9773 297.151 16.928 297.435 16.8295C297.723 16.7273 297.971 16.5758 298.179 16.375C298.387 16.1705 298.548 15.9167 298.662 15.6136L299.957 15.9773C299.821 16.4167 299.592 16.803 299.27 17.1364C298.948 17.4659 298.55 17.7235 298.077 17.9091C297.603 18.0909 297.071 18.1818 296.48 18.1818ZM308.315 11.2273L307.111 11.5682C307.035 11.3674 306.923 11.1723 306.776 10.983C306.632 10.7898 306.435 10.6307 306.185 10.5057C305.935 10.3807 305.615 10.3182 305.224 10.3182C304.69 10.3182 304.245 10.4413 303.889 10.6875C303.537 10.9299 303.361 11.2386 303.361 11.6136C303.361 11.947 303.482 12.2102 303.724 12.4034C303.967 12.5966 304.346 12.7576 304.861 12.8864L306.156 13.2045C306.937 13.3939 307.518 13.6837 307.901 14.0739C308.283 14.4602 308.474 14.9583 308.474 15.5682C308.474 16.0682 308.33 16.5152 308.043 16.9091C307.759 17.303 307.361 17.6136 306.849 17.8409C306.338 18.0682 305.743 18.1818 305.065 18.1818C304.175 18.1818 303.438 17.9886 302.855 17.6023C302.272 17.2159 301.902 16.6515 301.747 15.9091L303.02 15.5909C303.141 16.0606 303.37 16.4129 303.707 16.6477C304.048 16.8826 304.493 17 305.043 17C305.668 17 306.164 16.8674 306.531 16.6023C306.902 16.3333 307.088 16.0114 307.088 15.6364C307.088 15.3333 306.982 15.0795 306.77 14.875C306.558 14.6667 306.232 14.5114 305.793 14.4091L304.338 14.0682C303.539 13.8788 302.952 13.5852 302.577 13.1875C302.205 12.786 302.02 12.2841 302.02 11.6818C302.02 11.1894 302.158 10.7538 302.435 10.375C302.715 9.99621 303.096 9.69886 303.577 9.48295C304.062 9.26705 304.611 9.15909 305.224 9.15909C306.088 9.15909 306.766 9.34848 307.259 9.72727C307.755 10.1061 308.107 10.6061 308.315 11.2273ZM314.288 9.27273V10.4091H309.766V9.27273H314.288ZM311.084 7.18182H312.425V15.5C312.425 15.8788 312.48 16.1629 312.589 16.3523C312.703 16.5379 312.847 16.6629 313.021 16.7273C313.199 16.7879 313.387 16.8182 313.584 16.8182C313.732 16.8182 313.853 16.8106 313.947 16.7955C314.042 16.7765 314.118 16.7614 314.175 16.75L314.447 17.9545C314.357 17.9886 314.23 18.0227 314.067 18.0568C313.904 18.0947 313.697 18.1136 313.447 18.1136C313.069 18.1136 312.697 18.0322 312.334 17.8693C311.974 17.7064 311.675 17.4583 311.436 17.125C311.201 16.7917 311.084 16.3712 311.084 15.8636V7.18182ZM322.331 11.2273L321.126 11.5682C321.051 11.3674 320.939 11.1723 320.791 10.983C320.647 10.7898 320.45 10.6307 320.2 10.5057C319.95 10.3807 319.63 10.3182 319.24 10.3182C318.706 10.3182 318.261 10.4413 317.905 10.6875C317.553 10.9299 317.376 11.2386 317.376 11.6136C317.376 11.947 317.498 12.2102 317.74 12.4034C317.982 12.5966 318.361 12.7576 318.876 12.8864L320.172 13.2045C320.952 13.3939 321.534 13.6837 321.916 14.0739C322.299 14.4602 322.49 14.9583 322.49 15.5682C322.49 16.0682 322.346 16.5152 322.058 16.9091C321.774 17.303 321.376 17.6136 320.865 17.8409C320.354 18.0682 319.759 18.1818 319.081 18.1818C318.191 18.1818 317.454 17.9886 316.871 17.6023C316.287 17.2159 315.918 16.6515 315.763 15.9091L317.036 15.5909C317.157 16.0606 317.386 16.4129 317.723 16.6477C318.064 16.8826 318.509 17 319.058 17C319.683 17 320.179 16.8674 320.547 16.6023C320.918 16.3333 321.104 16.0114 321.104 15.6364C321.104 15.3333 320.998 15.0795 320.786 14.875C320.573 14.6667 320.248 14.5114 319.808 14.4091L318.354 14.0682C317.554 13.8788 316.967 13.5852 316.592 13.1875C316.221 12.786 316.036 12.2841 316.036 11.6818C316.036 11.1894 316.174 10.7538 316.45 10.375C316.731 9.99621 317.111 9.69886 317.592 9.48295C318.077 9.26705 318.626 9.15909 319.24 9.15909C320.104 9.15909 320.782 9.34848 321.274 9.72727C321.77 10.1061 322.123 10.6061 322.331 11.2273Z" fill="black"/>
</g>
<g id="Actions">
<g id="arrow_drop_down_circle">
<mask id="mask2_438_1001" style="mask-type:alpha" maskUnits="userSpaceOnUse" x="350" y="0" width="24" height="24">
<rect id="Bounding box_3" x="350" width="24" height="24" fill="#D9D9D9"/>
</mask>
<g mask="url(#mask2_438_1001)">
<path id="arrow_drop_down_circle_2" d="M362 14.4616L365.077 11.3846H358.923L362 14.4616ZM362.003 21C360.759 21 359.589 20.7638 358.493 20.2915C357.397 19.8192 356.444 19.1782 355.634 18.3685C354.824 17.5588 354.182 16.6066 353.709 15.512C353.236 14.4174 353 13.2479 353 12.0034C353 10.7588 353.236 9.58872 353.708 8.4931C354.181 7.39748 354.822 6.44444 355.632 5.63398C356.441 4.82353 357.393 4.18192 358.488 3.70915C359.583 3.23638 360.752 3 361.997 3C363.241 3 364.411 3.23616 365.507 3.70847C366.603 4.18081 367.556 4.82182 368.366 5.63152C369.176 6.44122 369.818 7.39337 370.291 8.48795C370.764 9.58255 371 10.7521 371 11.9966C371 13.2412 370.764 14.4113 370.292 15.5069C369.819 16.6025 369.178 17.5556 368.368 18.366C367.559 19.1765 366.607 19.8181 365.512 20.2909C364.417 20.7636 363.248 21 362.003 21ZM362 20C364.233 20 366.125 19.225 367.675 17.675C369.225 16.125 370 14.2333 370 12C370 9.76667 369.225 7.875 367.675 6.325C366.125 4.775 364.233 4 362 4C359.767 4 357.875 4.775 356.325 6.325C354.775 7.875 354 9.76667 354 12C354 14.2333 354.775 16.125 356.325 17.675C357.875 19.225 359.767 20 362 20Z" fill="#1C1B1F"/>
</g>
</g>
<path id="Actions_2" d="M379.886 18H378.409L382.682 6.36364H384.136L388.409 18H386.932L383.455 8.20455H383.364L379.886 18ZM380.432 13.4545H386.386V14.7045H380.432V13.4545ZM393.585 18.1818C392.767 18.1818 392.063 17.9886 391.472 17.6023C390.881 17.2159 390.426 16.6837 390.108 16.0057C389.79 15.3277 389.631 14.553 389.631 13.6818C389.631 12.7955 389.794 12.0133 390.119 11.3352C390.449 10.6534 390.907 10.1212 391.494 9.73864C392.085 9.35227 392.775 9.15909 393.562 9.15909C394.176 9.15909 394.729 9.27273 395.222 9.5C395.714 9.72727 396.117 10.0455 396.432 10.4545C396.746 10.8636 396.941 11.3409 397.017 11.8864H395.676C395.574 11.4886 395.347 11.1364 394.994 10.8295C394.646 10.5189 394.176 10.3636 393.585 10.3636C393.063 10.3636 392.604 10.5 392.21 10.7727C391.82 11.0417 391.515 11.4223 391.295 11.9148C391.08 12.4034 390.972 12.9773 390.972 13.6364C390.972 14.3106 391.078 14.8977 391.29 15.3977C391.506 15.8977 391.809 16.286 392.199 16.5625C392.593 16.839 393.055 16.9773 393.585 16.9773C393.934 16.9773 394.25 16.9167 394.534 16.7955C394.818 16.6742 395.059 16.5 395.256 16.2727C395.453 16.0455 395.593 15.7727 395.676 15.4545H397.017C396.941 15.9697 396.754 16.4337 396.455 16.8466C396.159 17.2557 395.767 17.5814 395.278 17.8239C394.794 18.0625 394.229 18.1818 393.585 18.1818ZM402.773 9.27273V10.4091H398.25V9.27273H402.773ZM399.568 7.18182H400.909V15.5C400.909 15.8788 400.964 16.1629 401.074 16.3523C401.188 16.5379 401.331 16.6629 401.506 16.7273C401.684 16.7879 401.871 16.8182 402.068 16.8182C402.216 16.8182 402.337 16.8106 402.432 16.7955C402.527 16.7765 402.602 16.7614 402.659 16.75L402.932 17.9545C402.841 17.9886 402.714 18.0227 402.551 18.0568C402.388 18.0947 402.182 18.1136 401.932 18.1136C401.553 18.1136 401.182 18.0322 400.818 17.8693C400.458 17.7064 400.159 17.4583 399.92 17.125C399.686 16.7917 399.568 16.3712 399.568 15.8636V7.18182ZM404.79 18V9.27273H406.131V18H404.79ZM405.472 7.81818C405.21 7.81818 404.985 7.72917 404.795 7.55114C404.61 7.37311 404.517 7.15909 404.517 6.90909C404.517 6.65909 404.61 6.44508 404.795 6.26705C404.985 6.08902 405.21 6 405.472 6C405.733 6 405.956 6.08902 406.142 6.26705C406.331 6.44508 406.426 6.65909 406.426 6.90909C406.426 7.15909 406.331 7.37311 406.142 7.55114C405.956 7.72917 405.733 7.81818 405.472 7.81818ZM412.132 18.1818C411.344 18.1818 410.653 17.9943 410.058 17.6193C409.467 17.2443 409.005 16.7197 408.672 16.0455C408.342 15.3712 408.178 14.5833 408.178 13.6818C408.178 12.7727 408.342 11.9792 408.672 11.3011C409.005 10.6231 409.467 10.0966 410.058 9.72159C410.653 9.34659 411.344 9.15909 412.132 9.15909C412.92 9.15909 413.609 9.34659 414.2 9.72159C414.795 10.0966 415.257 10.6231 415.587 11.3011C415.92 11.9792 416.087 12.7727 416.087 13.6818C416.087 14.5833 415.92 15.3712 415.587 16.0455C415.257 16.7197 414.795 17.2443 414.2 17.6193C413.609 17.9943 412.92 18.1818 412.132 18.1818ZM412.132 16.9773C412.731 16.9773 413.223 16.8239 413.609 16.517C413.996 16.2102 414.282 15.8068 414.467 15.3068C414.653 14.8068 414.746 14.2652 414.746 13.6818C414.746 13.0985 414.653 12.5549 414.467 12.0511C414.282 11.5473 413.996 11.1402 413.609 10.8295C413.223 10.5189 412.731 10.3636 412.132 10.3636C411.534 10.3636 411.041 10.5189 410.655 10.8295C410.268 11.1402 409.982 11.5473 409.797 12.0511C409.611 12.5549 409.518 13.0985 409.518 13.6818C409.518 14.2652 409.611 14.8068 409.797 15.3068C409.982 15.8068 410.268 16.2102 410.655 16.517C411.041 16.8239 411.534 16.9773 412.132 16.9773ZM419.474 12.75V18H418.134V9.27273H419.429V10.6364H419.543C419.747 10.1932 420.058 9.83712 420.474 9.56818C420.891 9.29545 421.429 9.15909 422.088 9.15909C422.679 9.15909 423.196 9.2803 423.639 9.52273C424.082 9.76136 424.427 10.125 424.673 10.6136C424.92 11.0985 425.043 11.7121 425.043 12.4545V18H423.702V12.5455C423.702 11.8598 423.524 11.3258 423.168 10.9432C422.812 10.5568 422.323 10.3636 421.702 10.3636C421.274 10.3636 420.891 10.4564 420.554 10.642C420.221 10.8277 419.957 11.0985 419.764 11.4545C419.571 11.8106 419.474 12.2424 419.474 12.75ZM433.675 11.2273L432.47 11.5682C432.394 11.3674 432.283 11.1723 432.135 10.983C431.991 10.7898 431.794 10.6307 431.544 10.5057C431.294 10.3807 430.974 10.3182 430.584 10.3182C430.05 10.3182 429.605 10.4413 429.249 10.6875C428.896 10.9299 428.72 11.2386 428.72 11.6136C428.72 11.947 428.841 12.2102 429.084 12.4034C429.326 12.5966 429.705 12.7576 430.22 12.8864L431.516 13.2045C432.296 13.3939 432.877 13.6837 433.26 14.0739C433.643 14.4602 433.834 14.9583 433.834 15.5682C433.834 16.0682 433.69 16.5152 433.402 16.9091C433.118 17.303 432.72 17.6136 432.209 17.8409C431.697 18.0682 431.103 18.1818 430.425 18.1818C429.535 18.1818 428.798 17.9886 428.214 17.6023C427.631 17.2159 427.262 16.6515 427.107 15.9091L428.379 15.5909C428.5 16.0606 428.73 16.4129 429.067 16.6477C429.408 16.8826 429.853 17 430.402 17C431.027 17 431.523 16.8674 431.891 16.6023C432.262 16.3333 432.447 16.0114 432.447 15.6364C432.447 15.3333 432.341 15.0795 432.129 14.875C431.917 14.6667 431.591 14.5114 431.152 14.4091L429.697 14.0682C428.898 13.8788 428.311 13.5852 427.936 13.1875C427.565 12.786 427.379 12.2841 427.379 11.6818C427.379 11.1894 427.518 10.7538 427.794 10.375C428.074 9.99621 428.455 9.69886 428.936 9.48295C429.421 9.26705 429.97 9.15909 430.584 9.15909C431.447 9.15909 432.125 9.34848 432.618 9.72727C433.114 10.1061 433.466 10.6061 433.675 11.2273Z" fill="black"/>
</g>
<g id="Projects">
<g id="toolbar">
<mask id="mask3_438_1001" style="mask-type:alpha" maskUnits="userSpaceOnUse" x="463" y="0" width="24" height="24">
<rect id="Bounding box_4" x="463" width="24" height="24" fill="#D9D9D9"/>
</mask>
<g mask="url(#mask3_438_1001)">
<path id="toolbar_2" d="M468.8 19.6998C468.366 19.6998 468.008 19.5581 467.725 19.2748C467.441 18.9915 467.3 18.6331 467.3 18.1998V5.7998C467.3 5.36647 467.441 5.00814 467.725 4.7248C468.008 4.44147 468.366 4.2998 468.8 4.2998H481.2C481.633 4.2998 481.991 4.44147 482.275 4.7248C482.558 5.00814 482.7 5.36647 482.7 5.7998V18.1998C482.7 18.6331 482.558 18.9915 482.275 19.2748C481.991 19.5581 481.633 19.6998 481.2 19.6998H468.8ZM468 7.9998H482V5.7998C482 5.5998 481.916 5.41647 481.75 5.2498C481.583 5.08314 481.4 4.9998 481.2 4.9998H468.8C468.6 4.9998 468.416 5.08314 468.25 5.2498C468.083 5.41647 468 5.5998 468 5.7998V7.9998ZM482 8.6998H468V18.1998C468 18.3998 468.083 18.5831 468.25 18.7498C468.416 18.9165 468.6 18.9998 468.8 18.9998H481.2C481.4 18.9998 481.583 18.9165 481.75 18.7498C481.916 18.5831 482 18.3998 482 18.1998V8.6998Z" fill="#1C1B1F"/>
</g>
</g>
<path id="Projects_2" d="M492.409 18V6.36364H496.341C497.254 6.36364 498 6.52841 498.58 6.85795C499.163 7.18371 499.595 7.625 499.875 8.18182C500.155 8.73864 500.295 9.35985 500.295 10.0455C500.295 10.7311 500.155 11.3542 499.875 11.9148C499.598 12.4754 499.17 12.9223 498.591 13.2557C498.011 13.5852 497.269 13.75 496.364 13.75H493.545V12.5H496.318C496.943 12.5 497.445 12.392 497.824 12.1761C498.203 11.9602 498.477 11.6686 498.648 11.3011C498.822 10.9299 498.909 10.5114 498.909 10.0455C498.909 9.57955 498.822 9.16288 498.648 8.79545C498.477 8.42803 498.201 8.14015 497.818 7.93182C497.436 7.7197 496.928 7.61364 496.295 7.61364H493.818V18H492.409ZM502.384 18V9.27273H503.679V10.5909H503.77C503.929 10.1591 504.217 9.80871 504.634 9.53977C505.05 9.27083 505.52 9.13636 506.043 9.13636C506.141 9.13636 506.264 9.13826 506.412 9.14205C506.56 9.14583 506.671 9.15152 506.747 9.15909V10.5227C506.702 10.5114 506.598 10.4943 506.435 10.4716C506.276 10.4451 506.107 10.4318 505.929 10.4318C505.505 10.4318 505.126 10.5208 504.793 10.6989C504.463 10.8731 504.202 11.1155 504.009 11.4261C503.819 11.733 503.724 12.0833 503.724 12.4773V18H502.384ZM511.616 18.1818C510.829 18.1818 510.137 17.9943 509.543 17.6193C508.952 17.2443 508.49 16.7197 508.156 16.0455C507.827 15.3712 507.662 14.5833 507.662 13.6818C507.662 12.7727 507.827 11.9792 508.156 11.3011C508.49 10.6231 508.952 10.0966 509.543 9.72159C510.137 9.34659 510.829 9.15909 511.616 9.15909C512.404 9.15909 513.094 9.34659 513.685 9.72159C514.279 10.0966 514.741 10.6231 515.071 11.3011C515.404 11.9792 515.571 12.7727 515.571 13.6818C515.571 14.5833 515.404 15.3712 515.071 16.0455C514.741 16.7197 514.279 17.2443 513.685 17.6193C513.094 17.9943 512.404 18.1818 511.616 18.1818ZM511.616 16.9773C512.215 16.9773 512.707 16.8239 513.094 16.517C513.48 16.2102 513.766 15.8068 513.952 15.3068C514.137 14.8068 514.23 14.2652 514.23 13.6818C514.23 13.0985 514.137 12.5549 513.952 12.0511C513.766 11.5473 513.48 11.1402 513.094 10.8295C512.707 10.5189 512.215 10.3636 511.616 10.3636C511.018 10.3636 510.526 10.5189 510.139 10.8295C509.753 11.1402 509.467 11.5473 509.281 12.0511C509.096 12.5549 509.003 13.0985 509.003 13.6818C509.003 14.2652 509.096 14.8068 509.281 15.3068C509.467 15.8068 509.753 16.2102 510.139 16.517C510.526 16.8239 511.018 16.9773 511.616 16.9773ZM517.618 9.27273H518.959V18.6364C518.959 19.1742 518.866 19.6402 518.68 20.0341C518.499 20.428 518.222 20.733 517.851 20.9489C517.483 21.1648 517.019 21.2727 516.459 21.2727C516.413 21.2727 516.368 21.2727 516.322 21.2727C516.277 21.2727 516.232 21.2727 516.186 21.2727V20.0227C516.232 20.0227 516.273 20.0227 516.311 20.0227C516.349 20.0227 516.391 20.0227 516.436 20.0227C516.845 20.0227 517.144 19.9015 517.334 19.6591C517.523 19.4205 517.618 19.0795 517.618 18.6364V9.27273ZM518.277 7.81818C518.016 7.81818 517.79 7.72917 517.601 7.55114C517.415 7.37311 517.322 7.15909 517.322 6.90909C517.322 6.65909 517.415 6.44508 517.601 6.26705C517.79 6.08902 518.016 6 518.277 6C518.538 6 518.762 6.08902 518.947 6.26705C519.137 6.44508 519.232 6.65909 519.232 6.90909C519.232 7.15909 519.137 7.37311 518.947 7.55114C518.762 7.72917 518.538 7.81818 518.277 7.81818ZM525.074 18.1818C524.233 18.1818 523.508 17.9962 522.898 17.625C522.292 17.25 521.824 16.7273 521.494 16.0568C521.169 15.3826 521.006 14.5985 521.006 13.7045C521.006 12.8106 521.169 12.0227 521.494 11.3409C521.824 10.6553 522.282 10.1212 522.869 9.73864C523.46 9.35227 524.15 9.15909 524.938 9.15909C525.392 9.15909 525.841 9.23485 526.284 9.38636C526.727 9.53788 527.131 9.78409 527.494 10.125C527.858 10.4621 528.148 10.9091 528.364 11.4659C528.58 12.0227 528.688 12.7083 528.688 13.5227V14.0909H521.96V12.9318H527.324C527.324 12.4394 527.225 12 527.028 11.6136C526.835 11.2273 526.559 10.9223 526.199 10.6989C525.843 10.4754 525.422 10.3636 524.938 10.3636C524.403 10.3636 523.941 10.4962 523.551 10.7614C523.165 11.0227 522.867 11.3636 522.659 11.7841C522.451 12.2045 522.347 12.6553 522.347 13.1364V13.9091C522.347 14.5682 522.46 15.1269 522.688 15.5852C522.919 16.0398 523.239 16.3864 523.648 16.625C524.057 16.8598 524.532 16.9773 525.074 16.9773C525.426 16.9773 525.744 16.928 526.028 16.8295C526.316 16.7273 526.564 16.5758 526.773 16.375C526.981 16.1705 527.142 15.9167 527.256 15.6136L528.551 15.9773C528.415 16.4167 528.186 16.803 527.864 17.1364C527.542 17.4659 527.144 17.7235 526.67 17.9091C526.197 18.0909 525.665 18.1818 525.074 18.1818ZM534.273 18.1818C533.455 18.1818 532.75 17.9886 532.159 17.6023C531.568 17.2159 531.114 16.6837 530.795 16.0057C530.477 15.3277 530.318 14.553 530.318 13.6818C530.318 12.7955 530.481 12.0133 530.807 11.3352C531.136 10.6534 531.595 10.1212 532.182 9.73864C532.773 9.35227 533.462 9.15909 534.25 9.15909C534.864 9.15909 535.417 9.27273 535.909 9.5C536.402 9.72727 536.805 10.0455 537.119 10.4545C537.434 10.8636 537.629 11.3409 537.705 11.8864H536.364C536.261 11.4886 536.034 11.1364 535.682 10.8295C535.333 10.5189 534.864 10.3636 534.273 10.3636C533.75 10.3636 533.292 10.5 532.898 10.7727C532.508 11.0417 532.203 11.4223 531.983 11.9148C531.767 12.4034 531.659 12.9773 531.659 13.6364C531.659 14.3106 531.765 14.8977 531.977 15.3977C532.193 15.8977 532.496 16.286 532.886 16.5625C533.28 16.839 533.742 16.9773 534.273 16.9773C534.621 16.9773 534.938 16.9167 535.222 16.7955C535.506 16.6742 535.746 16.5 535.943 16.2727C536.14 16.0455 536.28 15.7727 536.364 15.4545H537.705C537.629 15.9697 537.441 16.4337 537.142 16.8466C536.847 17.2557 536.455 17.5814 535.966 17.8239C535.481 18.0625 534.917 18.1818 534.273 18.1818ZM543.46 9.27273V10.4091H538.938V9.27273H543.46ZM540.256 7.18182H541.597V15.5C541.597 15.8788 541.652 16.1629 541.761 16.3523C541.875 16.5379 542.019 16.6629 542.193 16.7273C542.371 16.7879 542.559 16.8182 542.756 16.8182C542.903 16.8182 543.025 16.8106 543.119 16.7955C543.214 16.7765 543.29 16.7614 543.347 16.75L543.619 17.9545C543.528 17.9886 543.402 18.0227 543.239 18.0568C543.076 18.0947 542.869 18.1136 542.619 18.1136C542.241 18.1136 541.869 18.0322 541.506 17.8693C541.146 17.7064 540.847 17.4583 540.608 17.125C540.373 16.7917 540.256 16.3712 540.256 15.8636V7.18182ZM551.503 11.2273L550.298 11.5682C550.223 11.3674 550.111 11.1723 549.963 10.983C549.819 10.7898 549.622 10.6307 549.372 10.5057C549.122 10.3807 548.802 10.3182 548.412 10.3182C547.878 10.3182 547.433 10.4413 547.077 10.6875C546.724 10.9299 546.548 11.2386 546.548 11.6136C546.548 11.947 546.67 12.2102 546.912 12.4034C547.154 12.5966 547.533 12.7576 548.048 12.8864L549.344 13.2045C550.124 13.3939 550.705 13.6837 551.088 14.0739C551.471 14.4602 551.662 14.9583 551.662 15.5682C551.662 16.0682 551.518 16.5152 551.23 16.9091C550.946 17.303 550.548 17.6136 550.037 17.8409C549.526 18.0682 548.931 18.1818 548.253 18.1818C547.363 18.1818 546.626 17.9886 546.043 17.6023C545.459 17.2159 545.09 16.6515 544.935 15.9091L546.207 15.5909C546.329 16.0606 546.558 16.4129 546.895 16.6477C547.236 16.8826 547.681 17 548.23 17C548.855 17 549.351 16.8674 549.719 16.6023C550.09 16.3333 550.276 16.0114 550.276 15.6364C550.276 15.3333 550.17 15.0795 549.957 14.875C549.745 14.6667 549.42 14.5114 548.98 14.4091L547.526 14.0682C546.726 13.8788 546.139 13.5852 545.764 13.1875C545.393 12.786 545.207 12.2841 545.207 11.6818C545.207 11.1894 545.346 10.7538 545.622 10.375C545.902 9.99621 546.283 9.69886 546.764 9.48295C547.249 9.26705 547.798 9.15909 548.412 9.15909C549.276 9.15909 549.954 9.34848 550.446 9.72727C550.942 10.1061 551.295 10.6061 551.503 11.2273Z" fill="black"/>
</g>
<g id="Insights">
<g id="bid_landscape">
<mask id="mask4_438_1001" style="mask-type:alpha" maskUnits="userSpaceOnUse" x="576" y="0" width="24" height="24">
<rect id="Bounding box_5" x="576" width="24" height="24" fill="#D9D9D9"/>
</mask>
<g mask="url(#mask4_438_1001)">
<path id="bid_landscape_2" d="M581.615 20C581.155 20 580.771 19.8458 580.463 19.5375C580.154 19.2292 580 18.8449 580 18.3846V5.61537C580 5.15512 580.154 4.77083 580.463 4.4625C580.771 4.15417 581.155 4 581.615 4H594.385C594.845 4 595.229 4.15417 595.538 4.4625C595.846 4.77083 596 5.15512 596 5.61537V18.3846C596 18.8449 595.846 19.2292 595.538 19.5375C595.229 19.8458 594.845 20 594.385 20H581.615ZM581 16.2192V18.3846C581 18.5385 581.064 18.6795 581.192 18.8077C581.321 18.9359 581.462 19 581.615 19H594.385C594.538 19 594.679 18.9359 594.808 18.8077C594.936 18.6795 595 18.5385 595 18.3846V9.59615L589.242 16L585.231 11.9885L581 16.2192ZM581 14.7923L585.231 10.5615L589.219 14.55L595 8.09615V5.61537C595 5.46154 594.936 5.32052 594.808 5.1923C594.679 5.0641 594.538 5 594.385 5H581.615C581.462 5 581.321 5.0641 581.192 5.1923C581.064 5.32052 581 5.46154 581 5.61537V14.7923ZM581 9.59615V8.09615V14.55V10.5615V16.2192V11.9885V16V9.59615ZM581 14.7923V5V14.55V10.5615V14.7923ZM581 16.2192V11.9885V16V9.59615V19V16.2192Z" fill="#1C1B1F"/>
</g>
</g>
<path id="Insights_2" d="M606.818 6.36364V18H605.409V6.36364H606.818ZM610.803 12.75V18H609.462V9.27273H610.757V10.6364H610.871C611.075 10.1932 611.386 9.83712 611.803 9.56818C612.219 9.29545 612.757 9.15909 613.416 9.15909C614.007 9.15909 614.524 9.2803 614.967 9.52273C615.411 9.76136 615.755 10.125 616.001 10.6136C616.248 11.0985 616.371 11.7121 616.371 12.4545V18H615.03V12.5455C615.03 11.8598 614.852 11.3258 614.496 10.9432C614.14 10.5568 613.651 10.3636 613.03 10.3636C612.602 10.3636 612.219 10.4564 611.882 10.642C611.549 10.8277 611.286 11.0985 611.092 11.4545C610.899 11.8106 610.803 12.2424 610.803 12.75ZM625.003 11.2273L623.798 11.5682C623.723 11.3674 623.611 11.1723 623.463 10.983C623.319 10.7898 623.122 10.6307 622.872 10.5057C622.622 10.3807 622.302 10.3182 621.912 10.3182C621.378 10.3182 620.933 10.4413 620.577 10.6875C620.224 10.9299 620.048 11.2386 620.048 11.6136C620.048 11.947 620.17 12.2102 620.412 12.4034C620.654 12.5966 621.033 12.7576 621.548 12.8864L622.844 13.2045C623.624 13.3939 624.205 13.6837 624.588 14.0739C624.971 14.4602 625.162 14.9583 625.162 15.5682C625.162 16.0682 625.018 16.5152 624.73 16.9091C624.446 17.303 624.048 17.6136 623.537 17.8409C623.026 18.0682 622.431 18.1818 621.753 18.1818C620.863 18.1818 620.126 17.9886 619.543 17.6023C618.959 17.2159 618.59 16.6515 618.435 15.9091L619.707 15.5909C619.829 16.0606 620.058 16.4129 620.395 16.6477C620.736 16.8826 621.181 17 621.73 17C622.355 17 622.851 16.8674 623.219 16.6023C623.59 16.3333 623.776 16.0114 623.776 15.6364C623.776 15.3333 623.67 15.0795 623.457 14.875C623.245 14.6667 622.92 14.5114 622.48 14.4091L621.026 14.0682C620.226 13.8788 619.639 13.5852 619.264 13.1875C618.893 12.786 618.707 12.2841 618.707 11.6818C618.707 11.1894 618.846 10.7538 619.122 10.375C619.402 9.99621 619.783 9.69886 620.264 9.48295C620.749 9.26705 621.298 9.15909 621.912 9.15909C622.776 9.15909 623.454 9.34848 623.946 9.72727C624.442 10.1061 624.795 10.6061 625.003 11.2273ZM627.18 18V9.27273H628.521V18H627.18ZM627.862 7.81818C627.601 7.81818 627.375 7.72917 627.186 7.55114C627 7.37311 626.908 7.15909 626.908 6.90909C626.908 6.65909 627 6.44508 627.186 6.26705C627.375 6.08902 627.601 6 627.862 6C628.124 6 628.347 6.08902 628.533 6.26705C628.722 6.44508 628.817 6.65909 628.817 6.90909C628.817 7.15909 628.722 7.37311 628.533 7.55114C628.347 7.72917 628.124 7.81818 627.862 7.81818ZM634.5 21.4545C633.852 21.4545 633.295 21.3712 632.83 21.2045C632.364 21.0417 631.975 20.8258 631.665 20.5568C631.358 20.2917 631.114 20.0076 630.932 19.7045L632 18.9545C632.121 19.1136 632.275 19.2955 632.46 19.5C632.646 19.7083 632.9 19.8883 633.222 20.0398C633.547 20.1951 633.973 20.2727 634.5 20.2727C635.205 20.2727 635.786 20.1023 636.244 19.7614C636.703 19.4205 636.932 18.8864 636.932 18.1591V16.3864H636.818C636.72 16.5455 636.58 16.7424 636.398 16.9773C636.22 17.2083 635.962 17.4148 635.625 17.5966C635.292 17.7746 634.841 17.8636 634.273 17.8636C633.568 17.8636 632.936 17.697 632.375 17.3636C631.818 17.0303 631.377 16.5455 631.051 15.9091C630.729 15.2727 630.568 14.5 630.568 13.5909C630.568 12.697 630.725 11.9186 631.04 11.2557C631.354 10.589 631.792 10.0739 632.352 9.71023C632.913 9.3428 633.561 9.15909 634.295 9.15909C634.864 9.15909 635.314 9.25379 635.648 9.44318C635.985 9.62879 636.242 9.84091 636.42 10.0795C636.602 10.3144 636.742 10.5076 636.841 10.6591H636.977V9.27273H638.273V18.25C638.273 19 638.102 19.6098 637.761 20.0795C637.424 20.553 636.97 20.8996 636.398 21.1193C635.83 21.3428 635.197 21.4545 634.5 21.4545ZM634.455 16.6591C634.992 16.6591 635.447 16.536 635.818 16.2898C636.189 16.0436 636.472 15.6894 636.665 15.2273C636.858 14.7652 636.955 14.2121 636.955 13.5682C636.955 12.9394 636.86 12.3845 636.67 11.9034C636.481 11.4223 636.201 11.0455 635.83 10.7727C635.458 10.5 635 10.3636 634.455 10.3636C633.886 10.3636 633.413 10.5076 633.034 10.7955C632.659 11.0833 632.377 11.4697 632.188 11.9545C632.002 12.4394 631.909 12.9773 631.909 13.5682C631.909 14.1742 632.004 14.7102 632.193 15.1761C632.386 15.6383 632.67 16.0019 633.045 16.267C633.424 16.5284 633.894 16.6591 634.455 16.6591ZM642.068 12.75V18H640.727V6.36364H642.068V10.6364H642.182C642.386 10.1856 642.693 9.82765 643.102 9.5625C643.515 9.29356 644.064 9.15909 644.75 9.15909C645.345 9.15909 645.866 9.27841 646.312 9.51705C646.759 9.75189 647.106 10.1136 647.352 10.6023C647.602 11.0871 647.727 11.7045 647.727 12.4545V18H646.386V12.5455C646.386 11.8523 646.206 11.3163 645.847 10.9375C645.491 10.5549 644.996 10.3636 644.364 10.3636C643.924 10.3636 643.53 10.4564 643.182 10.642C642.837 10.8277 642.564 11.0985 642.364 11.4545C642.167 11.8106 642.068 12.2424 642.068 12.75ZM653.976 9.27273V10.4091H649.453V9.27273H653.976ZM650.771 7.18182H652.112V15.5C652.112 15.8788 652.167 16.1629 652.277 16.3523C652.391 16.5379 652.535 16.6629 652.709 16.7273C652.887 16.7879 653.074 16.8182 653.271 16.8182C653.419 16.8182 653.54 16.8106 653.635 16.7955C653.73 16.7765 653.805 16.7614 653.862 16.75L654.135 17.9545C654.044 17.9886 653.917 18.0227 653.754 18.0568C653.591 18.0947 653.385 18.1136 653.135 18.1136C652.756 18.1136 652.385 18.0322 652.021 17.8693C651.661 17.7064 651.362 17.4583 651.124 17.125C650.889 16.7917 650.771 16.3712 650.771 15.8636V7.18182ZM662.018 11.2273L660.814 11.5682C660.738 11.3674 660.626 11.1723 660.479 10.983C660.335 10.7898 660.138 10.6307 659.888 10.5057C659.638 10.3807 659.318 10.3182 658.928 10.3182C658.393 10.3182 657.948 10.4413 657.592 10.6875C657.24 10.9299 657.064 11.2386 657.064 11.6136C657.064 11.947 657.185 12.2102 657.428 12.4034C657.67 12.5966 658.049 12.7576 658.564 12.8864L659.859 13.2045C660.64 13.3939 661.221 13.6837 661.604 14.0739C661.986 14.4602 662.178 14.9583 662.178 15.5682C662.178 16.0682 662.034 16.5152 661.746 16.9091C661.462 17.303 661.064 17.6136 660.553 17.8409C660.041 18.0682 659.446 18.1818 658.768 18.1818C657.878 18.1818 657.142 17.9886 656.558 17.6023C655.975 17.2159 655.606 16.6515 655.45 15.9091L656.723 15.5909C656.844 16.0606 657.073 16.4129 657.411 16.6477C657.751 16.8826 658.196 17 658.746 17C659.371 17 659.867 16.8674 660.234 16.6023C660.606 16.3333 660.791 16.0114 660.791 15.6364C660.791 15.3333 660.685 15.0795 660.473 14.875C660.261 14.6667 659.935 14.5114 659.496 14.4091L658.041 14.0682C657.242 13.8788 656.655 13.5852 656.28 13.1875C655.909 12.786 655.723 12.2841 655.723 11.6818C655.723 11.1894 655.861 10.7538 656.138 10.375C656.418 9.99621 656.799 9.69886 657.28 9.48295C657.765 9.26705 658.314 9.15909 658.928 9.15909C659.791 9.15909 660.469 9.34848 660.962 9.72727C661.458 10.1061 661.81 10.6061 662.018 11.2273Z" fill="black"/>
</g>
<path id="&#60;&#62; Code" d="M4.59801 10.8182V9.90909L11.9162 6.18182V7.63636L6.30256 10.3409L6.34801 10.25V10.4773L6.30256 10.3864L11.9162 13.0909V14.5455L4.59801 10.8182ZM22.4631 10.8182L15.1449 14.5455V13.0909L20.7585 10.3864L20.7131 10.4773V10.25L20.7585 10.3409L15.1449 7.63636V6.18182L22.4631 9.90909V10.8182ZM39.3509 8H37.9418C37.8584 7.5947 37.7126 7.23864 37.5043 6.93182C37.2997 6.625 37.0497 6.36742 36.7543 6.15909C36.4626 5.94697 36.1387 5.78788 35.7827 5.68182C35.4266 5.57576 35.0554 5.52273 34.669 5.52273C33.9645 5.52273 33.3262 5.70076 32.7543 6.05682C32.1861 6.41288 31.7334 6.9375 31.3963 7.63068C31.063 8.32386 30.8963 9.17424 30.8963 10.1818C30.8963 11.1894 31.063 12.0398 31.3963 12.733C31.7334 13.4261 32.1861 13.9508 32.7543 14.3068C33.3262 14.6629 33.9645 14.8409 34.669 14.8409C35.0554 14.8409 35.4266 14.7879 35.7827 14.6818C36.1387 14.5758 36.4626 14.4186 36.7543 14.2102C37.0497 13.9981 37.2997 13.7386 37.5043 13.4318C37.7126 13.1212 37.8584 12.7652 37.9418 12.3636H39.3509C39.2448 12.9583 39.0516 13.4905 38.7713 13.9602C38.491 14.4299 38.1425 14.8295 37.7259 15.1591C37.3092 15.4848 36.8414 15.733 36.3224 15.9034C35.8073 16.0739 35.2562 16.1591 34.669 16.1591C33.6766 16.1591 32.794 15.9167 32.0213 15.4318C31.2486 14.947 30.6406 14.2576 30.1974 13.3636C29.7543 12.4697 29.5327 11.4091 29.5327 10.1818C29.5327 8.95455 29.7543 7.89394 30.1974 7C30.6406 6.10606 31.2486 5.41667 32.0213 4.93182C32.794 4.44697 33.6766 4.20455 34.669 4.20455C35.2562 4.20455 35.8073 4.28977 36.3224 4.46023C36.8414 4.63068 37.3092 4.88068 37.7259 5.21023C38.1425 5.53598 38.491 5.93371 38.7713 6.40341C39.0516 6.86932 39.2448 7.40151 39.3509 8ZM44.9915 16.1818C44.2036 16.1818 43.5123 15.9943 42.9176 15.6193C42.3267 15.2443 41.8646 14.7197 41.5312 14.0455C41.2017 13.3712 41.0369 12.5833 41.0369 11.6818C41.0369 10.7727 41.2017 9.97917 41.5312 9.30114C41.8646 8.62311 42.3267 8.09659 42.9176 7.72159C43.5123 7.34659 44.2036 7.15909 44.9915 7.15909C45.7794 7.15909 46.4688 7.34659 47.0597 7.72159C47.6544 8.09659 48.1165 8.62311 48.446 9.30114C48.7794 9.97917 48.946 10.7727 48.946 11.6818C48.946 12.5833 48.7794 13.3712 48.446 14.0455C48.1165 14.7197 47.6544 15.2443 47.0597 15.6193C46.4688 15.9943 45.7794 16.1818 44.9915 16.1818ZM44.9915 14.9773C45.59 14.9773 46.0824 14.8239 46.4688 14.517C46.8551 14.2102 47.1411 13.8068 47.3267 13.3068C47.5123 12.8068 47.6051 12.2652 47.6051 11.6818C47.6051 11.0985 47.5123 10.5549 47.3267 10.0511C47.1411 9.54735 46.8551 9.14015 46.4688 8.82955C46.0824 8.51894 45.59 8.36364 44.9915 8.36364C44.393 8.36364 43.9006 8.51894 43.5142 8.82955C43.1278 9.14015 42.8419 9.54735 42.6562 10.0511C42.4706 10.5549 42.3778 11.0985 42.3778 11.6818C42.3778 12.2652 42.4706 12.8068 42.6562 13.3068C42.8419 13.8068 43.1278 14.2102 43.5142 14.517C43.9006 14.8239 44.393 14.9773 44.9915 14.9773ZM54.2884 16.1818C53.5611 16.1818 52.919 15.9981 52.3622 15.6307C51.8054 15.2595 51.3698 14.7367 51.0554 14.0625C50.741 13.3845 50.5838 12.5833 50.5838 11.6591C50.5838 10.7424 50.741 9.94697 51.0554 9.27273C51.3698 8.59848 51.8073 8.07765 52.3679 7.71023C52.9285 7.3428 53.5762 7.15909 54.3111 7.15909C54.8793 7.15909 55.3281 7.25379 55.6577 7.44318C55.991 7.62879 56.2448 7.84091 56.419 8.07955C56.5971 8.31439 56.7353 8.50758 56.8338 8.65909H56.9474V4.36364H58.2884V16H56.9929V14.6591H56.8338C56.7353 14.8182 56.5952 15.0189 56.4134 15.2614C56.2315 15.5 55.9721 15.714 55.6349 15.9034C55.2978 16.089 54.849 16.1818 54.2884 16.1818ZM54.4702 14.9773C55.008 14.9773 55.4626 14.8371 55.8338 14.5568C56.205 14.2727 56.4872 13.8807 56.6804 13.3807C56.8736 12.8769 56.9702 12.2955 56.9702 11.6364C56.9702 10.9848 56.8755 10.4148 56.6861 9.92614C56.4967 9.43371 56.2164 9.05114 55.8452 8.77841C55.474 8.50189 55.0156 8.36364 54.4702 8.36364C53.902 8.36364 53.4285 8.50947 53.0497 8.80114C52.6747 9.08902 52.3925 9.48106 52.2031 9.97727C52.0175 10.4697 51.9247 11.0227 51.9247 11.6364C51.9247 12.2576 52.0194 12.822 52.2088 13.3295C52.402 13.8333 52.6861 14.2348 53.0611 14.5341C53.4399 14.8295 53.9096 14.9773 54.4702 14.9773ZM64.5895 16.1818C63.7486 16.1818 63.0232 15.9962 62.4134 15.625C61.8073 15.25 61.3395 14.7273 61.0099 14.0568C60.6842 13.3826 60.5213 12.5985 60.5213 11.7045C60.5213 10.8106 60.6842 10.0227 61.0099 9.34091C61.3395 8.6553 61.7978 8.12121 62.3849 7.73864C62.9759 7.35227 63.6652 7.15909 64.4531 7.15909C64.9077 7.15909 65.3565 7.23485 65.7997 7.38636C66.2429 7.53788 66.6463 7.78409 67.0099 8.125C67.3736 8.46212 67.6634 8.90909 67.8793 9.46591C68.0952 10.0227 68.2031 10.7083 68.2031 11.5227V12.0909H61.4759V10.9318H66.8395C66.8395 10.4394 66.741 10 66.544 9.61364C66.3509 9.22727 66.0743 8.92235 65.7145 8.69886C65.3584 8.47538 64.938 8.36364 64.4531 8.36364C63.919 8.36364 63.4569 8.49621 63.0668 8.76136C62.6804 9.02273 62.383 9.36364 62.1747 9.78409C61.9664 10.2045 61.8622 10.6553 61.8622 11.1364V11.9091C61.8622 12.5682 61.9759 13.1269 62.2031 13.5852C62.4342 14.0398 62.7543 14.3864 63.1634 14.625C63.5724 14.8598 64.0478 14.9773 64.5895 14.9773C64.9418 14.9773 65.2599 14.928 65.544 14.8295C65.8319 14.7273 66.08 14.5758 66.2884 14.375C66.4967 14.1705 66.6577 13.9167 66.7713 13.6136L68.0668 13.9773C67.9304 14.4167 67.7012 14.803 67.3793 15.1364C67.0573 15.4659 66.6596 15.7235 66.1861 15.9091C65.7126 16.0909 65.1804 16.1818 64.5895 16.1818Z" fill="black"/>
</g>
</svg>
