<svg width="37" height="37" viewBox="0 0 37 37" fill="none" xmlns="http://www.w3.org/2000/svg">
<g id="more_vert">
<mask id="mask0_438_1124" style="mask-type:alpha" maskUnits="userSpaceOnUse" x="0" y="0" width="37" height="37">
<rect id="Bounding box" width="37" height="37" fill="#D9D9D9"/>
</mask>
<g mask="url(#mask0_438_1124)">
<path id="more_vert_2" d="M18.4944 30.8337C17.9842 30.8337 17.5492 30.652 17.1895 30.2886C16.8298 29.9253 16.6499 29.4885 16.6499 28.9782C16.6499 28.4679 16.8316 28.033 17.195 27.6732C17.5583 27.3135 17.9951 27.1337 18.5054 27.1337C19.0156 27.1337 19.4506 27.3153 19.8103 27.6787C20.17 28.0421 20.3499 28.4789 20.3499 28.9891C20.3499 29.4994 20.1682 29.9344 19.8048 30.2941C19.4415 30.6538 19.0047 30.8337 18.4944 30.8337ZM18.4944 20.3503C17.9842 20.3503 17.5492 20.1686 17.1895 19.8053C16.8298 19.4419 16.6499 19.0051 16.6499 18.4949C16.6499 17.9846 16.8316 17.5496 17.195 17.1899C17.5583 16.8302 17.9951 16.6503 18.5054 16.6503C19.0156 16.6503 19.4506 16.832 19.8103 17.1954C20.17 17.5587 20.3499 17.9955 20.3499 18.5058C20.3499 19.016 20.1682 19.451 19.8048 19.8107C19.4415 20.1705 19.0047 20.3503 18.4944 20.3503ZM18.4944 9.86699C17.9842 9.86699 17.5492 9.68531 17.1895 9.32193C16.8298 8.95859 16.6499 8.52178 16.6499 8.01152C16.6499 7.50128 16.8316 7.0663 17.195 6.70658C17.5583 6.34685 17.9951 6.16699 18.5054 6.16699C19.0156 6.16699 19.4506 6.34868 19.8103 6.71205C20.17 7.07539 20.3499 7.5122 20.3499 8.02247C20.3499 8.53271 20.1682 8.96769 19.8048 9.32741C19.4415 9.68713 19.0047 9.86699 18.4944 9.86699Z" fill="#474747"/>
</g>
</g>
</svg>
