<svg width="40" height="40" viewBox="0 0 40 40" fill="none" xmlns="http://www.w3.org/2000/svg">
<mask id="mask0_1082_1049" style="mask-type:alpha" maskUnits="userSpaceOnUse" x="0" y="0" width="40" height="40">
<rect width="40" height="40" fill="#D9D9D9"/>
</mask>
<g mask="url(#mask0_1082_1049)">
<path d="M15.8205 25.8398C12.9869 25.8398 10.5873 24.8572 8.6216 22.8921C6.65593 20.927 5.6731 18.5403 5.6731 15.7319C5.6731 12.9235 6.65564 10.5368 8.62072 8.57169C10.5858 6.60658 12.9746 5.62402 15.7871 5.62402C18.5995 5.62402 20.9881 6.60658 22.9526 8.57169C24.9172 10.5368 25.8995 12.9236 25.8995 15.7322C25.8995 16.9072 25.6997 18.0439 25.3001 19.1421C24.9006 20.2405 24.3375 21.2223 23.6111 22.0877L33.5726 32.0044C33.7735 32.197 33.8766 32.4454 33.8819 32.7498C33.8872 33.0541 33.7841 33.3102 33.5726 33.5182C33.3611 33.7262 33.1058 33.8302 32.8068 33.8302C32.5078 33.8302 32.2567 33.7244 32.0534 33.5129L22.1196 23.5791C21.2891 24.2976 20.3251 24.854 19.2277 25.2483C18.1302 25.6426 16.9945 25.8398 15.8205 25.8398ZM15.8034 23.7458C18.0369 23.7458 19.929 22.9686 21.4796 21.4141C23.0302 19.8596 23.8056 17.9655 23.8056 15.7319C23.8056 13.4983 23.0302 11.6042 21.4796 10.0497C19.929 8.49523 18.0369 7.71798 15.8034 7.71798C13.5604 7.71798 11.6602 8.49523 10.103 10.0497C8.54569 11.6042 7.76705 13.4983 7.76705 15.7319C7.76705 17.9655 8.54569 19.8596 10.103 21.4141C11.6602 22.9686 13.5604 23.7458 15.8034 23.7458Z" fill="white"/>
</g>
</svg>
