<svg width="23" height="23" viewBox="0 0 23 23" fill="none" xmlns="http://www.w3.org/2000/svg">
<path d="M8.18941 16.5422C5.99338 16.5422 4.13367 15.7807 2.61028 14.2578C1.08689 12.7348 0.325195 10.8851 0.325195 8.70861C0.325195 6.5321 1.08667 4.68238 2.6096 3.15944C4.13257 1.63648 5.98387 0.875 8.16351 0.875C10.3432 0.875 12.1943 1.63648 13.7168 3.15944C15.2394 4.68238 16.0007 6.53218 16.0007 8.70883C16.0007 9.61948 15.8458 10.5004 15.5362 11.3515C15.2265 12.2027 14.7901 12.9637 14.2271 13.6343L21.9473 21.3198C22.103 21.469 22.1829 21.6616 22.187 21.8975C22.1911 22.1333 22.1112 22.3318 21.9473 22.493C21.7834 22.6542 21.5856 22.7347 21.3538 22.7347C21.1221 22.7347 20.9275 22.6528 20.7699 22.4888L13.0713 14.7902C12.4276 15.347 11.6805 15.7782 10.83 16.0838C9.97948 16.3894 9.09928 16.5422 8.18941 16.5422ZM8.17617 14.9194C9.90713 14.9194 11.3735 14.317 12.5752 13.1123C13.777 11.9076 14.3778 10.4397 14.3778 8.70861C14.3778 6.97756 13.777 5.50966 12.5752 4.30493C11.3735 3.10019 9.90713 2.49782 8.17617 2.49782C6.43785 2.49782 4.96524 3.10019 3.75835 4.30493C2.55146 5.50966 1.94801 6.97756 1.94801 8.70861C1.94801 10.4397 2.55146 11.9076 3.75835 13.1123C4.96524 14.317 6.43785 14.9194 8.17617 14.9194Z" fill="white"/>
</svg>
