<svg width="37" height="37" viewBox="0 0 37 37" fill="none" xmlns="http://www.w3.org/2000/svg">
<g id="settings">
<mask id="mask0_438_1121" style="mask-type:alpha" maskUnits="userSpaceOnUse" x="0" y="0" width="37" height="37">
<rect id="Bounding box" width="37" height="37" fill="#D9D9D9"/>
</mask>
<g mask="url(#mask0_438_1121)">
<path id="settings_2" d="M14.9543 33.9163L14.1835 29.0601C13.6953 28.8802 13.1814 28.6361 12.6418 28.3278C12.1022 28.0195 11.6269 27.6983 11.2158 27.3643L6.66787 29.4455L3.0835 23.1247L7.246 20.0799C7.19461 19.8486 7.16249 19.5853 7.14964 19.2898C7.1368 18.9943 7.13037 18.7309 7.13037 18.4997C7.13037 18.2684 7.1368 18.0051 7.14964 17.7096C7.16249 17.4141 7.19461 17.1507 7.246 16.9195L3.0835 13.8747L6.66787 7.55384L11.2158 9.63509C11.6269 9.30106 12.1022 8.97988 12.6418 8.67155C13.1814 8.36322 13.6953 8.13197 14.1835 7.9778L14.9543 3.08301H22.046L22.8168 7.93926C23.305 8.11912 23.8253 8.35679 24.3778 8.65228C24.9302 8.94776 25.3991 9.27537 25.7845 9.63509L30.3325 7.55384L33.9168 13.8747L29.7543 16.8424C29.8057 17.0993 29.8378 17.3755 29.8507 17.671C29.8635 17.9665 29.87 18.2427 29.87 18.4997C29.87 18.7566 29.8635 19.0264 29.8507 19.3091C29.8378 19.5917 29.8057 19.8615 29.7543 20.1184L33.9168 23.1247L30.3325 29.4455L25.7845 27.3643C25.3734 27.6983 24.9045 28.0259 24.3778 28.3471C23.851 28.6683 23.3307 28.9059 22.8168 29.0601L22.046 33.9163H14.9543ZM16.8043 31.6038H20.196L20.7356 27.2872C21.5835 27.0816 22.3864 26.7604 23.1444 26.3236C23.9024 25.8868 24.5897 25.3601 25.2064 24.7434L29.2918 26.5163L30.8335 23.7413L27.2106 21.082C27.3134 20.6452 27.3969 20.2148 27.4611 19.7908C27.5253 19.3669 27.5575 18.9365 27.5575 18.4997C27.5575 18.0629 27.5318 17.6325 27.4804 17.2085C27.429 16.7846 27.3391 16.3542 27.2106 15.9174L30.8335 13.258L29.2918 10.483L25.2064 12.2559C24.6154 11.5879 23.9474 11.029 23.2022 10.5794C22.4571 10.1297 21.6349 9.84065 20.7356 9.71217L20.196 5.39551H16.8043L16.2647 9.71217C15.3911 9.89204 14.5753 10.2004 13.8174 10.6372C13.0594 11.074 12.3849 11.6136 11.7939 12.2559L7.7085 10.483L6.16683 13.258L9.78975 15.9174C9.68697 16.3542 9.60346 16.7846 9.53923 17.2085C9.47499 17.6325 9.44287 18.0629 9.44287 18.4997C9.44287 18.9365 9.47499 19.3669 9.53923 19.7908C9.60346 20.2148 9.68697 20.6452 9.78975 21.082L6.16683 23.7413L7.7085 26.5163L11.7939 24.7434C12.4106 25.3601 13.0979 25.8868 13.8559 26.3236C14.6139 26.7604 15.4168 27.0816 16.2647 27.2872L16.8043 31.6038ZM18.5002 23.5101C19.8877 23.5101 21.0696 23.0219 22.046 22.0455C23.0224 21.0691 23.5106 19.8872 23.5106 18.4997C23.5106 17.1122 23.0224 15.9302 22.046 14.9538C21.0696 13.9775 19.8877 13.4893 18.5002 13.4893C17.1127 13.4893 15.9307 13.9775 14.9543 14.9538C13.9779 15.9302 13.4897 17.1122 13.4897 18.4997C13.4897 19.8872 13.9779 21.0691 14.9543 22.0455C15.9307 23.0219 17.1127 23.5101 18.5002 23.5101Z" fill="#474747"/>
</g>
</g>
</svg>
