<svg width="40" height="40" viewBox="0 0 40 40" fill="none" xmlns="http://www.w3.org/2000/svg">
<mask id="mask0_991_822" style="mask-type:alpha" maskUnits="userSpaceOnUse" x="0" y="0" width="40" height="40">
<rect width="40" height="40" fill="#D9D9D9"/>
</mask>
<g mask="url(#mask0_991_822)">
<path d="M9.44377 38.3338C8.69377 38.3338 8.04331 38.0583 7.49239 37.5074C6.94147 36.9565 6.66602 36.306 6.66602 35.556V15.3059C6.66602 14.556 6.94147 13.9055 7.49239 13.3546C8.04331 12.8037 8.69377 12.5282 9.44377 12.5282H14.4161C14.8096 12.5282 15.1394 12.6618 15.4056 12.9289C15.6718 13.196 15.8049 13.5271 15.8049 13.922C15.8049 14.3168 15.6718 14.6462 15.4056 14.9101C15.1394 15.174 14.8096 15.3059 14.4161 15.3059H9.44377V35.556H30.5549V15.3059H25.5271C25.1336 15.3059 24.8037 15.1724 24.5375 14.9052C24.2713 14.6381 24.1382 14.3071 24.1382 13.9122C24.1382 13.5173 24.2713 13.1879 24.5375 12.924C24.8037 12.6601 25.1336 12.5282 25.5271 12.5282H30.5549C31.3049 12.5282 31.9554 12.8037 32.5063 13.3546C33.0572 13.9055 33.3327 14.556 33.3327 15.3059V35.556C33.3327 36.306 33.0572 36.9565 32.5063 37.5074C31.9554 38.0583 31.3049 38.3338 30.5549 38.3338H9.44377ZM18.5827 7.01432L16.2216 9.37545C15.9438 9.65323 15.6197 9.7898 15.2493 9.78516C14.879 9.78055 14.5513 9.63935 14.2663 9.36157C14.005 9.0838 13.872 8.75509 13.8674 8.37545C13.8628 7.99581 13.9994 7.6671 14.2771 7.38932L18.9993 2.63932C19.2771 2.36155 19.6012 2.22266 19.9716 2.22266C20.3419 2.22266 20.666 2.36155 20.9438 2.63932L25.6938 7.38932C25.9623 7.65785 26.0966 7.98107 26.0966 8.35899C26.0966 8.73691 25.9659 9.06329 25.7047 9.33816C25.4197 9.61302 25.0853 9.75045 24.7017 9.75045C24.318 9.75045 23.9867 9.61156 23.7077 9.33378L21.3604 7.01432V24.5282C21.3604 24.9217 21.2269 25.2516 20.9598 25.5178C20.6926 25.784 20.3616 25.9171 19.9667 25.9171C19.5718 25.9171 19.2424 25.784 18.9785 25.5178C18.7146 25.2516 18.5827 24.9217 18.5827 24.5282V7.01432Z" fill="white"/>
</g>
</svg>
