<svg width="72" height="669" viewBox="0 0 72 669" fill="none" xmlns="http://www.w3.org/2000/svg">
<g id="side menu">
<g id="LOGO1">
<path id="Line 12" d="M28.8384 38.3721L33.1748 32.8911" stroke="url(#paint0_linear_614_814)" stroke-width="2" stroke-linecap="round"/>
<path id="Line 16" d="M28.7788 61.71L34.4999 55.955" stroke="url(#paint1_linear_614_814)" stroke-width="2" stroke-linecap="round"/>
<path id="Line 15" d="M5.89453 37.9346L11.9646 31.9968" stroke="url(#paint2_linear_614_814)" stroke-width="2" stroke-linecap="round"/>
<path id="Line 8" d="M11.9727 31.9971L33.6435 31.9971" stroke="url(#paint3_linear_614_814)" stroke-width="2" stroke-linecap="round"/>
<path id="Line 9" d="M34.5 31.9971L34.5 55.2392" stroke="url(#paint4_linear_614_814)" stroke-width="2" stroke-linecap="round"/>
<path id="Line 10" d="M17.1665 38.8291V61.2099" stroke="url(#paint5_linear_614_814)" stroke-width="2" stroke-linecap="round"/>
<path id="Line 14" d="M17.1714 50.165H11.5007" stroke="url(#paint6_linear_614_814)" stroke-width="2" stroke-linecap="round"/>
<rect id="Rectangle 44" x="6" y="38.6045" width="22.1558" height="22.7863" rx="1" stroke="url(#paint7_linear_614_814)" stroke-width="2"/>
</g>
<g id="delete button">
<g id="delete">
<mask id="mask0_614_814" style="mask-type:alpha" maskUnits="userSpaceOnUse" x="2" y="329" width="36" height="37">
<rect id="Bounding box" x="2" y="329.997" width="36" height="36" fill="#D9D9D9"/>
</mask>
<g mask="url(#mask0_614_814)">
<path id="delete_2" d="M12.5 361.497C11.675 361.497 10.9688 361.203 10.3812 360.616C9.79375 360.028 9.5 359.322 9.5 358.497V338.997C9.075 338.997 8.71875 338.853 8.43125 338.566C8.14375 338.278 8 337.922 8 337.497C8 337.072 8.14375 336.716 8.43125 336.428C8.71875 336.141 9.075 335.997 9.5 335.997H15.5C15.5 335.572 15.6437 335.216 15.9312 334.928C16.2188 334.641 16.575 334.497 17 334.497H23C23.425 334.497 23.7813 334.641 24.0688 334.928C24.3563 335.216 24.5 335.572 24.5 335.997H30.5C30.925 335.997 31.2812 336.141 31.5688 336.428C31.8563 336.716 32 337.072 32 337.497C32 337.922 31.8563 338.278 31.5688 338.566C31.2812 338.853 30.925 338.997 30.5 338.997V358.497C30.5 359.322 30.2063 360.028 29.6188 360.616C29.0312 361.203 28.325 361.497 27.5 361.497H12.5ZM17 355.497C17.425 355.497 17.7812 355.353 18.0688 355.066C18.3562 354.778 18.5 354.422 18.5 353.997V343.497C18.5 343.072 18.3562 342.716 18.0688 342.428C17.7812 342.141 17.425 341.997 17 341.997C16.575 341.997 16.2188 342.141 15.9312 342.428C15.6437 342.716 15.5 343.072 15.5 343.497V353.997C15.5 354.422 15.6437 354.778 15.9312 355.066C16.2188 355.353 16.575 355.497 17 355.497ZM23 355.497C23.425 355.497 23.7813 355.353 24.0688 355.066C24.3563 354.778 24.5 354.422 24.5 353.997V343.497C24.5 343.072 24.3563 342.716 24.0688 342.428C23.7813 342.141 23.425 341.997 23 341.997C22.575 341.997 22.2188 342.141 21.9313 342.428C21.6438 342.716 21.5 343.072 21.5 343.497V353.997C21.5 354.422 21.6438 354.778 21.9313 355.066C22.2188 355.353 22.575 355.497 23 355.497Z" fill="#454545"/>
</g>
</g>
</g>
<g id="export/share button">
<g id="ios_share">
<mask id="mask1_614_814" style="mask-type:alpha" maskUnits="userSpaceOnUse" x="2" y="229" width="36" height="37">
<rect id="Bounding box_2" x="2" y="229.997" width="36" height="36" fill="#D9D9D9"/>
</mask>
<g mask="url(#mask1_614_814)">
<path id="ios_share_2" d="M10.5 264.497C9.82498 264.497 9.23956 264.249 8.74374 263.753C8.24791 263.258 8 262.672 8 261.997V243.772C8 243.097 8.24791 242.512 8.74374 242.016C9.23956 241.52 9.82498 241.272 10.5 241.272H14.975C15.3292 241.272 15.6261 241.392 15.8657 241.633C16.1052 241.873 16.225 242.171 16.225 242.526C16.225 242.882 16.1052 243.178 15.8657 243.416C15.6261 243.653 15.3292 243.772 14.975 243.772H10.5V261.997H29.5V243.772H24.975C24.6208 243.772 24.3239 243.652 24.0844 243.411C23.8448 243.171 23.725 242.873 23.725 242.518C23.725 242.162 23.8448 241.866 24.0844 241.628C24.3239 241.391 24.6208 241.272 24.975 241.272H29.5C30.175 241.272 30.7604 241.52 31.2563 242.016C31.7521 242.512 32 243.097 32 243.772V261.997C32 262.672 31.7521 263.258 31.2563 263.753C30.7604 264.249 30.175 264.497 29.5 264.497H10.5ZM18.725 236.31L16.6 238.435C16.35 238.685 16.0583 238.807 15.725 238.803C15.3917 238.799 15.0967 238.672 14.8402 238.422C14.6051 238.172 14.4854 237.876 14.4812 237.535C14.4771 237.193 14.6 236.897 14.85 236.647L19.1 232.372C19.35 232.122 19.6417 231.997 19.975 231.997C20.3083 231.997 20.6 232.122 20.85 232.372L25.125 236.647C25.3667 236.889 25.4875 237.18 25.4875 237.52C25.4875 237.86 25.3699 238.154 25.1348 238.401C24.8783 238.648 24.5774 238.772 24.2321 238.772C23.8868 238.772 23.5886 238.647 23.3375 238.397L21.225 236.31V252.072C21.225 252.426 21.1048 252.723 20.8644 252.963C20.624 253.202 20.326 253.322 19.9706 253.322C19.6152 253.322 19.3188 253.202 19.0813 252.963C18.8438 252.723 18.725 252.426 18.725 252.072V236.31Z" fill="#454545"/>
</g>
</g>
</g>
<g id="gallery button">
<g id="stacks">
<mask id="mask2_614_814" style="mask-type:alpha" maskUnits="userSpaceOnUse" x="0" y="125" width="40" height="41">
<rect id="Bounding box_3" y="125.997" width="40" height="40" fill="#D9D9D9"/>
</mask>
<g mask="url(#mask2_614_814)">
<path id="stacks_2" d="M19.9999 148.282C19.7841 148.282 19.5791 148.256 19.385 148.203C19.1909 148.151 18.9945 148.075 18.7958 147.976L4.70824 140.539C4.46893 140.401 4.29693 140.234 4.19224 140.038C4.08752 139.841 4.03516 139.623 4.03516 139.384C4.03516 139.152 4.08752 138.937 4.19224 138.741C4.29693 138.544 4.46893 138.377 4.70824 138.24L18.7958 130.803C18.9945 130.704 19.1909 130.628 19.385 130.575C19.5791 130.522 19.7841 130.496 19.9999 130.496C20.2157 130.496 20.4206 130.522 20.6147 130.575C20.8088 130.628 21.0052 130.704 21.2039 130.803L35.3075 138.24C35.5468 138.377 35.7217 138.544 35.8321 138.741C35.9425 138.937 35.9977 139.152 35.9977 139.384C35.9977 139.623 35.9425 139.841 35.8321 140.038C35.7217 140.234 35.5468 140.401 35.3075 140.539L21.2039 147.976C21.0052 148.075 20.8088 148.151 20.6147 148.203C20.4206 148.256 20.2157 148.282 19.9999 148.282ZM19.9999 146.219L33.1452 139.384L19.9999 132.559L6.89828 139.384L19.9999 146.219ZM19.9999 152.839L33.8524 145.575C33.9187 145.544 34.1096 145.521 34.4251 145.508C34.6872 145.529 34.9085 145.634 35.0891 145.821C35.2696 146.008 35.3599 146.242 35.3599 146.523C35.3599 146.712 35.3166 146.882 35.2301 147.032C35.1435 147.183 35.0055 147.314 34.8161 147.427L21.2039 154.578C21.0052 154.684 20.8088 154.762 20.6147 154.811C20.4206 154.86 20.2157 154.885 19.9999 154.885C19.7841 154.885 19.5791 154.86 19.385 154.811C19.1909 154.762 18.9945 154.684 18.7958 154.578L5.22745 147.427C5.038 147.314 4.89556 147.183 4.80011 147.032C4.70467 146.882 4.65695 146.712 4.65695 146.523C4.65695 146.242 4.74989 146.008 4.93578 145.821C5.12167 145.634 5.34566 145.529 5.60774 145.508C5.71388 145.486 5.81396 145.483 5.90799 145.498C6.00199 145.512 6.09635 145.547 6.19107 145.603L19.9999 152.839ZM19.9999 159.452L33.8524 152.188C33.9187 152.15 34.1096 152.124 34.4251 152.11C34.6872 152.139 34.9085 152.247 35.0891 152.434C35.2696 152.621 35.3599 152.852 35.3599 153.125C35.3599 153.315 35.3166 153.486 35.2301 153.64C35.1435 153.794 35.0055 153.927 34.8161 154.04L21.2039 161.191C21.0052 161.298 20.8088 161.375 20.6147 161.424C20.4206 161.474 20.2157 161.498 19.9999 161.498C19.7841 161.498 19.5791 161.474 19.385 161.424C19.1909 161.375 18.9945 161.298 18.7958 161.191L5.22745 154.04C5.038 153.927 4.89556 153.794 4.80011 153.64C4.70467 153.486 4.65695 153.315 4.65695 153.125C4.65695 152.852 4.74989 152.621 4.93578 152.434C5.12167 152.247 5.34566 152.139 5.60774 152.11C5.71388 152.096 5.81396 152.096 5.90799 152.111C6.00199 152.125 6.09635 152.157 6.19107 152.205L19.9999 159.452Z" fill="#454545"/>
</g>
</g>
</g>
<path id="Line 20" d="M71 668L71 1.00003" stroke="url(#paint8_linear_614_814)" stroke-opacity="0.8" stroke-width="0.7" stroke-linecap="round"/>
</g>
<defs>
<linearGradient id="paint0_linear_614_814" x1="6.36247" y1="60.9669" x2="32.5183" y2="34.2384" gradientUnits="userSpaceOnUse">
<stop stop-color="#AD51DE"/>
<stop offset="1" stop-color="#76CAE8"/>
</linearGradient>
<linearGradient id="paint1_linear_614_814" x1="6.03485" y1="59.5521" x2="36.9376" y2="33.7891" gradientUnits="userSpaceOnUse">
<stop stop-color="#AD51DE"/>
<stop offset="1" stop-color="#76CAE8"/>
</linearGradient>
<linearGradient id="paint2_linear_614_814" x1="6.18506" y1="60.8669" x2="35.1331" y2="34.148" gradientUnits="userSpaceOnUse">
<stop stop-color="#AD51DE"/>
<stop offset="1" stop-color="#76CAE8"/>
</linearGradient>
<linearGradient id="paint3_linear_614_814" x1="6.46847" y1="59.9971" x2="34.9123" y2="33.351" gradientUnits="userSpaceOnUse">
<stop stop-color="#AE52DF"/>
<stop offset="0.323532" stop-color="#9C79E2"/>
<stop offset="1" stop-color="#76CAE8"/>
</linearGradient>
<linearGradient id="paint4_linear_614_814" x1="5.5" y1="61.216" x2="35.6899" y2="33.2831" gradientUnits="userSpaceOnUse">
<stop stop-color="#AE52DF"/>
<stop offset="1" stop-color="#76CAE8" stop-opacity="0.88"/>
</linearGradient>
<linearGradient id="paint5_linear_614_814" x1="6.40723" y1="61.0275" x2="34.0405" y2="33.5278" gradientUnits="userSpaceOnUse">
<stop stop-color="#AD51DE"/>
<stop offset="1" stop-color="#77C9E8"/>
</linearGradient>
<linearGradient id="paint6_linear_614_814" x1="6.4298" y1="60.9751" x2="34.3742" y2="34.8053" gradientUnits="userSpaceOnUse">
<stop stop-color="#AD51DE"/>
<stop offset="1" stop-color="#87CFEB"/>
</linearGradient>
<linearGradient id="paint7_linear_614_814" x1="6.90705" y1="61.0273" x2="34.5027" y2="34.8414" gradientUnits="userSpaceOnUse">
<stop stop-color="#AD51DE"/>
<stop offset="0.358332" stop-color="#997CE2"/>
<stop offset="1" stop-color="#76CAE8"/>
</linearGradient>
<linearGradient id="paint8_linear_614_814" x1="71" y1="1" x2="71" y2="668" gradientUnits="userSpaceOnUse">
<stop stop-color="#AD51DE"/>
<stop offset="1" stop-color="#76CAE8"/>
</linearGradient>
</defs>
</svg>
