<svg width="117" height="30" viewBox="0 0 117 30" fill="none" xmlns="http://www.w3.org/2000/svg">
<path d="M12.892 10.3011L10.6335 10.9403C10.4915 10.5639 10.282 10.1982 10.005 9.84304C9.73509 9.48082 9.36577 9.18253 8.89702 8.94815C8.42827 8.71378 7.82812 8.59659 7.09659 8.59659C6.09517 8.59659 5.26065 8.82741 4.59304 9.28906C3.93253 9.74361 3.60227 10.3224 3.60227 11.0256C3.60227 11.6506 3.82955 12.1442 4.28409 12.5064C4.73864 12.8686 5.44886 13.1705 6.41477 13.4119L8.84375 14.0085C10.3068 14.3636 11.397 14.907 12.1143 15.6385C12.8317 16.3629 13.1903 17.2969 13.1903 18.4403C13.1903 19.3778 12.9205 20.2159 12.3807 20.9545C11.848 21.6932 11.1023 22.2756 10.1435 22.7017C9.18466 23.1278 8.0696 23.3409 6.7983 23.3409C5.12926 23.3409 3.74787 22.9787 2.65412 22.2543C1.56037 21.5298 0.867898 20.4716 0.576705 19.0795L2.96307 18.483C3.19034 19.3636 3.62003 20.0241 4.25213 20.4645C4.89134 20.9048 5.72585 21.125 6.75568 21.125C7.92756 21.125 8.85795 20.8764 9.54688 20.3793C10.2429 19.875 10.5909 19.2713 10.5909 18.5682C10.5909 18 10.392 17.5241 9.99432 17.1406C9.59659 16.75 8.9858 16.4588 8.16193 16.267L5.43466 15.6278C3.93608 15.2727 2.83523 14.7223 2.1321 13.9766C1.43608 13.2237 1.08807 12.2827 1.08807 11.1534C1.08807 10.2301 1.3473 9.41335 1.86577 8.70312C2.39134 7.9929 3.10511 7.43537 4.0071 7.03054C4.91619 6.62571 5.94602 6.4233 7.09659 6.4233C8.71591 6.4233 9.98722 6.77841 10.9105 7.48864C11.8409 8.19886 12.5014 9.13636 12.892 10.3011ZM16.975 23V6.63636H19.4892V23H16.975ZM18.2534 3.90909C17.7633 3.90909 17.3407 3.74219 16.9856 3.40838C16.6376 3.07457 16.4636 2.6733 16.4636 2.20455C16.4636 1.7358 16.6376 1.33452 16.9856 1.00071C17.3407 0.666903 17.7633 0.5 18.2534 0.5C18.7434 0.5 19.1625 0.666903 19.5105 1.00071C19.8656 1.33452 20.0431 1.7358 20.0431 2.20455C20.0431 2.6733 19.8656 3.07457 19.5105 3.40838C19.1625 3.74219 18.7434 3.90909 18.2534 3.90909ZM30.6992 29.4773C29.4847 29.4773 28.4407 29.321 27.5671 29.0085C26.6935 28.7031 25.9656 28.2983 25.3832 27.794C24.8079 27.2969 24.3498 26.7642 24.0089 26.196L26.0117 24.7898C26.239 25.0881 26.5266 25.429 26.8746 25.8125C27.2227 26.2031 27.6985 26.5405 28.3022 26.8246C28.913 27.1158 29.712 27.2614 30.6992 27.2614C32.0202 27.2614 33.1104 26.9418 33.9698 26.3026C34.8292 25.6634 35.2589 24.6619 35.2589 23.2983V19.9744H35.0458C34.8612 20.2727 34.5984 20.642 34.2575 21.0824C33.9237 21.5156 33.4407 21.9027 32.8086 22.2436C32.1836 22.5774 31.3384 22.7443 30.2731 22.7443C28.9521 22.7443 27.766 22.4318 26.7148 21.8068C25.6708 21.1818 24.8434 20.2727 24.2326 19.0795C23.6289 17.8864 23.3271 16.4375 23.3271 14.733C23.3271 13.0568 23.6218 11.5973 24.2113 10.3544C24.8008 9.1044 25.6211 8.13849 26.6722 7.45668C27.7234 6.76776 28.9379 6.4233 30.3157 6.4233C31.381 6.4233 32.2262 6.60085 32.8512 6.95597C33.4833 7.30398 33.9663 7.7017 34.3001 8.14915C34.641 8.58949 34.9038 8.9517 35.0884 9.23579H35.3441V6.63636H37.7731V23.4688C37.7731 24.875 37.4535 26.0185 36.8143 26.8991C36.1822 27.7869 35.3299 28.4368 34.2575 28.8487C33.1921 29.2678 32.006 29.4773 30.6992 29.4773ZM30.614 20.4858C31.6225 20.4858 32.4748 20.255 33.1708 19.7933C33.8668 19.3317 34.396 18.6676 34.7582 17.8011C35.1204 16.9347 35.3015 15.8977 35.3015 14.6903C35.3015 13.5114 35.1239 12.4709 34.7688 11.5689C34.4137 10.6669 33.8881 9.96023 33.1921 9.44886C32.4961 8.9375 31.6367 8.68182 30.614 8.68182C29.5487 8.68182 28.6609 8.9517 27.9506 9.49148C27.2475 10.0312 26.7184 10.7557 26.3633 11.6648C26.0153 12.5739 25.8413 13.5824 25.8413 14.6903C25.8413 15.8267 26.0188 16.8317 26.3739 17.7053C26.7362 18.5717 27.2688 19.2536 27.9719 19.7507C28.6822 20.2408 29.5629 20.4858 30.614 20.4858ZM44.8896 13.1562V23H42.3754V6.63636H44.8043V9.19318H45.0174C45.4009 8.36222 45.9833 7.6946 46.7646 7.19034C47.5458 6.67898 48.5543 6.4233 49.7901 6.4233C50.8981 6.4233 51.8675 6.65057 52.6985 7.10511C53.5295 7.55256 54.1758 8.23438 54.6374 9.15057C55.0991 10.0597 55.3299 11.2102 55.3299 12.6023V23H52.8157V12.7727C52.8157 11.4872 52.4819 10.4858 51.8143 9.76847C51.1467 9.04403 50.2305 8.68182 49.0657 8.68182C48.2631 8.68182 47.5458 8.85582 46.9137 9.20383C46.2887 9.55185 45.7951 10.0597 45.4329 10.7273C45.0707 11.3949 44.8896 12.2045 44.8896 13.1562ZM69.2992 12.4744V14.8182H59.7537V12.4744H69.2992ZM80.3707 23.3409C78.8935 23.3409 77.5973 22.9893 76.4822 22.2862C75.3743 21.5831 74.5078 20.5994 73.8828 19.3352C73.2649 18.071 72.956 16.5937 72.956 14.9034C72.956 13.1989 73.2649 11.7109 73.8828 10.4396C74.5078 9.16832 75.3743 8.18111 76.4822 7.47798C77.5973 6.77486 78.8935 6.4233 80.3707 6.4233C81.848 6.4233 83.1406 6.77486 84.2486 7.47798C85.3636 8.18111 86.2301 9.16832 86.848 10.4396C87.473 11.7109 87.7855 13.1989 87.7855 14.9034C87.7855 16.5937 87.473 18.071 86.848 19.3352C86.2301 20.5994 85.3636 21.5831 84.2486 22.2862C83.1406 22.9893 81.848 23.3409 80.3707 23.3409ZM80.3707 21.0824C81.4929 21.0824 82.4162 20.7947 83.1406 20.2195C83.8651 19.6442 84.4013 18.8878 84.7493 17.9503C85.0973 17.0128 85.2713 15.9972 85.2713 14.9034C85.2713 13.8097 85.0973 12.7905 84.7493 11.8459C84.4013 10.9013 83.8651 10.1378 83.1406 9.5554C82.4162 8.97301 81.4929 8.68182 80.3707 8.68182C79.2486 8.68182 78.3253 8.97301 77.6009 9.5554C76.8764 10.1378 76.3402 10.9013 75.9922 11.8459C75.6442 12.7905 75.4702 13.8097 75.4702 14.9034C75.4702 15.9972 75.6442 17.0128 75.9922 17.9503C76.3402 18.8878 76.8764 19.6442 77.6009 20.2195C78.3253 20.7947 79.2486 21.0824 80.3707 21.0824ZM101.936 16.3097V6.63636H104.45V23H101.936V20.2301H101.765C101.382 21.0611 100.785 21.7678 99.9757 22.3501C99.166 22.9254 98.1433 23.2131 96.9075 23.2131C95.8848 23.2131 94.9757 22.9893 94.1802 22.5419C93.3848 22.0874 92.7598 21.4055 92.3052 20.4964C91.8507 19.5803 91.6234 18.4261 91.6234 17.0341V6.63636H94.1376V16.8636C94.1376 18.0568 94.4714 19.0085 95.139 19.7188C95.8137 20.429 96.6731 20.7841 97.7172 20.7841C98.3422 20.7841 98.9778 20.6243 99.6241 20.3047C100.278 19.9851 100.824 19.495 101.265 18.8345C101.712 18.174 101.936 17.3324 101.936 16.3097ZM116.172 6.63636V8.76704H107.691V6.63636H116.172ZM110.163 2.71591H112.677V18.3125C112.677 19.0227 112.78 19.5554 112.986 19.9105C113.199 20.2585 113.469 20.4929 113.796 20.6136C114.13 20.7273 114.481 20.7841 114.85 20.7841C115.127 20.7841 115.355 20.7699 115.532 20.7415C115.71 20.706 115.852 20.6776 115.958 20.6562L116.47 22.9148C116.299 22.9787 116.061 23.0426 115.756 23.1065C115.451 23.1776 115.064 23.2131 114.595 23.2131C113.885 23.2131 113.189 23.0604 112.507 22.755C111.832 22.4496 111.271 21.9844 110.824 21.3594C110.383 20.7344 110.163 19.946 110.163 18.9943V2.71591Z" fill="#C8C8C8"/>
</svg>
