<svg width="72" height="23" viewBox="0 0 72 23" fill="none" xmlns="http://www.w3.org/2000/svg">
<path d="M9.65057 8.2642L7.91903 8.75426C7.81013 8.46567 7.6495 8.18525 7.43715 7.913C7.23023 7.6353 6.94709 7.4066 6.58771 7.22692C6.22834 7.04723 5.76823 6.95739 5.20739 6.95739C4.43963 6.95739 3.79983 7.13435 3.288 7.48828C2.78161 7.83677 2.52841 8.28054 2.52841 8.8196C2.52841 9.29877 2.70265 9.6772 3.05114 9.9549C3.39962 10.2326 3.94413 10.464 4.68466 10.6491L6.54688 11.1065C7.66856 11.3788 8.50438 11.7953 9.05433 12.3562C9.60429 12.9116 9.87926 13.6276 9.87926 14.5043C9.87926 15.223 9.67235 15.8655 9.25852 16.4318C8.85014 16.9981 8.27841 17.4446 7.54332 17.7713C6.80824 18.098 5.95336 18.2614 4.97869 18.2614C3.6991 18.2614 2.64003 17.9837 1.80149 17.4283C0.96295 16.8729 0.432055 16.0616 0.208807 14.9943L2.03835 14.5369C2.21259 15.2121 2.54202 15.7185 3.02663 16.0561C3.51669 16.3937 4.15649 16.5625 4.94602 16.5625C5.84446 16.5625 6.55777 16.3719 7.08594 15.9908C7.61956 15.6042 7.88636 15.1413 7.88636 14.6023C7.88636 14.1667 7.7339 13.8018 7.42898 13.5078C7.12405 13.2083 6.65578 12.9851 6.02415 12.8381L3.93324 12.348C2.78433 12.0758 1.94034 11.6538 1.40128 11.082C0.867661 10.5049 0.600852 9.78338 0.600852 8.91761C0.600852 8.20975 0.799598 7.58357 1.19709 7.03906C1.60002 6.49455 2.14725 6.06712 2.83878 5.75675C3.53575 5.44638 4.32528 5.29119 5.20739 5.29119C6.44886 5.29119 7.42353 5.56345 8.13139 6.10795C8.8447 6.65246 9.35109 7.37121 9.65057 8.2642ZM12.7808 18V5.45455H14.7084V18H12.7808ZM13.7609 3.36364C13.3852 3.36364 13.0612 3.23568 12.789 2.97976C12.5222 2.72384 12.3888 2.41619 12.3888 2.05682C12.3888 1.69744 12.5222 1.3898 12.789 1.13388C13.0612 0.877959 13.3852 0.75 13.7609 0.75C14.1366 0.75 14.4579 0.877959 14.7247 1.13388C14.997 1.3898 15.1331 1.69744 15.1331 2.05682C15.1331 2.41619 14.997 2.72384 14.7247 2.97976C14.4579 3.23568 14.1366 3.36364 13.7609 3.36364ZM23.3027 22.9659C22.3716 22.9659 21.5712 22.8461 20.9015 22.6065C20.2317 22.3724 19.6736 22.062 19.2271 21.6754C18.786 21.2943 18.4348 20.8859 18.1735 20.4503L19.709 19.3722C19.8832 19.6009 20.1038 19.8622 20.3706 20.1562C20.6374 20.4557 21.0022 20.7144 21.465 20.9322C21.9333 21.1554 22.5459 21.267 23.3027 21.267C24.3155 21.267 25.1513 21.022 25.8102 20.532C26.469 20.0419 26.7985 19.2741 26.7985 18.2287V15.6804H26.6351C26.4935 15.9091 26.2921 16.1922 26.0307 16.5298C25.7748 16.862 25.4045 17.1587 24.9199 17.4201C24.4408 17.676 23.7928 17.804 22.976 17.804C21.9632 17.804 21.0539 17.5644 20.248 17.0852C19.4476 16.6061 18.8133 15.9091 18.345 14.9943C17.8822 14.0795 17.6507 12.9687 17.6507 11.6619C17.6507 10.3769 17.8767 9.25793 18.3287 8.30504C18.7806 7.34671 19.4095 6.60618 20.2154 6.08345C21.0212 5.55528 21.9524 5.29119 23.0087 5.29119C23.8255 5.29119 24.4734 5.42732 24.9526 5.69957C25.4372 5.96638 25.8075 6.27131 26.0634 6.61435C26.3248 6.95194 26.5262 7.22964 26.6678 7.44744H26.8638V5.45455H28.726V18.3594C28.726 19.4375 28.481 20.3142 27.9909 20.9893C27.5063 21.67 26.8529 22.1682 26.0307 22.484C25.214 22.8053 24.3046 22.9659 23.3027 22.9659ZM23.2374 16.0724C24.0106 16.0724 24.664 15.8955 25.1976 15.5415C25.7312 15.1876 26.1369 14.6785 26.4146 14.0142C26.6923 13.3499 26.8311 12.5549 26.8311 11.6293C26.8311 10.7254 26.695 9.92768 26.4228 9.23615C26.1505 8.54463 25.7476 8.00284 25.214 7.6108C24.6803 7.21875 24.0215 7.02273 23.2374 7.02273C22.4206 7.02273 21.74 7.22964 21.1955 7.64347C20.6564 8.05729 20.2508 8.61269 19.9785 9.30966C19.7117 10.0066 19.5783 10.7798 19.5783 11.6293C19.5783 12.5005 19.7144 13.271 19.9867 13.9407C20.2644 14.605 20.6728 15.1277 21.2118 15.5089C21.7563 15.8846 22.4315 16.0724 23.2374 16.0724ZM34.182 10.4531V18H32.2544V5.45455H34.1167V7.41477H34.28C34.574 6.7777 35.0205 6.26586 35.6195 5.87926C36.2185 5.48722 36.9917 5.29119 37.9391 5.29119C38.7885 5.29119 39.5318 5.46544 40.1689 5.81392C40.8059 6.15696 41.3014 6.67969 41.6554 7.3821C42.0093 8.07907 42.1863 8.96117 42.1863 10.0284V18H40.2587V10.1591C40.2587 9.17353 40.0028 8.40578 39.4909 7.85582C38.9791 7.30043 38.2767 7.02273 37.3837 7.02273C36.7684 7.02273 36.2185 7.15613 35.7338 7.42294C35.2547 7.68975 34.8762 8.07907 34.5985 8.59091C34.3208 9.10275 34.182 9.72348 34.182 10.4531ZM52.896 9.9304V11.7273H45.5779V9.9304H52.896ZM56.2876 18V5.45455H58.2152V18H56.2876ZM57.2678 3.36364C56.892 3.36364 56.5681 3.23568 56.2958 2.97976C56.029 2.72384 55.8956 2.41619 55.8956 2.05682C55.8956 1.69744 56.029 1.3898 56.2958 1.13388C56.5681 0.877959 56.892 0.75 57.2678 0.75C57.6435 0.75 57.9647 0.877959 58.2315 1.13388C58.5038 1.3898 58.6399 1.69744 58.6399 2.05682C58.6399 2.41619 58.5038 2.72384 58.2315 2.97976C57.9647 3.23568 57.6435 3.36364 57.2678 3.36364ZM63.6732 10.4531V18H61.7456V5.45455H63.6079V7.41477H63.7712C64.0653 6.7777 64.5117 6.26586 65.1107 5.87926C65.7097 5.48722 66.4829 5.29119 67.4303 5.29119C68.2797 5.29119 69.023 5.46544 69.6601 5.81392C70.2971 6.15696 70.7926 6.67969 71.1466 7.3821C71.5005 8.07907 71.6775 8.96117 71.6775 10.0284V18H69.7499V10.1591C69.7499 9.17353 69.494 8.40578 68.9822 7.85582C68.4703 7.30043 67.7679 7.02273 66.8749 7.02273C66.2596 7.02273 65.7097 7.15613 65.2251 7.42294C64.7459 7.68975 64.3675 8.07907 64.0898 8.59091C63.8121 9.10275 63.6732 9.72348 63.6732 10.4531Z" fill="white"/>
</svg>
