<svg width="69" height="22" viewBox="0 0 69 22" fill="none" xmlns="http://www.w3.org/2000/svg">
<path d="M8.33301 7.9707C8.19824 7.43164 7.92497 7.01611 7.51318 6.72412C7.1014 6.43213 6.55111 6.28613 5.8623 6.28613C5.36816 6.28613 4.92643 6.36475 4.53711 6.52197C4.14779 6.6792 3.84082 6.90007 3.61621 7.18457C3.3916 7.46908 3.2793 7.78353 3.2793 8.12793C3.2793 8.53223 3.4515 8.87663 3.7959 9.16113C4.1403 9.44564 4.66439 9.67025 5.36816 9.83496L7.1875 10.2842C8.2806 10.5387 9.09668 10.9393 9.63574 11.4858C10.1748 12.0324 10.4443 12.7324 10.4443 13.5859C10.4443 14.2897 10.2572 14.9186 9.88281 15.4727C9.50846 16.0267 8.96191 16.4609 8.24316 16.7754C7.52441 17.0898 6.66341 17.2471 5.66016 17.2471C4.74674 17.2471 3.96061 17.116 3.30176 16.854C2.6429 16.592 2.11507 16.2026 1.71826 15.686C1.32145 15.1694 1.07064 14.5443 0.96582 13.8105H2.9873C3.1071 14.3945 3.38411 14.8325 3.81836 15.1245C4.2526 15.4165 4.85156 15.5625 5.61523 15.5625C6.18424 15.5625 6.68213 15.4876 7.10889 15.3379C7.53564 15.1882 7.86507 14.971 8.09717 14.6865C8.32926 14.402 8.44531 14.0726 8.44531 13.6982C8.44531 13.264 8.28434 12.9009 7.9624 12.6089C7.64046 12.3169 7.13509 12.096 6.44629 11.9463L4.60449 11.5195C3.54134 11.265 2.73275 10.8569 2.17871 10.2954C1.62467 9.73389 1.34766 9.04883 1.34766 8.24023C1.34766 7.55143 1.53857 6.93376 1.92041 6.38721C2.30225 5.84066 2.83382 5.4139 3.51514 5.10693C4.19645 4.79997 4.97884 4.64648 5.8623 4.64648C6.68587 4.64648 7.41211 4.78499 8.04102 5.06201C8.66992 5.33903 9.17155 5.72835 9.5459 6.22998C9.92025 6.73161 10.1449 7.31185 10.2197 7.9707H8.33301ZM12.96 4.80371H14.8916V17H12.96V4.80371ZM13.9258 2.78223C13.6862 2.78223 13.4616 2.72607 13.252 2.61377C13.0423 2.50146 12.8776 2.34424 12.7578 2.14209C12.638 1.93994 12.5781 1.72656 12.5781 1.50195C12.5781 1.26237 12.638 1.04525 12.7578 0.850586C12.8776 0.655924 13.0423 0.502441 13.252 0.390137C13.4616 0.277832 13.6862 0.22168 13.9258 0.22168C14.1803 0.22168 14.4124 0.277832 14.6221 0.390137C14.8317 0.502441 14.9964 0.655924 15.1162 0.850586C15.236 1.04525 15.2959 1.26237 15.2959 1.50195C15.2959 1.72656 15.236 1.93994 15.1162 2.14209C14.9964 2.34424 14.8317 2.50146 14.6221 2.61377C14.4124 2.72607 14.1803 2.78223 13.9258 2.78223ZM22.9102 21.8291C21.9368 21.8291 21.0721 21.6906 20.3159 21.4136C19.5597 21.1366 18.9608 20.7323 18.519 20.2007C18.0773 19.6691 17.819 19.029 17.7441 18.2803H19.7656C19.9004 18.8942 20.241 19.3584 20.7876 19.6729C21.3341 19.9873 22.0417 20.1445 22.9102 20.1445C23.9883 20.1445 24.8193 19.9049 25.4033 19.4258C25.9873 18.9466 26.2793 18.2129 26.2793 17.2246V14.7539H26.1221C25.9124 15.1133 25.6878 15.4315 25.4482 15.7085C25.2087 15.9855 24.8493 16.2401 24.3701 16.4722C23.891 16.7043 23.292 16.8203 22.5732 16.8203C21.585 16.8203 20.6978 16.577 19.9116 16.0903C19.1255 15.6037 18.5078 14.8999 18.0586 13.979C17.6094 13.0581 17.3848 11.9762 17.3848 10.7334C17.3848 9.50553 17.6056 8.43115 18.0474 7.51025C18.4891 6.58936 19.103 5.88184 19.8892 5.3877C20.6753 4.89355 21.5775 4.64648 22.5957 4.64648C23.3145 4.64648 23.9097 4.76253 24.3813 4.99463C24.853 5.22673 25.1937 5.46257 25.4033 5.70215C25.613 5.94173 25.8675 6.28613 26.167 6.73535H26.3242V4.80371H28.2109V17.3369C28.2109 18.3402 27.9826 19.1787 27.5259 19.8525C27.0692 20.5264 26.444 21.0243 25.6504 21.3462C24.8568 21.6681 23.9434 21.8291 22.9102 21.8291ZM22.8428 15.0908C23.5765 15.0908 24.2054 14.9186 24.7295 14.5742C25.2536 14.2298 25.6504 13.7394 25.9199 13.103C26.1895 12.4666 26.3242 11.6992 26.3242 10.8008C26.3242 9.91732 26.1895 9.14242 25.9199 8.47607C25.6504 7.80973 25.2573 7.29313 24.7407 6.92627C24.2241 6.55941 23.5915 6.37598 22.8428 6.37598C22.0941 6.37598 21.4577 6.57064 20.9336 6.95996C20.4095 7.34928 20.0127 7.87712 19.7432 8.54346C19.4736 9.2098 19.3389 9.96224 19.3389 10.8008C19.3389 11.6543 19.4736 12.403 19.7432 13.0469C20.0127 13.6908 20.4095 14.1924 20.9336 14.5518C21.4577 14.9111 22.0941 15.0908 22.8428 15.0908ZM33.2197 17H31.2881V4.80371H33.1523V6.71289H33.3096C33.624 6.05404 34.0732 5.54492 34.6572 5.18555C35.2412 4.82617 35.9824 4.64648 36.8809 4.64648C37.7194 4.64648 38.4456 4.81494 39.0596 5.15186C39.6735 5.48877 40.1489 6.00163 40.4858 6.69043C40.8228 7.37923 40.9912 8.23275 40.9912 9.25098V17H39.0596V9.38574C39.0596 8.75684 38.951 8.21777 38.7339 7.76855C38.5168 7.31934 38.2023 6.97493 37.7905 6.73535C37.3787 6.49577 36.8809 6.37598 36.2969 6.37598C35.6979 6.37598 35.1663 6.50326 34.7021 6.75781C34.238 7.01237 33.8748 7.39046 33.6128 7.89209C33.3507 8.39372 33.2197 8.98893 33.2197 9.67773V17ZM51.0762 10.9355H43.9561V9.16113H51.0762V10.9355ZM54.041 4.80371H55.9727V17H54.041V4.80371ZM55.0068 2.78223C54.7673 2.78223 54.5426 2.72607 54.333 2.61377C54.1234 2.50146 53.9587 2.34424 53.8389 2.14209C53.7191 1.93994 53.6592 1.72656 53.6592 1.50195C53.6592 1.26237 53.7191 1.04525 53.8389 0.850586C53.9587 0.655924 54.1234 0.502441 54.333 0.390137C54.5426 0.277832 54.7673 0.22168 55.0068 0.22168C55.2614 0.22168 55.4935 0.277832 55.7031 0.390137C55.9128 0.502441 56.0775 0.655924 56.1973 0.850586C56.3171 1.04525 56.377 1.26237 56.377 1.50195C56.377 1.72656 56.3171 1.93994 56.1973 2.14209C56.0775 2.34424 55.9128 2.50146 55.7031 2.61377C55.4935 2.72607 55.2614 2.78223 55.0068 2.78223ZM60.9814 17H59.0498V4.80371H60.9141V6.71289H61.0713C61.3857 6.05404 61.835 5.54492 62.4189 5.18555C63.0029 4.82617 63.7441 4.64648 64.6426 4.64648C65.4811 4.64648 66.2074 4.81494 66.8213 5.15186C67.4352 5.48877 67.9106 6.00163 68.2476 6.69043C68.5845 7.37923 68.7529 8.23275 68.7529 9.25098V17H66.8213V9.38574C66.8213 8.75684 66.7127 8.21777 66.4956 7.76855C66.2785 7.31934 65.964 6.97493 65.5522 6.73535C65.1405 6.49577 64.6426 6.37598 64.0586 6.37598C63.4596 6.37598 62.9281 6.50326 62.4639 6.75781C61.9997 7.01237 61.6366 7.39046 61.3745 7.89209C61.1125 8.39372 60.9814 8.98893 60.9814 9.67773V17Z" fill="#C8C8C8"/>
</svg>
