<svg width="40" height="40" viewBox="0 0 40 40" fill="none" xmlns="http://www.w3.org/2000/svg">
<mask id="mask0_1650_1495" style="mask-type:alpha" maskUnits="userSpaceOnUse" x="0" y="0" width="40" height="40">
<rect width="40" height="40" fill="#D9D9D9"/>
</mask>
<g mask="url(#mask0_1650_1495)">
<path d="M18.3334 8.33334V1.66667H21.6667V8.33334H18.3334ZM29.4167 12.9167L27.1251 10.625L31.7918 5.83334L34.1251 8.20834L29.4167 12.9167ZM31.6667 21.6667V18.3333H38.3334V21.6667H31.6667ZM18.3334 38.3333V31.6667H21.6667V38.3333H18.3334ZM10.5834 12.8333L5.83341 8.20834L8.20841 5.87501L12.9167 10.5833L10.5834 12.8333ZM31.7501 34.1667L27.1251 29.375L29.3751 27.125L34.1251 31.7083L31.7501 34.1667ZM1.66675 21.6667V18.3333H8.33342V21.6667H1.66675ZM8.20841 34.1667L5.87508 31.7917L10.5417 27.125L11.7501 28.25L12.9584 29.4167L8.20841 34.1667ZM20.0001 30C17.2223 30 14.8612 29.0278 12.9167 27.0833C10.9723 25.1389 10.0001 22.7778 10.0001 20C10.0001 17.2222 10.9723 14.8611 12.9167 12.9167C14.8612 10.9722 17.2223 10 20.0001 10C22.7779 10 25.139 10.9722 27.0834 12.9167C29.0279 14.8611 30.0001 17.2222 30.0001 20C30.0001 22.7778 29.0279 25.1389 27.0834 27.0833C25.139 29.0278 22.7779 30 20.0001 30ZM20.0001 26.6667C21.8334 26.6667 23.4029 26.0139 24.7084 24.7083C26.014 23.4028 26.6667 21.8333 26.6667 20C26.6667 18.1667 26.014 16.5972 24.7084 15.2917C23.4029 13.9861 21.8334 13.3333 20.0001 13.3333C18.1667 13.3333 16.5973 13.9861 15.2917 15.2917C13.9862 16.5972 13.3334 18.1667 13.3334 20C13.3334 21.8333 13.9862 23.4028 15.2917 24.7083C16.5973 26.0139 18.1667 26.6667 20.0001 26.6667Z" fill="#C8C8C8"/>
</g>
</svg>
