<svg width="63" height="15" viewBox="0 0 63 15" fill="none" xmlns="http://www.w3.org/2000/svg">
<g id="three buttons">
<path id="Ellipse 8" d="M14.5066 7.19836C14.5066 11.0911 11.3511 14.2467 7.45866 14.2467C3.56621 14.2467 0.410742 11.0911 0.410742 7.19836C0.410742 3.30565 3.56621 0.15 7.45866 0.15C11.3511 0.15 14.5066 3.30565 14.5066 7.19836Z" fill="#FF6059" stroke="#E24239" stroke-width="0.3"/>
<path id="Ellipse 9" d="M38.5339 7.19836C38.5339 11.0911 35.3785 14.2467 31.486 14.2467C27.5936 14.2467 24.4381 11.0911 24.4381 7.19836C24.4381 3.30565 27.5936 0.15 31.486 0.15C35.3785 0.15 38.5339 3.30565 38.5339 7.19836Z" fill="#FEBC2C" stroke="#E19E1E" stroke-width="0.3"/>
<path id="Ellipse 10" d="M62.5613 7.19836C62.5613 11.0911 59.4058 14.2467 55.5134 14.2467C51.6209 14.2467 48.4654 11.0911 48.4654 7.19836C48.4654 3.30565 51.6209 0.15 55.5134 0.15C59.4058 0.15 62.5613 3.30565 62.5613 7.19836Z" fill="#2AC740" stroke="#21AA25" stroke-width="0.3"/>
</g>
</svg>
