<svg width="36" height="36" viewBox="0 0 36 36" fill="none" xmlns="http://www.w3.org/2000/svg">
<path d="M17.9945 6.48302C17.6963 6.48302 17.4481 6.38269 17.2501 6.18202C17.0521 5.98135 16.9531 5.7327 16.9531 5.43606V1.57919C16.9531 1.28255 17.054 1.03389 17.2557 0.833227C17.4575 0.63256 17.7075 0.532227 18.0057 0.532227C18.3039 0.532227 18.5521 0.63256 18.7501 0.833227C18.9481 1.03389 19.0471 1.28255 19.0471 1.57919V5.43606C19.0471 5.7327 18.9462 5.98135 18.7445 6.18202C18.5427 6.38269 18.2927 6.48302 17.9945 6.48302ZM26.1347 9.86552C25.9339 9.66466 25.8361 9.42281 25.8414 9.13998C25.8468 8.85717 25.9499 8.60757 26.1507 8.39118L28.8334 5.65077C29.045 5.43355 29.2963 5.32494 29.5872 5.32494C29.8781 5.32494 30.1333 5.43471 30.3529 5.65427C30.5621 5.86349 30.6667 6.10805 30.6667 6.38793C30.6667 6.66785 30.561 6.91357 30.3494 7.1251L27.609 9.86552C27.3975 10.077 27.1518 10.1828 26.8719 10.1828C26.592 10.1828 26.3462 10.077 26.1347 9.86552ZM30.5641 19.0471C30.2675 19.0471 30.0189 18.9462 29.8182 18.7445C29.6175 18.5427 29.5172 18.2927 29.5172 17.9945C29.5172 17.6963 29.6175 17.4481 29.8182 17.2501C30.0189 17.0521 30.2675 16.9531 30.5641 16.9531H34.421C34.7177 16.9531 34.9663 17.054 35.167 17.2557C35.3676 17.4575 35.468 17.7075 35.468 18.0057C35.468 18.3039 35.3676 18.5521 35.167 18.7501C34.9663 18.9481 34.7177 19.0471 34.421 19.0471H30.5641ZM17.9945 35.468C17.6963 35.468 17.4481 35.3676 17.2501 35.167C17.0521 34.9663 16.9531 34.7177 16.9531 34.421V30.5802C16.9531 30.2835 17.054 30.0349 17.2557 29.8342C17.4575 29.6335 17.7075 29.5332 18.0057 29.5332C18.3039 29.5332 18.5521 29.6335 18.7501 29.8342C18.9481 30.0349 19.0471 30.2835 19.0471 30.5802V34.421C19.0471 34.7177 18.9462 34.9663 18.7445 35.167C18.5427 35.3676 18.2927 35.468 17.9945 35.468ZM8.40723 9.86552L5.65077 7.16677C5.43355 6.9583 5.32494 6.70639 5.32494 6.41106C5.32494 6.11575 5.43563 5.86233 5.65702 5.65077C5.86441 5.44994 6.11162 5.34952 6.39864 5.34952C6.68567 5.34952 6.92782 5.44994 7.1251 5.65077L9.88152 8.40723C10.0824 8.6045 10.1828 8.84666 10.1828 9.13369C10.1828 9.42071 10.0834 9.66466 9.88473 9.86552C9.67028 10.055 9.4201 10.1497 9.13418 10.1497C8.84824 10.1497 8.60592 10.055 8.40723 9.86552ZM28.8772 30.3494L26.1507 27.609C25.9499 27.3926 25.8468 27.143 25.8414 26.8602C25.8361 26.5774 25.9328 26.3355 26.1315 26.1347C26.3234 25.9452 26.5634 25.8505 26.8513 25.8505C27.1392 25.8505 27.3918 25.9506 27.609 26.1507L30.3665 28.8495C30.573 29.0503 30.6729 29.2965 30.6662 29.5882C30.6595 29.8798 30.5589 30.1345 30.3645 30.3523C30.1596 30.5676 29.9098 30.6753 29.6151 30.6753C29.3205 30.6753 29.0745 30.5667 28.8772 30.3494ZM1.57919 19.0471C1.28255 19.0471 1.03389 18.9462 0.833227 18.7445C0.63256 18.5427 0.532227 18.2927 0.532227 17.9945C0.532227 17.6963 0.63256 17.4481 0.833227 17.2501C1.03389 17.0521 1.28255 16.9531 1.57919 16.9531H5.43606C5.7327 16.9531 5.98135 17.054 6.18202 17.2557C6.38268 17.4575 6.48302 17.7075 6.48302 18.0057C6.48302 18.3039 6.38268 18.5521 6.18202 18.7501C5.98135 18.9481 5.7327 19.0471 5.43606 19.0471H1.57919ZM5.66681 30.3432C5.46598 30.1358 5.36288 29.8895 5.35752 29.6042C5.35219 29.319 5.44993 29.076 5.65077 28.8751L8.37514 26.1507C8.57992 25.9506 8.82253 25.8505 9.10298 25.8505C9.38342 25.8505 9.63226 25.9516 9.84948 26.1538C10.0667 26.3744 10.1753 26.6274 10.1753 26.9128C10.1753 27.1982 10.0667 27.4495 9.84948 27.6667L7.16677 30.3494C6.94946 30.5667 6.69446 30.6753 6.40177 30.6753C6.10907 30.6753 5.86409 30.5646 5.66681 30.3432ZM18.0039 27.1667C15.4586 27.1667 13.2939 26.2759 11.5098 24.4942C9.72557 22.7126 8.83348 20.5491 8.83348 18.0039C8.83348 15.4586 9.72431 13.2939 11.506 11.5098C13.2876 9.72557 15.4511 8.83348 17.9963 8.83348C20.5416 8.83348 22.7063 9.72431 24.4904 11.506C26.2746 13.2876 27.1667 15.4511 27.1667 17.9963C27.1667 20.5416 26.2759 22.7063 24.4942 24.4904C22.7126 26.2746 20.5491 27.1667 18.0039 27.1667ZM17.9984 25.0728C19.9568 25.0728 21.6255 24.3839 23.0044 23.0061C24.3833 21.6283 25.0728 19.9602 25.0728 18.0018C25.0728 16.0434 24.3839 14.3747 23.0061 12.9958C21.6283 11.6169 19.9602 10.9274 18.0018 10.9274C16.0434 10.9274 14.3747 11.6163 12.9958 12.9941C11.6169 14.3719 10.9274 16.04 10.9274 17.9984C10.9274 19.9568 11.6163 21.6255 12.9941 23.0044C14.3719 24.3833 16.04 25.0728 17.9984 25.0728Z" fill="white"/>
</svg>
