<svg width="55" height="55" viewBox="0 0 55 55" fill="none" xmlns="http://www.w3.org/2000/svg">
<g id="arrow_back_ios">
<mask id="mask0_212_540" style="mask-type:alpha" maskUnits="userSpaceOnUse" x="0" y="0" width="55" height="55">
<rect id="Bounding box" x="35.5734" y="54.999" width="40" height="40" transform="rotate(-151.332 35.5734 54.999)" fill="#D9D9D9"/>
</mask>
<g mask="url(#mask0_212_540)">
<path id="arrow_back_ios_2" d="M41.0302 35.1888L35.8598 17.5712C35.7553 17.1967 35.7994 16.8329 35.9922 16.48C36.1851 16.127 36.4713 15.8893 36.8508 15.7671C37.2466 15.6537 37.6209 15.6934 37.9736 15.8863C38.3263 16.0791 38.5601 16.3721 38.6748 16.7652L43.9266 34.6927C44.0331 35.0472 44.0616 35.3919 44.012 35.7269C43.9624 36.0618 43.861 36.3694 43.7077 36.6497C43.5545 36.93 43.3506 37.1826 43.0961 37.4075C42.8416 37.6325 42.5331 37.798 42.1707 37.9042L24.2218 43.1639C23.8259 43.2777 23.4556 43.2356 23.111 43.0375C22.7664 42.8393 22.5365 42.5435 22.4212 42.1502C22.3222 41.7656 22.3652 41.3983 22.5501 41.0481C22.7351 40.6979 23.0212 40.4634 23.4083 40.3447L41.0302 35.1888Z" fill="white" fill-opacity="0.7"/>
</g>
</g>
</svg>
