<svg width="140" height="16" viewBox="0 0 122 16" fill="none" xmlns="http://www.w3.org/2000/svg">
<path d="M1 7C0.447715 7 0 7.44772 0 8C0 8.55228 0.447715 9 1 9L1 7ZM121.707 8.70711C122.098 8.31658 122.098 7.68342 121.707 7.29289L115.343 0.928932C114.953 0.538408 114.319 0.538408 113.929 0.928932C113.538 1.31946 113.538 1.95262 113.929 2.34315L119.586 8L113.929 13.6569C113.538 14.0474 113.538 14.6805 113.929 15.0711C114.319 15.4616 114.953 15.4616 115.343 15.0711L121.707 8.70711ZM1 9L121 9V7L1 7L1 9Z" fill="#76CAE8" fill-opacity="0.8"/>
</svg>
