<svg width="60" height="60" viewBox="0 0 60 60" fill="none" xmlns="http://www.w3.org/2000/svg">
<mask id="mask0_1572_1253" style="mask-type:alpha" maskUnits="userSpaceOnUse" x="0" y="0" width="60" height="60">
<rect x="60" width="60" height="60" transform="rotate(90 60 0)" fill="#D9D9D9"/>
</mask>
<g mask="url(#mask0_1572_1253)">
<path d="M30 33.9519L22.1154 26.0673L20.7259 27.3943L30 36.6683L39.2741 27.3943L37.8846 26.0673L30 33.9519ZM7.5 30.0084C7.5 26.897 8.0904 23.9718 9.27119 21.2328C10.452 18.4937 12.065 16.1111 14.1101 14.0849C16.1551 12.0588 18.5379 10.4548 21.2584 9.27287C23.9788 8.09096 26.8899 7.5 29.9916 7.5C33.103 7.5 36.0282 8.0904 38.7672 9.27119C41.5063 10.452 43.8889 12.0546 45.9151 14.0788C47.9412 16.1031 49.5452 18.4834 50.7271 21.2199C51.909 23.9564 52.5 26.8803 52.5 29.9916C52.5 33.103 51.9096 36.0178 50.7288 38.736C49.548 41.4542 47.9454 43.8368 45.9212 45.8838C43.8969 47.9308 41.5166 49.5452 38.7801 50.7271C36.0436 51.909 33.1197 52.5 30.0084 52.5C26.9066 52.5 23.9943 51.9096 21.2713 50.7288C18.5482 49.548 16.1632 47.935 14.1162 45.8899C12.0692 43.8449 10.4548 41.4645 9.27287 38.7489C8.09095 36.0332 7.5 33.1197 7.5 30.0084ZM9.42306 30C9.42306 35.7147 11.4239 40.5729 15.4255 44.5745C19.4271 48.5761 24.2853 50.5769 30 50.5769C35.7244 50.5769 40.585 48.5761 44.5817 44.5745C48.5785 40.5729 50.5769 35.7147 50.5769 30C50.5769 24.2756 48.5785 19.415 44.5817 15.4182C40.585 11.4215 35.7244 9.42306 30 9.42306C24.2853 9.42306 19.4271 11.4215 15.4255 15.4182C11.4239 19.415 9.42306 24.2756 9.42306 30Z" fill="#C3C3C3"/>
</g>
</svg>
