<svg width="50" height="50" viewBox="0 0 40 40" fill="none" xmlns="http://www.w3.org/2000/svg">
<mask id="mask0_811_817" style="mask-type:alpha" maskUnits="userSpaceOnUse" x="0" y="0" width="40" height="40">
<rect y="40" width="40" height="40" transform="rotate(-90 0 40)" fill="#A09D9D"/>
</mask>
<g mask="url(#mask0_811_817)">
<path d="M20 24.9744L32.9776 11.9968C33.2561 11.7183 33.5961 11.5805 33.9978 11.5833C34.3995 11.5862 34.7453 11.7268 35.0352 12.0053C35.3251 12.2881 35.47 12.6321 35.47 13.0373C35.47 13.4426 35.3251 13.7902 35.0352 14.0801L21.8247 27.2884C21.5648 27.5483 21.276 27.7378 20.9583 27.8567C20.6406 27.9757 20.3212 28.0352 20 28.0352C19.6787 28.0352 19.3593 27.9757 19.0416 27.8567C18.724 27.7378 18.4316 27.5483 18.1645 27.2884L4.93909 14.0523C4.6492 13.7695 4.50854 13.4287 4.51709 13.0299C4.52565 12.631 4.67485 12.2866 4.96472 11.9968C5.2546 11.7183 5.59755 11.5762 5.99355 11.5705C6.38955 11.5648 6.7325 11.7069 7.02238 11.9968L20 24.9744Z" fill="#A09D9D"/>
</g>
</svg>
