<svg width="50" height="50" viewBox="0 0 50 50" fill="none" xmlns="http://www.w3.org/2000/svg">
<path d="M18.9408 40.2853C18.9726 38.5293 19.9878 37.3315 20.4914 36.9521C12.4601 36.0172 9.83604 32.1962 9.16015 26.7493C8.48425 21.3023 10.3927 18.7821 11.5854 17.4407C10.8698 16.0586 10.9493 12.2783 11.8637 10.5304C13.4541 10.0426 17.589 12.197 18.742 13.2132C19.5769 12.3596 28.1648 11.7092 31.4648 13.2132C34.6455 10.8556 37.7864 10.1646 38.2237 10.6524C38.6611 11.1401 39.4563 15.205 38.4225 17.4407C41.5237 20.6113 42.0406 27.5623 39.0984 32.1556C35.6394 36.3424 33.3732 36.1391 29.5564 36.9521C30.765 37.8302 31.1732 39.7569 31.2262 40.6105C31.2395 42.0468 31.258 45.3176 31.2262 46.9111C31.1865 48.9029 31.1467 49.35 31.9021 49.8784C32.6575 50.4069 35.4009 48.9029 37.031 48.0899C38.6611 47.2769 42.0406 45.1225 45.3803 40.6105C48.72 36.0985 50.5887 30.0418 49.8333 22.3186C49.0779 14.5953 43.9092 7.19723 37.8659 3.62014C31.8226 0.0430462 21.5648 -2.31458 11.983 3.62014C2.40119 9.55486 -2.76747 22.034 1.52647 34.1474C5.82041 46.2607 14.8456 49.2687 16.8336 49.8784C18.4239 50.3662 18.8215 49.2687 18.8215 48.659V43.8624C17.589 44.2689 15.6806 44.147 14.1697 43.9844C12.8577 43.9031 10.8698 42.8462 10.1939 40.6105C9.51797 38.3748 7.92763 37.3586 7.7686 37.318C7.60956 37.2773 6.33728 36.3424 6.61559 35.8953C6.8939 35.4481 7.92763 35.5294 8.96136 35.8953C9.99508 36.2611 11.3866 37.5619 11.983 38.822C12.4601 39.8301 13.7722 40.5699 14.3685 40.8138C15.0577 41.0712 16.937 41.3259 18.9408 40.2853Z" fill="url(#paint0_linear_324_627)" fill-opacity="0.8"/>
<defs>
<linearGradient id="paint0_linear_324_627" x1="4" y1="25" x2="50" y2="25" gradientUnits="userSpaceOnUse">
<stop stop-color="#AD51DE"/>
<stop offset="1" stop-color="#76CAE8"/>
</linearGradient>
</defs>
</svg>
