<svg width="612" height="212" viewBox="0 0 612 212" fill="none" xmlns="http://www.w3.org/2000/svg">
<g id="gitodocpage">
<g id="Rectangle 121" filter="url(#filter0_d_1497_1143)">
<mask id="path-1-inside-1_1497_1143" fill="white">
<path d="M6 15.543H606V192.999C606 197.969 601.971 201.999 597 201.999H15C10.0294 201.999 6 197.969 6 192.999V15.543Z"/>
</mask>
<path d="M6 15.543H606V192.999C606 197.969 601.971 201.999 597 201.999H15C10.0294 201.999 6 197.969 6 192.999V15.543Z" fill="#1A1A1A"/>
<path d="M6 15.543H606H6ZM606.5 192.999C606.5 198.246 602.247 202.499 597 202.499H15C9.75329 202.499 5.5 198.246 5.5 192.999H6.5C6.5 197.693 10.3056 201.499 15 201.499H597C601.694 201.499 605.5 197.693 605.5 192.999H606.5ZM15 202.499C9.75329 202.499 5.5 198.246 5.5 192.999V15.543H6.5V192.999C6.5 197.693 10.3056 201.499 15 201.499V202.499ZM606.5 15.543V192.999C606.5 198.246 602.247 202.499 597 202.499V201.499C601.694 201.499 605.5 197.693 605.5 192.999V15.543H606.5Z" fill="#454545" mask="url(#path-1-inside-1_1497_1143)"/>
</g>
<g id="bar">
<g id="Rectangle 120" filter="url(#filter1_d_1497_1143)">
<path d="M6 11C6 6.02944 10.0294 2 15 2H597C601.971 2 606 6.02944 606 11V20H6V11Z" fill="#404040"/>
<path d="M15 2.25H597C601.833 2.25 605.75 6.16751 605.75 11V19.75H6.25V11C6.25 6.16751 10.1675 2.25 15 2.25Z" stroke="#454545" stroke-width="0.5"/>
</g>
<circle id="Ellipse 8" cx="18.5" cy="11.5" r="3.35" fill="#FF6059" stroke="#E24239" stroke-width="0.3"/>
<circle id="Ellipse 9" cx="29.5" cy="11.5" r="3.35" fill="#FEBC2C" stroke="#E19E1E" stroke-width="0.3"/>
<circle id="Ellipse 10" cx="40.5" cy="11.5" r="3.35" fill="#2AC740" stroke="#21AA25" stroke-width="0.3"/>
</g>
</g>
<defs>
<filter id="filter0_d_1497_1143" x="0" y="13.543" width="612" height="198.455" filterUnits="userSpaceOnUse" color-interpolation-filters="sRGB">
<feFlood flood-opacity="0" result="BackgroundImageFix"/>
<feColorMatrix in="SourceAlpha" type="matrix" values="0 0 0 0 0 0 0 0 0 0 0 0 0 0 0 0 0 0 127 0" result="hardAlpha"/>
<feOffset dy="4"/>
<feGaussianBlur stdDeviation="3"/>
<feComposite in2="hardAlpha" operator="out"/>
<feColorMatrix type="matrix" values="0 0 0 0 0 0 0 0 0 0 0 0 0 0 0 0 0 0 0.1 0"/>
<feBlend mode="normal" in2="BackgroundImageFix" result="effect1_dropShadow_1497_1143"/>
<feBlend mode="normal" in="SourceGraphic" in2="effect1_dropShadow_1497_1143" result="shape"/>
</filter>
<filter id="filter1_d_1497_1143" x="2" y="0" width="608" height="26" filterUnits="userSpaceOnUse" color-interpolation-filters="sRGB">
<feFlood flood-opacity="0" result="BackgroundImageFix"/>
<feColorMatrix in="SourceAlpha" type="matrix" values="0 0 0 0 0 0 0 0 0 0 0 0 0 0 0 0 0 0 127 0" result="hardAlpha"/>
<feOffset dy="2"/>
<feGaussianBlur stdDeviation="2"/>
<feComposite in2="hardAlpha" operator="out"/>
<feColorMatrix type="matrix" values="0 0 0 0 0 0 0 0 0 0 0 0 0 0 0 0 0 0 0.1 0"/>
<feBlend mode="normal" in2="BackgroundImageFix" result="effect1_dropShadow_1497_1143"/>
<feBlend mode="normal" in="SourceGraphic" in2="effect1_dropShadow_1497_1143" result="shape"/>
</filter>
</defs>
</svg>
