<svg width="88" height="88" viewBox="0 0 88 88" fill="none" xmlns="http://www.w3.org/2000/svg">
<g id="arrow_selector_tool">
<mask id="mask0_438_1056" style="mask-type:alpha" maskUnits="userSpaceOnUse" x="0" y="0" width="88" height="88">
<rect id="Bounding box" x="1.22474" y="19.2813" width="69.765" height="69.765" transform="rotate(-15 1.22474 19.2813)" fill="#D9D9D9" stroke="black" stroke-width="2"/>
</mask>
<g mask="url(#mask0_438_1056)">
<path id="arrow_selector_tool_2" d="M39.6295 50.6156L34.303 64.8086C34.3028 64.8092 34.3026 64.8098 34.3024 64.8103C34.1611 65.1806 33.9932 65.3658 33.8436 65.4636C33.6962 65.56 33.4711 65.6341 33.0987 65.609C32.7231 65.5837 32.4981 65.4801 32.3526 65.3591C32.2059 65.2371 32.0573 65.0286 31.956 64.6505L21.0437 23.9252C20.9606 23.6149 20.9737 23.3918 21.0256 23.2241C21.0772 23.0571 21.1903 22.8705 21.4284 22.6693C21.6728 22.4628 21.8884 22.3699 22.079 22.3375C22.2659 22.3057 22.4914 22.3215 22.7752 22.4296L61.4683 38.9748C61.8216 39.1373 62.0019 39.3167 62.0974 39.4782C62.1922 39.6385 62.2568 39.8707 62.2214 40.2346C62.1849 40.6098 62.0773 40.8369 61.955 40.983C61.8337 41.1278 61.6356 41.2677 61.2869 41.3611L46.2677 45.3855L44.7588 45.7898L45.7576 46.9909L59.9161 64.0156L59.916 64.0157L59.9228 64.0236C60.4346 64.6262 60.6351 65.2643 60.5687 65.9904C60.5017 66.7237 60.189 67.3281 59.5815 67.8442L60.2289 68.6063L59.5815 67.8442C58.9789 68.356 58.3409 68.5565 57.6148 68.4901C56.8822 68.4231 56.2784 68.1111 55.7627 67.5049C55.7621 67.5042 55.7615 67.5036 55.761 67.5029L41.3315 50.3237L40.2308 49.0133L39.6295 50.6156Z" fill="white" stroke="black" stroke-width="2"/>
</g>
</g>
</svg>
