<svg width="33" height="32" viewBox="0 0 33 32" fill="none" xmlns="http://www.w3.org/2000/svg">
<rect x="1.28125" y="0.0849609" width="30" height="31" fill="white"/>
<path d="M7.06752 25.0115H18.9714V23.4731H7.06752V25.0115ZM7.06752 16.7693H25.2137V15.2308H7.06752V16.7693ZM7.06752 8.52695H25.2137V6.98845H7.06752V8.52695ZM2.90983 32C2.14126 32 1.48757 31.7306 0.948775 31.1919C0.410008 30.6531 0.140625 29.9994 0.140625 29.2308V2.7692C0.140625 2.00063 0.410008 1.34695 0.948775 0.808151C1.48757 0.269385 2.14126 0 2.90983 0H29.3714C30.14 0 30.7937 0.269385 31.3325 0.808151C31.8712 1.34695 32.1406 2.00063 32.1406 2.7692V29.2308C32.1406 29.9994 31.8712 30.6531 31.3325 31.1919C30.7937 31.7306 30.14 32 29.3714 32H2.90983ZM2.90983 30.4616H29.3714C29.6791 30.4616 29.9611 30.3334 30.2176 30.077C30.474 29.8205 30.6022 29.5385 30.6022 29.2308V2.7692C30.6022 2.46153 30.474 2.17948 30.2176 1.92305C29.9611 1.66665 29.6791 1.53845 29.3714 1.53845H2.90983C2.60216 1.53845 2.32011 1.66665 2.06367 1.92305C1.80727 2.17948 1.67907 2.46153 1.67907 2.7692V29.2308C1.67907 29.5385 1.80727 29.8205 2.06367 30.077C2.32011 30.3334 2.60216 30.4616 2.90983 30.4616Z" fill="#E5E5E5"/>
</svg>
