<svg width="33" height="33" viewBox="0 0 33 33" fill="none" xmlns="http://www.w3.org/2000/svg">
<rect x="2" y="1" width="30" height="31" fill="#F6F8FA"/>
<path d="M7.7853 25.9266H19.6891V24.3881H7.7853V25.9266ZM7.7853 17.6843H25.9315V16.1458H7.7853V17.6843ZM7.7853 9.44199H25.9315V7.90349H7.7853V9.44199ZM3.6276 32.915C2.85903 32.915 2.20535 32.6457 1.66655 32.1069C1.12778 31.5681 0.858398 30.9144 0.858398 30.1458V3.68424C0.858398 2.91567 1.12778 2.26199 1.66655 1.72319C2.20535 1.18442 2.85903 0.915039 3.6276 0.915039H30.0892C30.8578 0.915039 31.5114 1.18442 32.0502 1.72319C32.589 2.26199 32.8584 2.91567 32.8584 3.68424V30.1458C32.8584 30.9144 32.589 31.5681 32.0502 32.1069C31.5114 32.6457 30.8578 32.915 30.0892 32.915H3.6276ZM3.6276 31.3766H30.0892C30.3969 31.3766 30.6789 31.2484 30.9353 30.992C31.1917 30.7356 31.32 30.4535 31.32 30.1458V3.68424C31.32 3.37657 31.1917 3.09452 30.9353 2.83809C30.6789 2.58169 30.3969 2.45349 30.0892 2.45349H3.6276C3.31993 2.45349 3.03788 2.58169 2.78145 2.83809C2.52505 3.09452 2.39685 3.37657 2.39685 3.68424V30.1458C2.39685 30.4535 2.52505 30.7356 2.78145 30.992C3.03788 31.2484 3.31993 31.3766 3.6276 31.3766Z" fill="#1C1B1F"/>
</svg>
