<svg width="33" height="32" viewBox="0 0 33 32" fill="none" xmlns="http://www.w3.org/2000/svg">
<rect x="2" y="0.0849609" width="30" height="31" fill="#111111"/>
<path d="M7.78627 25.0115H19.6901V23.4731H7.78627V25.0115ZM7.78627 16.7693H25.9325V15.2308H7.78627V16.7693ZM7.78627 8.52695H25.9325V6.98845H7.78627V8.52695ZM3.62858 32C2.86001 32 2.20632 31.7306 1.66752 31.1919C1.12876 30.6531 0.859375 29.9994 0.859375 29.2308V2.7692C0.859375 2.00063 1.12876 1.34695 1.66752 0.808151C2.20632 0.269385 2.86001 0 3.62858 0H30.0902C30.8587 0 31.5124 0.269385 32.0512 0.808151C32.59 1.34695 32.8594 2.00063 32.8594 2.7692V29.2308C32.8594 29.9994 32.59 30.6531 32.0512 31.1919C31.5124 31.7306 30.8587 32 30.0902 32H3.62858ZM3.62858 30.4616H30.0902C30.3978 30.4616 30.6799 30.3334 30.9363 30.077C31.1927 29.8205 31.3209 29.5385 31.3209 29.2308V2.7692C31.3209 2.46153 31.1927 2.17948 30.9363 1.92305C30.6799 1.66665 30.3978 1.53845 30.0902 1.53845H3.62858C3.32091 1.53845 3.03886 1.66665 2.78242 1.92305C2.52602 2.17948 2.39782 2.46153 2.39782 2.7692V29.2308C2.39782 29.5385 2.52602 29.8205 2.78242 30.077C3.03886 30.3334 3.32091 30.4616 3.62858 30.4616Z" fill="#252525"/>
</svg>
