<svg width="34" height="31" viewBox="0 0 34 31" fill="none" xmlns="http://www.w3.org/2000/svg">
<g id="arrow">
<g id="arrow_back_ios">
<path id="arrow_back_ios_2" d="M17.2341 26.9921L31.0125 13.2023C31.3082 12.9142 31.6696 12.7701 32.0966 12.77C32.5236 12.7698 32.8907 12.9154 33.198 13.2067C33.5052 13.5176 33.6588 13.8865 33.6588 14.3133C33.6588 14.7402 33.5049 15.1071 33.1972 15.4142L19.1715 29.4376C18.8955 29.7174 18.5888 29.9195 18.2516 30.0439C17.9143 30.1683 17.5761 30.2305 17.2369 30.2305C16.8978 30.2305 16.5586 30.1692 16.2195 30.0467C15.8803 29.9242 15.5689 29.7212 15.2854 29.4376L1.24384 15.396C0.936063 15.0852 0.786717 14.7188 0.7958 14.2969C0.804884 13.875 0.963298 13.5101 1.27105 13.2023C1.57882 12.9142 1.94293 12.7672 2.36337 12.7611C2.78381 12.7551 3.14791 12.9021 3.45569 13.2023L17.2341 26.9921Z" fill="#0842A0"/>
</g>
<g id="arrow_back_ios_3">
<path id="arrow_back_ios_4" d="M17.2341 14.4609L31.0125 0.671086C31.3082 0.382979 31.6696 0.238853 32.0966 0.238705C32.5236 0.238558 32.8907 0.384128 33.198 0.675419C33.5052 0.986353 33.6588 1.35524 33.6588 1.78208C33.6588 2.20891 33.5049 2.57587 33.1972 2.88294L19.1715 16.9063C18.8955 17.1861 18.5888 17.3882 18.2516 17.5126C17.9143 17.637 17.5761 17.6992 17.2369 17.6992C16.8978 17.6992 16.5586 17.638 16.2195 17.5155C15.8803 17.3929 15.5689 17.1899 15.2854 16.9063L1.24384 2.8648C0.936063 2.55392 0.786717 2.18753 0.7958 1.76562C0.804884 1.34371 0.963298 0.978865 1.27105 0.671087C1.57882 0.382981 1.94293 0.235904 2.36337 0.229858C2.78381 0.223812 3.14791 0.370889 3.45569 0.671087L17.2341 14.4609Z" fill="#0842A0"/>
</g>
</g>
</svg>
