<svg width="36" height="32" viewBox="0 0 36 32" fill="none" xmlns="http://www.w3.org/2000/svg">
<path d="M18 29.2498L33.95 13.2498C34.15 13.0831 34.4012 12.9928 34.7035 12.9789C35.0059 12.9649 35.2559 13.0482 35.4535 13.2289C35.6512 13.4428 35.75 13.7006 35.75 14.0021C35.75 14.3036 35.65 14.5528 35.45 14.7498L19.85 30.2998C19.5833 30.5831 19.2917 30.779 18.975 30.8873C18.6583 30.9956 18.3375 31.0498 18.0125 31.0498C17.6875 31.0498 17.3625 30.9998 17.0375 30.8998C16.7125 30.7998 16.4 30.5998 16.1 30.2998L0.549999 14.7498C0.349999 14.5361 0.249999 14.2827 0.249999 13.9896C0.249999 13.6964 0.349999 13.4498 0.549999 13.2498C0.749999 13.0831 0.999999 12.9998 1.3 12.9998C1.6 12.9998 1.85 13.0831 2.05 13.2498L18 29.2498Z" fill="#AAAAAA"/>
<path d="M18 17.2498L33.95 1.2498C34.15 1.08314 34.4012 0.992818 34.7035 0.978852C35.0059 0.964852 35.2559 1.04819 35.4535 1.22885C35.6512 1.44282 35.75 1.70055 35.75 2.00205C35.75 2.30359 35.65 2.55284 35.45 2.7498L19.85 18.2998C19.5833 18.5831 19.2917 18.779 18.975 18.8873C18.6583 18.9956 18.3375 19.0498 18.0125 19.0498C17.6875 19.0498 17.3625 18.9998 17.0375 18.8998C16.7125 18.7998 16.4 18.5998 16.1 18.2998L0.549999 2.7498C0.349999 2.5361 0.249999 2.28269 0.249999 1.98955C0.249999 1.69639 0.349999 1.4498 0.549999 1.2498C0.749999 1.08314 0.999999 0.999804 1.3 0.999803C1.6 0.999803 1.85 1.08314 2.05 1.2498L18 17.2498Z" fill="#AAAAAA"/>
</svg>
