<svg width="15" height="20" viewBox="0 0 15 20" fill="none" xmlns="http://www.w3.org/2000/svg">
<path d="M0.5 1.08594H9.5L14 5.58594V18.0859H0.5V1.08594Z" fill="#111111"/>
<path d="M1.8077 19.0859C1.30257 19.0859 0.875 18.9109 0.525 18.5609C0.175 18.2109 0 17.7833 0 17.2782V1.89364C0 1.38851 0.175 0.960938 0.525 0.610938C0.875 0.260938 1.30257 0.0859375 1.8077 0.0859375H9.75L15 5.33589V17.2782C15 17.7833 14.825 18.2109 14.475 18.5609C14.125 18.9109 13.6974 19.0859 13.1922 19.0859H1.8077ZM9 6.08589V1.58591H1.8077C1.73077 1.58591 1.66024 1.61796 1.59612 1.68206C1.53202 1.74618 1.49997 1.81671 1.49997 1.89364V17.2782C1.49997 17.3551 1.53202 17.4256 1.59612 17.4898C1.66024 17.5539 1.73077 17.5859 1.8077 17.5859H13.1922C13.2692 17.5859 13.3397 17.5539 13.4038 17.4898C13.4679 17.4256 13.5 17.3551 13.5 17.2782V6.08589H9Z" fill="#848D97"/>
</svg>
