<svg width="38" height="39" viewBox="0 0 38 39" fill="none" xmlns="http://www.w3.org/2000/svg">
<circle cx="19" cy="19.085" r="19" fill="#111111"/>
<path d="M14.395 29.0904C14.4192 27.8261 15.1907 26.9637 15.5734 26.6905C9.4697 26.0174 7.47539 23.2662 6.96171 19.3444C6.44803 15.4226 7.89843 13.6081 8.80492 12.6423C8.26102 11.6472 8.32146 8.92535 9.01644 7.66686C10.2251 7.31565 13.3676 8.86681 14.2439 9.59849C14.8785 8.98388 21.4052 8.51561 23.9132 9.59849C26.3306 7.901 28.7177 7.40346 29.05 7.75466C29.3824 8.10587 29.9868 11.0326 29.2011 12.6423C31.558 14.9251 31.9508 19.9298 29.7148 23.237C27.086 26.2515 25.3636 26.1051 22.4628 26.6905C23.3814 27.3227 23.6916 28.7099 23.7319 29.3245C23.742 30.3586 23.7561 32.7137 23.7319 33.8609C23.7017 35.295 23.6715 35.617 24.2456 35.9974C24.8197 36.3779 26.9047 35.295 28.1436 34.7097C29.3824 34.1243 31.9508 32.5732 34.489 29.3245C37.0272 26.0759 38.4474 21.7151 37.8733 16.1543C37.2992 10.5936 33.371 5.26697 28.7781 2.69146C24.1852 0.115954 16.3893 -1.58154 9.10709 2.69146C1.8249 6.96446 -2.10328 15.9495 1.16012 24.6711C4.42351 33.3927 11.2827 35.5584 12.7935 35.9974C14.0022 36.3486 14.3043 35.5584 14.3043 35.1194V31.6659C13.3676 31.9586 11.9172 31.8708 10.769 31.7537C9.77185 31.6952 8.26102 30.9342 7.74734 29.3245C7.23365 27.7148 6.025 26.9832 5.90413 26.9539C5.78327 26.9246 4.81634 26.2515 5.02785 25.9296C5.23937 25.6076 6.025 25.6662 6.81063 25.9296C7.59626 26.193 8.65384 27.1295 9.10709 28.0368C9.46969 28.7626 10.4668 29.2953 10.9201 29.4709C11.4438 29.6562 12.8721 29.8396 14.395 29.0904Z" fill="white"/>
</svg>
