<svg width="38" height="38" viewBox="0 0 38 38" fill="none" xmlns="http://www.w3.org/2000/svg">
<circle cx="19" cy="19" r="19" fill="#F6F8FA"/>
<path d="M14.395 29.0054C14.4192 27.7411 15.1907 26.8787 15.5734 26.6055C9.4697 25.9324 7.47539 23.1813 6.96171 19.2595C6.44803 15.3377 7.89843 13.5231 8.80492 12.5573C8.26102 11.5622 8.32146 8.84038 9.01644 7.5819C10.2251 7.23069 13.3676 8.78185 14.2439 9.51353C14.8785 8.89892 21.4052 8.43064 23.9132 9.51353C26.3306 7.81604 28.7177 7.31849 29.05 7.6697C29.3824 8.02091 29.9868 10.9476 29.2011 12.5573C31.558 14.8401 31.9508 19.8448 29.7148 23.152C27.086 26.1665 25.3636 26.0202 22.4628 26.6055C23.3814 27.2377 23.6916 28.625 23.7319 29.2396C23.742 30.2737 23.7561 32.6287 23.7319 33.776C23.7017 35.2101 23.6715 35.532 24.2456 35.9125C24.8197 36.293 26.9047 35.2101 28.1436 34.6247C29.3824 34.0394 31.9508 32.4882 34.489 29.2396C37.0272 25.9909 38.4474 21.6301 37.8733 16.0694C37.2992 10.5086 33.371 5.18201 28.7781 2.6065C24.1852 0.0309932 16.3893 -1.6665 9.10709 2.6065C1.8249 6.8795 -2.10328 15.8645 1.16012 24.5861C4.42351 33.3077 11.2827 35.4735 12.7935 35.9125C14.0022 36.2637 14.3043 35.4735 14.3043 35.0345V31.5809C13.3676 31.8736 11.9172 31.7858 10.769 31.6687C9.77185 31.6102 8.26102 30.8493 7.74734 29.2396C7.23365 27.6299 6.025 26.8982 5.90413 26.8689C5.78327 26.8397 4.81634 26.1665 5.02785 25.8446C5.23937 25.5227 6.025 25.5812 6.81063 25.8446C7.59626 26.108 8.65384 27.0445 9.10709 27.9518C9.46969 28.6777 10.4668 29.2103 10.9201 29.3859C11.4438 29.5713 12.8721 29.7547 14.395 29.0054Z" fill="black"/>
</svg>
