<svg width="994" height="633" viewBox="0 0 994 633" fill="none" xmlns="http://www.w3.org/2000/svg">
<g id="gitodocpage">
<g id="page">
<g id="Rectangle 120" filter="url(#filter0_d_955_1139)">
<path d="M6 18C6 9.16344 13.1634 2 22 2H972C980.837 2 988 9.16344 988 18V45H6V18Z" fill="#404040"/>
<path d="M6.25 18C6.25 9.30152 13.3015 2.25 22 2.25H972C980.698 2.25 987.75 9.30152 987.75 18V44.75H6.25V18Z" stroke="#454545" stroke-width="0.5"/>
</g>
<g id="Rectangle 121" filter="url(#filter1_d_955_1139)">
<mask id="path-3-inside-1_955_1139" fill="white">
<path d="M6 45H988V607C988 615.837 980.837 623 972 623H22C13.1635 623 6 615.837 6 607V45Z"/>
</mask>
<path d="M6 45H988V607C988 615.837 980.837 623 972 623H22C13.1635 623 6 615.837 6 607V45Z" fill="#1A1A1A"/>
<path d="M6 45H988H6ZM988.5 607C988.5 616.113 981.113 623.5 972 623.5H22C12.8873 623.5 5.5 616.113 5.5 607H6.5C6.5 615.56 13.4396 622.5 22 622.5H972C980.56 622.5 987.5 615.56 987.5 607H988.5ZM22 623.5C12.8873 623.5 5.5 616.113 5.5 607V45H6.5V607C6.5 615.56 13.4396 622.5 22 622.5V623.5ZM988.5 45V607C988.5 616.113 981.113 623.5 972 623.5V622.5C980.56 622.5 987.5 615.56 987.5 607V45H988.5Z" fill="#454545" mask="url(#path-3-inside-1_955_1139)"/>
</g>
</g>
<path id="Ellipse 8" d="M40.2458 24.1984C40.2458 28.0911 37.0904 31.2467 33.1979 31.2467C29.3055 31.2467 26.15 28.0911 26.15 24.1984C26.15 20.3057 29.3055 17.15 33.1979 17.15C37.0904 17.15 40.2458 20.3057 40.2458 24.1984Z" fill="#FF6059" stroke="#E24239" stroke-width="0.3"/>
<path id="Ellipse 9" d="M64.2732 24.1984C64.2732 28.0911 61.1177 31.2467 57.2253 31.2467C53.3328 31.2467 50.1773 28.0911 50.1773 24.1984C50.1773 20.3057 53.3328 17.15 57.2253 17.15C61.1177 17.15 64.2732 20.3057 64.2732 24.1984Z" fill="#FEBC2C" stroke="#E19E1E" stroke-width="0.3"/>
<path id="Ellipse 10" d="M88.3005 24.1984C88.3005 28.0911 85.1451 31.2467 81.2526 31.2467C77.3602 31.2467 74.2047 28.0911 74.2047 24.1984C74.2047 20.3057 77.3602 17.15 81.2526 17.15C85.1451 17.15 88.3005 20.3057 88.3005 24.1984Z" fill="#2AC740" stroke="#21AA25" stroke-width="0.3"/>
<g id="logo url">
<g id="URL">
<g id="Rectangle 10" filter="url(#filter2_d_955_1139)">
<rect id="Rectangle 10_2" x="166.5" y="371.5" width="661" height="95" rx="47.5" stroke="url(#paint0_linear_955_1139)"/>
</g>
</g>
<path id="Join us to change github repository to file!" d="M321.473 317.859V328.035C321.473 328.934 321.31 329.695 320.984 330.32C320.659 330.939 320.203 331.408 319.617 331.727C319.038 332.039 318.364 332.195 317.596 332.195C316.854 332.195 316.186 332.059 315.594 331.785C315.008 331.505 314.549 331.115 314.217 330.613C313.885 330.105 313.719 329.52 313.719 328.855H315.096C315.096 329.266 315.203 329.63 315.418 329.949C315.639 330.262 315.939 330.506 316.316 330.682C316.694 330.857 317.12 330.945 317.596 330.945C318.37 330.945 318.976 330.704 319.412 330.223C319.855 329.734 320.076 329.005 320.076 328.035V317.859H321.473ZM328.768 332.215C327.856 332.215 327.039 331.984 326.316 331.521C325.6 331.059 325.044 330.415 324.646 329.588C324.249 328.755 324.051 327.804 324.051 326.736C324.051 325.662 324.249 324.712 324.646 323.885C325.044 323.051 325.6 322.404 326.316 321.941C327.039 321.479 327.856 321.248 328.768 321.248C329.679 321.248 330.49 321.479 331.199 321.941C331.915 322.404 332.469 323.051 332.859 323.885C333.257 324.712 333.455 325.662 333.455 326.736C333.455 327.804 333.257 328.755 332.859 329.588C332.469 330.415 331.915 331.059 331.199 331.521C330.49 331.984 329.679 332.215 328.768 332.215ZM328.768 331.023C329.471 331.023 330.076 330.831 330.584 330.447C331.092 330.063 331.476 329.546 331.736 328.895C331.997 328.243 332.127 327.524 332.127 326.736C332.127 325.949 331.997 325.229 331.736 324.578C331.476 323.927 331.092 323.41 330.584 323.025C330.076 322.635 329.471 322.439 328.768 322.439C328.064 322.439 327.459 322.635 326.951 323.025C326.443 323.41 326.056 323.927 325.789 324.578C325.522 325.229 325.389 325.949 325.389 326.736C325.389 327.524 325.519 328.243 325.779 328.895C326.046 329.546 326.434 330.063 326.941 330.447C327.456 330.831 328.064 331.023 328.768 331.023ZM335.809 321.395H337.137V332H335.809V321.395ZM336.463 319.588C336.294 319.588 336.134 319.549 335.984 319.471C335.835 319.386 335.717 319.272 335.633 319.129C335.548 318.979 335.506 318.823 335.506 318.66C335.506 318.491 335.548 318.338 335.633 318.201C335.717 318.058 335.835 317.947 335.984 317.869C336.134 317.785 336.294 317.742 336.463 317.742C336.652 317.742 336.821 317.785 336.971 317.869C337.12 317.947 337.238 318.058 337.322 318.201C337.407 318.338 337.449 318.491 337.449 318.66C337.449 318.823 337.407 318.979 337.322 319.129C337.238 319.272 337.12 319.386 336.971 319.471C336.821 319.549 336.652 319.588 336.463 319.588ZM341.336 332H340.008V321.395H341.297V323.064H341.404C341.678 322.492 342.075 322.049 342.596 321.736C343.123 321.417 343.771 321.258 344.539 321.258C345.262 321.258 345.89 321.408 346.424 321.707C346.964 322 347.381 322.439 347.674 323.025C347.973 323.611 348.123 324.321 348.123 325.154V332H346.795V325.232C346.795 324.666 346.688 324.174 346.473 323.758C346.264 323.341 345.962 323.022 345.564 322.801C345.174 322.573 344.708 322.459 344.168 322.459C343.621 322.459 343.133 322.579 342.703 322.82C342.273 323.055 341.938 323.396 341.697 323.846C341.456 324.288 341.336 324.812 341.336 325.418V332ZM362.576 321.395H363.885V332H362.576V330.232H362.469C362.202 330.799 361.798 331.258 361.258 331.609C360.717 331.961 360.07 332.137 359.314 332.137C358.631 332.137 358.025 331.987 357.498 331.688C356.977 331.382 356.567 330.939 356.268 330.359C355.975 329.773 355.828 329.067 355.828 328.24V321.395H357.156V328.162C357.156 328.689 357.264 329.158 357.479 329.568C357.7 329.972 358.003 330.288 358.387 330.516C358.777 330.737 359.217 330.848 359.705 330.848C360.193 330.848 360.656 330.734 361.092 330.506C361.528 330.271 361.883 329.93 362.156 329.48C362.436 329.031 362.576 328.501 362.576 327.889V321.395ZM372.654 324.012C372.537 323.504 372.28 323.11 371.883 322.83C371.486 322.544 370.968 322.4 370.33 322.4C369.868 322.394 369.454 322.469 369.09 322.625C368.725 322.781 368.439 322.999 368.23 323.279C368.022 323.553 367.918 323.862 367.918 324.207C367.918 324.617 368.074 324.965 368.387 325.252C368.706 325.532 369.188 325.75 369.832 325.906L371.434 326.307C372.332 326.521 373.006 326.863 373.455 327.332C373.904 327.801 374.129 328.393 374.129 329.109C374.129 329.708 373.969 330.245 373.65 330.721C373.338 331.189 372.882 331.557 372.283 331.824C371.684 332.085 370.971 332.215 370.145 332.215C369.396 332.215 368.745 332.104 368.191 331.883C367.645 331.655 367.202 331.323 366.863 330.887C366.531 330.451 366.32 329.923 366.229 329.305H367.625C367.736 329.871 367.999 330.304 368.416 330.604C368.839 330.896 369.406 331.043 370.115 331.043C370.643 331.043 371.105 330.968 371.502 330.818C371.906 330.669 372.215 330.454 372.43 330.174C372.651 329.887 372.762 329.559 372.762 329.188C372.762 328.758 372.612 328.4 372.312 328.113C372.013 327.82 371.554 327.605 370.936 327.469L369.314 327.078C368.423 326.863 367.742 326.518 367.273 326.043C366.811 325.561 366.58 324.972 366.58 324.275C366.58 323.696 366.74 323.175 367.059 322.713C367.378 322.251 367.817 321.893 368.377 321.639C368.943 321.378 369.594 321.248 370.33 321.248C371.007 321.248 371.606 321.365 372.127 321.6C372.654 321.827 373.074 322.15 373.387 322.566C373.706 322.983 373.901 323.465 373.973 324.012H372.654ZM385.574 322.527H380.428V321.395H385.574V322.527ZM383.348 318.855V329.178C383.348 329.601 383.416 329.936 383.553 330.184C383.696 330.431 383.882 330.61 384.109 330.721C384.344 330.825 384.611 330.877 384.91 330.877C385.197 330.877 385.49 330.867 385.789 330.848V332.088C385.522 332.133 385.187 332.156 384.783 332.156C384.308 332.156 383.859 332.052 383.436 331.844C383.012 331.635 382.667 331.329 382.4 330.926C382.14 330.522 382.01 330.044 382.01 329.49V318.855H383.348ZM392.029 332.215C391.118 332.215 390.301 331.984 389.578 331.521C388.862 331.059 388.305 330.415 387.908 329.588C387.511 328.755 387.312 327.804 387.312 326.736C387.312 325.662 387.511 324.712 387.908 323.885C388.305 323.051 388.862 322.404 389.578 321.941C390.301 321.479 391.118 321.248 392.029 321.248C392.941 321.248 393.751 321.479 394.461 321.941C395.177 322.404 395.73 323.051 396.121 323.885C396.518 324.712 396.717 325.662 396.717 326.736C396.717 327.804 396.518 328.755 396.121 329.588C395.73 330.415 395.177 331.059 394.461 331.521C393.751 331.984 392.941 332.215 392.029 332.215ZM392.029 331.023C392.732 331.023 393.338 330.831 393.846 330.447C394.354 330.063 394.738 329.546 394.998 328.895C395.258 328.243 395.389 327.524 395.389 326.736C395.389 325.949 395.258 325.229 394.998 324.578C394.738 323.927 394.354 323.41 393.846 323.025C393.338 322.635 392.732 322.439 392.029 322.439C391.326 322.439 390.721 322.635 390.213 323.025C389.705 323.41 389.318 323.927 389.051 324.578C388.784 325.229 388.65 325.949 388.65 326.736C388.65 327.524 388.781 328.243 389.041 328.895C389.308 329.546 389.695 330.063 390.203 330.447C390.717 330.831 391.326 331.023 392.029 331.023ZM408.084 332.215C407.14 332.215 406.31 331.98 405.594 331.512C404.878 331.036 404.324 330.385 403.934 329.559C403.543 328.725 403.348 327.785 403.348 326.736C403.348 325.682 403.546 324.738 403.943 323.904C404.34 323.071 404.894 322.42 405.604 321.951C406.313 321.482 407.13 321.248 408.055 321.248C408.771 321.248 409.422 321.385 410.008 321.658C410.6 321.932 411.082 322.322 411.453 322.83C411.824 323.331 412.059 323.911 412.156 324.568H410.809C410.73 324.171 410.568 323.813 410.32 323.494C410.073 323.169 409.757 322.911 409.373 322.723C408.995 322.534 408.566 322.439 408.084 322.439C407.42 322.439 406.831 322.618 406.316 322.977C405.809 323.335 405.408 323.836 405.115 324.48C404.829 325.118 404.686 325.857 404.686 326.697C404.686 327.537 404.826 328.286 405.105 328.943C405.392 329.594 405.789 330.102 406.297 330.467C406.811 330.831 407.407 331.014 408.084 331.014C408.54 331.014 408.96 330.929 409.344 330.76C409.728 330.59 410.047 330.343 410.301 330.018C410.561 329.692 410.734 329.314 410.818 328.885H412.156C412.065 329.529 411.837 330.102 411.473 330.604C411.115 331.105 410.643 331.499 410.057 331.785C409.471 332.072 408.813 332.215 408.084 332.215ZM415.73 332H414.402V317.859H415.73V323.064H415.848C416.108 322.492 416.499 322.049 417.02 321.736C417.547 321.417 418.201 321.258 418.982 321.258C419.718 321.258 420.356 321.408 420.896 321.707C421.437 322 421.854 322.439 422.146 323.025C422.446 323.611 422.596 324.321 422.596 325.154V332H421.268V325.232C421.268 324.666 421.16 324.174 420.945 323.758C420.73 323.335 420.424 323.012 420.027 322.791C419.63 322.57 419.161 322.459 418.621 322.459C418.068 322.459 417.573 322.579 417.137 322.82C416.701 323.055 416.355 323.396 416.102 323.846C415.854 324.288 415.73 324.812 415.73 325.418V332ZM431.941 326.805C431.844 326.811 431.251 326.857 430.164 326.941L429.051 327.02C428.126 327.085 427.433 327.293 426.971 327.645C426.508 327.99 426.277 328.471 426.277 329.09C426.277 329.493 426.378 329.842 426.58 330.135C426.788 330.428 427.075 330.652 427.439 330.809C427.804 330.965 428.214 331.043 428.67 331.043C429.295 331.043 429.842 330.906 430.311 330.633C430.786 330.353 431.154 329.979 431.414 329.51C431.674 329.041 431.805 328.523 431.805 327.957V324.715C431.805 324.24 431.707 323.829 431.512 323.484C431.316 323.139 431.023 322.879 430.633 322.703C430.249 322.521 429.78 322.43 429.227 322.43C428.549 322.43 427.98 322.573 427.518 322.859C427.062 323.139 426.769 323.523 426.639 324.012H425.252C425.33 323.458 425.548 322.973 425.906 322.557C426.271 322.14 426.743 321.818 427.322 321.59C427.908 321.362 428.562 321.248 429.285 321.248C429.923 321.248 430.525 321.352 431.092 321.561C431.658 321.769 432.137 322.14 432.527 322.674C432.924 323.208 433.123 323.927 433.123 324.832V332H431.805V330.359H431.727C431.57 330.685 431.346 330.991 431.053 331.277C430.766 331.557 430.402 331.788 429.959 331.971C429.516 332.153 429.015 332.244 428.455 332.244C427.804 332.244 427.212 332.117 426.678 331.863C426.15 331.609 425.73 331.238 425.418 330.75C425.105 330.262 424.949 329.689 424.949 329.031C424.949 327.996 425.298 327.238 425.994 326.756C426.697 326.268 427.651 325.981 428.855 325.896C429.148 325.87 429.796 325.825 430.799 325.76L431.932 325.711L431.941 326.805ZM437.332 332H436.004V321.395H437.293V323.064H437.4C437.674 322.492 438.071 322.049 438.592 321.736C439.119 321.417 439.767 321.258 440.535 321.258C441.258 321.258 441.886 321.408 442.42 321.707C442.96 322 443.377 322.439 443.67 323.025C443.969 323.611 444.119 324.321 444.119 325.154V332H442.791V325.232C442.791 324.666 442.684 324.174 442.469 323.758C442.26 323.341 441.958 323.022 441.561 322.801C441.17 322.573 440.704 322.459 440.164 322.459C439.617 322.459 439.129 322.579 438.699 322.82C438.27 323.055 437.934 323.396 437.693 323.846C437.452 324.288 437.332 324.812 437.332 325.418V332ZM451.082 336.199C450.301 336.199 449.598 336.089 448.973 335.867C448.354 335.646 447.853 335.32 447.469 334.891C447.091 334.467 446.86 333.95 446.775 333.338H448.172C448.302 333.891 448.624 334.308 449.139 334.588C449.653 334.874 450.301 335.018 451.082 335.018C452.072 335.018 452.833 334.783 453.367 334.314C453.901 333.852 454.168 333.149 454.168 332.205V329.852H454.061C453.878 330.236 453.66 330.571 453.406 330.857C453.152 331.144 452.807 331.388 452.371 331.59C451.941 331.792 451.427 331.893 450.828 331.893C449.982 331.893 449.227 331.678 448.562 331.248C447.898 330.818 447.378 330.203 447 329.402C446.622 328.602 446.434 327.667 446.434 326.6C446.434 325.538 446.619 324.604 446.99 323.797C447.361 322.983 447.879 322.355 448.543 321.912C449.207 321.469 449.975 321.248 450.848 321.248C451.453 321.248 451.967 321.352 452.391 321.561C452.82 321.769 453.149 322.01 453.377 322.283C453.611 322.557 453.849 322.915 454.09 323.357H454.197V321.395H455.506V332.273C455.506 333.139 455.317 333.865 454.939 334.451C454.568 335.044 454.051 335.483 453.387 335.77C452.723 336.056 451.954 336.199 451.082 336.199ZM450.994 330.682C451.658 330.682 452.231 330.519 452.713 330.193C453.195 329.868 453.562 329.406 453.816 328.807C454.07 328.201 454.197 327.479 454.197 326.639C454.197 325.818 454.07 325.092 453.816 324.461C453.569 323.829 453.204 323.338 452.723 322.986C452.247 322.628 451.671 322.449 450.994 322.449C450.324 322.449 449.747 322.635 449.266 323.006C448.784 323.37 448.416 323.868 448.162 324.5C447.908 325.132 447.781 325.844 447.781 326.639C447.781 327.439 447.908 328.146 448.162 328.758C448.416 329.363 448.784 329.835 449.266 330.174C449.747 330.512 450.324 330.682 450.994 330.682ZM462.684 332.215C461.707 332.215 460.851 331.987 460.115 331.531C459.38 331.076 458.813 330.434 458.416 329.607C458.019 328.781 457.82 327.833 457.82 326.766C457.82 325.704 458.019 324.754 458.416 323.914C458.813 323.074 459.367 322.42 460.076 321.951C460.786 321.482 461.596 321.248 462.508 321.248C463.315 321.248 464.061 321.44 464.744 321.824C465.428 322.202 465.975 322.785 466.385 323.572C466.801 324.36 467.01 325.327 467.01 326.473V327.098H458.729V325.945H465.672C465.672 325.281 465.538 324.686 465.271 324.158C465.005 323.624 464.63 323.204 464.148 322.898C463.667 322.592 463.12 322.439 462.508 322.439C461.857 322.439 461.277 322.612 460.77 322.957C460.262 323.296 459.865 323.758 459.578 324.344C459.298 324.923 459.158 325.551 459.158 326.229V326.932C459.158 327.758 459.301 328.481 459.588 329.1C459.881 329.718 460.291 330.193 460.818 330.525C461.352 330.857 461.974 331.023 462.684 331.023C463.146 331.023 463.556 330.955 463.914 330.818C464.279 330.675 464.581 330.499 464.822 330.291C465.07 330.083 465.258 329.852 465.389 329.598H466.814C466.652 330.092 466.382 330.538 466.004 330.936C465.626 331.326 465.154 331.639 464.588 331.873C464.021 332.101 463.387 332.215 462.684 332.215ZM478.289 336.199C477.508 336.199 476.805 336.089 476.18 335.867C475.561 335.646 475.06 335.32 474.676 334.891C474.298 334.467 474.067 333.95 473.982 333.338H475.379C475.509 333.891 475.831 334.308 476.346 334.588C476.86 334.874 477.508 335.018 478.289 335.018C479.279 335.018 480.04 334.783 480.574 334.314C481.108 333.852 481.375 333.149 481.375 332.205V329.852H481.268C481.085 330.236 480.867 330.571 480.613 330.857C480.359 331.144 480.014 331.388 479.578 331.59C479.148 331.792 478.634 331.893 478.035 331.893C477.189 331.893 476.434 331.678 475.77 331.248C475.105 330.818 474.585 330.203 474.207 329.402C473.829 328.602 473.641 327.667 473.641 326.6C473.641 325.538 473.826 324.604 474.197 323.797C474.568 322.983 475.086 322.355 475.75 321.912C476.414 321.469 477.182 321.248 478.055 321.248C478.66 321.248 479.174 321.352 479.598 321.561C480.027 321.769 480.356 322.01 480.584 322.283C480.818 322.557 481.056 322.915 481.297 323.357H481.404V321.395H482.713V332.273C482.713 333.139 482.524 333.865 482.146 334.451C481.775 335.044 481.258 335.483 480.594 335.77C479.93 336.056 479.161 336.199 478.289 336.199ZM478.201 330.682C478.865 330.682 479.438 330.519 479.92 330.193C480.402 329.868 480.77 329.406 481.023 328.807C481.277 328.201 481.404 327.479 481.404 326.639C481.404 325.818 481.277 325.092 481.023 324.461C480.776 323.829 480.411 323.338 479.93 322.986C479.454 322.628 478.878 322.449 478.201 322.449C477.531 322.449 476.954 322.635 476.473 323.006C475.991 323.37 475.623 323.868 475.369 324.5C475.115 325.132 474.988 325.844 474.988 326.639C474.988 327.439 475.115 328.146 475.369 328.758C475.623 329.363 475.991 329.835 476.473 330.174C476.954 330.512 477.531 330.682 478.201 330.682ZM485.594 321.395H486.922V332H485.594V321.395ZM486.248 319.588C486.079 319.588 485.919 319.549 485.77 319.471C485.62 319.386 485.503 319.272 485.418 319.129C485.333 318.979 485.291 318.823 485.291 318.66C485.291 318.491 485.333 318.338 485.418 318.201C485.503 318.058 485.62 317.947 485.77 317.869C485.919 317.785 486.079 317.742 486.248 317.742C486.437 317.742 486.606 317.785 486.756 317.869C486.906 317.947 487.023 318.058 487.107 318.201C487.192 318.338 487.234 318.491 487.234 318.66C487.234 318.823 487.192 318.979 487.107 319.129C487.023 319.272 486.906 319.386 486.756 319.471C486.606 319.549 486.437 319.588 486.248 319.588ZM494.051 322.527H488.904V321.395H494.051V322.527ZM491.824 318.855V329.178C491.824 329.601 491.893 329.936 492.029 330.184C492.173 330.431 492.358 330.61 492.586 330.721C492.82 330.825 493.087 330.877 493.387 330.877C493.673 330.877 493.966 330.867 494.266 330.848V332.088C493.999 332.133 493.663 332.156 493.26 332.156C492.785 332.156 492.335 332.052 491.912 331.844C491.489 331.635 491.144 331.329 490.877 330.926C490.617 330.522 490.486 330.044 490.486 329.49V318.855H491.824ZM498.016 332H496.688V317.859H498.016V323.064H498.133C498.393 322.492 498.784 322.049 499.305 321.736C499.832 321.417 500.486 321.258 501.268 321.258C502.003 321.258 502.641 321.408 503.182 321.707C503.722 322 504.139 322.439 504.432 323.025C504.731 323.611 504.881 324.321 504.881 325.154V332H503.553V325.232C503.553 324.666 503.445 324.174 503.23 323.758C503.016 323.335 502.71 323.012 502.312 322.791C501.915 322.57 501.447 322.459 500.906 322.459C500.353 322.459 499.858 322.579 499.422 322.82C498.986 323.055 498.641 323.396 498.387 323.846C498.139 324.288 498.016 324.812 498.016 325.418V332ZM514.51 321.395H515.818V332H514.51V330.232H514.402C514.135 330.799 513.732 331.258 513.191 331.609C512.651 331.961 512.003 332.137 511.248 332.137C510.564 332.137 509.959 331.987 509.432 331.688C508.911 331.382 508.501 330.939 508.201 330.359C507.908 329.773 507.762 329.067 507.762 328.24V321.395H509.09V328.162C509.09 328.689 509.197 329.158 509.412 329.568C509.633 329.972 509.936 330.288 510.32 330.516C510.711 330.737 511.15 330.848 511.639 330.848C512.127 330.848 512.589 330.734 513.025 330.506C513.462 330.271 513.816 329.93 514.09 329.48C514.37 329.031 514.51 328.501 514.51 327.889V321.395ZM518.943 317.859H520.271V323.357H520.389C520.63 322.915 520.861 322.56 521.082 322.293C521.303 322.02 521.629 321.779 522.059 321.57C522.488 321.355 523.003 321.248 523.602 321.248C524.467 321.248 525.232 321.476 525.896 321.932C526.561 322.381 527.078 323.022 527.449 323.855C527.82 324.682 528.006 325.639 528.006 326.727C528.006 327.807 527.82 328.764 527.449 329.598C527.085 330.431 526.57 331.076 525.906 331.531C525.249 331.987 524.487 332.215 523.621 332.215C523.022 332.215 522.508 332.107 522.078 331.893C521.655 331.678 521.32 331.427 521.072 331.141C520.831 330.848 520.604 330.496 520.389 330.086H520.232V332H518.943V317.859ZM520.242 326.697C520.242 327.537 520.369 328.283 520.623 328.934C520.877 329.585 521.245 330.096 521.727 330.467C522.215 330.831 522.785 331.014 523.436 331.014C524.106 331.014 524.686 330.825 525.174 330.447C525.662 330.07 526.033 329.555 526.287 328.904C526.541 328.253 526.668 327.518 526.668 326.697C526.668 325.883 526.544 325.158 526.297 324.52C526.049 323.875 525.682 323.37 525.193 323.006C524.705 322.635 524.119 322.449 523.436 322.449C522.771 322.449 522.199 322.628 521.717 322.986C521.242 323.344 520.877 323.842 520.623 324.48C520.369 325.118 520.242 325.857 520.242 326.697ZM535.184 321.395H536.473V323.035H536.57C536.785 322.482 537.153 322.042 537.674 321.717C538.195 321.391 538.781 321.229 539.432 321.229C539.686 321.229 539.917 321.238 540.125 321.258V322.596C540.066 322.583 539.959 322.566 539.803 322.547C539.646 322.527 539.49 322.518 539.334 322.518C538.807 322.518 538.328 322.635 537.898 322.869C537.469 323.097 537.13 323.416 536.883 323.826C536.635 324.23 536.512 324.686 536.512 325.193V332H535.184V321.395ZM545.828 332.215C544.852 332.215 543.995 331.987 543.26 331.531C542.524 331.076 541.958 330.434 541.561 329.607C541.163 328.781 540.965 327.833 540.965 326.766C540.965 325.704 541.163 324.754 541.561 323.914C541.958 323.074 542.511 322.42 543.221 321.951C543.93 321.482 544.741 321.248 545.652 321.248C546.46 321.248 547.205 321.44 547.889 321.824C548.572 322.202 549.119 322.785 549.529 323.572C549.946 324.36 550.154 325.327 550.154 326.473V327.098H541.873V325.945H548.816C548.816 325.281 548.683 324.686 548.416 324.158C548.149 323.624 547.775 323.204 547.293 322.898C546.811 322.592 546.264 322.439 545.652 322.439C545.001 322.439 544.422 322.612 543.914 322.957C543.406 323.296 543.009 323.758 542.723 324.344C542.443 324.923 542.303 325.551 542.303 326.229V326.932C542.303 327.758 542.446 328.481 542.732 329.1C543.025 329.718 543.436 330.193 543.963 330.525C544.497 330.857 545.118 331.023 545.828 331.023C546.29 331.023 546.701 330.955 547.059 330.818C547.423 330.675 547.726 330.499 547.967 330.291C548.214 330.083 548.403 329.852 548.533 329.598H549.959C549.796 330.092 549.526 330.538 549.148 330.936C548.771 331.326 548.299 331.639 547.732 331.873C547.166 332.101 546.531 332.215 545.828 332.215ZM552.488 321.395H553.777V323.357H553.934C554.135 322.954 554.357 322.605 554.598 322.312C554.839 322.02 555.171 321.769 555.594 321.561C556.023 321.352 556.541 321.248 557.146 321.248C558.012 321.248 558.777 321.476 559.441 321.932C560.112 322.381 560.63 323.019 560.994 323.846C561.359 324.673 561.541 325.633 561.541 326.727C561.541 327.801 561.355 328.758 560.984 329.598C560.62 330.431 560.105 331.076 559.441 331.531C558.777 331.987 558.016 332.215 557.156 332.215C556.564 332.215 556.049 332.107 555.613 331.893C555.184 331.678 554.845 331.424 554.598 331.131C554.35 330.831 554.129 330.483 553.934 330.086H553.816V335.984H552.488V321.395ZM553.787 326.697C553.787 327.537 553.914 328.283 554.168 328.934C554.422 329.585 554.79 330.096 555.271 330.467C555.753 330.831 556.326 331.014 556.99 331.014C557.661 331.014 558.24 330.825 558.729 330.447C559.217 330.07 559.585 329.555 559.832 328.904C560.086 328.253 560.213 327.518 560.213 326.697C560.213 325.883 560.086 325.158 559.832 324.52C559.585 323.875 559.22 323.37 558.738 323.006C558.257 322.635 557.674 322.449 556.99 322.449C556.32 322.449 555.743 322.628 555.262 322.986C554.786 323.344 554.422 323.842 554.168 324.48C553.914 325.118 553.787 325.857 553.787 326.697ZM568.045 332.215C567.133 332.215 566.316 331.984 565.594 331.521C564.878 331.059 564.321 330.415 563.924 329.588C563.527 328.755 563.328 327.804 563.328 326.736C563.328 325.662 563.527 324.712 563.924 323.885C564.321 323.051 564.878 322.404 565.594 321.941C566.316 321.479 567.133 321.248 568.045 321.248C568.956 321.248 569.767 321.479 570.477 321.941C571.193 322.404 571.746 323.051 572.137 323.885C572.534 324.712 572.732 325.662 572.732 326.736C572.732 327.804 572.534 328.755 572.137 329.588C571.746 330.415 571.193 331.059 570.477 331.521C569.767 331.984 568.956 332.215 568.045 332.215ZM568.045 331.023C568.748 331.023 569.354 330.831 569.861 330.447C570.369 330.063 570.753 329.546 571.014 328.895C571.274 328.243 571.404 327.524 571.404 326.736C571.404 325.949 571.274 325.229 571.014 324.578C570.753 323.927 570.369 323.41 569.861 323.025C569.354 322.635 568.748 322.439 568.045 322.439C567.342 322.439 566.736 322.635 566.229 323.025C565.721 323.41 565.333 323.927 565.066 324.578C564.799 325.229 564.666 325.949 564.666 326.736C564.666 327.524 564.796 328.243 565.057 328.895C565.324 329.546 565.711 330.063 566.219 330.447C566.733 330.831 567.342 331.023 568.045 331.023ZM580.955 324.012C580.838 323.504 580.581 323.11 580.184 322.83C579.786 322.544 579.269 322.4 578.631 322.4C578.169 322.394 577.755 322.469 577.391 322.625C577.026 322.781 576.74 322.999 576.531 323.279C576.323 323.553 576.219 323.862 576.219 324.207C576.219 324.617 576.375 324.965 576.688 325.252C577.007 325.532 577.488 325.75 578.133 325.906L579.734 326.307C580.633 326.521 581.307 326.863 581.756 327.332C582.205 327.801 582.43 328.393 582.43 329.109C582.43 329.708 582.27 330.245 581.951 330.721C581.639 331.189 581.183 331.557 580.584 331.824C579.985 332.085 579.272 332.215 578.445 332.215C577.697 332.215 577.046 332.104 576.492 331.883C575.945 331.655 575.503 331.323 575.164 330.887C574.832 330.451 574.62 329.923 574.529 329.305H575.926C576.036 329.871 576.3 330.304 576.717 330.604C577.14 330.896 577.706 331.043 578.416 331.043C578.943 331.043 579.406 330.968 579.803 330.818C580.206 330.669 580.516 330.454 580.73 330.174C580.952 329.887 581.062 329.559 581.062 329.188C581.062 328.758 580.913 328.4 580.613 328.113C580.314 327.82 579.855 327.605 579.236 327.469L577.615 327.078C576.723 326.863 576.043 326.518 575.574 326.043C575.112 325.561 574.881 324.972 574.881 324.275C574.881 323.696 575.04 323.175 575.359 322.713C575.678 322.251 576.118 321.893 576.678 321.639C577.244 321.378 577.895 321.248 578.631 321.248C579.308 321.248 579.907 321.365 580.428 321.6C580.955 321.827 581.375 322.15 581.688 322.566C582.007 322.983 582.202 323.465 582.273 324.012H580.955ZM584.793 321.395H586.121V332H584.793V321.395ZM585.447 319.588C585.278 319.588 585.118 319.549 584.969 319.471C584.819 319.386 584.702 319.272 584.617 319.129C584.533 318.979 584.49 318.823 584.49 318.66C584.49 318.491 584.533 318.338 584.617 318.201C584.702 318.058 584.819 317.947 584.969 317.869C585.118 317.785 585.278 317.742 585.447 317.742C585.636 317.742 585.805 317.785 585.955 317.869C586.105 317.947 586.222 318.058 586.307 318.201C586.391 318.338 586.434 318.491 586.434 318.66C586.434 318.823 586.391 318.979 586.307 319.129C586.222 319.272 586.105 319.386 585.955 319.471C585.805 319.549 585.636 319.588 585.447 319.588ZM593.25 322.527H588.104V321.395H593.25V322.527ZM591.023 318.855V329.178C591.023 329.601 591.092 329.936 591.229 330.184C591.372 330.431 591.557 330.61 591.785 330.721C592.02 330.825 592.286 330.877 592.586 330.877C592.872 330.877 593.165 330.867 593.465 330.848V332.088C593.198 332.133 592.863 332.156 592.459 332.156C591.984 332.156 591.535 332.052 591.111 331.844C590.688 331.635 590.343 331.329 590.076 330.926C589.816 330.522 589.686 330.044 589.686 329.49V318.855H591.023ZM599.705 332.215C598.794 332.215 597.977 331.984 597.254 331.521C596.538 331.059 595.981 330.415 595.584 329.588C595.187 328.755 594.988 327.804 594.988 326.736C594.988 325.662 595.187 324.712 595.584 323.885C595.981 323.051 596.538 322.404 597.254 321.941C597.977 321.479 598.794 321.248 599.705 321.248C600.617 321.248 601.427 321.479 602.137 321.941C602.853 322.404 603.406 323.051 603.797 323.885C604.194 324.712 604.393 325.662 604.393 326.736C604.393 327.804 604.194 328.755 603.797 329.588C603.406 330.415 602.853 331.059 602.137 331.521C601.427 331.984 600.617 332.215 599.705 332.215ZM599.705 331.023C600.408 331.023 601.014 330.831 601.521 330.447C602.029 330.063 602.413 329.546 602.674 328.895C602.934 328.243 603.064 327.524 603.064 326.736C603.064 325.949 602.934 325.229 602.674 324.578C602.413 323.927 602.029 323.41 601.521 323.025C601.014 322.635 600.408 322.439 599.705 322.439C599.002 322.439 598.396 322.635 597.889 323.025C597.381 323.41 596.993 323.927 596.727 324.578C596.46 325.229 596.326 325.949 596.326 326.736C596.326 327.524 596.456 328.243 596.717 328.895C596.984 329.546 597.371 330.063 597.879 330.447C598.393 330.831 599.002 331.023 599.705 331.023ZM606.727 321.395H608.016V323.035H608.113C608.328 322.482 608.696 322.042 609.217 321.717C609.738 321.391 610.324 321.229 610.975 321.229C611.229 321.229 611.46 321.238 611.668 321.258V322.596C611.609 322.583 611.502 322.566 611.346 322.547C611.189 322.527 611.033 322.518 610.877 322.518C610.35 322.518 609.871 322.635 609.441 322.869C609.012 323.097 608.673 323.416 608.426 323.826C608.178 324.23 608.055 324.686 608.055 325.193V332H606.727V321.395ZM614.568 335.984C614.308 335.984 614.067 335.975 613.846 335.955V334.754L614.08 334.764C614.165 334.777 614.298 334.783 614.48 334.783C614.767 334.783 615.014 334.747 615.223 334.676C615.438 334.611 615.646 334.458 615.848 334.217C616.056 333.976 616.245 333.615 616.414 333.133L616.795 332.107L612.889 321.395H614.334L617.43 330.271H617.518L620.613 321.395H622.059L617.576 333.641C617.283 334.422 616.889 335.008 616.395 335.398C615.9 335.789 615.291 335.984 614.568 335.984ZM633.191 322.527H628.045V321.395H633.191V322.527ZM630.965 318.855V329.178C630.965 329.601 631.033 329.936 631.17 330.184C631.313 330.431 631.499 330.61 631.727 330.721C631.961 330.825 632.228 330.877 632.527 330.877C632.814 330.877 633.107 330.867 633.406 330.848V332.088C633.139 332.133 632.804 332.156 632.4 332.156C631.925 332.156 631.476 332.052 631.053 331.844C630.63 331.635 630.285 331.329 630.018 330.926C629.757 330.522 629.627 330.044 629.627 329.49V318.855H630.965ZM639.646 332.215C638.735 332.215 637.918 331.984 637.195 331.521C636.479 331.059 635.923 330.415 635.525 329.588C635.128 328.755 634.93 327.804 634.93 326.736C634.93 325.662 635.128 324.712 635.525 323.885C635.923 323.051 636.479 322.404 637.195 321.941C637.918 321.479 638.735 321.248 639.646 321.248C640.558 321.248 641.368 321.479 642.078 321.941C642.794 322.404 643.348 323.051 643.738 323.885C644.135 324.712 644.334 325.662 644.334 326.736C644.334 327.804 644.135 328.755 643.738 329.588C643.348 330.415 642.794 331.059 642.078 331.521C641.368 331.984 640.558 332.215 639.646 332.215ZM639.646 331.023C640.35 331.023 640.955 330.831 641.463 330.447C641.971 330.063 642.355 329.546 642.615 328.895C642.876 328.243 643.006 327.524 643.006 326.736C643.006 325.949 642.876 325.229 642.615 324.578C642.355 323.927 641.971 323.41 641.463 323.025C640.955 322.635 640.35 322.439 639.646 322.439C638.943 322.439 638.338 322.635 637.83 323.025C637.322 323.41 636.935 323.927 636.668 324.578C636.401 325.229 636.268 325.949 636.268 326.736C636.268 327.524 636.398 328.243 636.658 328.895C636.925 329.546 637.312 330.063 637.82 330.447C638.335 330.831 638.943 331.023 639.646 331.023ZM655.945 322.527H650.643V321.395H655.945V322.527ZM652.273 319.871C652.273 319.311 652.384 318.833 652.605 318.436C652.833 318.038 653.156 317.736 653.572 317.527C653.995 317.312 654.49 317.205 655.057 317.205C655.226 317.205 655.408 317.215 655.604 317.234C655.805 317.247 655.991 317.27 656.16 317.303V318.504C655.88 318.458 655.6 318.436 655.32 318.436C654.747 318.436 654.321 318.576 654.041 318.855C653.761 319.135 653.621 319.562 653.621 320.135L653.611 332H652.273V319.871ZM658.055 321.395H659.383V332H658.055V321.395ZM658.709 319.588C658.54 319.588 658.38 319.549 658.23 319.471C658.081 319.386 657.964 319.272 657.879 319.129C657.794 318.979 657.752 318.823 657.752 318.66C657.752 318.491 657.794 318.338 657.879 318.201C657.964 318.058 658.081 317.947 658.23 317.869C658.38 317.785 658.54 317.742 658.709 317.742C658.898 317.742 659.067 317.785 659.217 317.869C659.367 317.947 659.484 318.058 659.568 318.201C659.653 318.338 659.695 318.491 659.695 318.66C659.695 318.823 659.653 318.979 659.568 319.129C659.484 319.272 659.367 319.386 659.217 319.471C659.067 319.549 658.898 319.588 658.709 319.588ZM663.582 332H662.254V317.859H663.582V332ZM670.75 332.215C669.773 332.215 668.917 331.987 668.182 331.531C667.446 331.076 666.88 330.434 666.482 329.607C666.085 328.781 665.887 327.833 665.887 326.766C665.887 325.704 666.085 324.754 666.482 323.914C666.88 323.074 667.433 322.42 668.143 321.951C668.852 321.482 669.663 321.248 670.574 321.248C671.382 321.248 672.127 321.44 672.811 321.824C673.494 322.202 674.041 322.785 674.451 323.572C674.868 324.36 675.076 325.327 675.076 326.473V327.098H666.795V325.945H673.738C673.738 325.281 673.605 324.686 673.338 324.158C673.071 323.624 672.697 323.204 672.215 322.898C671.733 322.592 671.186 322.439 670.574 322.439C669.923 322.439 669.344 322.612 668.836 322.957C668.328 323.296 667.931 323.758 667.645 324.344C667.365 324.923 667.225 325.551 667.225 326.229V326.932C667.225 327.758 667.368 328.481 667.654 329.1C667.947 329.718 668.357 330.193 668.885 330.525C669.419 330.857 670.04 331.023 670.75 331.023C671.212 331.023 671.622 330.955 671.98 330.818C672.345 330.675 672.648 330.499 672.889 330.291C673.136 330.083 673.325 329.852 673.455 329.598H674.881C674.718 330.092 674.448 330.538 674.07 330.936C673.693 331.326 673.221 331.639 672.654 331.873C672.088 332.101 671.453 332.215 670.75 332.215ZM679.119 327.957H677.811L677.713 317.859H679.217L679.119 327.957ZM678.465 332.107C678.283 332.107 678.11 332.059 677.947 331.961C677.785 331.863 677.658 331.736 677.566 331.58C677.475 331.417 677.43 331.242 677.43 331.053C677.43 330.87 677.475 330.698 677.566 330.535C677.658 330.372 677.785 330.245 677.947 330.154C678.11 330.063 678.283 330.018 678.465 330.018C678.654 330.018 678.826 330.063 678.982 330.154C679.145 330.245 679.272 330.372 679.363 330.535C679.454 330.698 679.5 330.87 679.5 331.053C679.5 331.242 679.454 331.417 679.363 331.58C679.272 331.736 679.145 331.863 678.982 331.961C678.826 332.059 678.654 332.107 678.465 332.107Z" fill="white"/>
<path id="GiToDoc" d="M304.32 299.34C295.48 299.34 287.68 297.52 280.92 293.88C274.247 290.153 269.003 284.91 265.19 278.15C261.463 271.303 259.6 263.243 259.6 253.97C259.6 244.957 261.463 237.07 265.19 230.31C268.917 223.55 274.29 218.307 281.31 214.58C288.417 210.767 296.997 208.86 307.05 208.86C311.643 208.86 315.89 209.38 319.79 210.42C323.777 211.46 327.547 212.977 331.1 214.97L331.62 233.17H330.32L323.04 219.65C321.913 217.483 320.873 215.923 319.92 214.97C318.967 214.017 317.753 213.28 316.28 212.76C314.893 212.327 313.593 212.023 312.38 211.85C311.253 211.59 309.737 211.46 307.83 211.46C302.457 211.46 297.69 212.89 293.53 215.75C289.457 218.61 286.293 223.16 284.04 229.4C281.787 235.64 280.66 243.83 280.66 253.97C280.66 264.023 281.7 272.213 283.78 278.54C285.947 284.867 288.98 289.503 292.88 292.45C296.78 295.31 301.287 296.74 306.4 296.74C307.18 296.74 307.917 296.697 308.61 296.61C309.39 296.437 310.127 296.263 310.82 296.09C312.467 295.83 313.55 295.137 314.07 294.01C314.59 292.883 314.85 291.54 314.85 289.98V264.24C314.85 260.86 313.117 258.78 309.65 258L303.67 256.44V255.14H340.33V256.44L338.51 256.96C335.217 258 333.57 260.167 333.57 263.46V291.67C329.063 294.183 324.47 296.09 319.79 297.39C315.197 298.69 310.04 299.34 304.32 299.34ZM360.513 225.76C357.566 225.76 355.053 224.85 352.973 223.03C350.979 221.123 349.983 218.74 349.983 215.88C349.983 212.933 350.979 210.55 352.973 208.73C355.053 206.91 357.566 206 360.513 206C363.459 206 365.929 206.91 367.923 208.73C369.916 210.55 370.913 212.933 370.913 215.88C370.913 218.74 369.916 221.123 367.923 223.03C365.929 224.85 363.459 225.76 360.513 225.76ZM345.173 297V295.7L346.993 295.18C348.726 294.66 349.896 293.88 350.503 292.84C351.196 291.8 351.543 290.413 351.543 288.68V247.99C351.543 246.17 351.196 244.827 350.503 243.96C349.896 243.007 348.726 242.357 346.993 242.01L345.173 241.62V240.32L368.963 232.65L370.263 233.95L369.873 252.41V288.81C369.873 290.543 370.176 291.93 370.783 292.97C371.476 294.01 372.646 294.79 374.293 295.31L375.593 295.7V297H345.173ZM395.6 297V295.7L400.93 294.4C404.484 293.62 406.26 291.453 406.26 287.9V213.8H395.21C392.004 213.8 389.707 214.667 388.32 216.4C386.934 218.047 385.46 220.343 383.9 223.29L379.22 232.39H377.92L378.57 211.2H453.58L454.1 232.39H452.8L448.12 223.29C446.647 220.343 445.217 218.047 443.83 216.4C442.444 214.667 440.147 213.8 436.94 213.8H425.89V287.9C425.89 291.453 427.667 293.62 431.22 294.4L436.55 295.7V297H395.6ZM482.412 298.95C475.825 298.95 470.105 297.607 465.252 294.92C460.399 292.147 456.629 288.247 453.942 283.22C451.342 278.193 450.042 272.3 450.042 265.54C450.042 258.78 451.429 252.93 454.202 247.99C457.062 243.05 460.919 239.237 465.772 236.55C470.712 233.863 476.259 232.52 482.412 232.52C488.565 232.52 494.069 233.863 498.922 236.55C503.775 239.15 507.589 242.92 510.362 247.86C513.222 252.8 514.652 258.693 514.652 265.54C514.652 272.387 513.309 278.323 510.622 283.35C508.022 288.29 504.295 292.147 499.442 294.92C494.675 297.607 488.999 298.95 482.412 298.95ZM482.412 296.35C485.445 296.35 487.872 295.483 489.692 293.75C491.512 292.017 492.812 288.94 493.592 284.52C494.459 280.1 494.892 273.86 494.892 265.8C494.892 257.653 494.459 251.37 493.592 246.95C492.812 242.53 491.512 239.453 489.692 237.72C487.872 235.987 485.445 235.12 482.412 235.12C479.379 235.12 476.909 235.987 475.002 237.72C473.182 239.453 471.839 242.53 470.972 246.95C470.192 251.37 469.802 257.653 469.802 265.8C469.802 273.86 470.192 280.1 470.972 284.52C471.839 288.94 473.182 292.017 475.002 293.75C476.909 295.483 479.379 296.35 482.412 296.35ZM518.083 297V295.7L520.813 294.66C523.586 293.533 524.973 291.323 524.973 288.03V220.17C524.973 216.703 523.586 214.493 520.813 213.54L518.083 212.5V211.2H552.403C561.589 211.2 569.476 212.933 576.063 216.4C582.736 219.78 587.849 224.677 591.403 231.09C595.043 237.417 596.863 245.043 596.863 253.97C596.863 263.07 594.913 270.827 591.013 277.24C587.113 283.653 581.653 288.55 574.633 291.93C567.699 295.31 559.509 297 550.063 297H518.083ZM544.473 294.4H550.063C556.303 294.4 561.329 293.187 565.143 290.76C568.956 288.247 571.729 284.087 573.463 278.28C575.283 272.387 576.193 264.327 576.193 254.1C576.193 243.873 575.283 235.857 573.463 230.05C571.729 224.157 568.999 219.997 565.273 217.57C561.546 215.057 556.649 213.8 550.583 213.8H544.473V294.4ZM635.01 298.95C628.423 298.95 622.703 297.607 617.85 294.92C612.996 292.147 609.226 288.247 606.54 283.22C603.94 278.193 602.64 272.3 602.64 265.54C602.64 258.78 604.026 252.93 606.8 247.99C609.66 243.05 613.516 239.237 618.37 236.55C623.31 233.863 628.856 232.52 635.01 232.52C641.163 232.52 646.666 233.863 651.52 236.55C656.373 239.15 660.186 242.92 662.96 247.86C665.82 252.8 667.25 258.693 667.25 265.54C667.25 272.387 665.906 278.323 663.22 283.35C660.62 288.29 656.893 292.147 652.04 294.92C647.273 297.607 641.596 298.95 635.01 298.95ZM635.01 296.35C638.043 296.35 640.47 295.483 642.29 293.75C644.11 292.017 645.41 288.94 646.19 284.52C647.056 280.1 647.49 273.86 647.49 265.8C647.49 257.653 647.056 251.37 646.19 246.95C645.41 242.53 644.11 239.453 642.29 237.72C640.47 235.987 638.043 235.12 635.01 235.12C631.976 235.12 629.506 235.987 627.6 237.72C625.78 239.453 624.436 242.53 623.57 246.95C622.79 251.37 622.4 257.653 622.4 265.8C622.4 273.86 622.79 280.1 623.57 284.52C624.436 288.94 625.78 292.017 627.6 293.75C629.506 295.483 631.976 296.35 635.01 296.35ZM705.961 298.95C700.068 298.95 694.694 297.693 689.841 295.18C685.074 292.58 681.261 288.853 678.401 284C675.628 279.06 674.241 273.037 674.241 265.93C674.241 258.91 675.758 252.93 678.791 247.99C681.911 242.963 686.028 239.15 691.141 236.55C696.341 233.863 702.018 232.52 708.171 232.52C713.198 232.52 717.444 233.343 720.911 234.99C724.378 236.637 727.021 238.803 728.841 241.49C730.661 244.09 731.571 246.82 731.571 249.68C731.571 252.107 730.834 254.013 729.361 255.4C727.888 256.7 725.981 257.35 723.641 257.35C721.128 257.35 719.091 256.44 717.531 254.62C715.971 252.8 715.061 250.417 714.801 247.47C714.714 245.563 714.758 243.96 714.931 242.66C715.104 241.273 715.104 239.887 714.931 238.5C714.584 237.027 714.021 236.073 713.241 235.64C712.548 235.12 711.551 234.86 710.251 234.86C704.964 234.86 700.848 237.157 697.901 241.75C695.041 246.343 693.611 253.667 693.611 263.72C693.611 272.473 695.214 279.19 698.421 283.87C701.714 288.463 706.741 290.76 713.501 290.76C717.574 290.76 720.868 290.023 723.381 288.55C725.894 287.077 728.321 284.867 730.661 281.92L731.961 282.96C729.794 288.073 726.458 292.017 721.951 294.79C717.444 297.563 712.114 298.95 705.961 298.95Z" fill="url(#paint1_linear_955_1139)"/>
</g>
</g>
<defs>
<filter id="filter0_d_955_1139" x="2" y="0" width="990" height="51" filterUnits="userSpaceOnUse" color-interpolation-filters="sRGB">
<feFlood flood-opacity="0" result="BackgroundImageFix"/>
<feColorMatrix in="SourceAlpha" type="matrix" values="0 0 0 0 0 0 0 0 0 0 0 0 0 0 0 0 0 0 127 0" result="hardAlpha"/>
<feOffset dy="2"/>
<feGaussianBlur stdDeviation="2"/>
<feComposite in2="hardAlpha" operator="out"/>
<feColorMatrix type="matrix" values="0 0 0 0 0 0 0 0 0 0 0 0 0 0 0 0 0 0 0.1 0"/>
<feBlend mode="normal" in2="BackgroundImageFix" result="effect1_dropShadow_955_1139"/>
<feBlend mode="normal" in="SourceGraphic" in2="effect1_dropShadow_955_1139" result="shape"/>
</filter>
<filter id="filter1_d_955_1139" x="0" y="43" width="994" height="590" filterUnits="userSpaceOnUse" color-interpolation-filters="sRGB">
<feFlood flood-opacity="0" result="BackgroundImageFix"/>
<feColorMatrix in="SourceAlpha" type="matrix" values="0 0 0 0 0 0 0 0 0 0 0 0 0 0 0 0 0 0 127 0" result="hardAlpha"/>
<feOffset dy="4"/>
<feGaussianBlur stdDeviation="3"/>
<feComposite in2="hardAlpha" operator="out"/>
<feColorMatrix type="matrix" values="0 0 0 0 0 0 0 0 0 0 0 0 0 0 0 0 0 0 0.1 0"/>
<feBlend mode="normal" in2="BackgroundImageFix" result="effect1_dropShadow_955_1139"/>
<feBlend mode="normal" in="SourceGraphic" in2="effect1_dropShadow_955_1139" result="shape"/>
</filter>
<filter id="filter2_d_955_1139" x="163" y="370" width="672" height="106" filterUnits="userSpaceOnUse" color-interpolation-filters="sRGB">
<feFlood flood-opacity="0" result="BackgroundImageFix"/>
<feColorMatrix in="SourceAlpha" type="matrix" values="0 0 0 0 0 0 0 0 0 0 0 0 0 0 0 0 0 0 127 0" result="hardAlpha"/>
<feOffset dx="2" dy="4"/>
<feGaussianBlur stdDeviation="2.5"/>
<feComposite in2="hardAlpha" operator="out"/>
<feColorMatrix type="matrix" values="0 0 0 0 0 0 0 0 0 0 0 0 0 0 0 0 0 0 0.1 0"/>
<feBlend mode="normal" in2="BackgroundImageFix" result="effect1_dropShadow_955_1139"/>
<feBlend mode="normal" in="SourceGraphic" in2="effect1_dropShadow_955_1139" result="shape"/>
</filter>
<linearGradient id="paint0_linear_955_1139" x1="828" y1="419" x2="166" y2="419" gradientUnits="userSpaceOnUse">
<stop stop-color="#A565E0"/>
<stop offset="1" stop-color="#7CC0E8"/>
</linearGradient>
<linearGradient id="paint1_linear_955_1139" x1="800.014" y1="301" x2="238.237" y2="301" gradientUnits="userSpaceOnUse">
<stop stop-color="#AD51DE"/>
<stop offset="1" stop-color="#76CAE8"/>
</linearGradient>
</defs>
</svg>
