<svg width="1302" height="722" viewBox="0 0 1302 722" fill="none" xmlns="http://www.w3.org/2000/svg">
<g filter="url(#filter0_d_955_1478)">
<path d="M6 45H1296V696C1296 704.837 1288.84 712 1280 712H22C13.1635 712 6 704.837 6 696V45Z" fill="#111111"/>
<mask id="mask0_955_1478" style="mask-type:luminance" maskUnits="userSpaceOnUse" x="6" y="45" width="1290" height="667">
<path d="M6 45H1296V696C1296 704.837 1288.84 712 1280 712H22C13.1635 712 6 704.837 6 696V45Z" fill="white"/>
</mask>
<g mask="url(#mask0_955_1478)">
<path d="M1296.5 696C1296.5 705.113 1289.11 712.5 1280 712.5H22C12.8873 712.5 5.5 705.113 5.5 696H6.5C6.5 704.56 13.4396 711.5 22 711.5H1280C1288.56 711.5 1295.5 704.56 1295.5 696H1296.5ZM22 712.5C12.8873 712.5 5.5 705.113 5.5 696V45H6.5V696C6.5 704.56 13.4396 711.5 22 711.5V712.5ZM1296.5 45V696C1296.5 705.113 1289.11 712.5 1280 712.5V711.5C1288.56 711.5 1295.5 704.56 1295.5 696V45H1296.5Z" fill="#454545"/>
</g>
</g>
<g filter="url(#filter1_d_955_1478)">
<path d="M6 18C6 9.16344 13.1634 2 22 2H1280C1288.84 2 1296 9.16344 1296 18V45H6V18Z" fill="#404040"/>
<path d="M6.25 18C6.25 9.30152 13.3015 2.25 22 2.25H1280C1288.7 2.25 1295.75 9.30152 1295.75 18V44.75H6.25V18Z" stroke="#454545" stroke-width="0.5"/>
</g>
<path d="M38.5061 23.5952C38.5061 27.488 35.3506 30.6436 31.4582 30.6436C27.5657 30.6436 24.4102 27.488 24.4102 23.5952C24.4102 19.7025 27.5657 16.5469 31.4582 16.5469C35.3506 16.5469 38.5061 19.7025 38.5061 23.5952Z" fill="#FF6059" stroke="#E24239" stroke-width="0.3"/>
<path d="M62.5333 23.5952C62.5333 27.488 59.3779 30.6436 55.4854 30.6436C51.593 30.6436 48.4375 27.488 48.4375 23.5952C48.4375 19.7025 51.593 16.5469 55.4854 16.5469C59.3779 16.5469 62.5333 19.7025 62.5333 23.5952Z" fill="#FEBC2C" stroke="#E19E1E" stroke-width="0.3"/>
<path d="M86.5607 23.5952C86.5607 27.488 83.4052 30.6436 79.5128 30.6436C75.6203 30.6436 72.4648 27.488 72.4648 23.5952C72.4648 19.7025 75.6203 16.5469 79.5128 16.5469C83.4052 16.5469 86.5607 19.7025 86.5607 23.5952Z" fill="#2AC740" stroke="#21AA25" stroke-width="0.3"/>
<path d="M499.398 230V229.4L500.598 228.98C501.958 228.54 502.638 227.4 502.638 225.56V194.84C502.638 194.04 502.538 193.4 502.338 192.92C502.178 192.44 501.718 192.04 500.958 191.72L499.398 191V190.4H510.978L522.078 219.44L532.518 190.4H544.338V191L543.378 191.36C542.618 191.64 542.098 192.04 541.818 192.56C541.538 193.04 541.398 193.68 541.398 194.48V225.86C541.398 226.66 541.498 227.28 541.698 227.72C541.898 228.16 542.378 228.54 543.138 228.86L544.338 229.4V230H529.398V229.4L530.658 228.86C531.418 228.54 531.898 228.16 532.098 227.72C532.298 227.28 532.398 226.66 532.398 225.86V212.36L532.518 195.2L519.978 230H516.978L503.898 195.62L504.078 210.56V225.68C504.078 226.56 504.198 227.28 504.438 227.84C504.718 228.36 505.238 228.74 505.998 228.98L507.318 229.4V230H499.398ZM554.447 230.9C552.127 230.9 550.167 230.24 548.567 228.92C547.007 227.6 546.227 225.7 546.227 223.22C546.227 221.34 547.187 219.62 549.107 218.06C551.027 216.46 554.047 215.26 558.167 214.46C558.807 214.34 559.527 214.22 560.327 214.1C561.127 213.94 561.967 213.78 562.847 213.62V208.88C562.847 206.16 562.507 204.26 561.827 203.18C561.187 202.06 560.167 201.5 558.767 201.5C557.807 201.5 557.047 201.82 556.487 202.46C555.927 203.06 555.567 204.12 555.407 205.64L555.287 206.3C555.207 208.02 554.787 209.28 554.027 210.08C553.267 210.88 552.327 211.28 551.207 211.28C550.167 211.28 549.307 210.96 548.627 210.32C547.947 209.68 547.607 208.82 547.607 207.74C547.607 206.1 548.167 204.72 549.287 203.6C550.447 202.48 551.967 201.64 553.847 201.08C555.727 200.52 557.767 200.24 559.967 200.24C563.527 200.24 566.267 201.12 568.187 202.88C570.147 204.6 571.127 207.42 571.127 211.34V224.6C571.127 226.4 571.967 227.3 573.647 227.3H574.967L575.507 227.78C574.747 228.74 573.907 229.48 572.987 230C572.107 230.52 570.847 230.78 569.207 230.78C567.447 230.78 566.047 230.38 565.007 229.58C564.007 228.74 563.347 227.64 563.027 226.28C561.827 227.56 560.587 228.66 559.307 229.58C558.067 230.46 556.447 230.9 554.447 230.9ZM558.107 227.24C558.907 227.24 559.647 227.06 560.327 226.7C561.047 226.3 561.887 225.7 562.847 224.9V214.82C562.447 214.9 562.047 214.98 561.647 215.06C561.247 215.14 560.787 215.22 560.267 215.3C558.427 215.78 556.947 216.6 555.827 217.76C554.747 218.88 554.207 220.4 554.207 222.32C554.207 223.96 554.587 225.2 555.347 226.04C556.107 226.84 557.027 227.24 558.107 227.24ZM576.862 230V229.4L577.762 229.1C579.122 228.66 579.802 227.68 579.802 226.16V194.06C579.802 193.26 579.642 192.66 579.322 192.26C579.002 191.86 578.442 191.54 577.642 191.3L576.862 191.12V190.52L587.842 187.94L588.562 188.48L588.382 196.88V226.16C588.382 227.76 589.042 228.76 590.362 229.16L591.202 229.4V230H576.862ZM599.122 230L588.442 215L599.542 204.74C600.062 204.26 600.362 203.76 600.442 203.24C600.562 202.68 600.222 202.28 599.422 202.04L598.402 201.74V201.14H607.342V201.74L605.542 202.22C604.662 202.5 603.942 202.84 603.382 203.24C602.862 203.6 602.222 204.12 601.462 204.8L594.742 211.1L605.482 226.04C606.122 226.92 606.722 227.6 607.282 228.08C607.842 228.56 608.562 228.96 609.442 229.28L609.682 229.4V230H599.122ZM625.552 200.24C628.152 200.24 630.372 200.78 632.212 201.86C634.052 202.9 635.452 204.34 636.412 206.18C637.412 207.98 637.912 210.04 637.912 212.36C637.912 212.8 637.892 213.26 637.852 213.74C637.812 214.18 637.732 214.58 637.612 214.94H619.732C619.772 219.26 620.532 222.38 622.012 224.3C623.532 226.18 625.772 227.12 628.732 227.12C630.732 227.12 632.352 226.8 633.592 226.16C634.832 225.52 635.992 224.58 637.072 223.34L637.672 223.88C636.432 226.08 634.772 227.8 632.692 229.04C630.652 230.28 628.192 230.9 625.312 230.9C622.472 230.9 619.952 230.3 617.752 229.1C615.552 227.86 613.832 226.1 612.592 223.82C611.352 221.54 610.732 218.82 610.732 215.66C610.732 212.38 611.452 209.6 612.892 207.32C614.332 205 616.172 203.24 618.412 202.04C620.692 200.84 623.072 200.24 625.552 200.24ZM625.372 201.44C624.212 201.44 623.212 201.8 622.372 202.52C621.572 203.2 620.932 204.44 620.452 206.24C620.012 208 619.772 210.5 619.732 213.74H629.992C630.392 209.38 630.232 206.24 629.512 204.32C628.792 202.4 627.412 201.44 625.372 201.44ZM659.489 244.4C657.889 244.4 656.609 244 655.649 243.2C654.729 242.4 654.269 241.38 654.269 240.14C654.269 239.02 654.669 238.12 655.469 237.44C656.269 236.76 657.169 236.42 658.169 236.42C659.169 236.42 660.009 236.62 660.689 237.02C661.369 237.46 661.969 238.08 662.489 238.88L662.909 239.36C663.789 240.56 664.669 240.54 665.549 239.3C665.909 238.7 666.309 237.9 666.749 236.9C667.229 235.94 667.769 234.64 668.369 233L656.729 205.16C656.449 204.4 656.149 203.8 655.829 203.36C655.509 202.88 654.989 202.48 654.269 202.16L653.189 201.74V201.14H668.129V201.68L666.929 202.16C666.049 202.44 665.589 202.9 665.549 203.54C665.549 204.14 665.709 204.9 666.029 205.82L672.269 222.02L678.209 205.64C678.529 204.72 678.649 203.96 678.569 203.36C678.489 202.72 677.989 202.28 677.069 202.04L675.809 201.74V201.14H684.149V201.74L682.829 202.16C681.909 202.44 681.269 202.84 680.909 203.36C680.549 203.88 680.209 204.6 679.889 205.52L670.229 231.86C668.669 236.06 667.109 239.2 665.549 241.28C663.989 243.36 661.969 244.4 659.489 244.4ZM699.734 230.9C696.694 230.9 694.054 230.28 691.814 229.04C689.574 227.76 687.834 225.96 686.594 223.64C685.394 221.32 684.794 218.6 684.794 215.48C684.794 212.36 685.434 209.66 686.714 207.38C688.034 205.1 689.814 203.34 692.054 202.1C694.334 200.86 696.894 200.24 699.734 200.24C702.574 200.24 705.114 200.86 707.354 202.1C709.594 203.3 711.354 205.04 712.634 207.32C713.954 209.6 714.614 212.32 714.614 215.48C714.614 218.64 713.994 221.38 712.754 223.7C711.554 225.98 709.834 227.76 707.594 229.04C705.394 230.28 702.774 230.9 699.734 230.9ZM699.734 229.7C701.134 229.7 702.254 229.3 703.094 228.5C703.934 227.7 704.534 226.28 704.894 224.24C705.294 222.2 705.494 219.32 705.494 215.6C705.494 211.84 705.294 208.94 704.894 206.9C704.534 204.86 703.934 203.44 703.094 202.64C702.254 201.84 701.134 201.44 699.734 201.44C698.334 201.44 697.194 201.84 696.314 202.64C695.474 203.44 694.854 204.86 694.454 206.9C694.094 208.94 693.914 211.84 693.914 215.6C693.914 219.32 694.094 222.2 694.454 224.24C694.854 226.28 695.474 227.7 696.314 228.5C697.194 229.3 698.334 229.7 699.734 229.7ZM727.875 230.9C726.315 230.9 724.875 230.6 723.555 230C722.275 229.4 721.255 228.44 720.495 227.12C719.775 225.76 719.435 223.98 719.475 221.78L719.655 206.36C719.655 205.44 719.495 204.78 719.175 204.38C718.855 203.98 718.355 203.7 717.675 203.54L716.955 203.3V202.7L727.695 200.6L728.295 201.2L727.995 209.72V224.18C727.995 225.46 728.355 226.4 729.075 227C729.835 227.6 730.775 227.9 731.895 227.9C733.015 227.9 734.015 227.74 734.895 227.42C735.775 227.1 736.655 226.62 737.535 225.98L737.775 206.42C737.775 205.5 737.635 204.86 737.355 204.5C737.075 204.1 736.555 203.82 735.795 203.66L735.195 203.48V202.88L745.695 200.6L746.295 201.2L746.115 209.72V225.98C746.115 226.86 746.235 227.54 746.475 228.02C746.715 228.5 747.235 228.9 748.035 229.22L748.635 229.4V230L738.135 230.6L737.595 227.06C736.275 228.14 734.835 229.06 733.275 229.82C731.755 230.54 729.955 230.9 727.875 230.9ZM751.058 230V229.4L751.958 229.16C752.758 228.92 753.298 228.56 753.578 228.08C753.898 227.6 754.058 226.98 754.058 226.22V207.44C754.058 206.56 753.898 205.92 753.578 205.52C753.298 205.08 752.758 204.78 751.958 204.62L751.058 204.38V203.78L761.378 200.3L761.978 200.9L762.518 206.06V206.54C763.078 205.42 763.798 204.4 764.678 203.48C765.598 202.52 766.598 201.74 767.678 201.14C768.798 200.54 769.898 200.24 770.978 200.24C772.498 200.24 773.658 200.66 774.458 201.5C775.258 202.34 775.658 203.4 775.658 204.68C775.658 206.04 775.258 207.1 774.458 207.86C773.698 208.58 772.778 208.94 771.698 208.94C770.018 208.94 768.538 208.1 767.258 206.42L767.138 206.3C766.738 205.74 766.278 205.44 765.758 205.4C765.238 205.32 764.758 205.56 764.318 206.12C763.918 206.48 763.578 206.92 763.298 207.44C763.058 207.92 762.818 208.48 762.578 209.12V225.86C762.578 227.46 763.278 228.46 764.678 228.86L766.598 229.4V230H751.058ZM803.329 230.9C800.969 230.9 798.849 230.38 796.969 229.34C795.089 228.26 793.589 226.62 792.469 224.42C791.389 222.18 790.849 219.32 790.849 215.84C790.849 212.32 791.469 209.42 792.709 207.14C793.949 204.82 795.589 203.1 797.629 201.98C799.669 200.82 801.889 200.24 804.289 200.24C805.689 200.24 807.029 200.38 808.309 200.66C809.589 200.94 810.729 201.36 811.729 201.92V194.12C811.729 193.28 811.589 192.66 811.309 192.26C811.069 191.86 810.529 191.58 809.689 191.42L808.549 191.18V190.58L819.469 187.94L820.129 188.48L819.889 196.88V226.22C819.889 227.02 820.029 227.68 820.309 228.2C820.589 228.68 821.109 229.02 821.869 229.22L822.409 229.4V230L812.149 230.66L811.609 228.5C810.529 229.22 809.289 229.8 807.889 230.24C806.529 230.68 805.009 230.9 803.329 230.9ZM806.809 228.68C808.489 228.68 810.029 228.18 811.429 227.18V203.36C809.949 202.4 808.429 201.92 806.869 201.92C804.949 201.92 803.309 203.04 801.949 205.28C800.589 207.48 799.909 210.96 799.909 215.72C799.909 220.48 800.549 223.84 801.829 225.8C803.109 227.72 804.769 228.68 806.809 228.68ZM840.242 230.9C837.202 230.9 834.562 230.28 832.322 229.04C830.082 227.76 828.342 225.96 827.102 223.64C825.902 221.32 825.302 218.6 825.302 215.48C825.302 212.36 825.942 209.66 827.222 207.38C828.542 205.1 830.322 203.34 832.562 202.1C834.842 200.86 837.402 200.24 840.242 200.24C843.082 200.24 845.622 200.86 847.862 202.1C850.102 203.3 851.862 205.04 853.142 207.32C854.462 209.6 855.122 212.32 855.122 215.48C855.122 218.64 854.502 221.38 853.262 223.7C852.062 225.98 850.342 227.76 848.102 229.04C845.902 230.28 843.282 230.9 840.242 230.9ZM840.242 229.7C841.642 229.7 842.762 229.3 843.602 228.5C844.442 227.7 845.042 226.28 845.402 224.24C845.802 222.2 846.002 219.32 846.002 215.6C846.002 211.84 845.802 208.94 845.402 206.9C845.042 204.86 844.442 203.44 843.602 202.64C842.762 201.84 841.642 201.44 840.242 201.44C838.842 201.44 837.702 201.84 836.822 202.64C835.982 203.44 835.362 204.86 834.962 206.9C834.602 208.94 834.422 211.84 834.422 215.6C834.422 219.32 834.602 222.2 834.962 224.24C835.362 226.28 835.982 227.7 836.822 228.5C837.702 229.3 838.842 229.7 840.242 229.7ZM872.989 230.9C870.269 230.9 867.789 230.32 865.549 229.16C863.349 227.96 861.589 226.24 860.269 224C858.989 221.72 858.349 218.94 858.349 215.66C858.349 212.42 859.049 209.66 860.449 207.38C861.889 205.06 863.789 203.3 866.149 202.1C868.549 200.86 871.169 200.24 874.009 200.24C876.329 200.24 878.289 200.62 879.889 201.38C881.489 202.14 882.709 203.14 883.549 204.38C884.389 205.58 884.809 206.84 884.809 208.16C884.809 209.28 884.469 210.16 883.789 210.8C883.109 211.4 882.229 211.7 881.149 211.7C879.989 211.7 879.049 211.28 878.329 210.44C877.609 209.6 877.189 208.5 877.069 207.14C877.029 206.26 877.049 205.52 877.129 204.92C877.209 204.28 877.209 203.64 877.129 203C876.969 202.32 876.709 201.88 876.349 201.68C876.029 201.44 875.569 201.32 874.969 201.32C872.529 201.32 870.629 202.38 869.269 204.5C867.949 206.62 867.289 210 867.289 214.64C867.289 218.68 868.029 221.78 869.509 223.94C871.029 226.06 873.349 227.12 876.469 227.12C878.349 227.12 879.869 226.78 881.029 226.1C882.189 225.42 883.309 224.4 884.389 223.04L884.989 223.52C883.989 225.88 882.449 227.7 880.369 228.98C878.289 230.26 875.829 230.9 872.989 230.9ZM898.266 230.9C896.706 230.9 895.266 230.6 893.946 230C892.666 229.4 891.646 228.44 890.886 227.12C890.166 225.76 889.826 223.98 889.866 221.78L890.046 206.36C890.046 205.44 889.886 204.78 889.566 204.38C889.246 203.98 888.746 203.7 888.066 203.54L887.346 203.3V202.7L898.086 200.6L898.686 201.2L898.386 209.72V224.18C898.386 225.46 898.746 226.4 899.466 227C900.226 227.6 901.166 227.9 902.286 227.9C903.406 227.9 904.406 227.74 905.286 227.42C906.166 227.1 907.046 226.62 907.926 225.98L908.166 206.42C908.166 205.5 908.026 204.86 907.746 204.5C907.466 204.1 906.946 203.82 906.186 203.66L905.586 203.48V202.88L916.086 200.6L916.686 201.2L916.506 209.72V225.98C916.506 226.86 916.626 227.54 916.866 228.02C917.106 228.5 917.626 228.9 918.426 229.22L919.026 229.4V230L908.526 230.6L907.986 227.06C906.666 228.14 905.226 229.06 903.666 229.82C902.146 230.54 900.346 230.9 898.266 230.9ZM921.449 230V229.4L922.289 229.16C923.049 228.96 923.569 228.62 923.849 228.14C924.169 227.66 924.349 227.02 924.389 226.22V207.44C924.389 206.56 924.249 205.92 923.969 205.52C923.689 205.08 923.149 204.78 922.349 204.62L921.449 204.38V203.78L931.709 200.3L932.309 200.9L932.789 204.98C934.109 203.66 935.609 202.54 937.289 201.62C939.009 200.7 940.789 200.24 942.629 200.24C944.549 200.24 946.089 200.64 947.249 201.44C948.409 202.2 949.289 203.4 949.889 205.04C951.449 203.56 953.129 202.4 954.929 201.56C956.769 200.68 958.549 200.24 960.269 200.24C963.109 200.24 965.189 200.92 966.509 202.28C967.869 203.64 968.549 205.78 968.549 208.7V226.28C968.549 227.84 969.269 228.82 970.709 229.22L971.369 229.4V230H957.509V229.4L958.109 229.22C958.869 228.98 959.389 228.62 959.669 228.14C959.989 227.66 960.149 227.02 960.149 226.22V207.86C960.149 206.18 959.849 205.04 959.249 204.44C958.649 203.8 957.689 203.48 956.369 203.48C955.329 203.48 954.309 203.72 953.309 204.2C952.349 204.64 951.329 205.32 950.249 206.24C950.449 206.88 950.569 207.58 950.609 208.34C950.689 209.1 950.729 209.9 950.729 210.74V226.28C950.769 227.84 951.489 228.82 952.889 229.22L953.429 229.4V230H939.509V229.4L940.349 229.16C941.109 228.92 941.629 228.58 941.909 228.14C942.229 227.66 942.389 227.02 942.389 226.22V207.92C942.389 206.32 942.089 205.18 941.489 204.5C940.929 203.82 939.949 203.48 938.549 203.48C937.629 203.48 936.709 203.72 935.789 204.2C934.869 204.64 933.909 205.3 932.909 206.18V226.28C932.909 227.84 933.609 228.82 935.009 229.22L935.549 229.4V230H921.449ZM988.775 200.24C991.375 200.24 993.595 200.78 995.435 201.86C997.275 202.9 998.675 204.34 999.635 206.18C1000.64 207.98 1001.14 210.04 1001.14 212.36C1001.14 212.8 1001.12 213.26 1001.08 213.74C1001.04 214.18 1000.96 214.58 1000.84 214.94H982.955C982.995 219.26 983.755 222.38 985.235 224.3C986.755 226.18 988.995 227.12 991.955 227.12C993.955 227.12 995.575 226.8 996.815 226.16C998.055 225.52 999.215 224.58 1000.3 223.34L1000.9 223.88C999.655 226.08 997.995 227.8 995.915 229.04C993.875 230.28 991.415 230.9 988.535 230.9C985.695 230.9 983.175 230.3 980.975 229.1C978.775 227.86 977.055 226.1 975.815 223.82C974.575 221.54 973.955 218.82 973.955 215.66C973.955 212.38 974.675 209.6 976.115 207.32C977.555 205 979.395 203.24 981.635 202.04C983.915 200.84 986.295 200.24 988.775 200.24ZM988.595 201.44C987.435 201.44 986.435 201.8 985.595 202.52C984.795 203.2 984.155 204.44 983.675 206.24C983.235 208 982.995 210.5 982.955 213.74H993.215C993.615 209.38 993.455 206.24 992.735 204.32C992.015 202.4 990.635 201.44 988.595 201.44ZM1004.13 230V229.4L1004.97 229.16C1006.37 228.76 1007.07 227.78 1007.07 226.22V207.44C1007.07 206.56 1006.93 205.92 1006.65 205.52C1006.37 205.08 1005.83 204.78 1005.03 204.62L1004.13 204.38V203.78L1014.39 200.3L1014.99 200.9L1015.47 204.5C1016.87 203.26 1018.45 202.24 1020.21 201.44C1021.97 200.64 1023.71 200.24 1025.43 200.24C1028.07 200.24 1030.09 200.96 1031.49 202.4C1032.93 203.84 1033.65 206.04 1033.65 209V226.28C1033.65 227.84 1034.41 228.82 1035.93 229.22L1036.47 229.4V230H1022.31V229.4L1023.09 229.16C1024.49 228.72 1025.19 227.74 1025.19 226.22V207.08C1025.19 204.52 1023.91 203.24 1021.35 203.24C1019.59 203.24 1017.67 204.12 1015.59 205.88V226.28C1015.59 227.84 1016.29 228.82 1017.69 229.22L1018.23 229.4V230H1004.13ZM1049.92 230.9C1047.36 230.9 1045.36 230.26 1043.92 228.98C1042.52 227.7 1041.82 225.66 1041.82 222.86V202.34H1037.68V201.74L1039.12 201.5C1040.36 201.22 1041.42 200.82 1042.3 200.3C1043.22 199.78 1044.12 199.08 1045 198.2L1049.92 192.74H1050.52L1050.34 201.14H1057.06V202.34H1050.28V223.94C1050.28 225.34 1050.58 226.4 1051.18 227.12C1051.82 227.84 1052.62 228.2 1053.58 228.2C1054.42 228.2 1055.16 228 1055.8 227.6C1056.44 227.16 1057.08 226.58 1057.72 225.86L1058.32 226.46C1057.52 227.82 1056.42 228.9 1055.02 229.7C1053.62 230.5 1051.92 230.9 1049.92 230.9ZM762.067 279.12C760.707 279.12 759.547 278.7 758.587 277.86C757.667 276.98 757.207 275.88 757.207 274.56C757.207 273.2 757.667 272.1 758.587 271.26C759.547 270.42 760.707 270 762.067 270C763.427 270 764.567 270.42 765.487 271.26C766.407 272.1 766.867 273.2 766.867 274.56C766.867 275.88 766.407 276.98 765.487 277.86C764.567 278.7 763.427 279.12 762.067 279.12ZM754.987 312V311.4L755.827 311.16C756.627 310.92 757.167 310.56 757.447 310.08C757.767 309.6 757.927 308.96 757.927 308.16V289.38C757.927 288.54 757.767 287.92 757.447 287.52C757.167 287.08 756.627 286.78 755.827 286.62L754.987 286.44V285.84L765.967 282.3L766.567 282.9L766.387 291.42V308.22C766.387 309.02 766.527 309.66 766.807 310.14C767.127 310.62 767.667 310.98 768.427 311.22L769.027 311.4V312H754.987ZM771.683 312V311.4L772.523 311.16C773.923 310.76 774.623 309.78 774.623 308.22V289.44C774.623 288.56 774.483 287.92 774.203 287.52C773.923 287.08 773.383 286.78 772.583 286.62L771.683 286.38V285.78L781.943 282.3L782.543 282.9L783.023 286.5C784.423 285.26 786.003 284.24 787.763 283.44C789.523 282.64 791.263 282.24 792.983 282.24C795.623 282.24 797.643 282.96 799.043 284.4C800.483 285.84 801.203 288.04 801.203 291V308.28C801.203 309.84 801.963 310.82 803.483 311.22L804.023 311.4V312H789.863V311.4L790.643 311.16C792.043 310.72 792.743 309.74 792.743 308.22V289.08C792.743 286.52 791.463 285.24 788.903 285.24C787.143 285.24 785.223 286.12 783.143 287.88V308.28C783.143 309.84 783.843 310.82 785.243 311.22L785.783 311.4V312H771.683ZM840.077 313.08C835.997 313.08 832.397 312.24 829.277 310.56C826.197 308.84 823.777 306.42 822.017 303.3C820.297 300.14 819.437 296.42 819.437 292.14C819.437 287.98 820.297 284.34 822.017 281.22C823.737 278.1 826.217 275.68 829.457 273.96C832.737 272.2 836.697 271.32 841.337 271.32C843.457 271.32 845.417 271.56 847.217 272.04C849.057 272.52 850.797 273.22 852.437 274.14L852.677 282.54H852.077L848.717 276.3C848.197 275.3 847.717 274.58 847.277 274.14C846.837 273.7 846.277 273.36 845.597 273.12C844.957 272.92 844.357 272.78 843.797 272.7C843.277 272.58 842.577 272.52 841.697 272.52C839.217 272.52 837.017 273.18 835.097 274.5C833.217 275.82 831.757 277.92 830.717 280.8C829.677 283.68 829.157 287.46 829.157 292.14C829.157 296.78 829.637 300.56 830.597 303.48C831.597 306.4 832.997 308.54 834.797 309.9C836.597 311.22 838.677 311.88 841.037 311.88C841.397 311.88 841.737 311.86 842.057 311.82C842.417 311.74 842.757 311.66 843.077 311.58C843.837 311.46 844.337 311.14 844.577 310.62C844.817 310.1 844.937 309.48 844.937 308.76V296.88C844.937 295.32 844.137 294.36 842.537 294L839.777 293.28V292.68H856.697V293.28L855.857 293.52C854.337 294 853.577 295 853.577 296.52V309.54C851.497 310.7 849.377 311.58 847.217 312.18C845.097 312.78 842.717 313.08 840.077 313.08ZM866.012 279.12C864.652 279.12 863.492 278.7 862.532 277.86C861.612 276.98 861.152 275.88 861.152 274.56C861.152 273.2 861.612 272.1 862.532 271.26C863.492 270.42 864.652 270 866.012 270C867.372 270 868.512 270.42 869.432 271.26C870.352 272.1 870.812 273.2 870.812 274.56C870.812 275.88 870.352 276.98 869.432 277.86C868.512 278.7 867.372 279.12 866.012 279.12ZM858.932 312V311.4L859.772 311.16C860.572 310.92 861.112 310.56 861.392 310.08C861.712 309.6 861.872 308.96 861.872 308.16V289.38C861.872 288.54 861.712 287.92 861.392 287.52C861.112 287.08 860.572 286.78 859.772 286.62L858.932 286.44V285.84L869.912 282.3L870.512 282.9L870.332 291.42V308.22C870.332 309.02 870.472 309.66 870.752 310.14C871.072 310.62 871.612 310.98 872.372 311.22L872.972 311.4V312H858.932ZM882.207 312V311.4L884.667 310.8C886.307 310.44 887.127 309.44 887.127 307.8V273.6H882.027C880.547 273.6 879.487 274 878.847 274.8C878.207 275.56 877.527 276.62 876.807 277.98L874.647 282.18H874.047L874.347 272.4H908.967L909.207 282.18H908.607L906.447 277.98C905.767 276.62 905.107 275.56 904.467 274.8C903.827 274 902.767 273.6 901.287 273.6H896.187V307.8C896.187 309.44 897.007 310.44 898.647 310.8L901.107 311.4V312H882.207ZM922.274 312.9C919.234 312.9 916.594 312.28 914.354 311.04C912.114 309.76 910.374 307.96 909.134 305.64C907.934 303.32 907.334 300.6 907.334 297.48C907.334 294.36 907.974 291.66 909.254 289.38C910.574 287.1 912.354 285.34 914.594 284.1C916.874 282.86 919.434 282.24 922.274 282.24C925.114 282.24 927.654 282.86 929.894 284.1C932.134 285.3 933.894 287.04 935.174 289.32C936.494 291.6 937.154 294.32 937.154 297.48C937.154 300.64 936.534 303.38 935.294 305.7C934.094 307.98 932.374 309.76 930.134 311.04C927.934 312.28 925.314 312.9 922.274 312.9ZM922.274 311.7C923.674 311.7 924.794 311.3 925.634 310.5C926.474 309.7 927.074 308.28 927.434 306.24C927.834 304.2 928.034 301.32 928.034 297.6C928.034 293.84 927.834 290.94 927.434 288.9C927.074 286.86 926.474 285.44 925.634 284.64C924.794 283.84 923.674 283.44 922.274 283.44C920.874 283.44 919.734 283.84 918.854 284.64C918.014 285.44 917.394 286.86 916.994 288.9C916.634 290.94 916.454 293.84 916.454 297.6C916.454 301.32 916.634 304.2 916.994 306.24C917.394 308.28 918.014 309.7 918.854 310.5C919.734 311.3 920.874 311.7 922.274 311.7ZM938.737 312V311.4L939.997 310.92C941.277 310.4 941.917 309.38 941.917 307.86V276.54C941.917 274.94 941.277 273.92 939.997 273.48L938.737 273V272.4H954.577C958.817 272.4 962.457 273.2 965.497 274.8C968.577 276.36 970.937 278.62 972.577 281.58C974.257 284.5 975.097 288.02 975.097 292.14C975.097 296.34 974.197 299.92 972.397 302.88C970.597 305.84 968.077 308.1 964.837 309.66C961.637 311.22 957.857 312 953.497 312H938.737ZM950.917 310.8H953.497C956.377 310.8 958.697 310.24 960.457 309.12C962.217 307.96 963.497 306.04 964.297 303.36C965.137 300.64 965.557 296.92 965.557 292.2C965.557 287.48 965.137 283.78 964.297 281.1C963.497 278.38 962.237 276.46 960.517 275.34C958.797 274.18 956.537 273.6 953.737 273.6H950.917V310.8ZM992.703 312.9C989.663 312.9 987.023 312.28 984.783 311.04C982.543 309.76 980.803 307.96 979.563 305.64C978.363 303.32 977.763 300.6 977.763 297.48C977.763 294.36 978.403 291.66 979.683 289.38C981.003 287.1 982.783 285.34 985.023 284.1C987.303 282.86 989.863 282.24 992.703 282.24C995.543 282.24 998.083 282.86 1000.32 284.1C1002.56 285.3 1004.32 287.04 1005.6 289.32C1006.92 291.6 1007.58 294.32 1007.58 297.48C1007.58 300.64 1006.96 303.38 1005.72 305.7C1004.52 307.98 1002.8 309.76 1000.56 311.04C998.363 312.28 995.743 312.9 992.703 312.9ZM992.703 311.7C994.103 311.7 995.223 311.3 996.063 310.5C996.903 309.7 997.503 308.28 997.863 306.24C998.263 304.2 998.463 301.32 998.463 297.6C998.463 293.84 998.263 290.94 997.863 288.9C997.503 286.86 996.903 285.44 996.063 284.64C995.223 283.84 994.103 283.44 992.703 283.44C991.303 283.44 990.163 283.84 989.283 284.64C988.443 285.44 987.823 286.86 987.423 288.9C987.063 290.94 986.883 293.84 986.883 297.6C986.883 301.32 987.063 304.2 987.423 306.24C987.823 308.28 988.443 309.7 989.283 310.5C990.163 311.3 991.303 311.7 992.703 311.7ZM1025.45 312.9C1022.73 312.9 1020.25 312.32 1018.01 311.16C1015.81 309.96 1014.05 308.24 1012.73 306C1011.45 303.72 1010.81 300.94 1010.81 297.66C1010.81 294.42 1011.51 291.66 1012.91 289.38C1014.35 287.06 1016.25 285.3 1018.61 284.1C1021.01 282.86 1023.63 282.24 1026.47 282.24C1028.79 282.24 1030.75 282.62 1032.35 283.38C1033.95 284.14 1035.17 285.14 1036.01 286.38C1036.85 287.58 1037.27 288.84 1037.27 290.16C1037.27 291.28 1036.93 292.16 1036.25 292.8C1035.57 293.4 1034.69 293.7 1033.61 293.7C1032.45 293.7 1031.51 293.28 1030.79 292.44C1030.07 291.6 1029.65 290.5 1029.53 289.14C1029.49 288.26 1029.51 287.52 1029.59 286.92C1029.67 286.28 1029.67 285.64 1029.59 285C1029.43 284.32 1029.17 283.88 1028.81 283.68C1028.49 283.44 1028.03 283.32 1027.43 283.32C1024.99 283.32 1023.09 284.38 1021.73 286.5C1020.41 288.62 1019.75 292 1019.75 296.64C1019.75 300.68 1020.49 303.78 1021.97 305.94C1023.49 308.06 1025.81 309.12 1028.93 309.12C1030.81 309.12 1032.33 308.78 1033.49 308.1C1034.65 307.42 1035.77 306.4 1036.85 305.04L1037.45 305.52C1036.45 307.88 1034.91 309.7 1032.83 310.98C1030.75 312.26 1028.29 312.9 1025.45 312.9ZM1049.04 271.68C1050.52 271.68 1051.68 272.16 1052.52 273.12C1053.36 274.04 1053.78 275.26 1053.78 276.78C1053.78 278.02 1053.46 279.96 1052.82 282.6C1052.18 285.2 1051.52 288.08 1050.84 291.24L1049.58 297.54H1048.44L1047.18 291.24C1046.54 288.16 1045.9 285.32 1045.26 282.72C1044.62 280.08 1044.3 278.1 1044.3 276.78C1044.3 275.26 1044.72 274.04 1045.56 273.12C1046.4 272.16 1047.56 271.68 1049.04 271.68ZM1049.04 312.9C1047.56 312.9 1046.32 312.4 1045.32 311.4C1044.32 310.4 1043.82 309.18 1043.82 307.74C1043.82 306.34 1044.32 305.14 1045.32 304.14C1046.32 303.1 1047.56 302.58 1049.04 302.58C1050.48 302.58 1051.7 303.1 1052.7 304.14C1053.7 305.14 1054.2 306.34 1054.2 307.74C1054.2 309.18 1053.7 310.4 1052.7 311.4C1051.7 312.4 1050.48 312.9 1049.04 312.9Z" fill="white"/>
<path d="M341 353H1059" stroke="url(#paint0_linear_955_1478)" stroke-width="0.7" stroke-linecap="round"/>
<path d="M1033.42 398.75C1033.09 398.75 1032.81 398.639 1032.58 398.416C1032.36 398.193 1032.25 397.914 1032.25 397.577V395.415C1032.25 395.096 1032.31 394.79 1032.44 394.496C1032.57 394.201 1032.74 393.95 1032.95 393.741L1052.89 373.8C1053.07 373.638 1053.28 373.508 1053.51 373.411C1053.74 373.314 1053.98 373.266 1054.24 373.266C1054.48 373.266 1054.72 373.311 1054.95 373.403C1055.18 373.494 1055.39 373.629 1055.58 373.808L1057.21 375.449C1057.4 375.633 1057.54 375.843 1057.62 376.078C1057.71 376.314 1057.75 376.549 1057.75 376.784C1057.75 377.028 1057.7 377.269 1057.61 377.505C1057.52 377.742 1057.39 377.951 1057.21 378.13L1037.26 398.046C1037.05 398.262 1036.8 398.433 1036.5 398.56C1036.21 398.687 1035.9 398.75 1035.59 398.75H1033.42ZM1053.97 378.643L1055.85 376.78L1054.24 375.166L1052.37 377.043L1053.97 378.643Z" fill="white"/>
<mask id="mask1_955_1478" style="mask-type:alpha" maskUnits="userSpaceOnUse" x="39" y="373" width="36" height="37">
<path d="M75 373.996H39V409.996H75V373.996Z" fill="#D9D9D9"/>
</mask>
<g mask="url(#mask1_955_1478)">
<path d="M49.5 405.496C48.675 405.496 47.9688 405.202 47.3812 404.615C46.7937 404.027 46.5 403.321 46.5 402.496V382.996C46.075 382.996 45.7188 382.852 45.4312 382.565C45.1437 382.277 45 381.921 45 381.496C45 381.071 45.1437 380.715 45.4312 380.427C45.7188 380.14 46.075 379.996 46.5 379.996H52.5C52.5 379.571 52.6437 379.215 52.9312 378.927C53.2188 378.64 53.575 378.496 54 378.496H60C60.425 378.496 60.7813 378.64 61.0688 378.927C61.3563 379.215 61.5 379.571 61.5 379.996H67.5C67.925 379.996 68.2812 380.14 68.5688 380.427C68.8563 380.715 69 381.071 69 381.496C69 381.921 68.8563 382.277 68.5688 382.565C68.2812 382.852 67.925 382.996 67.5 382.996V402.496C67.5 403.321 67.2063 404.027 66.6188 404.615C66.0312 405.202 65.325 405.496 64.5 405.496H49.5ZM54 399.496C54.425 399.496 54.7812 399.352 55.0688 399.065C55.3562 398.777 55.5 398.421 55.5 397.996V387.496C55.5 387.071 55.3562 386.715 55.0688 386.427C54.7812 386.14 54.425 385.996 54 385.996C53.575 385.996 53.2188 386.14 52.9312 386.427C52.6437 386.715 52.5 387.071 52.5 387.496V397.996C52.5 398.421 52.6437 398.777 52.9312 399.065C53.2188 399.352 53.575 399.496 54 399.496ZM60 399.496C60.425 399.496 60.7813 399.352 61.0688 399.065C61.3563 398.777 61.5 398.421 61.5 397.996V387.496C61.5 387.071 61.3563 386.715 61.0688 386.427C60.7813 386.14 60.425 385.996 60 385.996C59.575 385.996 59.2188 386.14 58.9313 386.427C58.6438 386.715 58.5 387.071 58.5 387.496V397.996C58.5 398.421 58.6438 398.777 58.9313 399.065C59.2188 399.352 59.575 399.496 60 399.496Z" fill="white"/>
</g>
<mask id="mask2_955_1478" style="mask-type:alpha" maskUnits="userSpaceOnUse" x="39" y="273" width="36" height="37">
<path d="M75 273.996H39V309.996H75V273.996Z" fill="#D9D9D9"/>
</mask>
<g mask="url(#mask2_955_1478)">
<path d="M47.5 308.496C46.825 308.496 46.2396 308.248 45.7437 307.752C45.2479 307.257 45 306.671 45 305.996V287.771C45 287.096 45.2479 286.511 45.7437 286.015C46.2396 285.519 46.825 285.271 47.5 285.271H51.975C52.3292 285.271 52.6261 285.391 52.8657 285.632C53.1052 285.872 53.225 286.17 53.225 286.525C53.225 286.881 53.1052 287.177 52.8657 287.415C52.6261 287.652 52.3292 287.771 51.975 287.771H47.5V305.996H66.5V287.771H61.975C61.6208 287.771 61.3239 287.651 61.0844 287.41C60.8448 287.17 60.725 286.872 60.725 286.517C60.725 286.161 60.8448 285.865 61.0844 285.627C61.3239 285.39 61.6208 285.271 61.975 285.271H66.5C67.175 285.271 67.7604 285.519 68.2563 286.015C68.7521 286.511 69 287.096 69 287.771V305.996C69 306.671 68.7521 307.257 68.2563 307.752C67.7604 308.248 67.175 308.496 66.5 308.496H47.5ZM55.725 280.309L53.6 282.434C53.35 282.684 53.0583 282.806 52.725 282.802C52.3917 282.798 52.0967 282.671 51.8402 282.421C51.6051 282.171 51.4854 281.875 51.4812 281.534C51.4771 281.192 51.6 280.896 51.85 280.646L56.1 276.371C56.35 276.121 56.6417 275.996 56.975 275.996C57.3083 275.996 57.6 276.121 57.85 276.371L62.125 280.646C62.3667 280.888 62.4875 281.179 62.4875 281.519C62.4875 281.859 62.3699 282.153 62.1348 282.4C61.8783 282.647 61.5774 282.771 61.2321 282.771C60.8868 282.771 60.5886 282.646 60.3375 282.396L58.225 280.309V296.071C58.225 296.425 58.1048 296.722 57.8644 296.962C57.624 297.201 57.326 297.321 56.9706 297.321C56.6152 297.321 56.3188 297.201 56.0813 296.962C55.8438 296.722 55.725 296.425 55.725 296.071V280.309Z" fill="white"/>
</g>
<mask id="mask3_955_1478" style="mask-type:alpha" maskUnits="userSpaceOnUse" x="37" y="169" width="40" height="41">
<path d="M77 169.997H37V209.997H77V169.997Z" fill="#D9D9D9"/>
</mask>
<g mask="url(#mask3_955_1478)">
<path d="M56.9999 192.282C56.7841 192.282 56.5791 192.256 56.385 192.203C56.1909 192.151 55.9945 192.075 55.7958 191.976L41.7082 184.539C41.4689 184.401 41.2969 184.234 41.1922 184.038C41.0875 183.841 41.0352 183.623 41.0352 183.384C41.0352 183.152 41.0875 182.937 41.1922 182.741C41.2969 182.544 41.4689 182.377 41.7082 182.24L55.7958 174.803C55.9945 174.704 56.1909 174.628 56.385 174.575C56.5791 174.522 56.7841 174.496 56.9999 174.496C57.2157 174.496 57.4206 174.522 57.6147 174.575C57.8088 174.628 58.0052 174.704 58.2039 174.803L72.3075 182.24C72.5468 182.377 72.7217 182.544 72.8321 182.741C72.9425 182.937 72.9977 183.152 72.9977 183.384C72.9977 183.623 72.9425 183.841 72.8321 184.038C72.7217 184.234 72.5468 184.401 72.3075 184.539L58.2039 191.976C58.0052 192.075 57.8088 192.151 57.6147 192.203C57.4206 192.256 57.2157 192.282 56.9999 192.282ZM56.9999 190.219L70.1452 183.384L56.9999 176.559L43.8983 183.384L56.9999 190.219ZM56.9999 196.839L70.8524 189.575C70.9187 189.544 71.1096 189.521 71.4251 189.508C71.6872 189.529 71.9085 189.634 72.0891 189.821C72.2696 190.008 72.3599 190.242 72.3599 190.523C72.3599 190.712 72.3166 190.882 72.2301 191.032C72.1435 191.183 72.0055 191.314 71.8161 191.427L58.2039 198.578C58.0052 198.684 57.8088 198.762 57.6147 198.811C57.4206 198.86 57.2157 198.885 56.9999 198.885C56.7841 198.885 56.5791 198.86 56.385 198.811C56.1909 198.762 55.9945 198.684 55.7958 198.578L42.2274 191.427C42.038 191.314 41.8956 191.183 41.8001 191.032C41.7047 190.882 41.6569 190.712 41.6569 190.523C41.6569 190.242 41.7499 190.008 41.9358 189.821C42.1217 189.634 42.3457 189.529 42.6077 189.508C42.7139 189.486 42.814 189.483 42.908 189.498C43.002 189.512 43.0964 189.547 43.1911 189.603L56.9999 196.839ZM56.9999 203.452L70.8524 196.188C70.9187 196.15 71.1096 196.124 71.4251 196.11C71.6872 196.139 71.9085 196.247 72.0891 196.434C72.2696 196.621 72.3599 196.852 72.3599 197.125C72.3599 197.315 72.3166 197.486 72.2301 197.64C72.1435 197.794 72.0055 197.927 71.8161 198.04L58.2039 205.191C58.0052 205.298 57.8088 205.375 57.6147 205.424C57.4206 205.474 57.2157 205.498 56.9999 205.498C56.7841 205.498 56.5791 205.474 56.385 205.424C56.1909 205.375 55.9945 205.298 55.7958 205.191L42.2274 198.04C42.038 197.927 41.8956 197.794 41.8001 197.64C41.7047 197.486 41.6569 197.315 41.6569 197.125C41.6569 196.852 41.7499 196.621 41.9358 196.434C42.1217 196.247 42.3457 196.139 42.6077 196.11C42.7139 196.096 42.814 196.096 42.908 196.111C43.002 196.125 43.0964 196.157 43.1911 196.205L56.9999 203.452Z" fill="white"/>
</g>
<path d="M108 712V45" stroke="url(#paint1_linear_955_1478)" stroke-opacity="0.8" stroke-width="0.7" stroke-linecap="round"/>
<path d="M48.6645 76H71.9976V97.9707L65.5257 104.613L42.5332 81.6204L48.6645 76Z" fill="#111111"/>
<rect x="42" y="81.793" width="23.8878" height="23.2065" rx="1" fill="#111111" stroke="url(#paint2_linear_955_1478)" stroke-width="2"/>
<path d="M66.5469 81.5742L71.1942 76.0003" stroke="url(#paint3_linear_955_1478)" stroke-width="2" stroke-linecap="round"/>
<path d="M65.5254 104.612L71.6567 98.7598" stroke="url(#paint4_linear_955_1478)" stroke-width="2" stroke-linecap="round"/>
<path d="M41.9297 82.0381L48.435 75.9997" stroke="url(#paint5_linear_955_1478)" stroke-width="2" stroke-linecap="round"/>
<path d="M48.4316 76L71.6563 76" stroke="url(#paint6_linear_955_1478)" stroke-width="2" stroke-linecap="round"/>
<path d="M71.6562 76L71.6562 98.7602" stroke="url(#paint7_linear_955_1478)" stroke-width="2" stroke-linecap="round"/>
<path d="M54.0371 82.0381V104.798" stroke="url(#paint8_linear_955_1478)" stroke-width="2" stroke-linecap="round"/>
<path d="M54.0449 93.5664H47.9676" stroke="url(#paint9_linear_955_1478)" stroke-width="2" stroke-linecap="round"/>
<defs>
<filter id="filter0_d_955_1478" x="0" y="43" width="1302" height="679" filterUnits="userSpaceOnUse" color-interpolation-filters="sRGB">
<feFlood flood-opacity="0" result="BackgroundImageFix"/>
<feColorMatrix in="SourceAlpha" type="matrix" values="0 0 0 0 0 0 0 0 0 0 0 0 0 0 0 0 0 0 127 0" result="hardAlpha"/>
<feOffset dy="4"/>
<feGaussianBlur stdDeviation="3"/>
<feComposite in2="hardAlpha" operator="out"/>
<feColorMatrix type="matrix" values="0 0 0 0 0 0 0 0 0 0 0 0 0 0 0 0 0 0 0.1 0"/>
<feBlend mode="normal" in2="BackgroundImageFix" result="effect1_dropShadow_955_1478"/>
<feBlend mode="normal" in="SourceGraphic" in2="effect1_dropShadow_955_1478" result="shape"/>
</filter>
<filter id="filter1_d_955_1478" x="2" y="0" width="1298" height="51" filterUnits="userSpaceOnUse" color-interpolation-filters="sRGB">
<feFlood flood-opacity="0" result="BackgroundImageFix"/>
<feColorMatrix in="SourceAlpha" type="matrix" values="0 0 0 0 0 0 0 0 0 0 0 0 0 0 0 0 0 0 127 0" result="hardAlpha"/>
<feOffset dy="2"/>
<feGaussianBlur stdDeviation="2"/>
<feComposite in2="hardAlpha" operator="out"/>
<feColorMatrix type="matrix" values="0 0 0 0 0 0 0 0 0 0 0 0 0 0 0 0 0 0 0.1 0"/>
<feBlend mode="normal" in2="BackgroundImageFix" result="effect1_dropShadow_955_1478"/>
<feBlend mode="normal" in="SourceGraphic" in2="effect1_dropShadow_955_1478" result="shape"/>
</filter>
<linearGradient id="paint0_linear_955_1478" x1="1059" y1="353" x2="341" y2="353" gradientUnits="userSpaceOnUse">
<stop stop-color="#AD51DE"/>
<stop offset="1" stop-color="#76CAE8"/>
</linearGradient>
<linearGradient id="paint1_linear_955_1478" x1="108" y1="45" x2="107.997" y2="711.999" gradientUnits="userSpaceOnUse">
<stop stop-color="#AD51DE"/>
<stop offset="1" stop-color="#76CAE8"/>
</linearGradient>
<linearGradient id="paint2_linear_955_1478" x1="43.0438" y1="104.613" x2="71.1458" y2="76.5108" gradientUnits="userSpaceOnUse">
<stop stop-color="#AD51DE"/>
<stop offset="0.358332" stop-color="#997CE2"/>
<stop offset="1" stop-color="#76CAE8"/>
</linearGradient>
<linearGradient id="paint3_linear_955_1478" x1="42.5932" y1="104.664" x2="69.1953" y2="76.1626" gradientUnits="userSpaceOnUse">
<stop stop-color="#AD51DE"/>
<stop offset="1" stop-color="#76CAE8"/>
</linearGradient>
<linearGradient id="paint4_linear_955_1478" x1="41.6631" y1="102.955" x2="73.391" y2="75.1769" gradientUnits="userSpaceOnUse">
<stop stop-color="#AD51DE"/>
<stop offset="1" stop-color="#76CAE8"/>
</linearGradient>
<linearGradient id="paint5_linear_955_1478" x1="41.775" y1="104.857" x2="71.2686" y2="76.1137" gradientUnits="userSpaceOnUse">
<stop stop-color="#AD51DE"/>
<stop offset="1" stop-color="#76CAE8"/>
</linearGradient>
<linearGradient id="paint6_linear_955_1478" x1="42.5328" y1="104" x2="71.037" y2="75.3828" gradientUnits="userSpaceOnUse">
<stop stop-color="#AE52DF"/>
<stop offset="0.323532" stop-color="#9C79E2"/>
<stop offset="1" stop-color="#76CAE8"/>
</linearGradient>
<linearGradient id="paint7_linear_955_1478" x1="42.6562" y1="104.613" x2="72.2617" y2="76.6408" gradientUnits="userSpaceOnUse">
<stop stop-color="#AE52DF"/>
<stop offset="1" stop-color="#76CAE8" stop-opacity="0.88"/>
</linearGradient>
<linearGradient id="paint8_linear_955_1478" x1="43.2778" y1="104.613" x2="71.3732" y2="77.1192" gradientUnits="userSpaceOnUse">
<stop stop-color="#AD51DE"/>
<stop offset="1" stop-color="#77C9E8"/>
</linearGradient>
<linearGradient id="paint9_linear_955_1478" x1="42.5332" y1="104.376" x2="70.5375" y2="76.2701" gradientUnits="userSpaceOnUse">
<stop stop-color="#AD51DE"/>
<stop offset="1" stop-color="#87CFEB"/>
</linearGradient>
</defs>
</svg>
