<svg width="1302" height="722" viewBox="0 0 1302 722" fill="none" xmlns="http://www.w3.org/2000/svg">
<g filter="url(#filter0_d_955_1478)">
<path d="M6 45H1296V696C1296 704.837 1288.84 712 1280 712H22C13.1635 712 6 704.837 6 696V45Z" fill="#1A1A1A"/>
<mask id="mask0_955_1478" style="mask-type:luminance" maskUnits="userSpaceOnUse" x="6" y="45" width="1290" height="667">
<path d="M6 45H1296V696C1296 704.837 1288.84 712 1280 712H22C13.1635 712 6 704.837 6 696V45Z" fill="white"/>
</mask>
<g mask="url(#mask0_955_1478)">
<path d="M1296.5 696C1296.5 705.113 1289.11 712.5 1280 712.5H22C12.8873 712.5 5.5 705.113 5.5 696H6.5C6.5 704.56 13.4396 711.5 22 711.5H1280C1288.56 711.5 1295.5 704.56 1295.5 696H1296.5ZM22 712.5C12.8873 712.5 5.5 705.113 5.5 696V45H6.5V696C6.5 704.56 13.4396 711.5 22 711.5V712.5ZM1296.5 45V696C1296.5 705.113 1289.11 712.5 1280 712.5V711.5C1288.56 711.5 1295.5 704.56 1295.5 696V45H1296.5Z" fill="#454545"/>
</g>
</g>
<g filter="url(#filter1_d_955_1478)">
<path d="M6 18C6 9.16344 13.1634 2 22 2H1280C1288.84 2 1296 9.16344 1296 18V45H6V18Z" fill="#404040"/>
<path d="M6.25 18C6.25 9.30152 13.3015 2.25 22 2.25H1280C1288.7 2.25 1295.75 9.30152 1295.75 18V44.75H6.25V18Z" stroke="#454545" stroke-width="0.5"/>
</g>
<path d="M38.5061 23.5952C38.5061 27.488 35.3506 30.6436 31.4582 30.6436C27.5657 30.6436 24.4102 27.488 24.4102 23.5952C24.4102 19.7025 27.5657 16.5469 31.4582 16.5469C35.3506 16.5469 38.5061 19.7025 38.5061 23.5952Z" fill="#FF6059" stroke="#E24239" stroke-width="0.3"/>
<path d="M62.5333 23.5952C62.5333 27.488 59.3779 30.6436 55.4854 30.6436C51.593 30.6436 48.4375 27.488 48.4375 23.5952C48.4375 19.7025 51.593 16.5469 55.4854 16.5469C59.3779 16.5469 62.5333 19.7025 62.5333 23.5952Z" fill="#FEBC2C" stroke="#E19E1E" stroke-width="0.3"/>
<path d="M86.5607 23.5952C86.5607 27.488 83.4052 30.6436 79.5128 30.6436C75.6203 30.6436 72.4648 27.488 72.4648 23.5952C72.4648 19.7025 75.6203 16.5469 79.5128 16.5469C83.4052 16.5469 86.5607 19.7025 86.5607 23.5952Z" fill="#2AC740" stroke="#21AA25" stroke-width="0.3"/>
<path d="M499.398 229.999V229.399L500.598 228.979C501.958 228.539 502.638 227.399 502.638 225.559V194.839C502.638 194.039 502.538 193.399 502.338 192.919C502.178 192.439 501.718 192.039 500.958 191.719L499.398 190.999V190.399H510.978L522.078 219.439L532.518 190.399H544.338V190.999L543.378 191.359C542.618 191.639 542.098 192.039 541.818 192.559C541.538 193.039 541.398 193.679 541.398 194.479V225.859C541.398 226.659 541.498 227.279 541.698 227.719C541.898 228.159 542.378 228.539 543.138 228.859L544.338 229.399V229.999H529.398V229.399L530.658 228.859C531.418 228.539 531.898 228.159 532.098 227.719C532.298 227.279 532.398 226.659 532.398 225.859V212.359L532.518 195.199L519.978 229.999H516.978L503.898 195.619L504.078 210.559V225.679C504.078 226.559 504.198 227.279 504.438 227.839C504.718 228.359 505.238 228.739 505.998 228.979L507.318 229.399V229.999H499.398ZM554.447 230.899C552.127 230.899 550.167 230.239 548.567 228.919C547.007 227.599 546.227 225.699 546.227 223.219C546.227 221.339 547.187 219.619 549.107 218.059C551.027 216.459 554.047 215.259 558.167 214.459C558.807 214.339 559.527 214.219 560.327 214.099C561.127 213.939 561.967 213.779 562.847 213.619V208.879C562.847 206.159 562.507 204.259 561.827 203.179C561.187 202.059 560.167 201.499 558.767 201.499C557.807 201.499 557.047 201.819 556.487 202.459C555.927 203.059 555.567 204.119 555.407 205.639L555.287 206.299C555.207 208.019 554.787 209.279 554.027 210.079C553.267 210.879 552.327 211.279 551.207 211.279C550.167 211.279 549.307 210.959 548.627 210.319C547.947 209.679 547.607 208.819 547.607 207.739C547.607 206.099 548.167 204.719 549.287 203.599C550.447 202.479 551.967 201.639 553.847 201.079C555.727 200.519 557.767 200.239 559.967 200.239C563.527 200.239 566.267 201.119 568.187 202.879C570.147 204.599 571.127 207.419 571.127 211.339V224.599C571.127 226.399 571.967 227.299 573.647 227.299H574.967L575.507 227.779C574.747 228.739 573.907 229.479 572.987 229.999C572.107 230.519 570.847 230.779 569.207 230.779C567.447 230.779 566.047 230.379 565.007 229.579C564.007 228.739 563.347 227.639 563.027 226.279C561.827 227.559 560.587 228.659 559.307 229.579C558.067 230.459 556.447 230.899 554.447 230.899ZM558.107 227.239C558.907 227.239 559.647 227.059 560.327 226.699C561.047 226.299 561.887 225.699 562.847 224.899V214.819C562.447 214.899 562.047 214.979 561.647 215.059C561.247 215.139 560.787 215.219 560.267 215.299C558.427 215.779 556.947 216.599 555.827 217.759C554.747 218.879 554.207 220.399 554.207 222.319C554.207 223.959 554.587 225.199 555.347 226.039C556.107 226.839 557.027 227.239 558.107 227.239ZM576.862 229.999V229.399L577.762 229.099C579.122 228.659 579.802 227.679 579.802 226.159V194.059C579.802 193.259 579.642 192.659 579.322 192.259C579.002 191.859 578.442 191.539 577.642 191.299L576.862 191.119V190.519L587.842 187.939L588.562 188.479L588.382 196.879V226.159C588.382 227.759 589.042 228.759 590.362 229.159L591.202 229.399V229.999H576.862ZM599.122 229.999L588.442 214.999L599.542 204.739C600.062 204.259 600.362 203.759 600.442 203.239C600.562 202.679 600.222 202.279 599.422 202.039L598.402 201.739V201.139H607.342V201.739L605.542 202.219C604.662 202.499 603.942 202.839 603.382 203.239C602.862 203.599 602.222 204.119 601.462 204.799L594.742 211.099L605.482 226.039C606.122 226.919 606.722 227.599 607.282 228.079C607.842 228.559 608.562 228.959 609.442 229.279L609.682 229.399V229.999H599.122ZM625.552 200.239C628.152 200.239 630.372 200.779 632.212 201.859C634.052 202.899 635.452 204.339 636.412 206.179C637.412 207.979 637.912 210.039 637.912 212.359C637.912 212.799 637.892 213.259 637.852 213.739C637.812 214.179 637.732 214.579 637.612 214.939H619.732C619.772 219.259 620.532 222.379 622.012 224.299C623.532 226.179 625.772 227.119 628.732 227.119C630.732 227.119 632.352 226.799 633.592 226.159C634.832 225.519 635.992 224.579 637.072 223.339L637.672 223.879C636.432 226.079 634.772 227.799 632.692 229.039C630.652 230.279 628.192 230.899 625.312 230.899C622.472 230.899 619.952 230.299 617.752 229.099C615.552 227.859 613.832 226.099 612.592 223.819C611.352 221.539 610.732 218.819 610.732 215.659C610.732 212.379 611.452 209.599 612.892 207.319C614.332 204.999 616.172 203.239 618.412 202.039C620.692 200.839 623.072 200.239 625.552 200.239ZM625.372 201.439C624.212 201.439 623.212 201.799 622.372 202.519C621.572 203.199 620.932 204.439 620.452 206.239C620.012 207.999 619.772 210.499 619.732 213.739H629.992C630.392 209.379 630.232 206.239 629.512 204.319C628.792 202.399 627.412 201.439 625.372 201.439ZM659.489 244.399C657.889 244.399 656.609 243.999 655.649 243.199C654.729 242.399 654.269 241.379 654.269 240.139C654.269 239.019 654.669 238.119 655.469 237.439C656.269 236.759 657.169 236.419 658.169 236.419C659.169 236.419 660.009 236.619 660.689 237.019C661.369 237.459 661.969 238.079 662.489 238.879L662.909 239.359C663.789 240.559 664.669 240.539 665.549 239.299C665.909 238.699 666.309 237.899 666.749 236.899C667.229 235.939 667.769 234.639 668.369 232.999L656.729 205.159C656.449 204.399 656.149 203.799 655.829 203.359C655.509 202.879 654.989 202.479 654.269 202.159L653.189 201.739V201.139H668.129V201.679L666.929 202.159C666.049 202.439 665.589 202.899 665.549 203.539C665.549 204.139 665.709 204.899 666.029 205.819L672.269 222.019L678.209 205.639C678.529 204.719 678.649 203.959 678.569 203.359C678.489 202.719 677.989 202.279 677.069 202.039L675.809 201.739V201.139H684.149V201.739L682.829 202.159C681.909 202.439 681.269 202.839 680.909 203.359C680.549 203.879 680.209 204.599 679.889 205.519L670.229 231.859C668.669 236.059 667.109 239.199 665.549 241.279C663.989 243.359 661.969 244.399 659.489 244.399ZM699.734 230.899C696.694 230.899 694.054 230.279 691.814 229.039C689.574 227.759 687.834 225.959 686.594 223.639C685.394 221.319 684.794 218.599 684.794 215.479C684.794 212.359 685.434 209.659 686.714 207.379C688.034 205.099 689.814 203.339 692.054 202.099C694.334 200.859 696.894 200.239 699.734 200.239C702.574 200.239 705.114 200.859 707.354 202.099C709.594 203.299 711.354 205.039 712.634 207.319C713.954 209.599 714.614 212.319 714.614 215.479C714.614 218.639 713.994 221.379 712.754 223.699C711.554 225.979 709.834 227.759 707.594 229.039C705.394 230.279 702.774 230.899 699.734 230.899ZM699.734 229.699C701.134 229.699 702.254 229.299 703.094 228.499C703.934 227.699 704.534 226.279 704.894 224.239C705.294 222.199 705.494 219.319 705.494 215.599C705.494 211.839 705.294 208.939 704.894 206.899C704.534 204.859 703.934 203.439 703.094 202.639C702.254 201.839 701.134 201.439 699.734 201.439C698.334 201.439 697.194 201.839 696.314 202.639C695.474 203.439 694.854 204.859 694.454 206.899C694.094 208.939 693.914 211.839 693.914 215.599C693.914 219.319 694.094 222.199 694.454 224.239C694.854 226.279 695.474 227.699 696.314 228.499C697.194 229.299 698.334 229.699 699.734 229.699ZM727.875 230.899C726.315 230.899 724.875 230.599 723.555 229.999C722.275 229.399 721.255 228.439 720.495 227.119C719.775 225.759 719.435 223.979 719.475 221.779L719.655 206.359C719.655 205.439 719.495 204.779 719.175 204.379C718.855 203.979 718.355 203.699 717.675 203.539L716.955 203.299V202.699L727.695 200.599L728.295 201.199L727.995 209.719V224.179C727.995 225.459 728.355 226.399 729.075 226.999C729.835 227.599 730.775 227.899 731.895 227.899C733.015 227.899 734.015 227.739 734.895 227.419C735.775 227.099 736.655 226.619 737.535 225.979L737.775 206.419C737.775 205.499 737.635 204.859 737.355 204.499C737.075 204.099 736.555 203.819 735.795 203.659L735.195 203.479V202.879L745.695 200.599L746.295 201.199L746.115 209.719V225.979C746.115 226.859 746.235 227.539 746.475 228.019C746.715 228.499 747.235 228.899 748.035 229.219L748.635 229.399V229.999L738.135 230.599L737.595 227.059C736.275 228.139 734.835 229.059 733.275 229.819C731.755 230.539 729.955 230.899 727.875 230.899ZM751.058 229.999V229.399L751.958 229.159C752.758 228.919 753.298 228.559 753.578 228.079C753.898 227.599 754.058 226.979 754.058 226.219V207.439C754.058 206.559 753.898 205.919 753.578 205.519C753.298 205.079 752.758 204.779 751.958 204.619L751.058 204.379V203.779L761.378 200.299L761.978 200.899L762.518 206.059V206.539C763.078 205.419 763.798 204.399 764.678 203.479C765.598 202.519 766.598 201.739 767.678 201.139C768.798 200.539 769.898 200.239 770.978 200.239C772.498 200.239 773.658 200.659 774.458 201.499C775.258 202.339 775.658 203.399 775.658 204.679C775.658 206.039 775.258 207.099 774.458 207.859C773.698 208.579 772.778 208.939 771.698 208.939C770.018 208.939 768.538 208.099 767.258 206.419L767.138 206.299C766.738 205.739 766.278 205.439 765.758 205.399C765.238 205.319 764.758 205.559 764.318 206.119C763.918 206.479 763.578 206.919 763.298 207.439C763.058 207.919 762.818 208.479 762.578 209.119V225.859C762.578 227.459 763.278 228.459 764.678 228.859L766.598 229.399V229.999H751.058ZM803.329 230.899C800.969 230.899 798.849 230.379 796.969 229.339C795.089 228.259 793.589 226.619 792.469 224.419C791.389 222.179 790.849 219.319 790.849 215.839C790.849 212.319 791.469 209.419 792.709 207.139C793.949 204.819 795.589 203.099 797.629 201.979C799.669 200.819 801.889 200.239 804.289 200.239C805.689 200.239 807.029 200.379 808.309 200.659C809.589 200.939 810.729 201.359 811.729 201.919V194.119C811.729 193.279 811.589 192.659 811.309 192.259C811.069 191.859 810.529 191.579 809.689 191.419L808.549 191.179V190.579L819.469 187.939L820.129 188.479L819.889 196.879V226.219C819.889 227.019 820.029 227.679 820.309 228.199C820.589 228.679 821.109 229.019 821.869 229.219L822.409 229.399V229.999L812.149 230.659L811.609 228.499C810.529 229.219 809.289 229.799 807.889 230.239C806.529 230.679 805.009 230.899 803.329 230.899ZM806.809 228.679C808.489 228.679 810.029 228.179 811.429 227.179V203.359C809.949 202.399 808.429 201.919 806.869 201.919C804.949 201.919 803.309 203.039 801.949 205.279C800.589 207.479 799.909 210.959 799.909 215.719C799.909 220.479 800.549 223.839 801.829 225.799C803.109 227.719 804.769 228.679 806.809 228.679ZM840.242 230.899C837.202 230.899 834.562 230.279 832.322 229.039C830.082 227.759 828.342 225.959 827.102 223.639C825.902 221.319 825.302 218.599 825.302 215.479C825.302 212.359 825.942 209.659 827.222 207.379C828.542 205.099 830.322 203.339 832.562 202.099C834.842 200.859 837.402 200.239 840.242 200.239C843.082 200.239 845.622 200.859 847.862 202.099C850.102 203.299 851.862 205.039 853.142 207.319C854.462 209.599 855.122 212.319 855.122 215.479C855.122 218.639 854.502 221.379 853.262 223.699C852.062 225.979 850.342 227.759 848.102 229.039C845.902 230.279 843.282 230.899 840.242 230.899ZM840.242 229.699C841.642 229.699 842.762 229.299 843.602 228.499C844.442 227.699 845.042 226.279 845.402 224.239C845.802 222.199 846.002 219.319 846.002 215.599C846.002 211.839 845.802 208.939 845.402 206.899C845.042 204.859 844.442 203.439 843.602 202.639C842.762 201.839 841.642 201.439 840.242 201.439C838.842 201.439 837.702 201.839 836.822 202.639C835.982 203.439 835.362 204.859 834.962 206.899C834.602 208.939 834.422 211.839 834.422 215.599C834.422 219.319 834.602 222.199 834.962 224.239C835.362 226.279 835.982 227.699 836.822 228.499C837.702 229.299 838.842 229.699 840.242 229.699ZM872.989 230.899C870.269 230.899 867.789 230.319 865.549 229.159C863.349 227.959 861.589 226.239 860.269 223.999C858.989 221.719 858.349 218.939 858.349 215.659C858.349 212.419 859.049 209.659 860.449 207.379C861.889 205.059 863.789 203.299 866.149 202.099C868.549 200.859 871.169 200.239 874.009 200.239C876.329 200.239 878.289 200.619 879.889 201.379C881.489 202.139 882.709 203.139 883.549 204.379C884.389 205.579 884.809 206.839 884.809 208.159C884.809 209.279 884.469 210.159 883.789 210.799C883.109 211.399 882.229 211.699 881.149 211.699C879.989 211.699 879.049 211.279 878.329 210.439C877.609 209.599 877.189 208.499 877.069 207.139C877.029 206.259 877.049 205.519 877.129 204.919C877.209 204.279 877.209 203.639 877.129 202.999C876.969 202.319 876.709 201.879 876.349 201.679C876.029 201.439 875.569 201.319 874.969 201.319C872.529 201.319 870.629 202.379 869.269 204.499C867.949 206.619 867.289 209.999 867.289 214.639C867.289 218.679 868.029 221.779 869.509 223.939C871.029 226.059 873.349 227.119 876.469 227.119C878.349 227.119 879.869 226.779 881.029 226.099C882.189 225.419 883.309 224.399 884.389 223.039L884.989 223.519C883.989 225.879 882.449 227.699 880.369 228.979C878.289 230.259 875.829 230.899 872.989 230.899ZM898.266 230.899C896.706 230.899 895.266 230.599 893.946 229.999C892.666 229.399 891.646 228.439 890.886 227.119C890.166 225.759 889.826 223.979 889.866 221.779L890.046 206.359C890.046 205.439 889.886 204.779 889.566 204.379C889.246 203.979 888.746 203.699 888.066 203.539L887.346 203.299V202.699L898.086 200.599L898.686 201.199L898.386 209.719V224.179C898.386 225.459 898.746 226.399 899.466 226.999C900.226 227.599 901.166 227.899 902.286 227.899C903.406 227.899 904.406 227.739 905.286 227.419C906.166 227.099 907.046 226.619 907.926 225.979L908.166 206.419C908.166 205.499 908.026 204.859 907.746 204.499C907.466 204.099 906.946 203.819 906.186 203.659L905.586 203.479V202.879L916.086 200.599L916.686 201.199L916.506 209.719V225.979C916.506 226.859 916.626 227.539 916.866 228.019C917.106 228.499 917.626 228.899 918.426 229.219L919.026 229.399V229.999L908.526 230.599L907.986 227.059C906.666 228.139 905.226 229.059 903.666 229.819C902.146 230.539 900.346 230.899 898.266 230.899ZM921.449 229.999V229.399L922.289 229.159C923.049 228.959 923.569 228.619 923.849 228.139C924.169 227.659 924.349 227.019 924.389 226.219V207.439C924.389 206.559 924.249 205.919 923.969 205.519C923.689 205.079 923.149 204.779 922.349 204.619L921.449 204.379V203.779L931.709 200.299L932.309 200.899L932.789 204.979C934.109 203.659 935.609 202.539 937.289 201.619C939.009 200.699 940.789 200.239 942.629 200.239C944.549 200.239 946.089 200.639 947.249 201.439C948.409 202.199 949.289 203.399 949.889 205.039C951.449 203.559 953.129 202.399 954.929 201.559C956.769 200.679 958.549 200.239 960.269 200.239C963.109 200.239 965.189 200.919 966.509 202.279C967.869 203.639 968.549 205.779 968.549 208.699V226.279C968.549 227.839 969.269 228.819 970.709 229.219L971.369 229.399V229.999H957.509V229.399L958.109 229.219C958.869 228.979 959.389 228.619 959.669 228.139C959.989 227.659 960.149 227.019 960.149 226.219V207.859C960.149 206.179 959.849 205.039 959.249 204.439C958.649 203.799 957.689 203.479 956.369 203.479C955.329 203.479 954.309 203.719 953.309 204.199C952.349 204.639 951.329 205.319 950.249 206.239C950.449 206.879 950.569 207.579 950.609 208.339C950.689 209.099 950.729 209.899 950.729 210.739V226.279C950.769 227.839 951.489 228.819 952.889 229.219L953.429 229.399V229.999H939.509V229.399L940.349 229.159C941.109 228.919 941.629 228.579 941.909 228.139C942.229 227.659 942.389 227.019 942.389 226.219V207.919C942.389 206.319 942.089 205.179 941.489 204.499C940.929 203.819 939.949 203.479 938.549 203.479C937.629 203.479 936.709 203.719 935.789 204.199C934.869 204.639 933.909 205.299 932.909 206.179V226.279C932.909 227.839 933.609 228.819 935.009 229.219L935.549 229.399V229.999H921.449ZM988.775 200.239C991.375 200.239 993.595 200.779 995.435 201.859C997.275 202.899 998.675 204.339 999.635 206.179C1000.64 207.979 1001.14 210.039 1001.14 212.359C1001.14 212.799 1001.12 213.259 1001.08 213.739C1001.04 214.179 1000.96 214.579 1000.84 214.939H982.955C982.995 219.259 983.755 222.379 985.235 224.299C986.755 226.179 988.995 227.119 991.955 227.119C993.955 227.119 995.575 226.799 996.815 226.159C998.055 225.519 999.215 224.579 1000.3 223.339L1000.9 223.879C999.655 226.079 997.995 227.799 995.915 229.039C993.875 230.279 991.415 230.899 988.535 230.899C985.695 230.899 983.175 230.299 980.975 229.099C978.775 227.859 977.055 226.099 975.815 223.819C974.575 221.539 973.955 218.819 973.955 215.659C973.955 212.379 974.675 209.599 976.115 207.319C977.555 204.999 979.395 203.239 981.635 202.039C983.915 200.839 986.295 200.239 988.775 200.239ZM988.595 201.439C987.435 201.439 986.435 201.799 985.595 202.519C984.795 203.199 984.155 204.439 983.675 206.239C983.235 207.999 982.995 210.499 982.955 213.739H993.215C993.615 209.379 993.455 206.239 992.735 204.319C992.015 202.399 990.635 201.439 988.595 201.439ZM1004.13 229.999V229.399L1004.97 229.159C1006.37 228.759 1007.07 227.779 1007.07 226.219V207.439C1007.07 206.559 1006.93 205.919 1006.65 205.519C1006.37 205.079 1005.83 204.779 1005.03 204.619L1004.13 204.379V203.779L1014.39 200.299L1014.99 200.899L1015.47 204.499C1016.87 203.259 1018.45 202.239 1020.21 201.439C1021.97 200.639 1023.71 200.239 1025.43 200.239C1028.07 200.239 1030.09 200.959 1031.49 202.399C1032.93 203.839 1033.65 206.039 1033.65 208.999V226.279C1033.65 227.839 1034.41 228.819 1035.93 229.219L1036.47 229.399V229.999H1022.31V229.399L1023.09 229.159C1024.49 228.719 1025.19 227.739 1025.19 226.219V207.079C1025.19 204.519 1023.91 203.239 1021.35 203.239C1019.59 203.239 1017.67 204.119 1015.59 205.879V226.279C1015.59 227.839 1016.29 228.819 1017.69 229.219L1018.23 229.399V229.999H1004.13ZM1049.92 230.899C1047.36 230.899 1045.36 230.259 1043.92 228.979C1042.52 227.699 1041.82 225.659 1041.82 222.859V202.339H1037.68V201.739L1039.12 201.499C1040.36 201.219 1041.42 200.819 1042.3 200.299C1043.22 199.779 1044.12 199.079 1045 198.199L1049.92 192.739H1050.52L1050.34 201.139H1057.06V202.339H1050.28V223.939C1050.28 225.339 1050.58 226.399 1051.18 227.119C1051.82 227.839 1052.62 228.199 1053.58 228.199C1054.42 228.199 1055.16 227.999 1055.8 227.599C1056.44 227.159 1057.08 226.579 1057.72 225.859L1058.32 226.459C1057.52 227.819 1056.42 228.899 1055.02 229.699C1053.62 230.499 1051.92 230.899 1049.92 230.899ZM762.067 279.119C760.707 279.119 759.547 278.699 758.587 277.859C757.667 276.979 757.207 275.879 757.207 274.559C757.207 273.199 757.667 272.099 758.587 271.259C759.547 270.419 760.707 269.999 762.067 269.999C763.427 269.999 764.567 270.419 765.487 271.259C766.407 272.099 766.867 273.199 766.867 274.559C766.867 275.879 766.407 276.979 765.487 277.859C764.567 278.699 763.427 279.119 762.067 279.119ZM754.987 311.999V311.399L755.827 311.159C756.627 310.919 757.167 310.559 757.447 310.079C757.767 309.599 757.927 308.959 757.927 308.159V289.379C757.927 288.539 757.767 287.919 757.447 287.519C757.167 287.079 756.627 286.779 755.827 286.619L754.987 286.439V285.839L765.967 282.299L766.567 282.899L766.387 291.419V308.219C766.387 309.019 766.527 309.659 766.807 310.139C767.127 310.619 767.667 310.979 768.427 311.219L769.027 311.399V311.999H754.987ZM771.683 311.999V311.399L772.523 311.159C773.923 310.759 774.623 309.779 774.623 308.219V289.439C774.623 288.559 774.483 287.919 774.203 287.519C773.923 287.079 773.383 286.779 772.583 286.619L771.683 286.379V285.779L781.943 282.299L782.543 282.899L783.023 286.499C784.423 285.259 786.003 284.239 787.763 283.439C789.523 282.639 791.263 282.239 792.983 282.239C795.623 282.239 797.643 282.959 799.043 284.399C800.483 285.839 801.203 288.039 801.203 290.999V308.279C801.203 309.839 801.963 310.819 803.483 311.219L804.023 311.399V311.999H789.863V311.399L790.643 311.159C792.043 310.719 792.743 309.739 792.743 308.219V289.079C792.743 286.519 791.463 285.239 788.903 285.239C787.143 285.239 785.223 286.119 783.143 287.879V308.279C783.143 309.839 783.843 310.819 785.243 311.219L785.783 311.399V311.999H771.683ZM840.077 313.079C835.997 313.079 832.397 312.239 829.277 310.559C826.197 308.839 823.777 306.419 822.017 303.299C820.297 300.139 819.437 296.419 819.437 292.139C819.437 287.979 820.297 284.339 822.017 281.219C823.737 278.099 826.217 275.679 829.457 273.959C832.737 272.199 836.697 271.319 841.337 271.319C843.457 271.319 845.417 271.559 847.217 272.039C849.057 272.519 850.797 273.219 852.437 274.139L852.677 282.539H852.077L848.717 276.299C848.197 275.299 847.717 274.579 847.277 274.139C846.837 273.699 846.277 273.359 845.597 273.119C844.957 272.919 844.357 272.779 843.797 272.699C843.277 272.579 842.577 272.519 841.697 272.519C839.217 272.519 837.017 273.179 835.097 274.499C833.217 275.819 831.757 277.919 830.717 280.799C829.677 283.679 829.157 287.459 829.157 292.139C829.157 296.779 829.637 300.559 830.597 303.479C831.597 306.399 832.997 308.539 834.797 309.899C836.597 311.219 838.677 311.879 841.037 311.879C841.397 311.879 841.737 311.859 842.057 311.819C842.417 311.739 842.757 311.659 843.077 311.579C843.837 311.459 844.337 311.139 844.577 310.619C844.817 310.099 844.937 309.479 844.937 308.759V296.879C844.937 295.319 844.137 294.359 842.537 293.999L839.777 293.279V292.679H856.697V293.279L855.857 293.519C854.337 293.999 853.577 294.999 853.577 296.519V309.539C851.497 310.699 849.377 311.579 847.217 312.179C845.097 312.779 842.717 313.079 840.077 313.079ZM866.012 279.119C864.652 279.119 863.492 278.699 862.532 277.859C861.612 276.979 861.152 275.879 861.152 274.559C861.152 273.199 861.612 272.099 862.532 271.259C863.492 270.419 864.652 269.999 866.012 269.999C867.372 269.999 868.512 270.419 869.432 271.259C870.352 272.099 870.812 273.199 870.812 274.559C870.812 275.879 870.352 276.979 869.432 277.859C868.512 278.699 867.372 279.119 866.012 279.119ZM858.932 311.999V311.399L859.772 311.159C860.572 310.919 861.112 310.559 861.392 310.079C861.712 309.599 861.872 308.959 861.872 308.159V289.379C861.872 288.539 861.712 287.919 861.392 287.519C861.112 287.079 860.572 286.779 859.772 286.619L858.932 286.439V285.839L869.912 282.299L870.512 282.899L870.332 291.419V308.219C870.332 309.019 870.472 309.659 870.752 310.139C871.072 310.619 871.612 310.979 872.372 311.219L872.972 311.399V311.999H858.932ZM882.207 311.999V311.399L884.667 310.799C886.307 310.439 887.127 309.439 887.127 307.799V273.599H882.027C880.547 273.599 879.487 273.999 878.847 274.799C878.207 275.559 877.527 276.619 876.807 277.979L874.647 282.179H874.047L874.347 272.399H908.967L909.207 282.179H908.607L906.447 277.979C905.767 276.619 905.107 275.559 904.467 274.799C903.827 273.999 902.767 273.599 901.287 273.599H896.187V307.799C896.187 309.439 897.007 310.439 898.647 310.799L901.107 311.399V311.999H882.207ZM922.274 312.899C919.234 312.899 916.594 312.279 914.354 311.039C912.114 309.759 910.374 307.959 909.134 305.639C907.934 303.319 907.334 300.599 907.334 297.479C907.334 294.359 907.974 291.659 909.254 289.379C910.574 287.099 912.354 285.339 914.594 284.099C916.874 282.859 919.434 282.239 922.274 282.239C925.114 282.239 927.654 282.859 929.894 284.099C932.134 285.299 933.894 287.039 935.174 289.319C936.494 291.599 937.154 294.319 937.154 297.479C937.154 300.639 936.534 303.379 935.294 305.699C934.094 307.979 932.374 309.759 930.134 311.039C927.934 312.279 925.314 312.899 922.274 312.899ZM922.274 311.699C923.674 311.699 924.794 311.299 925.634 310.499C926.474 309.699 927.074 308.279 927.434 306.239C927.834 304.199 928.034 301.319 928.034 297.599C928.034 293.839 927.834 290.939 927.434 288.899C927.074 286.859 926.474 285.439 925.634 284.639C924.794 283.839 923.674 283.439 922.274 283.439C920.874 283.439 919.734 283.839 918.854 284.639C918.014 285.439 917.394 286.859 916.994 288.899C916.634 290.939 916.454 293.839 916.454 297.599C916.454 301.319 916.634 304.199 916.994 306.239C917.394 308.279 918.014 309.699 918.854 310.499C919.734 311.299 920.874 311.699 922.274 311.699ZM938.737 311.999V311.399L939.997 310.919C941.277 310.399 941.917 309.379 941.917 307.859V276.539C941.917 274.939 941.277 273.919 939.997 273.479L938.737 272.999V272.399H954.577C958.817 272.399 962.457 273.199 965.497 274.799C968.577 276.359 970.937 278.619 972.577 281.579C974.257 284.499 975.097 288.019 975.097 292.139C975.097 296.339 974.197 299.919 972.397 302.879C970.597 305.839 968.077 308.099 964.837 309.659C961.637 311.219 957.857 311.999 953.497 311.999H938.737ZM950.917 310.799H953.497C956.377 310.799 958.697 310.239 960.457 309.119C962.217 307.959 963.497 306.039 964.297 303.359C965.137 300.639 965.557 296.919 965.557 292.199C965.557 287.479 965.137 283.779 964.297 281.099C963.497 278.379 962.237 276.459 960.517 275.339C958.797 274.179 956.537 273.599 953.737 273.599H950.917V310.799ZM992.703 312.899C989.663 312.899 987.023 312.279 984.783 311.039C982.543 309.759 980.803 307.959 979.563 305.639C978.363 303.319 977.763 300.599 977.763 297.479C977.763 294.359 978.403 291.659 979.683 289.379C981.003 287.099 982.783 285.339 985.023 284.099C987.303 282.859 989.863 282.239 992.703 282.239C995.543 282.239 998.083 282.859 1000.32 284.099C1002.56 285.299 1004.32 287.039 1005.6 289.319C1006.92 291.599 1007.58 294.319 1007.58 297.479C1007.58 300.639 1006.96 303.379 1005.72 305.699C1004.52 307.979 1002.8 309.759 1000.56 311.039C998.363 312.279 995.743 312.899 992.703 312.899ZM992.703 311.699C994.103 311.699 995.223 311.299 996.063 310.499C996.903 309.699 997.503 308.279 997.863 306.239C998.263 304.199 998.463 301.319 998.463 297.599C998.463 293.839 998.263 290.939 997.863 288.899C997.503 286.859 996.903 285.439 996.063 284.639C995.223 283.839 994.103 283.439 992.703 283.439C991.303 283.439 990.163 283.839 989.283 284.639C988.443 285.439 987.823 286.859 987.423 288.899C987.063 290.939 986.883 293.839 986.883 297.599C986.883 301.319 987.063 304.199 987.423 306.239C987.823 308.279 988.443 309.699 989.283 310.499C990.163 311.299 991.303 311.699 992.703 311.699ZM1025.45 312.899C1022.73 312.899 1020.25 312.319 1018.01 311.159C1015.81 309.959 1014.05 308.239 1012.73 305.999C1011.45 303.719 1010.81 300.939 1010.81 297.659C1010.81 294.419 1011.51 291.659 1012.91 289.379C1014.35 287.059 1016.25 285.299 1018.61 284.099C1021.01 282.859 1023.63 282.239 1026.47 282.239C1028.79 282.239 1030.75 282.619 1032.35 283.379C1033.95 284.139 1035.17 285.139 1036.01 286.379C1036.85 287.579 1037.27 288.839 1037.27 290.159C1037.27 291.279 1036.93 292.159 1036.25 292.799C1035.57 293.399 1034.69 293.699 1033.61 293.699C1032.45 293.699 1031.51 293.279 1030.79 292.439C1030.07 291.599 1029.65 290.499 1029.53 289.139C1029.49 288.259 1029.51 287.519 1029.59 286.919C1029.67 286.279 1029.67 285.639 1029.59 284.999C1029.43 284.319 1029.17 283.879 1028.81 283.679C1028.49 283.439 1028.03 283.319 1027.43 283.319C1024.99 283.319 1023.09 284.379 1021.73 286.499C1020.41 288.619 1019.75 291.999 1019.75 296.639C1019.75 300.679 1020.49 303.779 1021.97 305.939C1023.49 308.059 1025.81 309.119 1028.93 309.119C1030.81 309.119 1032.33 308.779 1033.49 308.099C1034.65 307.419 1035.77 306.399 1036.85 305.039L1037.45 305.519C1036.45 307.879 1034.91 309.699 1032.83 310.979C1030.75 312.259 1028.29 312.899 1025.45 312.899ZM1049.04 271.679C1050.52 271.679 1051.68 272.159 1052.52 273.119C1053.36 274.039 1053.78 275.259 1053.78 276.779C1053.78 278.019 1053.46 279.959 1052.82 282.599C1052.18 285.199 1051.52 288.079 1050.84 291.239L1049.58 297.539H1048.44L1047.18 291.239C1046.54 288.159 1045.9 285.319 1045.26 282.719C1044.62 280.079 1044.3 278.099 1044.3 276.779C1044.3 275.259 1044.72 274.039 1045.56 273.119C1046.4 272.159 1047.56 271.679 1049.04 271.679ZM1049.04 312.899C1047.56 312.899 1046.32 312.399 1045.32 311.399C1044.32 310.399 1043.82 309.179 1043.82 307.739C1043.82 306.339 1044.32 305.139 1045.32 304.139C1046.32 303.099 1047.56 302.579 1049.04 302.579C1050.48 302.579 1051.7 303.099 1052.7 304.139C1053.7 305.139 1054.2 306.339 1054.2 307.739C1054.2 309.179 1053.7 310.399 1052.7 311.399C1051.7 312.399 1050.48 312.899 1049.04 312.899Z" fill="white"/>
<path d="M341 353H1059" stroke="url(#paint0_linear_955_1478)" stroke-width="0.7" stroke-linecap="round"/>
<path d="M1033.42 398.75C1033.09 398.75 1032.81 398.639 1032.58 398.416C1032.36 398.193 1032.25 397.914 1032.25 397.577V395.415C1032.25 395.096 1032.31 394.79 1032.44 394.496C1032.57 394.201 1032.74 393.95 1032.95 393.741L1052.89 373.8C1053.07 373.638 1053.28 373.508 1053.51 373.411C1053.74 373.314 1053.98 373.266 1054.24 373.266C1054.48 373.266 1054.72 373.311 1054.95 373.403C1055.18 373.494 1055.39 373.629 1055.58 373.808L1057.21 375.449C1057.4 375.633 1057.54 375.843 1057.62 376.078C1057.71 376.314 1057.75 376.549 1057.75 376.784C1057.75 377.028 1057.7 377.269 1057.61 377.505C1057.52 377.742 1057.39 377.951 1057.21 378.13L1037.26 398.046C1037.05 398.262 1036.8 398.433 1036.5 398.56C1036.21 398.687 1035.9 398.75 1035.59 398.75H1033.42ZM1053.97 378.643L1055.85 376.78L1054.24 375.166L1052.37 377.043L1053.97 378.643Z" fill="white"/>
<mask id="mask1_955_1478" style="mask-type:alpha" maskUnits="userSpaceOnUse" x="39" y="373" width="36" height="37">
<path d="M75 373.996H39V409.996H75V373.996Z" fill="#D9D9D9"/>
</mask>
<g mask="url(#mask1_955_1478)">
<path d="M49.5 405.496C48.675 405.496 47.9688 405.202 47.3812 404.615C46.7937 404.027 46.5 403.321 46.5 402.496V382.996C46.075 382.996 45.7188 382.852 45.4312 382.565C45.1437 382.277 45 381.921 45 381.496C45 381.071 45.1437 380.715 45.4312 380.427C45.7188 380.14 46.075 379.996 46.5 379.996H52.5C52.5 379.571 52.6437 379.215 52.9312 378.927C53.2188 378.64 53.575 378.496 54 378.496H60C60.425 378.496 60.7813 378.64 61.0688 378.927C61.3563 379.215 61.5 379.571 61.5 379.996H67.5C67.925 379.996 68.2812 380.14 68.5688 380.427C68.8563 380.715 69 381.071 69 381.496C69 381.921 68.8563 382.277 68.5688 382.565C68.2812 382.852 67.925 382.996 67.5 382.996V402.496C67.5 403.321 67.2063 404.027 66.6188 404.615C66.0312 405.202 65.325 405.496 64.5 405.496H49.5ZM54 399.496C54.425 399.496 54.7812 399.352 55.0688 399.065C55.3562 398.777 55.5 398.421 55.5 397.996V387.496C55.5 387.071 55.3562 386.715 55.0688 386.427C54.7812 386.14 54.425 385.996 54 385.996C53.575 385.996 53.2188 386.14 52.9312 386.427C52.6437 386.715 52.5 387.071 52.5 387.496V397.996C52.5 398.421 52.6437 398.777 52.9312 399.065C53.2188 399.352 53.575 399.496 54 399.496ZM60 399.496C60.425 399.496 60.7813 399.352 61.0688 399.065C61.3563 398.777 61.5 398.421 61.5 397.996V387.496C61.5 387.071 61.3563 386.715 61.0688 386.427C60.7813 386.14 60.425 385.996 60 385.996C59.575 385.996 59.2188 386.14 58.9313 386.427C58.6438 386.715 58.5 387.071 58.5 387.496V397.996C58.5 398.421 58.6438 398.777 58.9313 399.065C59.2188 399.352 59.575 399.496 60 399.496Z" fill="white"/>
</g>
<mask id="mask2_955_1478" style="mask-type:alpha" maskUnits="userSpaceOnUse" x="39" y="273" width="36" height="37">
<path d="M75 273.996H39V309.996H75V273.996Z" fill="#D9D9D9"/>
</mask>
<g mask="url(#mask2_955_1478)">
<path d="M47.5 308.496C46.825 308.496 46.2396 308.248 45.7437 307.752C45.2479 307.257 45 306.671 45 305.996V287.771C45 287.096 45.2479 286.511 45.7437 286.015C46.2396 285.519 46.825 285.271 47.5 285.271H51.975C52.3292 285.271 52.6261 285.391 52.8657 285.632C53.1052 285.872 53.225 286.17 53.225 286.525C53.225 286.881 53.1052 287.177 52.8657 287.415C52.6261 287.652 52.3292 287.771 51.975 287.771H47.5V305.996H66.5V287.771H61.975C61.6208 287.771 61.3239 287.651 61.0844 287.41C60.8448 287.17 60.725 286.872 60.725 286.517C60.725 286.161 60.8448 285.865 61.0844 285.627C61.3239 285.39 61.6208 285.271 61.975 285.271H66.5C67.175 285.271 67.7604 285.519 68.2563 286.015C68.7521 286.511 69 287.096 69 287.771V305.996C69 306.671 68.7521 307.257 68.2563 307.752C67.7604 308.248 67.175 308.496 66.5 308.496H47.5ZM55.725 280.309L53.6 282.434C53.35 282.684 53.0583 282.806 52.725 282.802C52.3917 282.798 52.0967 282.671 51.8402 282.421C51.6051 282.171 51.4854 281.875 51.4812 281.534C51.4771 281.192 51.6 280.896 51.85 280.646L56.1 276.371C56.35 276.121 56.6417 275.996 56.975 275.996C57.3083 275.996 57.6 276.121 57.85 276.371L62.125 280.646C62.3667 280.888 62.4875 281.179 62.4875 281.519C62.4875 281.859 62.3699 282.153 62.1348 282.4C61.8783 282.647 61.5774 282.771 61.2321 282.771C60.8868 282.771 60.5886 282.646 60.3375 282.396L58.225 280.309V296.071C58.225 296.425 58.1048 296.722 57.8644 296.962C57.624 297.201 57.326 297.321 56.9706 297.321C56.6152 297.321 56.3188 297.201 56.0813 296.962C55.8438 296.722 55.725 296.425 55.725 296.071V280.309Z" fill="white"/>
</g>
<mask id="mask3_955_1478" style="mask-type:alpha" maskUnits="userSpaceOnUse" x="37" y="169" width="40" height="41">
<path d="M77 169.996H37V209.996H77V169.996Z" fill="#D9D9D9"/>
</mask>
<g mask="url(#mask3_955_1478)">
<path d="M56.9999 192.28C56.7841 192.28 56.5791 192.254 56.385 192.201C56.1909 192.149 55.9945 192.073 55.7958 191.974L41.7082 184.537C41.4689 184.399 41.2969 184.232 41.1922 184.036C41.0875 183.839 41.0352 183.621 41.0352 183.382C41.0352 183.15 41.0875 182.935 41.1922 182.739C41.2969 182.542 41.4689 182.375 41.7082 182.238L55.7958 174.801C55.9945 174.702 56.1909 174.626 56.385 174.573C56.5791 174.52 56.7841 174.494 56.9999 174.494C57.2157 174.494 57.4206 174.52 57.6147 174.573C57.8088 174.626 58.0052 174.702 58.2039 174.801L72.3075 182.238C72.5468 182.375 72.7217 182.542 72.8321 182.739C72.9425 182.935 72.9977 183.15 72.9977 183.382C72.9977 183.621 72.9425 183.839 72.8321 184.036C72.7217 184.232 72.5468 184.399 72.3075 184.537L58.2039 191.974C58.0052 192.073 57.8088 192.149 57.6147 192.201C57.4206 192.254 57.2157 192.28 56.9999 192.28ZM56.9999 190.217L70.1452 183.382L56.9999 176.557L43.8983 183.382L56.9999 190.217ZM56.9999 196.837L70.8524 189.573C70.9187 189.542 71.1096 189.519 71.4251 189.506C71.6872 189.527 71.9085 189.632 72.0891 189.819C72.2696 190.006 72.3599 190.24 72.3599 190.521C72.3599 190.71 72.3166 190.88 72.2301 191.03C72.1435 191.181 72.0055 191.312 71.8161 191.425L58.2039 198.576C58.0052 198.682 57.8088 198.76 57.6147 198.809C57.4206 198.858 57.2157 198.883 56.9999 198.883C56.7841 198.883 56.5791 198.858 56.385 198.809C56.1909 198.76 55.9945 198.682 55.7958 198.576L42.2274 191.425C42.038 191.312 41.8956 191.181 41.8001 191.03C41.7047 190.88 41.6569 190.71 41.6569 190.521C41.6569 190.24 41.7499 190.006 41.9358 189.819C42.1217 189.632 42.3457 189.527 42.6077 189.506C42.7139 189.484 42.814 189.481 42.908 189.496C43.002 189.51 43.0964 189.545 43.1911 189.601L56.9999 196.837ZM56.9999 203.45L70.8524 196.186C70.9187 196.148 71.1096 196.122 71.4251 196.108C71.6872 196.137 71.9085 196.245 72.0891 196.432C72.2696 196.619 72.3599 196.85 72.3599 197.123C72.3599 197.313 72.3166 197.484 72.2301 197.638C72.1435 197.792 72.0055 197.925 71.8161 198.038L58.2039 205.189C58.0052 205.296 57.8088 205.373 57.6147 205.422C57.4206 205.472 57.2157 205.496 56.9999 205.496C56.7841 205.496 56.5791 205.472 56.385 205.422C56.1909 205.373 55.9945 205.296 55.7958 205.189L42.2274 198.038C42.038 197.925 41.8956 197.792 41.8001 197.638C41.7047 197.484 41.6569 197.313 41.6569 197.123C41.6569 196.85 41.7499 196.619 41.9358 196.432C42.1217 196.245 42.3457 196.137 42.6077 196.108C42.7139 196.094 42.814 196.094 42.908 196.109C43.002 196.123 43.0964 196.155 43.1911 196.203L56.9999 203.45Z" fill="white"/>
</g>
<path d="M108 712V45" stroke="url(#paint1_linear_955_1478)" stroke-opacity="0.8" stroke-width="0.7" stroke-linecap="round"/>
<path d="M48.6645 76H71.9976V97.9707L65.5257 104.613L42.5332 81.6204L48.6645 76Z" fill="#111111"/>
<rect x="42" y="81.793" width="23.8878" height="23.2065" rx="1" fill="#111111" stroke="url(#paint2_linear_955_1478)" stroke-width="2"/>
<path d="M66.5469 81.5742L71.1942 76.0003" stroke="url(#paint3_linear_955_1478)" stroke-width="2" stroke-linecap="round"/>
<path d="M65.5254 104.611L71.6567 98.7588" stroke="url(#paint4_linear_955_1478)" stroke-width="2" stroke-linecap="round"/>
<path d="M41.9297 82.0391L48.435 76.0007" stroke="url(#paint5_linear_955_1478)" stroke-width="2" stroke-linecap="round"/>
<path d="M48.4316 76L71.6563 76" stroke="url(#paint6_linear_955_1478)" stroke-width="2" stroke-linecap="round"/>
<path d="M71.6562 76L71.6562 98.7602" stroke="url(#paint7_linear_955_1478)" stroke-width="2" stroke-linecap="round"/>
<path d="M54.0371 82.0391V104.799" stroke="url(#paint8_linear_955_1478)" stroke-width="2" stroke-linecap="round"/>
<path d="M54.0449 93.5664H47.9676" stroke="url(#paint9_linear_955_1478)" stroke-width="2" stroke-linecap="round"/>
<defs>
<filter id="filter0_d_955_1478" x="0" y="43" width="1302" height="679" filterUnits="userSpaceOnUse" color-interpolation-filters="sRGB">
<feFlood flood-opacity="0" result="BackgroundImageFix"/>
<feColorMatrix in="SourceAlpha" type="matrix" values="0 0 0 0 0 0 0 0 0 0 0 0 0 0 0 0 0 0 127 0" result="hardAlpha"/>
<feOffset dy="4"/>
<feGaussianBlur stdDeviation="3"/>
<feComposite in2="hardAlpha" operator="out"/>
<feColorMatrix type="matrix" values="0 0 0 0 0 0 0 0 0 0 0 0 0 0 0 0 0 0 0.1 0"/>
<feBlend mode="normal" in2="BackgroundImageFix" result="effect1_dropShadow_955_1478"/>
<feBlend mode="normal" in="SourceGraphic" in2="effect1_dropShadow_955_1478" result="shape"/>
</filter>
<filter id="filter1_d_955_1478" x="2" y="0" width="1298" height="51" filterUnits="userSpaceOnUse" color-interpolation-filters="sRGB">
<feFlood flood-opacity="0" result="BackgroundImageFix"/>
<feColorMatrix in="SourceAlpha" type="matrix" values="0 0 0 0 0 0 0 0 0 0 0 0 0 0 0 0 0 0 127 0" result="hardAlpha"/>
<feOffset dy="2"/>
<feGaussianBlur stdDeviation="2"/>
<feComposite in2="hardAlpha" operator="out"/>
<feColorMatrix type="matrix" values="0 0 0 0 0 0 0 0 0 0 0 0 0 0 0 0 0 0 0.1 0"/>
<feBlend mode="normal" in2="BackgroundImageFix" result="effect1_dropShadow_955_1478"/>
<feBlend mode="normal" in="SourceGraphic" in2="effect1_dropShadow_955_1478" result="shape"/>
</filter>
<linearGradient id="paint0_linear_955_1478" x1="1059" y1="353" x2="341" y2="353" gradientUnits="userSpaceOnUse">
<stop stop-color="#AD51DE"/>
<stop offset="1" stop-color="#76CAE8"/>
</linearGradient>
<linearGradient id="paint1_linear_955_1478" x1="108" y1="45" x2="107.997" y2="711.999" gradientUnits="userSpaceOnUse">
<stop stop-color="#AD51DE"/>
<stop offset="1" stop-color="#76CAE8"/>
</linearGradient>
<linearGradient id="paint2_linear_955_1478" x1="43.0438" y1="104.613" x2="71.1458" y2="76.5108" gradientUnits="userSpaceOnUse">
<stop stop-color="#AD51DE"/>
<stop offset="0.358332" stop-color="#997CE2"/>
<stop offset="1" stop-color="#76CAE8"/>
</linearGradient>
<linearGradient id="paint3_linear_955_1478" x1="42.5932" y1="104.664" x2="69.1953" y2="76.1626" gradientUnits="userSpaceOnUse">
<stop stop-color="#AD51DE"/>
<stop offset="1" stop-color="#76CAE8"/>
</linearGradient>
<linearGradient id="paint4_linear_955_1478" x1="41.6631" y1="102.954" x2="73.391" y2="75.1759" gradientUnits="userSpaceOnUse">
<stop stop-color="#AD51DE"/>
<stop offset="1" stop-color="#76CAE8"/>
</linearGradient>
<linearGradient id="paint5_linear_955_1478" x1="41.775" y1="104.858" x2="71.2686" y2="76.1147" gradientUnits="userSpaceOnUse">
<stop stop-color="#AD51DE"/>
<stop offset="1" stop-color="#76CAE8"/>
</linearGradient>
<linearGradient id="paint6_linear_955_1478" x1="42.5328" y1="104" x2="71.037" y2="75.3828" gradientUnits="userSpaceOnUse">
<stop stop-color="#AE52DF"/>
<stop offset="0.323532" stop-color="#9C79E2"/>
<stop offset="1" stop-color="#76CAE8"/>
</linearGradient>
<linearGradient id="paint7_linear_955_1478" x1="42.6562" y1="104.613" x2="72.2617" y2="76.6408" gradientUnits="userSpaceOnUse">
<stop stop-color="#AE52DF"/>
<stop offset="1" stop-color="#76CAE8" stop-opacity="0.88"/>
</linearGradient>
<linearGradient id="paint8_linear_955_1478" x1="43.2778" y1="104.614" x2="71.3732" y2="77.1202" gradientUnits="userSpaceOnUse">
<stop stop-color="#AD51DE"/>
<stop offset="1" stop-color="#77C9E8"/>
</linearGradient>
<linearGradient id="paint9_linear_955_1478" x1="42.5332" y1="104.376" x2="70.5375" y2="76.2701" gradientUnits="userSpaceOnUse">
<stop stop-color="#AD51DE"/>
<stop offset="1" stop-color="#87CFEB"/>
</linearGradient>
</defs>
</svg>
