<svg width="1302" height="722" viewBox="0 0 1302 722" fill="none" xmlns="http://www.w3.org/2000/svg">
<g id="gitodocpage">
<g id="Rectangle 121" filter="url(#filter0_d_614_797)">
<mask id="path-1-inside-1_614_797" fill="white">
<path d="M6 45H1296V696C1296 704.837 1288.84 712 1280 712H22C13.1635 712 6 704.837 6 696V45Z"/>
</mask>
<path d="M6 45H1296V696C1296 704.837 1288.84 712 1280 712H22C13.1635 712 6 704.837 6 696V45Z" fill="#F6F8FA"/>
<path d="M6 45H1296H6ZM1296.5 696C1296.5 705.113 1289.11 712.5 1280 712.5H22C12.8873 712.5 5.5 705.113 5.5 696H6.5C6.5 704.56 13.4396 711.5 22 711.5H1280C1288.56 711.5 1295.5 704.56 1295.5 696H1296.5ZM22 712.5C12.8873 712.5 5.5 705.113 5.5 696V45H6.5V696C6.5 704.56 13.4396 711.5 22 711.5V712.5ZM1296.5 45V696C1296.5 705.113 1289.11 712.5 1280 712.5V711.5C1288.56 711.5 1295.5 704.56 1295.5 696V45H1296.5Z" fill="#454545" mask="url(#path-1-inside-1_614_797)"/>
</g>
<g id="bar">
<g id="Rectangle 120" filter="url(#filter1_d_614_797)">
<path d="M6 18C6 9.16344 13.1634 2 22 2H1280C1288.84 2 1296 9.16344 1296 18V45H6V18Z" fill="#FDFDFD"/>
<path d="M6.25 18C6.25 9.30152 13.3015 2.25 22 2.25H1280C1288.7 2.25 1295.75 9.30152 1295.75 18V44.75H6.25V18Z" stroke="#454545" stroke-width="0.5"/>
</g>
<path id="Ellipse 8" d="M38.5066 23.5948C38.5066 27.4876 35.3511 30.6432 31.4587 30.6432C27.5662 30.6432 24.4107 27.4876 24.4107 23.5948C24.4107 19.7021 27.5662 16.5465 31.4587 16.5465C35.3511 16.5465 38.5066 19.7021 38.5066 23.5948Z" fill="#FF6059" stroke="#E24239" stroke-width="0.3"/>
<path id="Ellipse 9" d="M62.5339 23.5948C62.5339 27.4876 59.3785 30.6432 55.486 30.6432C51.5936 30.6432 48.4381 27.4876 48.4381 23.5948C48.4381 19.7021 51.5936 16.5465 55.486 16.5465C59.3785 16.5465 62.5339 19.7021 62.5339 23.5948Z" fill="#FEBC2C" stroke="#E19E1E" stroke-width="0.3"/>
<path id="Ellipse 10" d="M86.5613 23.5948C86.5613 27.4876 83.4058 30.6432 79.5134 30.6432C75.6209 30.6432 72.4654 27.4876 72.4654 23.5948C72.4654 19.7021 75.6209 16.5465 79.5134 16.5465C83.4058 16.5465 86.5613 19.7021 86.5613 23.5948Z" fill="#2AC740" stroke="#21AA25" stroke-width="0.3"/>
</g>
<g id="content">
<g id="document">
<path id="Make your document in GiToDoc!" d="M499.399 230V229.4L500.599 228.98C501.959 228.54 502.639 227.4 502.639 225.56V194.84C502.639 194.04 502.539 193.4 502.339 192.92C502.179 192.44 501.719 192.04 500.959 191.72L499.399 191V190.4H510.979L522.079 219.44L532.519 190.4H544.339V191L543.379 191.36C542.619 191.64 542.099 192.04 541.819 192.56C541.539 193.04 541.399 193.68 541.399 194.48V225.86C541.399 226.66 541.499 227.28 541.699 227.72C541.899 228.16 542.379 228.54 543.139 228.86L544.339 229.4V230H529.399V229.4L530.659 228.86C531.419 228.54 531.899 228.16 532.099 227.72C532.299 227.28 532.399 226.66 532.399 225.86V212.36L532.519 195.2L519.979 230H516.979L503.899 195.62L504.079 210.56V225.68C504.079 226.56 504.199 227.28 504.439 227.84C504.719 228.36 505.239 228.74 505.999 228.98L507.319 229.4V230H499.399ZM554.448 230.9C552.128 230.9 550.168 230.24 548.568 228.92C547.008 227.6 546.228 225.7 546.228 223.22C546.228 221.34 547.188 219.62 549.108 218.06C551.028 216.46 554.048 215.26 558.168 214.46C558.808 214.34 559.528 214.22 560.328 214.1C561.128 213.94 561.968 213.78 562.848 213.62V208.88C562.848 206.16 562.508 204.26 561.828 203.18C561.188 202.06 560.168 201.5 558.768 201.5C557.808 201.5 557.048 201.82 556.488 202.46C555.928 203.06 555.568 204.12 555.408 205.64L555.288 206.3C555.208 208.02 554.788 209.28 554.028 210.08C553.268 210.88 552.328 211.28 551.208 211.28C550.168 211.28 549.308 210.96 548.628 210.32C547.948 209.68 547.608 208.82 547.608 207.74C547.608 206.1 548.168 204.72 549.288 203.6C550.448 202.48 551.968 201.64 553.848 201.08C555.728 200.52 557.768 200.24 559.968 200.24C563.528 200.24 566.268 201.12 568.188 202.88C570.148 204.6 571.128 207.42 571.128 211.34V224.6C571.128 226.4 571.968 227.3 573.648 227.3H574.968L575.508 227.78C574.748 228.74 573.908 229.48 572.988 230C572.108 230.52 570.848 230.78 569.208 230.78C567.448 230.78 566.048 230.38 565.008 229.58C564.008 228.74 563.348 227.64 563.028 226.28C561.828 227.56 560.588 228.66 559.308 229.58C558.068 230.46 556.448 230.9 554.448 230.9ZM558.108 227.24C558.908 227.24 559.648 227.06 560.328 226.7C561.048 226.3 561.888 225.7 562.848 224.9V214.82C562.448 214.9 562.048 214.98 561.648 215.06C561.248 215.14 560.788 215.22 560.268 215.3C558.428 215.78 556.948 216.6 555.828 217.76C554.748 218.88 554.208 220.4 554.208 222.32C554.208 223.96 554.588 225.2 555.348 226.04C556.108 226.84 557.028 227.24 558.108 227.24ZM576.863 230V229.4L577.763 229.1C579.123 228.66 579.803 227.68 579.803 226.16V194.06C579.803 193.26 579.643 192.66 579.323 192.26C579.003 191.86 578.443 191.54 577.643 191.3L576.863 191.12V190.52L587.843 187.94L588.563 188.48L588.383 196.88V226.16C588.383 227.76 589.043 228.76 590.363 229.16L591.203 229.4V230H576.863ZM599.123 230L588.443 215L599.543 204.74C600.063 204.26 600.363 203.76 600.443 203.24C600.563 202.68 600.223 202.28 599.423 202.04L598.403 201.74V201.14H607.343V201.74L605.543 202.22C604.663 202.5 603.943 202.84 603.383 203.24C602.863 203.6 602.223 204.12 601.463 204.8L594.743 211.1L605.483 226.04C606.123 226.92 606.723 227.6 607.283 228.08C607.843 228.56 608.563 228.96 609.443 229.28L609.683 229.4V230H599.123ZM625.553 200.24C628.153 200.24 630.373 200.78 632.213 201.86C634.053 202.9 635.453 204.34 636.413 206.18C637.413 207.98 637.913 210.04 637.913 212.36C637.913 212.8 637.893 213.26 637.853 213.74C637.813 214.18 637.733 214.58 637.613 214.94H619.733C619.773 219.26 620.533 222.38 622.013 224.3C623.533 226.18 625.773 227.12 628.733 227.12C630.733 227.12 632.353 226.8 633.593 226.16C634.833 225.52 635.993 224.58 637.073 223.34L637.673 223.88C636.433 226.08 634.773 227.8 632.693 229.04C630.653 230.28 628.193 230.9 625.313 230.9C622.473 230.9 619.953 230.3 617.753 229.1C615.553 227.86 613.833 226.1 612.593 223.82C611.353 221.54 610.733 218.82 610.733 215.66C610.733 212.38 611.453 209.6 612.893 207.32C614.333 205 616.173 203.24 618.413 202.04C620.693 200.84 623.073 200.24 625.553 200.24ZM625.373 201.44C624.213 201.44 623.213 201.8 622.373 202.52C621.573 203.2 620.933 204.44 620.453 206.24C620.013 208 619.773 210.5 619.733 213.74H629.993C630.393 209.38 630.233 206.24 629.513 204.32C628.793 202.4 627.413 201.44 625.373 201.44ZM659.49 244.4C657.89 244.4 656.61 244 655.65 243.2C654.73 242.4 654.27 241.38 654.27 240.14C654.27 239.02 654.67 238.12 655.47 237.44C656.27 236.76 657.17 236.42 658.17 236.42C659.17 236.42 660.01 236.62 660.69 237.02C661.37 237.46 661.97 238.08 662.49 238.88L662.91 239.36C663.79 240.56 664.67 240.54 665.55 239.3C665.91 238.7 666.31 237.9 666.75 236.9C667.23 235.94 667.77 234.64 668.37 233L656.73 205.16C656.45 204.4 656.15 203.8 655.83 203.36C655.51 202.88 654.99 202.48 654.27 202.16L653.19 201.74V201.14H668.13V201.68L666.93 202.16C666.05 202.44 665.59 202.9 665.55 203.54C665.55 204.14 665.71 204.9 666.03 205.82L672.27 222.02L678.21 205.64C678.53 204.72 678.65 203.96 678.57 203.36C678.49 202.72 677.99 202.28 677.07 202.04L675.81 201.74V201.14H684.15V201.74L682.83 202.16C681.91 202.44 681.27 202.84 680.91 203.36C680.55 203.88 680.21 204.6 679.89 205.52L670.23 231.86C668.67 236.06 667.11 239.2 665.55 241.28C663.99 243.36 661.97 244.4 659.49 244.4ZM699.735 230.9C696.695 230.9 694.055 230.28 691.815 229.04C689.575 227.76 687.835 225.96 686.595 223.64C685.395 221.32 684.795 218.6 684.795 215.48C684.795 212.36 685.435 209.66 686.715 207.38C688.035 205.1 689.815 203.34 692.055 202.1C694.335 200.86 696.895 200.24 699.735 200.24C702.575 200.24 705.115 200.86 707.355 202.1C709.595 203.3 711.355 205.04 712.635 207.32C713.955 209.6 714.615 212.32 714.615 215.48C714.615 218.64 713.995 221.38 712.755 223.7C711.555 225.98 709.835 227.76 707.595 229.04C705.395 230.28 702.775 230.9 699.735 230.9ZM699.735 229.7C701.135 229.7 702.255 229.3 703.095 228.5C703.935 227.7 704.535 226.28 704.895 224.24C705.295 222.2 705.495 219.32 705.495 215.6C705.495 211.84 705.295 208.94 704.895 206.9C704.535 204.86 703.935 203.44 703.095 202.64C702.255 201.84 701.135 201.44 699.735 201.44C698.335 201.44 697.195 201.84 696.315 202.64C695.475 203.44 694.855 204.86 694.455 206.9C694.095 208.94 693.915 211.84 693.915 215.6C693.915 219.32 694.095 222.2 694.455 224.24C694.855 226.28 695.475 227.7 696.315 228.5C697.195 229.3 698.335 229.7 699.735 229.7ZM727.876 230.9C726.316 230.9 724.876 230.6 723.556 230C722.276 229.4 721.256 228.44 720.496 227.12C719.776 225.76 719.436 223.98 719.476 221.78L719.656 206.36C719.656 205.44 719.496 204.78 719.176 204.38C718.856 203.98 718.356 203.7 717.676 203.54L716.956 203.3V202.7L727.696 200.6L728.296 201.2L727.996 209.72V224.18C727.996 225.46 728.356 226.4 729.076 227C729.836 227.6 730.776 227.9 731.896 227.9C733.016 227.9 734.016 227.74 734.896 227.42C735.776 227.1 736.656 226.62 737.536 225.98L737.776 206.42C737.776 205.5 737.636 204.86 737.356 204.5C737.076 204.1 736.556 203.82 735.796 203.66L735.196 203.48V202.88L745.696 200.6L746.296 201.2L746.116 209.72V225.98C746.116 226.86 746.236 227.54 746.476 228.02C746.716 228.5 747.236 228.9 748.036 229.22L748.636 229.4V230L738.136 230.6L737.596 227.06C736.276 228.14 734.836 229.06 733.276 229.82C731.756 230.54 729.956 230.9 727.876 230.9ZM751.059 230V229.4L751.959 229.16C752.759 228.92 753.299 228.56 753.579 228.08C753.899 227.6 754.059 226.98 754.059 226.22V207.44C754.059 206.56 753.899 205.92 753.579 205.52C753.299 205.08 752.759 204.78 751.959 204.62L751.059 204.38V203.78L761.379 200.3L761.979 200.9L762.519 206.06V206.54C763.079 205.42 763.799 204.4 764.679 203.48C765.599 202.52 766.599 201.74 767.679 201.14C768.799 200.54 769.899 200.24 770.979 200.24C772.499 200.24 773.659 200.66 774.459 201.5C775.259 202.34 775.659 203.4 775.659 204.68C775.659 206.04 775.259 207.1 774.459 207.86C773.699 208.58 772.779 208.94 771.699 208.94C770.019 208.94 768.539 208.1 767.259 206.42L767.139 206.3C766.739 205.74 766.279 205.44 765.759 205.4C765.239 205.32 764.759 205.56 764.319 206.12C763.919 206.48 763.579 206.92 763.299 207.44C763.059 207.92 762.819 208.48 762.579 209.12V225.86C762.579 227.46 763.279 228.46 764.679 228.86L766.599 229.4V230H751.059ZM803.33 230.9C800.97 230.9 798.85 230.38 796.97 229.34C795.09 228.26 793.59 226.62 792.47 224.42C791.39 222.18 790.85 219.32 790.85 215.84C790.85 212.32 791.47 209.42 792.71 207.14C793.95 204.82 795.59 203.1 797.63 201.98C799.67 200.82 801.89 200.24 804.29 200.24C805.69 200.24 807.03 200.38 808.31 200.66C809.59 200.94 810.73 201.36 811.73 201.92V194.12C811.73 193.28 811.59 192.66 811.31 192.26C811.07 191.86 810.53 191.58 809.69 191.42L808.55 191.18V190.58L819.47 187.94L820.13 188.48L819.89 196.88V226.22C819.89 227.02 820.03 227.68 820.31 228.2C820.59 228.68 821.11 229.02 821.87 229.22L822.41 229.4V230L812.15 230.66L811.61 228.5C810.53 229.22 809.29 229.8 807.89 230.24C806.53 230.68 805.01 230.9 803.33 230.9ZM806.81 228.68C808.49 228.68 810.03 228.18 811.43 227.18V203.36C809.95 202.4 808.43 201.92 806.87 201.92C804.95 201.92 803.31 203.04 801.95 205.28C800.59 207.48 799.91 210.96 799.91 215.72C799.91 220.48 800.55 223.84 801.83 225.8C803.11 227.72 804.77 228.68 806.81 228.68ZM840.243 230.9C837.203 230.9 834.563 230.28 832.323 229.04C830.083 227.76 828.343 225.96 827.103 223.64C825.903 221.32 825.303 218.6 825.303 215.48C825.303 212.36 825.943 209.66 827.223 207.38C828.543 205.1 830.323 203.34 832.563 202.1C834.843 200.86 837.403 200.24 840.243 200.24C843.083 200.24 845.623 200.86 847.863 202.1C850.103 203.3 851.863 205.04 853.143 207.32C854.463 209.6 855.123 212.32 855.123 215.48C855.123 218.64 854.503 221.38 853.263 223.7C852.063 225.98 850.343 227.76 848.103 229.04C845.903 230.28 843.283 230.9 840.243 230.9ZM840.243 229.7C841.643 229.7 842.763 229.3 843.603 228.5C844.443 227.7 845.043 226.28 845.403 224.24C845.803 222.2 846.003 219.32 846.003 215.6C846.003 211.84 845.803 208.94 845.403 206.9C845.043 204.86 844.443 203.44 843.603 202.64C842.763 201.84 841.643 201.44 840.243 201.44C838.843 201.44 837.703 201.84 836.823 202.64C835.983 203.44 835.363 204.86 834.963 206.9C834.603 208.94 834.423 211.84 834.423 215.6C834.423 219.32 834.603 222.2 834.963 224.24C835.363 226.28 835.983 227.7 836.823 228.5C837.703 229.3 838.843 229.7 840.243 229.7ZM872.99 230.9C870.27 230.9 867.79 230.32 865.55 229.16C863.35 227.96 861.59 226.24 860.27 224C858.99 221.72 858.35 218.94 858.35 215.66C858.35 212.42 859.05 209.66 860.45 207.38C861.89 205.06 863.79 203.3 866.15 202.1C868.55 200.86 871.17 200.24 874.01 200.24C876.33 200.24 878.29 200.62 879.89 201.38C881.49 202.14 882.71 203.14 883.55 204.38C884.39 205.58 884.81 206.84 884.81 208.16C884.81 209.28 884.47 210.16 883.79 210.8C883.11 211.4 882.23 211.7 881.15 211.7C879.99 211.7 879.05 211.28 878.33 210.44C877.61 209.6 877.19 208.5 877.07 207.14C877.03 206.26 877.05 205.52 877.13 204.92C877.21 204.28 877.21 203.64 877.13 203C876.97 202.32 876.71 201.88 876.35 201.68C876.03 201.44 875.57 201.32 874.97 201.32C872.53 201.32 870.63 202.38 869.27 204.5C867.95 206.62 867.29 210 867.29 214.64C867.29 218.68 868.03 221.78 869.51 223.94C871.03 226.06 873.35 227.12 876.47 227.12C878.35 227.12 879.87 226.78 881.03 226.1C882.19 225.42 883.31 224.4 884.39 223.04L884.99 223.52C883.99 225.88 882.45 227.7 880.37 228.98C878.29 230.26 875.83 230.9 872.99 230.9ZM898.267 230.9C896.707 230.9 895.267 230.6 893.947 230C892.667 229.4 891.647 228.44 890.887 227.12C890.167 225.76 889.827 223.98 889.867 221.78L890.047 206.36C890.047 205.44 889.887 204.78 889.567 204.38C889.247 203.98 888.747 203.7 888.067 203.54L887.347 203.3V202.7L898.087 200.6L898.687 201.2L898.387 209.72V224.18C898.387 225.46 898.747 226.4 899.467 227C900.227 227.6 901.167 227.9 902.287 227.9C903.407 227.9 904.407 227.74 905.287 227.42C906.167 227.1 907.047 226.62 907.927 225.98L908.167 206.42C908.167 205.5 908.027 204.86 907.747 204.5C907.467 204.1 906.947 203.82 906.187 203.66L905.587 203.48V202.88L916.087 200.6L916.687 201.2L916.507 209.72V225.98C916.507 226.86 916.627 227.54 916.867 228.02C917.107 228.5 917.627 228.9 918.427 229.22L919.027 229.4V230L908.527 230.6L907.987 227.06C906.667 228.14 905.227 229.06 903.667 229.82C902.147 230.54 900.347 230.9 898.267 230.9ZM921.45 230V229.4L922.29 229.16C923.05 228.96 923.57 228.62 923.85 228.14C924.17 227.66 924.35 227.02 924.39 226.22V207.44C924.39 206.56 924.25 205.92 923.97 205.52C923.69 205.08 923.15 204.78 922.35 204.62L921.45 204.38V203.78L931.71 200.3L932.31 200.9L932.79 204.98C934.11 203.66 935.61 202.54 937.29 201.62C939.01 200.7 940.79 200.24 942.63 200.24C944.55 200.24 946.09 200.64 947.25 201.44C948.41 202.2 949.29 203.4 949.89 205.04C951.45 203.56 953.13 202.4 954.93 201.56C956.77 200.68 958.55 200.24 960.27 200.24C963.11 200.24 965.19 200.92 966.51 202.28C967.87 203.64 968.55 205.78 968.55 208.7V226.28C968.55 227.84 969.27 228.82 970.71 229.22L971.37 229.4V230H957.51V229.4L958.11 229.22C958.87 228.98 959.39 228.62 959.67 228.14C959.99 227.66 960.15 227.02 960.15 226.22V207.86C960.15 206.18 959.85 205.04 959.25 204.44C958.65 203.8 957.69 203.48 956.37 203.48C955.33 203.48 954.31 203.72 953.31 204.2C952.35 204.64 951.33 205.32 950.25 206.24C950.45 206.88 950.57 207.58 950.61 208.34C950.69 209.1 950.73 209.9 950.73 210.74V226.28C950.77 227.84 951.49 228.82 952.89 229.22L953.43 229.4V230H939.51V229.4L940.35 229.16C941.11 228.92 941.63 228.58 941.91 228.14C942.23 227.66 942.39 227.02 942.39 226.22V207.92C942.39 206.32 942.09 205.18 941.49 204.5C940.93 203.82 939.95 203.48 938.55 203.48C937.63 203.48 936.71 203.72 935.79 204.2C934.87 204.64 933.91 205.3 932.91 206.18V226.28C932.91 227.84 933.61 228.82 935.01 229.22L935.55 229.4V230H921.45ZM988.776 200.24C991.376 200.24 993.596 200.78 995.436 201.86C997.276 202.9 998.676 204.34 999.636 206.18C1000.64 207.98 1001.14 210.04 1001.14 212.36C1001.14 212.8 1001.12 213.26 1001.08 213.74C1001.04 214.18 1000.96 214.58 1000.84 214.94H982.956C982.996 219.26 983.756 222.38 985.236 224.3C986.756 226.18 988.996 227.12 991.956 227.12C993.956 227.12 995.576 226.8 996.816 226.16C998.056 225.52 999.216 224.58 1000.3 223.34L1000.9 223.88C999.656 226.08 997.996 227.8 995.916 229.04C993.876 230.28 991.416 230.9 988.536 230.9C985.696 230.9 983.176 230.3 980.976 229.1C978.776 227.86 977.056 226.1 975.816 223.82C974.576 221.54 973.956 218.82 973.956 215.66C973.956 212.38 974.676 209.6 976.116 207.32C977.556 205 979.396 203.24 981.636 202.04C983.916 200.84 986.296 200.24 988.776 200.24ZM988.596 201.44C987.436 201.44 986.436 201.8 985.596 202.52C984.796 203.2 984.156 204.44 983.676 206.24C983.236 208 982.996 210.5 982.956 213.74H993.216C993.616 209.38 993.456 206.24 992.736 204.32C992.016 202.4 990.636 201.44 988.596 201.44ZM1004.13 230V229.4L1004.97 229.16C1006.37 228.76 1007.07 227.78 1007.07 226.22V207.44C1007.07 206.56 1006.93 205.92 1006.65 205.52C1006.37 205.08 1005.83 204.78 1005.03 204.62L1004.13 204.38V203.78L1014.39 200.3L1014.99 200.9L1015.47 204.5C1016.87 203.26 1018.45 202.24 1020.21 201.44C1021.97 200.64 1023.71 200.24 1025.43 200.24C1028.07 200.24 1030.09 200.96 1031.49 202.4C1032.93 203.84 1033.65 206.04 1033.65 209V226.28C1033.65 227.84 1034.41 228.82 1035.93 229.22L1036.47 229.4V230H1022.31V229.4L1023.09 229.16C1024.49 228.72 1025.19 227.74 1025.19 226.22V207.08C1025.19 204.52 1023.91 203.24 1021.35 203.24C1019.59 203.24 1017.67 204.12 1015.59 205.88V226.28C1015.59 227.84 1016.29 228.82 1017.69 229.22L1018.23 229.4V230H1004.13ZM1049.92 230.9C1047.36 230.9 1045.36 230.26 1043.92 228.98C1042.52 227.7 1041.82 225.66 1041.82 222.86V202.34H1037.68V201.74L1039.12 201.5C1040.36 201.22 1041.42 200.82 1042.3 200.3C1043.22 199.78 1044.12 199.08 1045 198.2L1049.92 192.74H1050.52L1050.34 201.14H1057.06V202.34H1050.28V223.94C1050.28 225.34 1050.58 226.4 1051.18 227.12C1051.82 227.84 1052.62 228.2 1053.58 228.2C1054.42 228.2 1055.16 228 1055.8 227.6C1056.44 227.16 1057.08 226.58 1057.72 225.86L1058.32 226.46C1057.52 227.82 1056.42 228.9 1055.02 229.7C1053.62 230.5 1051.92 230.9 1049.92 230.9ZM762.068 279.12C760.708 279.12 759.548 278.7 758.588 277.86C757.668 276.98 757.208 275.88 757.208 274.56C757.208 273.2 757.668 272.1 758.588 271.26C759.548 270.42 760.708 270 762.068 270C763.428 270 764.568 270.42 765.488 271.26C766.408 272.1 766.868 273.2 766.868 274.56C766.868 275.88 766.408 276.98 765.488 277.86C764.568 278.7 763.428 279.12 762.068 279.12ZM754.988 312V311.4L755.828 311.16C756.628 310.92 757.168 310.56 757.448 310.08C757.768 309.6 757.928 308.96 757.928 308.16V289.38C757.928 288.54 757.768 287.92 757.448 287.52C757.168 287.08 756.628 286.78 755.828 286.62L754.988 286.44V285.84L765.968 282.3L766.568 282.9L766.388 291.42V308.22C766.388 309.02 766.528 309.66 766.808 310.14C767.128 310.62 767.668 310.98 768.428 311.22L769.028 311.4V312H754.988ZM771.684 312V311.4L772.524 311.16C773.924 310.76 774.624 309.78 774.624 308.22V289.44C774.624 288.56 774.484 287.92 774.204 287.52C773.924 287.08 773.384 286.78 772.584 286.62L771.684 286.38V285.78L781.944 282.3L782.544 282.9L783.024 286.5C784.424 285.26 786.004 284.24 787.764 283.44C789.524 282.64 791.264 282.24 792.984 282.24C795.624 282.24 797.644 282.96 799.044 284.4C800.484 285.84 801.204 288.04 801.204 291V308.28C801.204 309.84 801.964 310.82 803.484 311.22L804.024 311.4V312H789.864V311.4L790.644 311.16C792.044 310.72 792.744 309.74 792.744 308.22V289.08C792.744 286.52 791.464 285.24 788.904 285.24C787.144 285.24 785.224 286.12 783.144 287.88V308.28C783.144 309.84 783.844 310.82 785.244 311.22L785.784 311.4V312H771.684ZM840.078 313.08C835.998 313.08 832.398 312.24 829.278 310.56C826.198 308.84 823.778 306.42 822.018 303.3C820.298 300.14 819.438 296.42 819.438 292.14C819.438 287.98 820.298 284.34 822.018 281.22C823.738 278.1 826.218 275.68 829.458 273.96C832.738 272.2 836.698 271.32 841.338 271.32C843.458 271.32 845.418 271.56 847.218 272.04C849.058 272.52 850.798 273.22 852.438 274.14L852.678 282.54H852.078L848.718 276.3C848.198 275.3 847.718 274.58 847.278 274.14C846.838 273.7 846.278 273.36 845.598 273.12C844.958 272.92 844.358 272.78 843.798 272.7C843.278 272.58 842.578 272.52 841.698 272.52C839.218 272.52 837.018 273.18 835.098 274.5C833.218 275.82 831.758 277.92 830.718 280.8C829.678 283.68 829.158 287.46 829.158 292.14C829.158 296.78 829.638 300.56 830.598 303.48C831.598 306.4 832.998 308.54 834.798 309.9C836.598 311.22 838.678 311.88 841.038 311.88C841.398 311.88 841.738 311.86 842.058 311.82C842.418 311.74 842.758 311.66 843.078 311.58C843.838 311.46 844.338 311.14 844.578 310.62C844.818 310.1 844.938 309.48 844.938 308.76V296.88C844.938 295.32 844.138 294.36 842.538 294L839.778 293.28V292.68H856.698V293.28L855.858 293.52C854.338 294 853.578 295 853.578 296.52V309.54C851.498 310.7 849.378 311.58 847.218 312.18C845.098 312.78 842.718 313.08 840.078 313.08ZM866.013 279.12C864.653 279.12 863.493 278.7 862.533 277.86C861.613 276.98 861.153 275.88 861.153 274.56C861.153 273.2 861.613 272.1 862.533 271.26C863.493 270.42 864.653 270 866.013 270C867.373 270 868.513 270.42 869.433 271.26C870.353 272.1 870.813 273.2 870.813 274.56C870.813 275.88 870.353 276.98 869.433 277.86C868.513 278.7 867.373 279.12 866.013 279.12ZM858.933 312V311.4L859.773 311.16C860.573 310.92 861.113 310.56 861.393 310.08C861.713 309.6 861.873 308.96 861.873 308.16V289.38C861.873 288.54 861.713 287.92 861.393 287.52C861.113 287.08 860.573 286.78 859.773 286.62L858.933 286.44V285.84L869.913 282.3L870.513 282.9L870.333 291.42V308.22C870.333 309.02 870.473 309.66 870.753 310.14C871.073 310.62 871.613 310.98 872.373 311.22L872.973 311.4V312H858.933ZM882.208 312V311.4L884.668 310.8C886.308 310.44 887.128 309.44 887.128 307.8V273.6H882.028C880.548 273.6 879.488 274 878.848 274.8C878.208 275.56 877.528 276.62 876.808 277.98L874.648 282.18H874.048L874.348 272.4H908.968L909.208 282.18H908.608L906.448 277.98C905.768 276.62 905.108 275.56 904.468 274.8C903.828 274 902.768 273.6 901.288 273.6H896.188V307.8C896.188 309.44 897.008 310.44 898.648 310.8L901.108 311.4V312H882.208ZM922.275 312.9C919.235 312.9 916.595 312.28 914.355 311.04C912.115 309.76 910.375 307.96 909.135 305.64C907.935 303.32 907.335 300.6 907.335 297.48C907.335 294.36 907.975 291.66 909.255 289.38C910.575 287.1 912.355 285.34 914.595 284.1C916.875 282.86 919.435 282.24 922.275 282.24C925.115 282.24 927.655 282.86 929.895 284.1C932.135 285.3 933.895 287.04 935.175 289.32C936.495 291.6 937.155 294.32 937.155 297.48C937.155 300.64 936.535 303.38 935.295 305.7C934.095 307.98 932.375 309.76 930.135 311.04C927.935 312.28 925.315 312.9 922.275 312.9ZM922.275 311.7C923.675 311.7 924.795 311.3 925.635 310.5C926.475 309.7 927.075 308.28 927.435 306.24C927.835 304.2 928.035 301.32 928.035 297.6C928.035 293.84 927.835 290.94 927.435 288.9C927.075 286.86 926.475 285.44 925.635 284.64C924.795 283.84 923.675 283.44 922.275 283.44C920.875 283.44 919.735 283.84 918.855 284.64C918.015 285.44 917.395 286.86 916.995 288.9C916.635 290.94 916.455 293.84 916.455 297.6C916.455 301.32 916.635 304.2 916.995 306.24C917.395 308.28 918.015 309.7 918.855 310.5C919.735 311.3 920.875 311.7 922.275 311.7ZM938.738 312V311.4L939.998 310.92C941.278 310.4 941.918 309.38 941.918 307.86V276.54C941.918 274.94 941.278 273.92 939.998 273.48L938.738 273V272.4H954.578C958.818 272.4 962.458 273.2 965.498 274.8C968.578 276.36 970.938 278.62 972.578 281.58C974.258 284.5 975.098 288.02 975.098 292.14C975.098 296.34 974.198 299.92 972.398 302.88C970.598 305.84 968.078 308.1 964.838 309.66C961.638 311.22 957.858 312 953.498 312H938.738ZM950.918 310.8H953.498C956.378 310.8 958.698 310.24 960.458 309.12C962.218 307.96 963.498 306.04 964.298 303.36C965.138 300.64 965.558 296.92 965.558 292.2C965.558 287.48 965.138 283.78 964.298 281.1C963.498 278.38 962.238 276.46 960.518 275.34C958.798 274.18 956.538 273.6 953.738 273.6H950.918V310.8ZM992.704 312.9C989.664 312.9 987.024 312.28 984.784 311.04C982.544 309.76 980.804 307.96 979.564 305.64C978.364 303.32 977.764 300.6 977.764 297.48C977.764 294.36 978.404 291.66 979.684 289.38C981.004 287.1 982.784 285.34 985.024 284.1C987.304 282.86 989.864 282.24 992.704 282.24C995.544 282.24 998.084 282.86 1000.32 284.1C1002.56 285.3 1004.32 287.04 1005.6 289.32C1006.92 291.6 1007.58 294.32 1007.58 297.48C1007.58 300.64 1006.96 303.38 1005.72 305.7C1004.52 307.98 1002.8 309.76 1000.56 311.04C998.364 312.28 995.744 312.9 992.704 312.9ZM992.704 311.7C994.104 311.7 995.224 311.3 996.064 310.5C996.904 309.7 997.504 308.28 997.864 306.24C998.264 304.2 998.464 301.32 998.464 297.6C998.464 293.84 998.264 290.94 997.864 288.9C997.504 286.86 996.904 285.44 996.064 284.64C995.224 283.84 994.104 283.44 992.704 283.44C991.304 283.44 990.164 283.84 989.284 284.64C988.444 285.44 987.824 286.86 987.424 288.9C987.064 290.94 986.884 293.84 986.884 297.6C986.884 301.32 987.064 304.2 987.424 306.24C987.824 308.28 988.444 309.7 989.284 310.5C990.164 311.3 991.304 311.7 992.704 311.7ZM1025.45 312.9C1022.73 312.9 1020.25 312.32 1018.01 311.16C1015.81 309.96 1014.05 308.24 1012.73 306C1011.45 303.72 1010.81 300.94 1010.81 297.66C1010.81 294.42 1011.51 291.66 1012.91 289.38C1014.35 287.06 1016.25 285.3 1018.61 284.1C1021.01 282.86 1023.63 282.24 1026.47 282.24C1028.79 282.24 1030.75 282.62 1032.35 283.38C1033.95 284.14 1035.17 285.14 1036.01 286.38C1036.85 287.58 1037.27 288.84 1037.27 290.16C1037.27 291.28 1036.93 292.16 1036.25 292.8C1035.57 293.4 1034.69 293.7 1033.61 293.7C1032.45 293.7 1031.51 293.28 1030.79 292.44C1030.07 291.6 1029.65 290.5 1029.53 289.14C1029.49 288.26 1029.51 287.52 1029.59 286.92C1029.67 286.28 1029.67 285.64 1029.59 285C1029.43 284.32 1029.17 283.88 1028.81 283.68C1028.49 283.44 1028.03 283.32 1027.43 283.32C1024.99 283.32 1023.09 284.38 1021.73 286.5C1020.41 288.62 1019.75 292 1019.75 296.64C1019.75 300.68 1020.49 303.78 1021.97 305.94C1023.49 308.06 1025.81 309.12 1028.93 309.12C1030.81 309.12 1032.33 308.78 1033.49 308.1C1034.65 307.42 1035.77 306.4 1036.85 305.04L1037.45 305.52C1036.45 307.88 1034.91 309.7 1032.83 310.98C1030.75 312.26 1028.29 312.9 1025.45 312.9ZM1049.04 271.68C1050.52 271.68 1051.68 272.16 1052.52 273.12C1053.36 274.04 1053.78 275.26 1053.78 276.78C1053.78 278.02 1053.46 279.96 1052.82 282.6C1052.18 285.2 1051.52 288.08 1050.84 291.24L1049.58 297.54H1048.44L1047.18 291.24C1046.54 288.16 1045.9 285.32 1045.26 282.72C1044.62 280.08 1044.3 278.1 1044.3 276.78C1044.3 275.26 1044.72 274.04 1045.56 273.12C1046.4 272.16 1047.56 271.68 1049.04 271.68ZM1049.04 312.9C1047.56 312.9 1046.32 312.4 1045.32 311.4C1044.32 310.4 1043.82 309.18 1043.82 307.74C1043.82 306.34 1044.32 305.14 1045.32 304.14C1046.32 303.1 1047.56 302.58 1049.04 302.58C1050.48 302.58 1051.7 303.1 1052.7 304.14C1053.7 305.14 1054.2 306.34 1054.2 307.74C1054.2 309.18 1053.7 310.4 1052.7 311.4C1051.7 312.4 1050.48 312.9 1049.04 312.9Z" fill="#202020"/>
</g>
<g id="edit">
<path id="Line 20" d="M341 353H1059" stroke="url(#paint0_linear_614_797)" stroke-width="0.7" stroke-linecap="round"/>
<path id="edit_2" d="M1033.42 398.75C1033.09 398.75 1032.81 398.639 1032.58 398.416C1032.36 398.193 1032.25 397.914 1032.25 397.577V395.415C1032.25 395.096 1032.31 394.79 1032.44 394.496C1032.57 394.201 1032.74 393.95 1032.95 393.741L1052.89 373.8C1053.07 373.638 1053.28 373.508 1053.51 373.411C1053.74 373.314 1053.98 373.266 1054.24 373.266C1054.48 373.266 1054.72 373.311 1054.95 373.403C1055.18 373.494 1055.39 373.629 1055.58 373.808L1057.21 375.449C1057.4 375.633 1057.54 375.843 1057.62 376.078C1057.71 376.314 1057.75 376.549 1057.75 376.784C1057.75 377.028 1057.7 377.269 1057.61 377.505C1057.52 377.742 1057.39 377.951 1057.21 378.13L1037.26 398.046C1037.05 398.262 1036.8 398.433 1036.5 398.56C1036.21 398.687 1035.9 398.75 1035.59 398.75H1033.42ZM1053.97 378.643L1055.85 376.78L1054.24 375.166L1052.37 377.043L1053.97 378.643Z" fill="#454545"/>
</g>
</g>
<g id="side menu">
<g id="LOGO1">
<path id="Line 12" d="M65.8384 82.3721L70.1748 76.8911" stroke="url(#paint1_linear_614_797)" stroke-width="2" stroke-linecap="round"/>
<path id="Line 16" d="M65.7788 105.71L71.4999 99.955" stroke="url(#paint2_linear_614_797)" stroke-width="2" stroke-linecap="round"/>
<path id="Line 15" d="M42.8945 81.9346L48.9646 75.9968" stroke="url(#paint3_linear_614_797)" stroke-width="2" stroke-linecap="round"/>
<path id="Line 8" d="M48.9727 75.9971L70.6435 75.9971" stroke="url(#paint4_linear_614_797)" stroke-width="2" stroke-linecap="round"/>
<path id="Line 9" d="M71.5 75.9971L71.5 99.2392" stroke="url(#paint5_linear_614_797)" stroke-width="2" stroke-linecap="round"/>
<path id="Line 10" d="M54.1665 82.8291V105.21" stroke="url(#paint6_linear_614_797)" stroke-width="2" stroke-linecap="round"/>
<path id="Line 14" d="M54.1714 94.165H48.5007" stroke="url(#paint7_linear_614_797)" stroke-width="2" stroke-linecap="round"/>
<rect id="Rectangle 44" x="43" y="82.6045" width="22.1558" height="22.7863" rx="1" stroke="url(#paint8_linear_614_797)" stroke-width="2"/>
</g>
<g id="delete button">
<g id="delete">
<mask id="mask0_614_797" style="mask-type:alpha" maskUnits="userSpaceOnUse" x="39" y="373" width="36" height="37">
<rect id="Bounding box" x="39" y="373.997" width="36" height="36" fill="#D9D9D9"/>
</mask>
<g mask="url(#mask0_614_797)">
<path id="delete_2" d="M49.5 405.497C48.675 405.497 47.9688 405.203 47.3812 404.616C46.7937 404.028 46.5 403.322 46.5 402.497V382.997C46.075 382.997 45.7188 382.853 45.4312 382.566C45.1437 382.278 45 381.922 45 381.497C45 381.072 45.1437 380.716 45.4312 380.428C45.7188 380.141 46.075 379.997 46.5 379.997H52.5C52.5 379.572 52.6437 379.216 52.9312 378.928C53.2188 378.641 53.575 378.497 54 378.497H60C60.425 378.497 60.7813 378.641 61.0688 378.928C61.3563 379.216 61.5 379.572 61.5 379.997H67.5C67.925 379.997 68.2812 380.141 68.5688 380.428C68.8563 380.716 69 381.072 69 381.497C69 381.922 68.8563 382.278 68.5688 382.566C68.2812 382.853 67.925 382.997 67.5 382.997V402.497C67.5 403.322 67.2063 404.028 66.6188 404.616C66.0312 405.203 65.325 405.497 64.5 405.497H49.5ZM54 399.497C54.425 399.497 54.7812 399.353 55.0688 399.066C55.3562 398.778 55.5 398.422 55.5 397.997V387.497C55.5 387.072 55.3562 386.716 55.0688 386.428C54.7812 386.141 54.425 385.997 54 385.997C53.575 385.997 53.2188 386.141 52.9312 386.428C52.6437 386.716 52.5 387.072 52.5 387.497V397.997C52.5 398.422 52.6437 398.778 52.9312 399.066C53.2188 399.353 53.575 399.497 54 399.497ZM60 399.497C60.425 399.497 60.7813 399.353 61.0688 399.066C61.3563 398.778 61.5 398.422 61.5 397.997V387.497C61.5 387.072 61.3563 386.716 61.0688 386.428C60.7813 386.141 60.425 385.997 60 385.997C59.575 385.997 59.2188 386.141 58.9313 386.428C58.6438 386.716 58.5 387.072 58.5 387.497V397.997C58.5 398.422 58.6438 398.778 58.9313 399.066C59.2188 399.353 59.575 399.497 60 399.497Z" fill="#454545"/>
</g>
</g>
</g>
<g id="export/share button">
<g id="ios_share">
<mask id="mask1_614_797" style="mask-type:alpha" maskUnits="userSpaceOnUse" x="39" y="273" width="36" height="37">
<rect id="Bounding box_2" x="39" y="273.997" width="36" height="36" fill="#D9D9D9"/>
</mask>
<g mask="url(#mask1_614_797)">
<path id="ios_share_2" d="M47.5 308.497C46.825 308.497 46.2396 308.249 45.7437 307.753C45.2479 307.258 45 306.672 45 305.997V287.772C45 287.097 45.2479 286.512 45.7437 286.016C46.2396 285.52 46.825 285.272 47.5 285.272H51.975C52.3292 285.272 52.6261 285.392 52.8657 285.633C53.1052 285.873 53.225 286.171 53.225 286.526C53.225 286.882 53.1052 287.178 52.8657 287.416C52.6261 287.653 52.3292 287.772 51.975 287.772H47.5V305.997H66.5V287.772H61.975C61.6208 287.772 61.3239 287.652 61.0844 287.411C60.8448 287.171 60.725 286.873 60.725 286.518C60.725 286.162 60.8448 285.866 61.0844 285.628C61.3239 285.391 61.6208 285.272 61.975 285.272H66.5C67.175 285.272 67.7604 285.52 68.2563 286.016C68.7521 286.512 69 287.097 69 287.772V305.997C69 306.672 68.7521 307.258 68.2563 307.753C67.7604 308.249 67.175 308.497 66.5 308.497H47.5ZM55.725 280.31L53.6 282.435C53.35 282.685 53.0583 282.807 52.725 282.803C52.3917 282.799 52.0967 282.672 51.8402 282.422C51.6051 282.172 51.4854 281.876 51.4812 281.535C51.4771 281.193 51.6 280.897 51.85 280.647L56.1 276.372C56.35 276.122 56.6417 275.997 56.975 275.997C57.3083 275.997 57.6 276.122 57.85 276.372L62.125 280.647C62.3667 280.889 62.4875 281.18 62.4875 281.52C62.4875 281.86 62.3699 282.154 62.1348 282.401C61.8783 282.648 61.5774 282.772 61.2321 282.772C60.8868 282.772 60.5886 282.647 60.3375 282.397L58.225 280.31V296.072C58.225 296.426 58.1048 296.723 57.8644 296.963C57.624 297.202 57.326 297.322 56.9706 297.322C56.6152 297.322 56.3188 297.202 56.0813 296.963C55.8438 296.723 55.725 296.426 55.725 296.072V280.31Z" fill="#454545"/>
</g>
</g>
</g>
<g id="gallery button">
<g id="stacks">
<mask id="mask2_614_797" style="mask-type:alpha" maskUnits="userSpaceOnUse" x="37" y="169" width="40" height="41">
<rect id="Bounding box_3" x="37" y="169.997" width="40" height="40" fill="#D9D9D9"/>
</mask>
<g mask="url(#mask2_614_797)">
<path id="stacks_2" d="M56.9999 192.282C56.7841 192.282 56.5791 192.256 56.385 192.203C56.1909 192.151 55.9945 192.075 55.7958 191.976L41.7082 184.539C41.4689 184.401 41.2969 184.234 41.1922 184.038C41.0875 183.841 41.0352 183.623 41.0352 183.384C41.0352 183.152 41.0875 182.937 41.1922 182.741C41.2969 182.544 41.4689 182.377 41.7082 182.24L55.7958 174.803C55.9945 174.704 56.1909 174.628 56.385 174.575C56.5791 174.522 56.7841 174.496 56.9999 174.496C57.2157 174.496 57.4206 174.522 57.6147 174.575C57.8088 174.628 58.0052 174.704 58.2039 174.803L72.3075 182.24C72.5468 182.377 72.7217 182.544 72.8321 182.741C72.9425 182.937 72.9977 183.152 72.9977 183.384C72.9977 183.623 72.9425 183.841 72.8321 184.038C72.7217 184.234 72.5468 184.401 72.3075 184.539L58.2039 191.976C58.0052 192.075 57.8088 192.151 57.6147 192.203C57.4206 192.256 57.2157 192.282 56.9999 192.282ZM56.9999 190.219L70.1452 183.384L56.9999 176.559L43.8983 183.384L56.9999 190.219ZM56.9999 196.839L70.8524 189.575C70.9187 189.544 71.1096 189.521 71.4251 189.508C71.6872 189.529 71.9085 189.634 72.0891 189.821C72.2696 190.008 72.3599 190.242 72.3599 190.523C72.3599 190.712 72.3166 190.882 72.2301 191.032C72.1435 191.183 72.0055 191.314 71.8161 191.427L58.2039 198.578C58.0052 198.684 57.8088 198.762 57.6147 198.811C57.4206 198.86 57.2157 198.885 56.9999 198.885C56.7841 198.885 56.5791 198.86 56.385 198.811C56.1909 198.762 55.9945 198.684 55.7958 198.578L42.2274 191.427C42.038 191.314 41.8956 191.183 41.8001 191.032C41.7047 190.882 41.6569 190.712 41.6569 190.523C41.6569 190.242 41.7499 190.008 41.9358 189.821C42.1217 189.634 42.3457 189.529 42.6077 189.508C42.7139 189.486 42.814 189.483 42.908 189.498C43.002 189.512 43.0964 189.547 43.1911 189.603L56.9999 196.839ZM56.9999 203.452L70.8524 196.188C70.9187 196.15 71.1096 196.124 71.4251 196.11C71.6872 196.139 71.9085 196.247 72.0891 196.434C72.2696 196.621 72.3599 196.852 72.3599 197.125C72.3599 197.315 72.3166 197.486 72.2301 197.64C72.1435 197.794 72.0055 197.927 71.8161 198.04L58.2039 205.191C58.0052 205.298 57.8088 205.375 57.6147 205.424C57.4206 205.474 57.2157 205.498 56.9999 205.498C56.7841 205.498 56.5791 205.474 56.385 205.424C56.1909 205.375 55.9945 205.298 55.7958 205.191L42.2274 198.04C42.038 197.927 41.8956 197.794 41.8001 197.64C41.7047 197.486 41.6569 197.315 41.6569 197.125C41.6569 196.852 41.7499 196.621 41.9358 196.434C42.1217 196.247 42.3457 196.139 42.6077 196.11C42.7139 196.096 42.814 196.096 42.908 196.111C43.002 196.125 43.0964 196.157 43.1911 196.205L56.9999 203.452Z" fill="#454545"/>
</g>
</g>
</g>
<path id="Line 20_2" d="M108 712L108 45" stroke="url(#paint9_linear_614_797)" stroke-opacity="0.8" stroke-width="0.7" stroke-linecap="round"/>
</g>
</g>
<defs>
<filter id="filter0_d_614_797" x="0" y="43" width="1302" height="679" filterUnits="userSpaceOnUse" color-interpolation-filters="sRGB">
<feFlood flood-opacity="0" result="BackgroundImageFix"/>
<feColorMatrix in="SourceAlpha" type="matrix" values="0 0 0 0 0 0 0 0 0 0 0 0 0 0 0 0 0 0 127 0" result="hardAlpha"/>
<feOffset dy="4"/>
<feGaussianBlur stdDeviation="3"/>
<feComposite in2="hardAlpha" operator="out"/>
<feColorMatrix type="matrix" values="0 0 0 0 0 0 0 0 0 0 0 0 0 0 0 0 0 0 0.1 0"/>
<feBlend mode="normal" in2="BackgroundImageFix" result="effect1_dropShadow_614_797"/>
<feBlend mode="normal" in="SourceGraphic" in2="effect1_dropShadow_614_797" result="shape"/>
</filter>
<filter id="filter1_d_614_797" x="2" y="0" width="1298" height="51" filterUnits="userSpaceOnUse" color-interpolation-filters="sRGB">
<feFlood flood-opacity="0" result="BackgroundImageFix"/>
<feColorMatrix in="SourceAlpha" type="matrix" values="0 0 0 0 0 0 0 0 0 0 0 0 0 0 0 0 0 0 127 0" result="hardAlpha"/>
<feOffset dy="2"/>
<feGaussianBlur stdDeviation="2"/>
<feComposite in2="hardAlpha" operator="out"/>
<feColorMatrix type="matrix" values="0 0 0 0 0 0 0 0 0 0 0 0 0 0 0 0 0 0 0.1 0"/>
<feBlend mode="normal" in2="BackgroundImageFix" result="effect1_dropShadow_614_797"/>
<feBlend mode="normal" in="SourceGraphic" in2="effect1_dropShadow_614_797" result="shape"/>
</filter>
<linearGradient id="paint0_linear_614_797" x1="1059" y1="353" x2="341" y2="353" gradientUnits="userSpaceOnUse">
<stop stop-color="#AD51DE"/>
<stop offset="1" stop-color="#76CAE8"/>
</linearGradient>
<linearGradient id="paint1_linear_614_797" x1="43.3625" y1="104.967" x2="69.5183" y2="78.2384" gradientUnits="userSpaceOnUse">
<stop stop-color="#AD51DE"/>
<stop offset="1" stop-color="#76CAE8"/>
</linearGradient>
<linearGradient id="paint2_linear_614_797" x1="43.0349" y1="103.552" x2="73.9376" y2="77.7891" gradientUnits="userSpaceOnUse">
<stop stop-color="#AD51DE"/>
<stop offset="1" stop-color="#76CAE8"/>
</linearGradient>
<linearGradient id="paint3_linear_614_797" x1="43.1851" y1="104.867" x2="72.1331" y2="78.148" gradientUnits="userSpaceOnUse">
<stop stop-color="#AD51DE"/>
<stop offset="1" stop-color="#76CAE8"/>
</linearGradient>
<linearGradient id="paint4_linear_614_797" x1="43.4685" y1="103.997" x2="71.9123" y2="77.351" gradientUnits="userSpaceOnUse">
<stop stop-color="#AE52DF"/>
<stop offset="0.323532" stop-color="#9C79E2"/>
<stop offset="1" stop-color="#76CAE8"/>
</linearGradient>
<linearGradient id="paint5_linear_614_797" x1="42.5" y1="105.216" x2="72.6899" y2="77.2831" gradientUnits="userSpaceOnUse">
<stop stop-color="#AE52DF"/>
<stop offset="1" stop-color="#76CAE8" stop-opacity="0.88"/>
</linearGradient>
<linearGradient id="paint6_linear_614_797" x1="43.4072" y1="105.027" x2="71.0405" y2="77.5278" gradientUnits="userSpaceOnUse">
<stop stop-color="#AD51DE"/>
<stop offset="1" stop-color="#77C9E8"/>
</linearGradient>
<linearGradient id="paint7_linear_614_797" x1="43.4298" y1="104.975" x2="71.3742" y2="78.8053" gradientUnits="userSpaceOnUse">
<stop stop-color="#AD51DE"/>
<stop offset="1" stop-color="#87CFEB"/>
</linearGradient>
<linearGradient id="paint8_linear_614_797" x1="43.907" y1="105.027" x2="71.5027" y2="78.8414" gradientUnits="userSpaceOnUse">
<stop stop-color="#AD51DE"/>
<stop offset="0.358332" stop-color="#997CE2"/>
<stop offset="1" stop-color="#76CAE8"/>
</linearGradient>
<linearGradient id="paint9_linear_614_797" x1="108" y1="45" x2="108" y2="712" gradientUnits="userSpaceOnUse">
<stop stop-color="#AD51DE"/>
<stop offset="1" stop-color="#76CAE8"/>
</linearGradient>
</defs>
</svg>
