<svg width="62" height="41" viewBox="0 0 62 41" fill="none" xmlns="http://www.w3.org/2000/svg">
<g id="LOGO1">
<path id="Rectangle 44" d="M23.8906 2.08496H54.0005V30.4368L45.649 39.0082L15.9785 9.33775L23.8906 2.08496Z" fill="#111111"/>
<path id="Line 16" d="M45.6484 39.0078L53.5605 31.4555" stroke="url(#paint0_linear_955_1550)" stroke-width="2.6" stroke-linecap="round"/>
<path id="Line 9" d="M53.5605 2.08496L53.5605 31.4556" stroke="url(#paint1_linear_955_1550)" stroke-width="2.6" stroke-linecap="round"/>
<path id="Rectangle 46" d="M15 9.58496H46.5L60 4.58496V33.585L46.5 39.085H15L2 33.585V4.58496L15 9.58496Z" fill="#111111"/>
<g id="Rectangle 45">
<mask id="path-5-inside-1_955_1550" fill="white">
<rect x="14" y="8.27051" width="33.4066" height="32.5275" rx="2"/>
</mask>
<rect x="14" y="8.27051" width="33.4066" height="32.5275" rx="2" fill="#111111" stroke="url(#paint2_linear_955_1550)" stroke-width="5.2" mask="url(#path-5-inside-1_955_1550)"/>
</g>
<path id="Line 12" d="M46.9668 9.27832L52.9639 2.08555" stroke="url(#paint3_linear_955_1550)" stroke-width="2.6" stroke-linecap="round"/>
<path id="Line 15" d="M15.1992 9.87695L23.5939 2.08478" stroke="url(#paint4_linear_955_1550)" stroke-width="2.6" stroke-linecap="round"/>
<path id="Line 8" d="M23.5898 2.08496L53.5599 2.08496" stroke="url(#paint5_linear_955_1550)" stroke-width="2.6" stroke-linecap="round"/>
<path id="Line 10" d="M2 4.08496L2 33.4556" stroke="url(#paint6_linear_955_1550)" stroke-width="2.6" stroke-linecap="round"/>
<path id="Line 18" d="M60 4.08496V33.4556" stroke="url(#paint7_linear_955_1550)" stroke-width="2.6" stroke-linecap="round"/>
<path id="Line 14" d="M15 9.08496L2 4.08496" stroke="url(#paint8_linear_955_1550)" stroke-width="2.6" stroke-linecap="round"/>
<path id="Line 19" d="M47 9.08496L60 4.08496" stroke="url(#paint9_linear_955_1550)" stroke-width="2.6" stroke-linecap="round"/>
<path id="Line 17" d="M15 39.085L2 34.085" stroke="url(#paint10_linear_955_1550)" stroke-width="2.6" stroke-linecap="round"/>
<path id="Line 20" d="M47 39.085L60 34.085" stroke="url(#paint11_linear_955_1550)" stroke-width="2.6" stroke-linecap="round"/>
</g>
<defs>
<linearGradient id="paint0_linear_955_1550" x1="18.4002" y1="40.5821" x2="59.7616" y2="5.27192" gradientUnits="userSpaceOnUse">
<stop stop-color="#AD51DE"/>
<stop offset="1" stop-color="#76CAE8"/>
</linearGradient>
<linearGradient id="paint1_linear_955_1550" x1="24.5605" y1="39.0082" x2="61.0393" y2="12.2993" gradientUnits="userSpaceOnUse">
<stop stop-color="#AE52DF"/>
<stop offset="1" stop-color="#76CAE8" stop-opacity="0.88"/>
</linearGradient>
<linearGradient id="paint2_linear_955_1550" x1="2.5" y1="41.0854" x2="53.086" y2="2.98988" gradientUnits="userSpaceOnUse">
<stop stop-color="#AD51DE"/>
<stop offset="1" stop-color="#76CAE8"/>
</linearGradient>
<linearGradient id="paint3_linear_955_1550" x1="16.8617" y1="39.7455" x2="51.7452" y2="3.56535" gradientUnits="userSpaceOnUse">
<stop stop-color="#AD51DE"/>
<stop offset="1" stop-color="#76CAE8"/>
</linearGradient>
<linearGradient id="paint4_linear_955_1550" x1="11.7158" y1="35.7857" x2="49.5053" y2="-1.56628" gradientUnits="userSpaceOnUse">
<stop stop-color="#AD51DE"/>
<stop offset="1" stop-color="#76CAE8"/>
</linearGradient>
<linearGradient id="paint5_linear_955_1550" x1="15.9778" y1="30.085" x2="43.5526" y2="-5.63976" gradientUnits="userSpaceOnUse">
<stop stop-color="#AE52DF"/>
<stop offset="0.323532" stop-color="#9C79E2"/>
<stop offset="1" stop-color="#76CAE8"/>
</linearGradient>
<linearGradient id="paint6_linear_955_1550" x1="2.00001" y1="41.085" x2="58.4364" y2="19.8973" gradientUnits="userSpaceOnUse">
<stop stop-color="#AD51DE"/>
<stop offset="1" stop-color="#77C9E8"/>
</linearGradient>
<linearGradient id="paint7_linear_955_1550" x1="2.5" y1="39.585" x2="39.1746" y2="-6.19053" gradientUnits="userSpaceOnUse">
<stop stop-color="#AD51DE"/>
<stop offset="1" stop-color="#77C9E8"/>
</linearGradient>
<linearGradient id="paint8_linear_955_1550" x1="2" y1="18.585" x2="21.1059" y2="-14.2067" gradientUnits="userSpaceOnUse">
<stop stop-color="#AD51DE"/>
<stop offset="1" stop-color="#87CFEB"/>
</linearGradient>
<linearGradient id="paint9_linear_955_1550" x1="2" y1="42.585" x2="51" y2="2.08496" gradientUnits="userSpaceOnUse">
<stop stop-color="#AD51DE"/>
<stop offset="1" stop-color="#87CFEB"/>
</linearGradient>
<linearGradient id="paint10_linear_955_1550" x1="2" y1="39.085" x2="10.6492" y2="-6.19564" gradientUnits="userSpaceOnUse">
<stop stop-color="#AD51DE"/>
<stop offset="1" stop-color="#87CFEB"/>
</linearGradient>
<linearGradient id="paint11_linear_955_1550" x1="2" y1="34.085" x2="51" y2="2.08496" gradientUnits="userSpaceOnUse">
<stop stop-color="#AD51DE"/>
<stop offset="1" stop-color="#87CFEB"/>
</linearGradient>
</defs>
</svg>
