<svg width="1640" height="835" viewBox="0 0 1640 835" fill="none" xmlns="http://www.w3.org/2000/svg" preserveAspectRatio="none">
<g filter="url(#filter0_d_1254_1193)">
<path d="M6 44.1802H1634V803.897C1634 815.553 1623.4 825 1610.32 825H29.68C16.6018 825 6 815.553 6 803.897V44.1802Z" fill="#F6F8FA"/>
<mask id="mask0_1254_1193" style="mask-type:luminance" maskUnits="userSpaceOnUse" x="6" y="44" width="1628" height="781">
<path d="M6 44.1802H1634V803.897C1634 815.553 1623.4 825 1610.32 825H29.68C16.6018 825 6 815.553 6 803.897V44.1802Z" fill="white"/>
</mask>
<g mask="url(#mask0_1254_1193)">
<path d="M1634.74 803.897C1634.74 815.917 1623.8 825.66 1610.32 825.66H29.6798C16.193 825.66 5.25977 815.917 5.25977 803.897H6.73977C6.73977 815.187 17.0104 824.341 29.6798 824.341H1610.32C1622.99 824.341 1633.26 815.187 1633.26 803.897H1634.74ZM29.6798 825.66C16.193 825.66 5.25977 815.917 5.25977 803.897V44.1802H6.73977V803.897C6.73977 815.187 17.0104 824.341 29.6798 824.341V825.66ZM1634.74 44.1802V803.897C1634.74 815.917 1623.8 825.66 1610.32 825.66V824.341C1622.99 824.341 1633.26 815.187 1633.26 803.897V44.1802H1634.74Z" fill="#454545"/>
</g>
</g>
<g filter="url(#filter1_d_1254_1193)">
<path d="M6 17.6949C6 9.02683 16.6018 2 29.68 2H1610.32C1623.4 2 1634 9.02683 1634 17.6949V44.18H6V17.6949Z" fill="#FDFDFD"/>
<path d="M6.37012 17.6948C6.37012 9.16216 16.8063 2.24512 29.6801 2.24512H1610.32C1623.2 2.24512 1633.63 9.16216 1633.63 17.6948V43.9346H6.37012V17.6948Z" stroke="#454545" stroke-width="0.5"/>
</g>
<path d="M33.6972 23.1829C33.6972 27.0243 30.9949 30.0969 27.7095 30.0969C24.424 30.0969 21.7217 27.0243 21.7217 23.1829C21.7217 19.3416 24.424 16.269 27.7095 16.269C30.9949 16.269 33.6972 19.3416 33.6972 23.1829Z" fill="#FF6059" stroke="#E24239" stroke-width="0.3"/>
<path d="M54.1855 23.1829C54.1855 27.0243 51.4831 30.0969 48.1977 30.0969C44.9123 30.0969 42.21 27.0243 42.21 23.1829C42.21 19.3416 44.9123 16.269 48.1977 16.269C51.4831 16.269 54.1855 19.3416 54.1855 23.1829Z" fill="#FEBC2C" stroke="#E19E1E" stroke-width="0.3"/>
<path d="M74.6737 23.1829C74.6737 27.0243 71.9713 30.0969 68.6859 30.0969C65.4005 30.0969 62.6982 27.0243 62.6982 23.1829C62.6982 19.3416 65.4005 16.269 68.6859 16.269C71.9713 16.269 74.6737 19.3416 74.6737 23.1829Z" fill="#2AC740" stroke="#21AA25" stroke-width="0.3"/>
<defs>
<filter id="filter0_d_1254_1193" x="0" y="42.1802" width="1640" height="792.82" filterUnits="userSpaceOnUse" color-interpolation-filters="sRGB">
<feFlood flood-opacity="0" result="BackgroundImageFix"/>
<feColorMatrix in="SourceAlpha" type="matrix" values="0 0 0 0 0 0 0 0 0 0 0 0 0 0 0 0 0 0 127 0" result="hardAlpha"/>
<feOffset dy="4"/>
<feGaussianBlur stdDeviation="3"/>
<feComposite in2="hardAlpha" operator="out"/>
<feColorMatrix type="matrix" values="0 0 0 0 0 0 0 0 0 0 0 0 0 0 0 0 0 0 0.1 0"/>
<feBlend mode="normal" in2="BackgroundImageFix" result="effect1_dropShadow_1254_1193"/>
<feBlend mode="normal" in="SourceGraphic" in2="effect1_dropShadow_1254_1193" result="shape"/>
</filter>
<filter id="filter1_d_1254_1193" x="2" y="-0.00488281" width="1636" height="50.1895" filterUnits="userSpaceOnUse" color-interpolation-filters="sRGB">
<feFlood flood-opacity="0" result="BackgroundImageFix"/>
<feColorMatrix in="SourceAlpha" type="matrix" values="0 0 0 0 0 0 0 0 0 0 0 0 0 0 0 0 0 0 127 0" result="hardAlpha"/>
<feOffset dy="2"/>
<feGaussianBlur stdDeviation="2"/>
<feComposite in2="hardAlpha" operator="out"/>
<feColorMatrix type="matrix" values="0 0 0 0 0 0 0 0 0 0 0 0 0 0 0 0 0 0 0.1 0"/>
<feBlend mode="normal" in2="BackgroundImageFix" result="effect1_dropShadow_1254_1193"/>
<feBlend mode="normal" in="SourceGraphic" in2="effect1_dropShadow_1254_1193" result="shape"/>
</filter>
</defs>
</svg>
