<svg width="129" height="37" viewBox="0 0 129 37" fill="none" xmlns="http://www.w3.org/2000/svg">
<g id="settings">
<g id="close">
<mask id="mask0_740_961" style="mask-type:alpha" maskUnits="userSpaceOnUse" x="92" y="0" width="37" height="37">
<rect id="Bounding box" x="92" width="37" height="37" fill="#D9D9D9"/>
</mask>
<g mask="url(#mask0_740_961)">
<path id="close_2" d="M101.597 29.0213L99.978 27.4025L108.881 18.4994L99.978 9.59629L101.597 7.97754L110.5 16.8807L119.403 7.97754L121.022 9.59629L112.119 18.4994L121.022 27.4025L119.403 29.0213L110.5 20.1182L101.597 29.0213Z" fill="#474747"/>
</g>
</g>
<g id="settings_2">
<mask id="mask1_740_961" style="mask-type:alpha" maskUnits="userSpaceOnUse" x="0" y="0" width="37" height="37">
<rect id="Bounding box_2" width="37" height="37" fill="#D9D9D9"/>
</mask>
<g mask="url(#mask1_740_961)">
<path id="settings_3" d="M14.9543 33.9163L14.1835 29.0601C13.6953 28.8802 13.1814 28.6361 12.6418 28.3278C12.1022 28.0195 11.6269 27.6983 11.2158 27.3643L6.66787 29.4455L3.0835 23.1247L7.246 20.0799C7.19461 19.8486 7.16249 19.5853 7.14964 19.2898C7.1368 18.9943 7.13037 18.7309 7.13037 18.4997C7.13037 18.2684 7.1368 18.0051 7.14964 17.7096C7.16249 17.4141 7.19461 17.1507 7.246 16.9195L3.0835 13.8747L6.66787 7.55384L11.2158 9.63509C11.6269 9.30106 12.1022 8.97988 12.6418 8.67155C13.1814 8.36322 13.6953 8.13197 14.1835 7.9778L14.9543 3.08301H22.046L22.8168 7.93926C23.305 8.11912 23.8253 8.35679 24.3778 8.65228C24.9302 8.94776 25.3991 9.27537 25.7845 9.63509L30.3325 7.55384L33.9168 13.8747L29.7543 16.8424C29.8057 17.0993 29.8378 17.3755 29.8507 17.671C29.8635 17.9665 29.87 18.2427 29.87 18.4997C29.87 18.7566 29.8635 19.0264 29.8507 19.3091C29.8378 19.5917 29.8057 19.8615 29.7543 20.1184L33.9168 23.1247L30.3325 29.4455L25.7845 27.3643C25.3734 27.6983 24.9045 28.0259 24.3778 28.3471C23.851 28.6683 23.3307 28.9059 22.8168 29.0601L22.046 33.9163H14.9543ZM16.8043 31.6038H20.196L20.7356 27.2872C21.5835 27.0816 22.3864 26.7604 23.1444 26.3236C23.9024 25.8868 24.5897 25.3601 25.2064 24.7434L29.2918 26.5163L30.8335 23.7413L27.2106 21.082C27.3134 20.6452 27.3969 20.2148 27.4611 19.7908C27.5253 19.3669 27.5575 18.9365 27.5575 18.4997C27.5575 18.0629 27.5318 17.6325 27.4804 17.2085C27.429 16.7846 27.3391 16.3542 27.2106 15.9174L30.8335 13.258L29.2918 10.483L25.2064 12.2559C24.6154 11.5879 23.9474 11.029 23.2022 10.5794C22.4571 10.1297 21.6349 9.84065 20.7356 9.71217L20.196 5.39551H16.8043L16.2647 9.71217C15.3911 9.89204 14.5753 10.2004 13.8174 10.6372C13.0594 11.074 12.3849 11.6136 11.7939 12.2559L7.7085 10.483L6.16683 13.258L9.78975 15.9174C9.68697 16.3542 9.60346 16.7846 9.53923 17.2085C9.47499 17.6325 9.44287 18.0629 9.44287 18.4997C9.44287 18.9365 9.47499 19.3669 9.53923 19.7908C9.60346 20.2148 9.68697 20.6452 9.78975 21.082L6.16683 23.7413L7.7085 26.5163L11.7939 24.7434C12.4106 25.3601 13.0979 25.8868 13.8559 26.3236C14.6139 26.7604 15.4168 27.0816 16.2647 27.2872L16.8043 31.6038ZM18.5002 23.5101C19.8877 23.5101 21.0696 23.0219 22.046 22.0455C23.0224 21.0691 23.5106 19.8872 23.5106 18.4997C23.5106 17.1122 23.0224 15.9302 22.046 14.9538C21.0696 13.9775 19.8877 13.4893 18.5002 13.4893C17.1127 13.4893 15.9307 13.9775 14.9543 14.9538C13.9779 15.9302 13.4897 17.1122 13.4897 18.4997C13.4897 19.8872 13.9779 21.0691 14.9543 22.0455C15.9307 23.0219 17.1127 23.5101 18.5002 23.5101Z" fill="#474747"/>
</g>
</g>
<g id="more_vert">
<mask id="mask2_740_961" style="mask-type:alpha" maskUnits="userSpaceOnUse" x="46" y="0" width="37" height="37">
<rect id="Bounding box_3" x="46" width="37" height="37" fill="#D9D9D9"/>
</mask>
<g mask="url(#mask2_740_961)">
<path id="more_vert_2" d="M64.4944 30.8337C63.9842 30.8337 63.5492 30.652 63.1895 30.2886C62.8298 29.9253 62.6499 29.4885 62.6499 28.9782C62.6499 28.4679 62.8316 28.033 63.195 27.6732C63.5583 27.3135 63.9951 27.1337 64.5054 27.1337C65.0156 27.1337 65.4506 27.3153 65.8103 27.6787C66.17 28.0421 66.3499 28.4789 66.3499 28.9891C66.3499 29.4994 66.1682 29.9344 65.8048 30.2941C65.4415 30.6538 65.0047 30.8337 64.4944 30.8337ZM64.4944 20.3503C63.9842 20.3503 63.5492 20.1686 63.1895 19.8053C62.8298 19.4419 62.6499 19.0051 62.6499 18.4949C62.6499 17.9846 62.8316 17.5496 63.195 17.1899C63.5583 16.8302 63.9951 16.6503 64.5054 16.6503C65.0156 16.6503 65.4506 16.832 65.8103 17.1954C66.17 17.5587 66.3499 17.9955 66.3499 18.5058C66.3499 19.016 66.1682 19.451 65.8048 19.8107C65.4415 20.1705 65.0047 20.3503 64.4944 20.3503ZM64.4944 9.86699C63.9842 9.86699 63.5492 9.68531 63.1895 9.32193C62.8298 8.95859 62.6499 8.52178 62.6499 8.01152C62.6499 7.50128 62.8316 7.0663 63.195 6.70658C63.5583 6.34685 63.9951 6.16699 64.5054 6.16699C65.0156 6.16699 65.4506 6.34868 65.8103 6.71205C66.17 7.07539 66.3499 7.5122 66.3499 8.02247C66.3499 8.53271 66.1682 8.96769 65.8048 9.32741C65.4415 9.68713 65.0047 9.86699 64.4944 9.86699Z" fill="#474747"/>
</g>
</g>
</g>
</svg>
