<svg width="184" height="38" viewBox="0 0 184 38" fill="none" xmlns="http://www.w3.org/2000/svg">
<g id="settings">
<g id="close">
<mask id="mask0_955_1121" style="mask-type:alpha" maskUnits="userSpaceOnUse" x="117" y="1" width="67" height="37">
<rect id="Bounding box" x="117" y="1" width="67" height="37" fill="#D9D9D9"/>
</mask>
<g mask="url(#mask0_955_1121)">
<path id="close_2" d="M126.596 30.0213L124.978 28.4025L133.881 19.4994L124.978 10.5963L126.596 8.97754L135.499 17.8807L144.403 8.97754L146.021 10.5963L137.118 19.4994L146.021 28.4025L144.403 30.0213L135.499 21.1182L126.596 30.0213Z" fill="#C7C7C7"/>
</g>
</g>
<g id="settings_2">
<mask id="mask1_955_1121" style="mask-type:alpha" maskUnits="userSpaceOnUse" x="25" y="1" width="37" height="37">
<rect id="Bounding box_2" x="25" y="1" width="37" height="37" fill="#D9D9D9"/>
</mask>
<g mask="url(#mask1_955_1121)">
<path id="settings_3" d="M39.9538 34.9163L39.183 30.0601C38.6948 29.8802 38.1809 29.6361 37.6413 29.3278C37.1018 29.0195 36.6264 28.6983 36.2153 28.3643L31.6674 30.4455L28.083 24.1247L32.2455 21.0799C32.1941 20.8486 32.162 20.5853 32.1492 20.2898C32.1363 19.9943 32.1299 19.7309 32.1299 19.4997C32.1299 19.2684 32.1363 19.0051 32.1492 18.7096C32.162 18.4141 32.1941 18.1507 32.2455 17.9195L28.083 14.8747L31.6674 8.55384L36.2153 10.6351C36.6264 10.3011 37.1018 9.97988 37.6413 9.67155C38.1809 9.36322 38.6948 9.13197 39.183 8.9778L39.9538 4.08301H47.0455L47.8163 8.93926C48.3045 9.11912 48.8249 9.35679 49.3773 9.65228C49.9297 9.94776 50.3986 10.2754 50.7841 10.6351L55.332 8.55384L58.9163 14.8747L54.7538 17.8424C54.8052 18.0993 54.8374 18.3755 54.8502 18.671C54.863 18.9665 54.8695 19.2427 54.8695 19.4997C54.8695 19.7566 54.863 20.0264 54.8502 20.3091C54.8374 20.5917 54.8052 20.8615 54.7538 21.1184L58.9163 24.1247L55.332 30.4455L50.7841 28.3643C50.3729 28.6983 49.904 29.0259 49.3773 29.3471C48.8505 29.6683 48.3302 29.9059 47.8163 30.0601L47.0455 34.9163H39.9538ZM41.8038 32.6038H45.1955L45.7351 28.2872C46.583 28.0816 47.386 27.7604 48.1439 27.3236C48.9019 26.8868 49.5893 26.3601 50.2059 25.7434L54.2913 27.5163L55.833 24.7413L52.2101 22.082C52.3129 21.6452 52.3964 21.2148 52.4606 20.7908C52.5248 20.3669 52.557 19.9365 52.557 19.4997C52.557 19.0629 52.5313 18.6325 52.4799 18.2085C52.4285 17.7846 52.3386 17.3542 52.2101 16.9174L55.833 14.258L54.2913 11.483L50.2059 13.2559C49.615 12.5879 48.9469 12.029 48.2018 11.5794C47.4566 11.1297 46.6344 10.8406 45.7351 10.7122L45.1955 6.39551H41.8038L41.2643 10.7122C40.3906 10.892 39.5748 11.2004 38.8169 11.6372C38.0589 12.074 37.3844 12.6136 36.7934 13.2559L32.708 11.483L31.1663 14.258L34.7893 16.9174C34.6865 17.3542 34.603 17.7846 34.5387 18.2085C34.4745 18.6325 34.4424 19.0629 34.4424 19.4997C34.4424 19.9365 34.4745 20.3669 34.5387 20.7908C34.603 21.2148 34.6865 21.6452 34.7893 22.082L31.1663 24.7413L32.708 27.5163L36.7934 25.7434C37.4101 26.3601 38.0974 26.8868 38.8554 27.3236C39.6134 27.7604 40.4163 28.0816 41.2643 28.2872L41.8038 32.6038ZM43.4997 24.5101C44.8872 24.5101 46.0691 24.0219 47.0455 23.0455C48.0219 22.0691 48.5101 20.8872 48.5101 19.4997C48.5101 18.1122 48.0219 16.9302 47.0455 15.9538C46.0691 14.9775 44.8872 14.4893 43.4997 14.4893C42.1122 14.4893 40.9302 14.9775 39.9538 15.9538C38.9775 16.9302 38.4893 18.1122 38.4893 19.4997C38.4893 20.8872 38.9775 22.0691 39.9538 23.0455C40.9302 24.0219 42.1122 24.5101 43.4997 24.5101Z" fill="#C7C7C7"/>
</g>
</g>
<g id="more_vert">
<mask id="mask2_955_1121" style="mask-type:alpha" maskUnits="userSpaceOnUse" x="71" y="1" width="37" height="37">
<rect id="Bounding box_3" x="71" y="1" width="37" height="37" fill="#D9D9D9"/>
</mask>
<g mask="url(#mask2_955_1121)">
<path id="more_vert_2" d="M89.4939 31.8337C88.9837 31.8337 88.5487 31.652 88.189 31.2886C87.8293 30.9253 87.6494 30.4885 87.6494 29.9782C87.6494 29.4679 87.8311 29.033 88.1945 28.6732C88.5578 28.3135 88.9946 28.1337 89.5049 28.1337C90.0151 28.1337 90.4501 28.3153 90.8098 28.6787C91.1696 29.0421 91.3494 29.4789 91.3494 29.9891C91.3494 30.4994 91.1677 30.9344 90.8044 31.2941C90.441 31.6538 90.0042 31.8337 89.4939 31.8337ZM89.4939 21.3503C88.9837 21.3503 88.5487 21.1686 88.189 20.8053C87.8293 20.4419 87.6494 20.0051 87.6494 19.4949C87.6494 18.9846 87.8311 18.5496 88.1945 18.1899C88.5578 17.8302 88.9946 17.6503 89.5049 17.6503C90.0151 17.6503 90.4501 17.832 90.8098 18.1954C91.1696 18.5587 91.3494 18.9955 91.3494 19.5058C91.3494 20.016 91.1677 20.451 90.8044 20.8107C90.441 21.1705 90.0042 21.3503 89.4939 21.3503ZM89.4939 10.867C88.9837 10.867 88.5487 10.6853 88.189 10.3219C87.8293 9.95859 87.6494 9.52178 87.6494 9.01152C87.6494 8.50128 87.8311 8.0663 88.1945 7.70658C88.5578 7.34685 88.9946 7.16699 89.5049 7.16699C90.0151 7.16699 90.4501 7.34868 90.8098 7.71205C91.1696 8.07539 91.3494 8.5122 91.3494 9.02247C91.3494 9.53271 91.1677 9.96769 90.8044 10.3274C90.441 10.6871 90.0042 10.867 89.4939 10.867Z" fill="#C7C7C7"/>
</g>
</g>
<line id="Line 24" x1="1" y1="-4.37114e-08" x2="1" y2="38" stroke="#5E5E5E" stroke-width="2"/>
</g>
</svg>
