<svg width="129" height="37" viewBox="0 0 129 37" fill="none" xmlns="http://www.w3.org/2000/svg">
<g id="settings">
<g id="close">
<mask id="mask0_955_1121" style="mask-type:alpha" maskUnits="userSpaceOnUse" x="92" y="0" width="37" height="37">
<rect id="Bounding box" x="92" width="37" height="37" fill="#D9D9D9"/>
</mask>
<g mask="url(#mask0_955_1121)">
<path id="close_2" d="M101.596 29.0213L99.9775 27.4025L108.881 18.4994L99.9775 9.59629L101.596 7.97754L110.499 16.8807L119.403 7.97754L121.021 9.59629L112.118 18.4994L121.021 27.4025L119.403 29.0213L110.499 20.1182L101.596 29.0213Z" fill="#C7C7C7"/>
</g>
</g>
<g id="settings_2">
<mask id="mask1_955_1121" style="mask-type:alpha" maskUnits="userSpaceOnUse" x="0" y="0" width="37" height="37">
<rect id="Bounding box_2" width="37" height="37" fill="#D9D9D9"/>
</mask>
<g mask="url(#mask1_955_1121)">
<path id="settings_3" d="M14.9538 33.9163L14.183 29.0601C13.6948 28.8802 13.1809 28.6361 12.6413 28.3278C12.1018 28.0195 11.6264 27.6983 11.2153 27.3643L6.66738 29.4455L3.08301 23.1247L7.24551 20.0799C7.19412 19.8486 7.162 19.5853 7.14915 19.2898C7.13631 18.9943 7.12988 18.7309 7.12988 18.4997C7.12988 18.2684 7.13631 18.0051 7.14915 17.7096C7.162 17.4141 7.19412 17.1507 7.24551 16.9195L3.08301 13.8747L6.66738 7.55384L11.2153 9.63509C11.6264 9.30106 12.1018 8.97988 12.6413 8.67155C13.1809 8.36322 13.6948 8.13197 14.183 7.9778L14.9538 3.08301H22.0455L22.8163 7.93926C23.3045 8.11912 23.8248 8.35679 24.3773 8.65228C24.9297 8.94776 25.3986 9.27537 25.7841 9.63509L30.332 7.55384L33.9163 13.8747L29.7538 16.8424C29.8052 17.0993 29.8374 17.3755 29.8502 17.671C29.863 17.9665 29.8695 18.2427 29.8695 18.4997C29.8695 18.7566 29.863 19.0264 29.8502 19.3091C29.8374 19.5917 29.8052 19.8615 29.7538 20.1184L33.9163 23.1247L30.332 29.4455L25.7841 27.3643C25.3729 27.6983 24.904 28.0259 24.3773 28.3471C23.8505 28.6683 23.3302 28.9059 22.8163 29.0601L22.0455 33.9163H14.9538ZM16.8038 31.6038H20.1955L20.7351 27.2872C21.583 27.0816 22.386 26.7604 23.1439 26.3236C23.9019 25.8868 24.5893 25.3601 25.2059 24.7434L29.2913 26.5163L30.833 23.7413L27.2101 21.082C27.3129 20.6452 27.3964 20.2148 27.4606 19.7908C27.5248 19.3669 27.557 18.9365 27.557 18.4997C27.557 18.0629 27.5313 17.6325 27.4799 17.2085C27.4285 16.7846 27.3386 16.3542 27.2101 15.9174L30.833 13.258L29.2913 10.483L25.2059 12.2559C24.615 11.5879 23.9469 11.029 23.2018 10.5794C22.4566 10.1297 21.6344 9.84065 20.7351 9.71218L20.1955 5.39551H16.8038L16.2643 9.71218C15.3906 9.89204 14.5748 10.2004 13.8169 10.6372C13.0589 11.074 12.3844 11.6136 11.7934 12.2559L7.70801 10.483L6.16634 13.258L9.78926 15.9174C9.68648 16.3542 9.60297 16.7846 9.53874 17.2085C9.4745 17.6325 9.44238 18.0629 9.44238 18.4997C9.44238 18.9365 9.4745 19.3669 9.53874 19.7908C9.60297 20.2148 9.68648 20.6452 9.78926 21.082L6.16634 23.7413L7.70801 26.5163L11.7934 24.7434C12.4101 25.3601 13.0974 25.8868 13.8554 26.3236C14.6134 26.7604 15.4163 27.0816 16.2643 27.2872L16.8038 31.6038ZM18.4997 23.5101C19.8872 23.5101 21.0691 23.0219 22.0455 22.0455C23.0219 21.0691 23.5101 19.8872 23.5101 18.4997C23.5101 17.1122 23.0219 15.9302 22.0455 14.9538C21.0691 13.9775 19.8872 13.4893 18.4997 13.4893C17.1122 13.4893 15.9302 13.9775 14.9538 14.9538C13.9775 15.9302 13.4893 17.1122 13.4893 18.4997C13.4893 19.8872 13.9775 21.0691 14.9538 22.0455C15.9302 23.0219 17.1122 23.5101 18.4997 23.5101Z" fill="#C7C7C7"/>
</g>
</g>
<g id="more_vert">
<mask id="mask2_955_1121" style="mask-type:alpha" maskUnits="userSpaceOnUse" x="46" y="0" width="37" height="37">
<rect id="Bounding box_3" x="46" width="37" height="37" fill="#D9D9D9"/>
</mask>
<g mask="url(#mask2_955_1121)">
<path id="more_vert_2" d="M64.4939 30.8337C63.9837 30.8337 63.5487 30.652 63.189 30.2886C62.8293 29.9253 62.6494 29.4885 62.6494 28.9782C62.6494 28.4679 62.8311 28.033 63.1945 27.6732C63.5578 27.3135 63.9946 27.1337 64.5049 27.1337C65.0151 27.1337 65.4501 27.3153 65.8098 27.6787C66.1696 28.0421 66.3494 28.4789 66.3494 28.9891C66.3494 29.4994 66.1677 29.9344 65.8044 30.2941C65.441 30.6538 65.0042 30.8337 64.4939 30.8337ZM64.4939 20.3503C63.9837 20.3503 63.5487 20.1686 63.189 19.8053C62.8293 19.4419 62.6494 19.0051 62.6494 18.4949C62.6494 17.9846 62.8311 17.5496 63.1945 17.1899C63.5578 16.8302 63.9946 16.6503 64.5049 16.6503C65.0151 16.6503 65.4501 16.832 65.8098 17.1954C66.1696 17.5587 66.3494 17.9955 66.3494 18.5058C66.3494 19.016 66.1677 19.451 65.8044 19.8107C65.441 20.1705 65.0042 20.3503 64.4939 20.3503ZM64.4939 9.86699C63.9837 9.86699 63.5487 9.68531 63.189 9.32193C62.8293 8.95859 62.6494 8.52178 62.6494 8.01152C62.6494 7.50128 62.8311 7.0663 63.1945 6.70658C63.5578 6.34685 63.9946 6.16699 64.5049 6.16699C65.0151 6.16699 65.4501 6.34868 65.8098 6.71205C66.1696 7.07539 66.3494 7.5122 66.3494 8.02247C66.3494 8.53271 66.1677 8.96769 65.8044 9.32741C65.441 9.68713 65.0042 9.86699 64.4939 9.86699Z" fill="#C7C7C7"/>
</g>
</g>
</g>
</svg>
