<svg width="184" height="38" viewBox="0 0 184 38" fill="none" xmlns="http://www.w3.org/2000/svg">
<g id="settings">
<g id="close">
<mask id="mask0_1238_972" style="mask-type:alpha" maskUnits="userSpaceOnUse" x="117" y="1" width="67" height="37">
<rect id="Bounding box" x="117" y="1" width="67" height="37" fill="#D9D9D9"/>
</mask>
<g mask="url(#mask0_1238_972)">
<path id="close_2" d="M126.596 30.0218L124.978 28.403L133.881 19.4999L124.978 10.5968L126.596 8.97803L135.499 17.8812L144.403 8.97803L146.021 10.5968L137.118 19.4999L146.021 28.403L144.403 30.0218L135.499 21.1187L126.596 30.0218Z" fill="#474747"/>
</g>
</g>
<g id="settings_2">
<mask id="mask1_1238_972" style="mask-type:alpha" maskUnits="userSpaceOnUse" x="25" y="1" width="37" height="37">
<rect id="Bounding box_2" x="25" y="1" width="37" height="37" fill="#D9D9D9"/>
</mask>
<g mask="url(#mask1_1238_972)">
<path id="settings_3" d="M39.9538 34.9168L39.183 30.0606C38.6948 29.8807 38.1809 29.6366 37.6413 29.3283C37.1018 29.02 36.6264 28.6988 36.2153 28.3647L31.6674 30.446L28.083 24.1252L32.2455 21.0804C32.1941 20.8491 32.162 20.5858 32.1492 20.2903C32.1363 19.9948 32.1299 19.7314 32.1299 19.5002C32.1299 19.2689 32.1363 19.0055 32.1492 18.7101C32.162 18.4146 32.1941 18.1512 32.2455 17.92L28.083 14.8752L31.6674 8.55433L36.2153 10.6356C36.6264 10.3016 37.1018 9.98037 37.6413 9.67204C38.1809 9.3637 38.6948 9.13245 39.183 8.97829L39.9538 4.0835H47.0455L47.8163 8.93975C48.3045 9.11961 48.8248 9.35728 49.3773 9.65277C49.9297 9.94825 50.3986 10.2759 50.7841 10.6356L55.332 8.55433L58.9163 14.8752L54.7538 17.8429C54.8052 18.0998 54.8374 18.376 54.8502 18.6715C54.863 18.967 54.8695 19.2432 54.8695 19.5002C54.8695 19.7571 54.863 20.0269 54.8502 20.3095C54.8374 20.5922 54.8052 20.862 54.7538 21.1189L58.9163 24.1252L55.332 30.446L50.7841 28.3647C50.3729 28.6988 49.904 29.0264 49.3773 29.3476C48.8505 29.6687 48.3302 29.9064 47.8163 30.0606L47.0455 34.9168H39.9538ZM41.8038 32.6043H45.1955L45.7351 28.2877C46.583 28.0821 47.386 27.7609 48.1439 27.3241C48.9019 26.8873 49.5893 26.3606 50.2059 25.7439L54.2913 27.5168L55.833 24.7418L52.2101 22.0825C52.3129 21.6457 52.3964 21.2153 52.4606 20.7913C52.5248 20.3674 52.557 19.937 52.557 19.5002C52.557 19.0634 52.5313 18.633 52.4799 18.209C52.4285 17.7851 52.3386 17.3547 52.2101 16.9179L55.833 14.2585L54.2913 11.4835L50.2059 13.2564C49.615 12.5884 48.9469 12.0295 48.2018 11.5799C47.4566 11.1302 46.6344 10.8411 45.7351 10.7127L45.1955 6.396H41.8038L41.2643 10.7127C40.3906 10.8925 39.5748 11.2009 38.8169 11.6377C38.0589 12.0745 37.3844 12.6141 36.7934 13.2564L32.708 11.4835L31.1663 14.2585L34.7893 16.9179C34.6865 17.3547 34.603 17.7851 34.5387 18.209C34.4745 18.633 34.4424 19.0634 34.4424 19.5002C34.4424 19.937 34.4745 20.3674 34.5387 20.7913C34.603 21.2153 34.6865 21.6457 34.7893 22.0825L31.1663 24.7418L32.708 27.5168L36.7934 25.7439C37.4101 26.3606 38.0974 26.8873 38.8554 27.3241C39.6134 27.7609 40.4163 28.0821 41.2643 28.2877L41.8038 32.6043ZM43.4997 24.5106C44.8872 24.5106 46.0691 24.0224 47.0455 23.046C48.0219 22.0696 48.5101 20.8877 48.5101 19.5002C48.5101 18.1127 48.0219 16.9307 47.0455 15.9543C46.0691 14.9779 44.8872 14.4897 43.4997 14.4897C42.1122 14.4897 40.9302 14.9779 39.9538 15.9543C38.9775 16.9307 38.4893 18.1127 38.4893 19.5002C38.4893 20.8877 38.9775 22.0696 39.9538 23.046C40.9302 24.0224 42.1122 24.5106 43.4997 24.5106Z" fill="#474747"/>
</g>
</g>
<g id="more_vert">
<mask id="mask2_1238_972" style="mask-type:alpha" maskUnits="userSpaceOnUse" x="71" y="1" width="37" height="37">
<rect id="Bounding box_3" x="71" y="1" width="37" height="37" fill="#D9D9D9"/>
</mask>
<g mask="url(#mask2_1238_972)">
<path id="more_vert_2" d="M89.4939 31.8332C88.9837 31.8332 88.5487 31.6515 88.189 31.2881C87.8293 30.9248 87.6494 30.488 87.6494 29.9777C87.6494 29.4675 87.8311 29.0325 88.1945 28.6728C88.5578 28.313 88.9946 28.1332 89.5049 28.1332C90.0151 28.1332 90.4501 28.3149 90.8098 28.6782C91.1696 29.0416 91.3494 29.4784 91.3494 29.9886C91.3494 30.4989 91.1677 30.9339 90.8044 31.2936C90.441 31.6533 90.0042 31.8332 89.4939 31.8332ZM89.4939 21.3498C88.9837 21.3498 88.5487 21.1682 88.189 20.8048C87.8293 20.4414 87.6494 20.0046 87.6494 19.4944C87.6494 18.9841 87.8311 18.5491 88.1945 18.1894C88.5578 17.8297 88.9946 17.6498 89.5049 17.6498C90.0151 17.6498 90.4501 17.8315 90.8098 18.1949C91.1696 18.5582 91.3494 18.995 91.3494 19.5053C91.3494 20.0156 91.1677 20.4505 90.8044 20.8103C90.441 21.17 90.0042 21.3498 89.4939 21.3498ZM89.4939 10.8665C88.9837 10.8665 88.5487 10.6848 88.189 10.3214C87.8293 9.9581 87.6494 9.5213 87.6494 9.01103C87.6494 8.50079 87.8311 8.06581 88.1945 7.70609C88.5578 7.34637 88.9946 7.1665 89.5049 7.1665C90.0151 7.1665 90.4501 7.34819 90.8098 7.71156C91.1696 8.07491 91.3494 8.51171 91.3494 9.02198C91.3494 9.53222 91.1677 9.9672 90.8044 10.3269C90.441 10.6866 90.0042 10.8665 89.4939 10.8665Z" fill="#474747"/>
</g>
</g>
<line id="Line 24" x1="1" y1="-4.37114e-08" x2="1" y2="38" stroke="#D3E2FD" stroke-width="2"/>
</g>
</svg>
