<svg width="1112" height="647" viewBox="0 0 1112 647" fill="none" xmlns="http://www.w3.org/2000/svg" preserveAspectRatio="none">
<g id="gitodocpage">
<g id="Rectangle 121" filter="url(#filter0_d_955_1575)">
<mask id="path-1-inside-1_955_1575" fill="white">
<path d="M6 45H1106V621C1106 629.837 1098.84 637 1090 637H22C13.1634 637 6 629.837 6 621V45Z"/>
</mask>
<path d="M6 45H1106V621C1106 629.837 1098.84 637 1090 637H22C13.1634 637 6 629.837 6 621V45Z" fill="#1A1A1A"/>
<path d="M6 45H1106H6ZM1106.5 621C1106.5 630.113 1099.11 637.5 1090 637.5H22C12.8873 637.5 5.5 630.113 5.5 621H6.5C6.5 629.56 13.4396 636.5 22 636.5H1090C1098.56 636.5 1105.5 629.56 1105.5 621H1106.5ZM22 637.5C12.8873 637.5 5.5 630.113 5.5 621V45H6.5V621C6.5 629.56 13.4396 636.5 22 636.5V637.5ZM1106.5 45V621C1106.5 630.113 1099.11 637.5 1090 637.5V636.5C1098.56 636.5 1105.5 629.56 1105.5 621V45H1106.5Z" fill="#454545" mask="url(#path-1-inside-1_955_1575)"/>
</g>
<g id="bar">
<g id="Rectangle 120" filter="url(#filter1_d_955_1575)">
<path d="M6 18C6 9.16344 13.1634 2 22 2H1090C1098.84 2 1106 9.16344 1106 18V45H6V18Z" fill="#404040"/>
<path d="M6.25 18C6.25 9.30152 13.3015 2.25 22 2.25H1090C1098.7 2.25 1105.75 9.30152 1105.75 18V44.75H6.25V18Z" stroke="#454545" stroke-width="0.5"/>
</g>
<path id="Ellipse 8" d="M33.6958 23.5948C33.6958 27.5109 30.9935 30.6432 27.7081 30.6432C24.4227 30.6432 21.7203 27.5109 21.7203 23.5948C21.7203 19.6788 24.4227 16.5465 27.7081 16.5465C30.9935 16.5465 33.6958 19.6788 33.6958 23.5948Z" fill="#FF6059" stroke="#E24239" stroke-width="0.3"/>
<path id="Ellipse 9" d="M54.1861 23.5948C54.1861 27.5109 51.4837 30.6432 48.1983 30.6432C44.9129 30.6432 42.2105 27.5109 42.2105 23.5948C42.2105 19.6788 44.9129 16.5465 48.1983 16.5465C51.4837 16.5465 54.1861 19.6788 54.1861 23.5948Z" fill="#FEBC2C" stroke="#E19E1E" stroke-width="0.3"/>
<path id="Ellipse 10" d="M74.6744 23.5948C74.6744 27.5109 71.972 30.6432 68.6866 30.6432C65.4012 30.6432 62.6988 27.5109 62.6988 23.5948C62.6988 19.6788 65.4012 16.5465 68.6866 16.5465C71.972 16.5465 74.6744 19.6788 74.6744 23.5948Z" fill="#2AC740" stroke="#21AA25" stroke-width="0.3"/>
</g>
</g>
<defs>
<filter id="filter0_d_955_1575" x="0" y="43" width="1112" height="604" filterUnits="userSpaceOnUse" color-interpolation-filters="sRGB">
<feFlood flood-opacity="0" result="BackgroundImageFix"/>
<feColorMatrix in="SourceAlpha" type="matrix" values="0 0 0 0 0 0 0 0 0 0 0 0 0 0 0 0 0 0 127 0" result="hardAlpha"/>
<feOffset dy="4"/>
<feGaussianBlur stdDeviation="3"/>
<feComposite in2="hardAlpha" operator="out"/>
<feColorMatrix type="matrix" values="0 0 0 0 0 0 0 0 0 0 0 0 0 0 0 0 0 0 0.1 0"/>
<feBlend mode="normal" in2="BackgroundImageFix" result="effect1_dropShadow_955_1575"/>
<feBlend mode="normal" in="SourceGraphic" in2="effect1_dropShadow_955_1575" result="shape"/>
</filter>
<filter id="filter1_d_955_1575" x="2" y="0" width="1108" height="51" filterUnits="userSpaceOnUse" color-interpolation-filters="sRGB">
<feFlood flood-opacity="0" result="BackgroundImageFix"/>
<feColorMatrix in="SourceAlpha" type="matrix" values="0 0 0 0 0 0 0 0 0 0 0 0 0 0 0 0 0 0 127 0" result="hardAlpha"/>
<feOffset dy="2"/>
<feGaussianBlur stdDeviation="2"/>
<feComposite in2="hardAlpha" operator="out"/>
<feColorMatrix type="matrix" values="0 0 0 0 0 0 0 0 0 0 0 0 0 0 0 0 0 0 0.1 0"/>
<feBlend mode="normal" in2="BackgroundImageFix" result="effect1_dropShadow_955_1575"/>
<feBlend mode="normal" in="SourceGraphic" in2="effect1_dropShadow_955_1575" result="shape"/>
</filter>
</defs>
</svg>
