<svg width="24" height="24" viewBox="0 0 24 24" fill="none" xmlns="http://www.w3.org/2000/svg">
<mask id="mask0_212_307" style="mask-type:alpha" maskUnits="userSpaceOnUse" x="0" y="0" width="24" height="24">
<rect x="24" y="24" width="24" height="24" transform="rotate(-180 24 24)" fill="#D9D9D9"/>
</mask>
<g mask="url(#mask0_212_307)">
<path d="M21.3996 11.9996L13.5746 4.17461C13.4579 4.05794 13.3996 3.91627 13.3996 3.74961C13.3996 3.58294 13.4579 3.44128 13.5746 3.32461C13.6913 3.20794 13.8329 3.14961 13.9996 3.14961C14.1663 3.14961 14.3079 3.20794 14.4246 3.32461L22.0496 10.9496C22.1996 11.0996 22.3079 11.2663 22.3746 11.4496C22.4413 11.6329 22.4746 11.8163 22.4746 11.9996C22.4746 12.1829 22.4413 12.3663 22.3746 12.5496C22.3079 12.7329 22.1996 12.8996 22.0496 13.0496L14.4246 20.6746C14.3079 20.7913 14.1663 20.8496 13.9996 20.8496C13.8329 20.8496 13.6913 20.7913 13.5746 20.6746C13.4579 20.5579 13.3996 20.4163 13.3996 20.2496C13.3996 20.0829 13.4579 19.9413 13.5746 19.8246L21.3996 11.9996Z" fill="white"/>
</g>
</svg>
