<svg width="21" height="20" viewBox="0 0 21 20" fill="none" xmlns="http://www.w3.org/2000/svg">
<mask id="mask0_82_446" style="mask-type:alpha" maskUnits="userSpaceOnUse" x="0" y="0" width="21" height="20">
<rect x="0.494141" width="20" height="20" fill="#D9D9D9"/>
</mask>
<g mask="url(#mask0_82_446)">
<path d="M6.60938 15.5211V4.47949H10.6606C11.51 4.47949 12.2779 4.74392 12.9643 5.27276C13.6507 5.80161 13.9939 6.51368 13.9939 7.40897C13.9939 8.03182 13.8436 8.53956 13.5428 8.9322C13.2421 9.32483 12.9181 9.60981 12.5709 9.78716C12.9982 9.9346 13.4063 10.226 13.7952 10.6614C14.1841 11.0967 14.3785 11.683 14.3785 12.4202C14.3785 13.4853 13.9859 14.2684 13.2007 14.7695C12.4154 15.2706 11.6243 15.5211 10.8273 15.5211H6.60938ZM8.40098 13.8609H10.76C11.416 13.8609 11.8796 13.6787 12.151 13.3144C12.4224 12.9501 12.5581 12.6007 12.5581 12.2663C12.5581 11.9319 12.4224 11.5825 12.151 11.2182C11.8796 10.8539 11.4031 10.6718 10.7215 10.6718H8.40098V13.8609ZM8.40098 9.06283H10.5629C11.0693 9.06283 11.4707 8.91806 11.7672 8.62853C12.0637 8.33899 12.2119 7.9923 12.2119 7.58845C12.2119 7.15895 12.0551 6.80798 11.7416 6.53553C11.428 6.2631 11.0436 6.12689 10.5885 6.12689H8.40098V9.06283Z" fill="white"/>
</g>
</svg>
