<svg width="21" height="21" viewBox="0 0 21 21" fill="none" xmlns="http://www.w3.org/2000/svg">
<mask id="mask0_82_406" style="mask-type:alpha" maskUnits="userSpaceOnUse" x="0" y="0" width="21" height="21">
<rect x="0.494141" y="0.693604" width="20" height="20" fill="#D9D9D9"/>
</mask>
<g mask="url(#mask0_82_406)">
<path d="M6.60938 16.2145V5.17285H10.6606C11.51 5.17285 12.2779 5.43728 12.9643 5.96612C13.6507 6.49497 13.9939 7.20704 13.9939 8.10233C13.9939 8.72518 13.8436 9.23292 13.5428 9.62556C13.2421 10.0182 12.9181 10.3032 12.5709 10.4805C12.9982 10.628 13.4063 10.9194 13.7952 11.3547C14.1841 11.7901 14.3785 12.3764 14.3785 13.1135C14.3785 14.1787 13.9859 14.9618 13.2007 15.4629C12.4154 15.9639 11.6243 16.2145 10.8273 16.2145H6.60938ZM8.40098 14.5543H10.76C11.416 14.5543 11.8796 14.3721 12.151 14.0078C12.4224 13.6435 12.5581 13.2941 12.5581 12.9597C12.5581 12.6253 12.4224 12.2759 12.151 11.9116C11.8796 11.5473 11.4031 11.3651 10.7215 11.3651H8.40098V14.5543ZM8.40098 9.75618H10.5629C11.0693 9.75618 11.4707 9.61142 11.7672 9.32189C12.0637 9.03235 12.2119 8.68566 12.2119 8.28181C12.2119 7.85231 12.0551 7.50134 11.7416 7.22889C11.428 6.95646 11.0436 6.82025 10.5885 6.82025H8.40098V9.75618Z" fill="#1C1B1F"/>
</g>
</svg>
