<svg width="20" height="20" viewBox="0 0 20 20" fill="none" xmlns="http://www.w3.org/2000/svg">
<mask id="mask0_82_442" style="mask-type:alpha" maskUnits="userSpaceOnUse" x="0" y="0" width="20" height="20">
<rect width="20" height="20" fill="#D9D9D9"/>
</mask>
<g mask="url(#mask0_82_442)">
<path d="M8.83301 12.9228L14.1631 7.59263L13.5734 7.00288L8.83301 11.7433L6.45801 9.36826L5.86826 9.95801L8.83301 12.9228ZM4.67915 16.6663C4.29561 16.6663 3.97537 16.5379 3.71842 16.2809C3.46148 16.024 3.33301 15.7037 3.33301 15.3202V4.67915C3.33301 4.29561 3.46148 3.97537 3.71842 3.71842C3.97537 3.46148 4.29561 3.33301 4.67915 3.33301H15.3202C15.7037 3.33301 16.024 3.46148 16.2809 3.71842C16.5379 3.97537 16.6663 4.29561 16.6663 4.67915V15.3202C16.6663 15.7037 16.5379 16.024 16.2809 16.2809C16.024 16.5379 15.7037 16.6663 15.3202 16.6663H4.67915ZM4.67915 15.833H15.3202C15.4484 15.833 15.5659 15.7796 15.6728 15.6728C15.7796 15.5659 15.833 15.4484 15.833 15.3202V4.67915C15.833 4.55096 15.7796 4.43344 15.6728 4.32659C15.5659 4.21976 15.4484 4.16634 15.3202 4.16634H4.67915C4.55096 4.16634 4.43344 4.21976 4.32659 4.32659C4.21976 4.43344 4.16634 4.55096 4.16634 4.67915V15.3202C4.16634 15.4484 4.21976 15.5659 4.32659 15.6728C4.43344 15.7796 4.55096 15.833 4.67915 15.833Z" fill="#1C1B1F"/>
</g>
</svg>
