<svg width="20" height="21" viewBox="0 0 20 21" fill="none" xmlns="http://www.w3.org/2000/svg">
<mask id="mask0_82_464" style="mask-type:alpha" maskUnits="userSpaceOnUse" x="0" y="0" width="20" height="21">
<rect y="0.306396" width="20" height="20" fill="#D9D9D9"/>
</mask>
<g mask="url(#mask0_82_464)">
<path d="M8.83301 13.2294L14.1631 7.89927L13.5734 7.30952L8.83301 12.0499L6.45801 9.6749L5.86826 10.2646L8.83301 13.2294ZM4.67915 16.973C4.29561 16.973 3.97537 16.8445 3.71842 16.5876C3.46148 16.3306 3.33301 16.0104 3.33301 15.6268V4.98579C3.33301 4.60225 3.46148 4.28201 3.71842 4.02507C3.97537 3.76812 4.29561 3.63965 4.67915 3.63965H15.3202C15.7037 3.63965 16.024 3.76812 16.2809 4.02507C16.5379 4.28201 16.6663 4.60225 16.6663 4.98579V15.6268C16.6663 16.0104 16.5379 16.3306 16.2809 16.5876C16.024 16.8445 15.7037 16.973 15.3202 16.973H4.67915ZM4.67915 16.1396H15.3202C15.4484 16.1396 15.5659 16.0862 15.6728 15.9794C15.7796 15.8726 15.833 15.755 15.833 15.6268V4.98579C15.833 4.8576 15.7796 4.74008 15.6728 4.63323C15.5659 4.5264 15.4484 4.47298 15.3202 4.47298H4.67915C4.55096 4.47298 4.43344 4.5264 4.32659 4.63323C4.21976 4.74008 4.16634 4.8576 4.16634 4.98579V15.6268C4.16634 15.755 4.21976 15.8726 4.32659 15.9794C4.43344 16.0862 4.55096 16.1396 4.67915 16.1396Z" fill="white"/>
</g>
</svg>
