<svg width="42" height="42" viewBox="0 0 42 42" fill="none" xmlns="http://www.w3.org/2000/svg">
<mask id="mask0_71_350" style="mask-type:alpha" maskUnits="userSpaceOnUse" x="0" y="0" width="42" height="42">
<rect width="42" height="42" fill="#D9D9D9"/>
</mask>
<g mask="url(#mask0_71_350)">
<path d="M21.0002 21.8751L11.6377 31.2376C11.521 31.3543 11.3825 31.4199 11.2221 31.4345C11.0617 31.4491 10.9085 31.3835 10.7627 31.2376C10.6169 31.0918 10.5439 30.946 10.5439 30.8001C10.5439 30.6543 10.6169 30.5085 10.7627 30.3626L20.1252 21.0001L10.7627 11.6376C10.646 11.521 10.5804 11.3824 10.5658 11.222C10.5512 11.0616 10.6169 10.9085 10.7627 10.7626C10.9085 10.6168 11.0544 10.5439 11.2002 10.5439C11.346 10.5439 11.4919 10.6168 11.6377 10.7626L21.0002 20.1251L30.3627 10.7626C30.4794 10.646 30.6179 10.5803 30.7783 10.5658C30.9387 10.5512 31.0919 10.6168 31.2377 10.7626C31.3835 10.9085 31.4564 11.0543 31.4564 11.2001C31.4564 11.346 31.3835 11.4918 31.2377 11.6376L21.8752 21.0001L31.2377 30.3626C31.3544 30.4793 31.42 30.6178 31.4346 30.7783C31.4492 30.9387 31.3835 31.0918 31.2377 31.2376C31.0919 31.3835 30.946 31.4564 30.8002 31.4564C30.6544 31.4564 30.5085 31.3835 30.3627 31.2376L21.0002 21.8751Z" fill="#414141"/>
</g>
</svg>
