<svg width="20" height="20" viewBox="0 0 20 20" fill="none" xmlns="http://www.w3.org/2000/svg">
<mask id="mask0_82_436" style="mask-type:alpha" maskUnits="userSpaceOnUse" x="0" y="0" width="20" height="20">
<rect width="20" height="20" fill="#D9D9D9"/>
</mask>
<g mask="url(#mask0_82_436)">
<path d="M9.96796 17.5C8.94658 17.5 7.98237 17.3026 7.07531 16.9079C6.16827 16.5131 5.37634 15.9773 4.69952 15.3005C4.0227 14.6237 3.48691 13.8291 3.09215 12.9167C2.69738 12.0043 2.5 11.0321 2.5 10C2.5 8.95406 2.70165 7.97489 3.10496 7.0625C3.50828 6.15011 4.05796 5.35631 4.754 4.68108C5.45006 4.00588 6.26656 3.47356 7.20352 3.08413C8.14049 2.69471 9.13889 2.5 10.1987 2.5C11.1709 2.5 12.0967 2.66426 12.976 2.99279C13.8552 3.32131 14.629 3.77696 15.2973 4.35977C15.9655 4.94258 16.4997 5.63702 16.8999 6.4431C17.3 7.2492 17.5 8.12821 17.5 9.08012C17.5 10.3675 17.1287 11.3982 16.3862 12.1723C15.6437 12.9463 14.6261 13.3333 13.3333 13.3333H11.8558C11.5064 13.3333 11.2139 13.4535 10.9784 13.6939C10.7428 13.9343 10.625 14.2244 10.625 14.5641C10.625 14.9124 10.7292 15.2081 10.9375 15.4511C11.1458 15.6942 11.25 15.9744 11.25 16.2917C11.25 16.6977 11.1365 17.0005 10.9095 17.2003C10.6824 17.4001 10.3686 17.5 9.96796 17.5ZM5.41667 10.4167C5.64957 10.4167 5.84669 10.336 6.00802 10.1747C6.16934 10.0134 6.25 9.81624 6.25 9.58333C6.25 9.35043 6.16934 9.15331 6.00802 8.99198C5.84669 8.83066 5.64957 8.75 5.41667 8.75C5.18376 8.75 4.98665 8.83066 4.82531 8.99198C4.66399 9.15331 4.58333 9.35043 4.58333 9.58333C4.58333 9.81624 4.66399 10.0134 4.82531 10.1747C4.98665 10.336 5.18376 10.4167 5.41667 10.4167ZM7.91667 7.08333C8.14957 7.08333 8.34669 7.00267 8.50802 6.84135C8.66934 6.68002 8.75 6.4829 8.75 6.25C8.75 6.0171 8.66934 5.81998 8.50802 5.65865C8.34669 5.49733 8.14957 5.41667 7.91667 5.41667C7.68376 5.41667 7.48665 5.49733 7.32531 5.65865C7.16399 5.81998 7.08333 6.0171 7.08333 6.25C7.08333 6.4829 7.16399 6.68002 7.32531 6.84135C7.48665 7.00267 7.68376 7.08333 7.91667 7.08333ZM12.0833 7.08333C12.3162 7.08333 12.5134 7.00267 12.6747 6.84135C12.836 6.68002 12.9167 6.4829 12.9167 6.25C12.9167 6.0171 12.836 5.81998 12.6747 5.65865C12.5134 5.49733 12.3162 5.41667 12.0833 5.41667C11.8504 5.41667 11.6533 5.49733 11.492 5.65865C11.3307 5.81998 11.25 6.0171 11.25 6.25C11.25 6.4829 11.3307 6.68002 11.492 6.84135C11.6533 7.00267 11.8504 7.08333 12.0833 7.08333ZM14.5833 10.4167C14.8162 10.4167 15.0134 10.336 15.1747 10.1747C15.336 10.0134 15.4167 9.81624 15.4167 9.58333C15.4167 9.35043 15.336 9.15331 15.1747 8.99198C15.0134 8.83066 14.8162 8.75 14.5833 8.75C14.3504 8.75 14.1533 8.83066 13.992 8.99198C13.8307 9.15331 13.75 9.35043 13.75 9.58333C13.75 9.81624 13.8307 10.0134 13.992 10.1747C14.1533 10.336 14.3504 10.4167 14.5833 10.4167ZM9.96796 16.6667C10.1143 16.6667 10.2257 16.6346 10.3021 16.5705C10.3785 16.5064 10.4167 16.4135 10.4167 16.2917C10.4167 16.0972 10.3125 15.8894 10.1042 15.6683C9.89583 15.4471 9.79167 15.0833 9.79167 14.5769C9.79167 13.9722 9.99306 13.4749 10.3958 13.0849C10.7986 12.695 11.2917 12.5 11.875 12.5H13.3333C14.3782 12.5 15.195 12.1926 15.7836 11.5777C16.3723 10.9629 16.6667 10.1303 16.6667 9.08012C16.6667 7.38889 16.0163 6.00828 14.7155 4.93829C13.4148 3.86832 11.9092 3.33333 10.1987 3.33333C8.27778 3.33333 6.65331 3.97917 5.32531 5.27083C3.99733 6.5625 3.33333 8.13889 3.33333 10C3.33333 11.8472 3.98264 13.4201 5.28125 14.7188C6.57986 16.0174 8.1421 16.6667 9.96796 16.6667Z" fill="#1C1B1F"/>
</g>
</svg>
