<svg width="20" height="21" viewBox="0 0 20 21" fill="none" xmlns="http://www.w3.org/2000/svg">
<mask id="mask0_82_461" style="mask-type:alpha" maskUnits="userSpaceOnUse" x="0" y="0" width="20" height="21">
<rect y="0.306396" width="20" height="20" fill="#D9D9D9"/>
</mask>
<g mask="url(#mask0_82_461)">
<path d="M9.96796 17.8064C8.94658 17.8064 7.98237 17.609 7.07531 17.2143C6.16827 16.8195 5.37634 16.2837 4.69952 15.6069C4.0227 14.9301 3.48691 14.1355 3.09215 13.2231C2.69738 12.3107 2.5 11.3385 2.5 10.3064C2.5 9.26045 2.70165 8.28129 3.10496 7.3689C3.50828 6.45651 4.05796 5.6627 4.754 4.98748C5.45006 4.31227 6.26656 3.77995 7.20352 3.39052C8.14049 3.00111 9.13889 2.8064 10.1987 2.8064C11.1709 2.8064 12.0967 2.97066 12.976 3.29919C13.8552 3.6277 14.629 4.08336 15.2973 4.66617C15.9655 5.24897 16.4997 5.94342 16.8999 6.7495C17.3 7.5556 17.5 8.4346 17.5 9.38652C17.5 10.6739 17.1287 11.7046 16.3862 12.4787C15.6437 13.2527 14.6261 13.6397 13.3333 13.6397H11.8558C11.5064 13.6397 11.2139 13.7599 10.9784 14.0003C10.7428 14.2407 10.625 14.5308 10.625 14.8705C10.625 15.2188 10.7292 15.5145 10.9375 15.7575C11.1458 16.0006 11.25 16.2808 11.25 16.5981C11.25 17.004 11.1365 17.3069 10.9095 17.5067C10.6824 17.7065 10.3686 17.8064 9.96796 17.8064ZM5.41667 10.7231C5.64957 10.7231 5.84669 10.6424 6.00802 10.4811C6.16934 10.3198 6.25 10.1226 6.25 9.88973C6.25 9.65683 6.16934 9.45971 6.00802 9.29838C5.84669 9.13706 5.64957 9.0564 5.41667 9.0564C5.18376 9.0564 4.98665 9.13706 4.82531 9.29838C4.66399 9.45971 4.58333 9.65683 4.58333 9.88973C4.58333 10.1226 4.66399 10.3198 4.82531 10.4811C4.98665 10.6424 5.18376 10.7231 5.41667 10.7231ZM7.91667 7.38973C8.14957 7.38973 8.34669 7.30907 8.50802 7.14775C8.66934 6.98642 8.75 6.7893 8.75 6.5564C8.75 6.32349 8.66934 6.12638 8.50802 5.96504C8.34669 5.80372 8.14957 5.72306 7.91667 5.72306C7.68376 5.72306 7.48665 5.80372 7.32531 5.96504C7.16399 6.12638 7.08333 6.32349 7.08333 6.5564C7.08333 6.7893 7.16399 6.98642 7.32531 7.14775C7.48665 7.30907 7.68376 7.38973 7.91667 7.38973ZM12.0833 7.38973C12.3162 7.38973 12.5134 7.30907 12.6747 7.14775C12.836 6.98642 12.9167 6.7893 12.9167 6.5564C12.9167 6.32349 12.836 6.12638 12.6747 5.96504C12.5134 5.80372 12.3162 5.72306 12.0833 5.72306C11.8504 5.72306 11.6533 5.80372 11.492 5.96504C11.3307 6.12638 11.25 6.32349 11.25 6.5564C11.25 6.7893 11.3307 6.98642 11.492 7.14775C11.6533 7.30907 11.8504 7.38973 12.0833 7.38973ZM14.5833 10.7231C14.8162 10.7231 15.0134 10.6424 15.1747 10.4811C15.336 10.3198 15.4167 10.1226 15.4167 9.88973C15.4167 9.65683 15.336 9.45971 15.1747 9.29838C15.0134 9.13706 14.8162 9.0564 14.5833 9.0564C14.3504 9.0564 14.1533 9.13706 13.992 9.29838C13.8307 9.45971 13.75 9.65683 13.75 9.88973C13.75 10.1226 13.8307 10.3198 13.992 10.4811C14.1533 10.6424 14.3504 10.7231 14.5833 10.7231ZM9.96796 16.9731C10.1143 16.9731 10.2257 16.941 10.3021 16.8769C10.3785 16.8128 10.4167 16.7199 10.4167 16.5981C10.4167 16.4036 10.3125 16.1958 10.1042 15.9747C9.89583 15.7535 9.79167 15.3897 9.79167 14.8833C9.79167 14.2786 9.99306 13.7813 10.3958 13.3913C10.7986 13.0014 11.2917 12.8064 11.875 12.8064H13.3333C14.3782 12.8064 15.195 12.499 15.7836 11.8841C16.3723 11.2693 16.6667 10.4367 16.6667 9.38652C16.6667 7.69529 16.0163 6.31467 14.7155 5.24469C13.4148 4.17472 11.9092 3.63973 10.1987 3.63973C8.27778 3.63973 6.65331 4.28556 5.32531 5.57723C3.99733 6.8689 3.33333 8.44529 3.33333 10.3064C3.33333 12.1536 3.98264 13.7265 5.28125 15.0251C6.57986 16.3238 8.1421 16.9731 9.96796 16.9731Z" fill="white"/>
</g>
</svg>
