<svg width="74" height="74" viewBox="0 0 74 74" fill="none" xmlns="http://www.w3.org/2000/svg">
<path d="M36.9981 55.3419C37.6687 55.3419 38.2043 55.1422 38.6049 54.7428C39.0055 54.3434 39.2058 53.8085 39.2058 53.138C39.2058 52.4674 39.0061 51.9318 38.6067 51.5312C38.2073 51.1306 37.6724 50.9303 37.0019 50.9303C36.3313 50.9303 35.7957 51.13 35.3951 51.5294C34.9945 51.9288 34.7942 52.4638 34.7942 53.1344C34.7942 53.8049 34.9939 54.3404 35.3933 54.741C35.7927 55.1416 36.3276 55.3419 36.9981 55.3419ZM37.171 42.0678C37.6263 42.0678 38.0001 41.9165 38.2926 41.6141C38.5851 41.3117 38.7314 40.9359 38.7314 40.4865V18.3577C38.7314 17.9084 38.5782 17.5325 38.2719 17.2301C37.9655 16.9277 37.5846 16.7765 37.1294 16.7765C36.6742 16.7765 36.3003 16.9277 36.0078 17.2301C35.7153 17.5325 35.569 17.9084 35.569 18.3577V40.4865C35.569 40.9359 35.7222 41.3117 36.0286 41.6141C36.335 41.9165 36.7158 42.0678 37.171 42.0678ZM37.0411 74C31.8902 74 27.0838 73.0291 22.622 71.0874C18.1601 69.1456 14.2461 66.4931 10.88 63.1301C7.51384 59.7671 4.85899 55.8542 2.91539 51.3916C0.971798 46.9288 0 42.1191 0 36.9624C0 31.8584 0.970874 27.0597 2.91262 22.5664C4.85443 18.0731 7.50686 14.1605 10.8699 10.8286C14.2329 7.49672 18.1458 4.85899 22.6084 2.9154C27.0712 0.971801 31.8809 0 37.0376 0C42.1416 0 46.9403 0.970872 51.4336 2.91262C55.9269 4.85443 59.8395 7.48972 63.1714 10.8185C66.5033 14.1473 69.141 18.0616 71.0846 22.5616C73.0282 27.0616 74 31.8607 74 36.9589C74 42.1098 73.0291 46.9162 71.0874 51.378C69.1456 55.8399 66.5103 59.7475 63.1815 63.101C59.8527 66.4546 55.9384 69.1095 51.4384 71.0657C46.9384 73.0219 42.1393 74 37.0411 74ZM37.0514 70.8376C46.4305 70.8376 54.4064 67.5474 60.9789 60.967C67.5514 54.3866 70.8376 46.3805 70.8376 36.9486C70.8376 27.5695 67.5578 19.5936 60.9981 13.0211C54.4385 6.44862 46.4391 3.16237 37 3.16237C27.6024 3.16237 19.6134 6.44221 13.033 13.0019C6.45259 19.5615 3.16237 27.5609 3.16237 37C3.16237 46.3976 6.45259 54.3866 13.033 60.967C19.6134 67.5474 27.6195 70.8376 37.0514 70.8376Z" fill="#202020"/>
</svg>
