<svg width="110" height="110" viewBox="0 0 110 110" fill="none" xmlns="http://www.w3.org/2000/svg">
<mask id="mask0_212_529" style="mask-type:alpha" maskUnits="userSpaceOnUse" x="0" y="0" width="110" height="110">
<rect width="110" height="110" fill="#D9D9D9"/>
</mask>
<g mask="url(#mask0_212_529)">
<path d="M54.9979 75.4488C55.7456 75.4488 56.3427 75.2261 56.7892 74.7809C57.2359 74.3356 57.4592 73.7392 57.4592 72.9916C57.4592 72.244 57.2366 71.6469 56.7913 71.2004C56.346 70.7537 55.7496 70.5304 55.0021 70.5304C54.2544 70.5304 53.6574 70.753 53.2108 71.1983C52.7641 71.6436 52.5408 72.24 52.5408 72.9876C52.5408 73.7352 52.7635 74.3322 53.2087 74.7788C53.654 75.2255 54.2504 75.4488 54.9979 75.4488ZM55.1907 60.6499C55.6982 60.6499 56.115 60.4813 56.4411 60.1441C56.7672 59.807 56.9303 59.388 56.9303 58.887V34.2163C56.9303 33.7154 56.7595 33.2964 56.418 32.9592C56.0764 32.6221 55.6518 32.4536 55.1443 32.4536C54.6367 32.4536 54.2199 32.6221 53.8938 32.9592C53.5677 33.2964 53.4047 33.7154 53.4047 34.2163V58.887C53.4047 59.388 53.5755 59.807 53.9171 60.1441C54.2586 60.4813 54.6831 60.6499 55.1907 60.6499ZM55.0458 96.25C49.3032 96.25 43.9448 95.1676 38.9705 93.0028C33.9961 90.838 29.6325 87.8809 25.8797 84.1316C22.1269 80.3822 19.1671 76.0199 17.0003 71.0447C14.8334 66.0693 13.75 60.7071 13.75 54.9581C13.75 49.2678 14.8324 43.9179 16.9972 38.9085C19.162 33.8991 22.1191 29.537 25.8684 25.8224C29.6178 22.1078 33.9801 19.1671 38.9554 17.0003C43.9307 14.8334 49.2929 13.75 55.0419 13.75C60.7322 13.75 66.0821 14.8324 71.0915 16.9972C76.1009 19.162 80.463 22.1 84.1776 25.8112C87.8922 29.5223 90.8329 33.8863 92.9997 38.9031C95.1666 43.92 96.25 49.2704 96.25 54.9542C96.25 60.6968 95.1676 66.0552 93.0028 71.0295C90.838 76.0039 87.9 80.3604 84.1889 84.0991C80.4777 87.8379 76.1137 90.7978 71.0969 92.9787C66.08 95.1596 60.7296 96.25 55.0458 96.25ZM55.0573 92.7244C65.5138 92.7244 74.4058 89.0562 81.7332 81.7199C89.0607 74.3837 92.7244 65.4579 92.7244 54.9427C92.7244 44.4862 89.0678 35.5942 81.7546 28.2668C74.4415 20.9393 65.5233 17.2756 55 17.2756C44.523 17.2756 35.6163 20.9322 28.2801 28.2454C20.9438 35.5585 17.2756 44.4767 17.2756 55C17.2756 65.477 20.9438 74.3837 28.2801 81.7199C35.6163 89.0562 44.5421 92.7244 55.0573 92.7244Z" fill="white"/>
</g>
</svg>
