<svg width="40" height="40" viewBox="0 0 40 40" fill="none" xmlns="http://www.w3.org/2000/svg">
<mask id="mask0_991_800" style="mask-type:alpha" maskUnits="userSpaceOnUse" x="0" y="0" width="40" height="40">
<rect width="40" height="40" fill="#D9D9D9"/>
</mask>
<g mask="url(#mask0_991_800)">
<path d="M11.666 35C10.7493 35 9.96463 34.6736 9.31185 34.0208C8.65907 33.3681 8.33268 32.5833 8.33268 31.6667V10C7.86046 10 7.46463 9.84028 7.14518 9.52083C6.82574 9.20139 6.66602 8.80556 6.66602 8.33333C6.66602 7.86111 6.82574 7.46528 7.14518 7.14583C7.46463 6.82639 7.86046 6.66667 8.33268 6.66667H14.9993C14.9993 6.19444 15.1591 5.79861 15.4785 5.47917C15.798 5.15972 16.1938 5 16.666 5H23.3327C23.8049 5 24.2007 5.15972 24.5202 5.47917C24.8396 5.79861 24.9993 6.19444 24.9993 6.66667H31.666C32.1382 6.66667 32.5341 6.82639 32.8535 7.14583C33.173 7.46528 33.3327 7.86111 33.3327 8.33333C33.3327 8.80556 33.173 9.20139 32.8535 9.52083C32.5341 9.84028 32.1382 10 31.666 10V31.6667C31.666 32.5833 31.3396 33.3681 30.6868 34.0208C30.0341 34.6736 29.2493 35 28.3327 35H11.666ZM16.666 28.3333C17.1382 28.3333 17.5341 28.1736 17.8535 27.8542C18.173 27.5347 18.3327 27.1389 18.3327 26.6667V15C18.3327 14.5278 18.173 14.1319 17.8535 13.8125C17.5341 13.4931 17.1382 13.3333 16.666 13.3333C16.1938 13.3333 15.798 13.4931 15.4785 13.8125C15.1591 14.1319 14.9993 14.5278 14.9993 15V26.6667C14.9993 27.1389 15.1591 27.5347 15.4785 27.8542C15.798 28.1736 16.1938 28.3333 16.666 28.3333ZM23.3327 28.3333C23.8049 28.3333 24.2007 28.1736 24.5202 27.8542C24.8396 27.5347 24.9993 27.1389 24.9993 26.6667V15C24.9993 14.5278 24.8396 14.1319 24.5202 13.8125C24.2007 13.4931 23.8049 13.3333 23.3327 13.3333C22.8605 13.3333 22.4646 13.4931 22.1452 13.8125C21.8257 14.1319 21.666 14.5278 21.666 15V26.6667C21.666 27.1389 21.8257 27.5347 22.1452 27.8542C22.4646 28.1736 22.8605 28.3333 23.3327 28.3333Z" fill="white"/>
</g>
</svg>
