<svg width="28" height="28" viewBox="0 0 28 28" fill="none" xmlns="http://www.w3.org/2000/svg">
<path d="M23.7336 22.4473C23.8181 22.5318 23.8851 22.632 23.9308 22.7424C23.9765 22.8527 24 22.971 24 23.0904C24 23.2099 23.9765 23.3282 23.9308 23.4385C23.8851 23.5489 23.8181 23.6491 23.7336 23.7336C23.6491 23.8181 23.5489 23.8851 23.4385 23.9308C23.3282 23.9765 23.2099 24 23.0905 24C22.971 24 22.8527 23.9765 22.7424 23.9308C22.632 23.8851 22.5318 23.8181 22.4473 23.7336L13.357 14.6431C13.2724 14.5587 13.2054 14.4585 13.1596 14.3481C13.1139 14.2378 13.0904 14.1195 13.0904 14C13.0904 13.8805 13.1139 13.7622 13.1596 13.6519C13.2054 13.5415 13.2724 13.4413 13.357 13.3568L22.4473 4.2664C22.6179 4.09583 22.8492 4 23.0905 4C23.3317 4 23.563 4.09583 23.7336 4.2664C23.9042 4.43697 24 4.66832 24 4.90955C24 5.15078 23.9042 5.38213 23.7336 5.5527L15.2853 14L23.7336 22.4473ZM6.1949 14L14.6432 5.5527C14.8138 5.38213 14.9096 5.15078 14.9096 4.90955C14.9096 4.66832 14.8138 4.43697 14.6432 4.2664C14.4727 4.09583 14.2413 4 14.0001 4C13.7589 4 13.5275 4.09583 13.357 4.2664L4.26661 13.3568C4.18209 13.4413 4.11504 13.5415 4.06929 13.6519C4.02355 13.7622 4 13.8805 4 14C4 14.1195 4.02355 14.2378 4.06929 14.3481C4.11504 14.4585 4.18209 14.5587 4.26661 14.6431L13.357 23.7336C13.4414 23.8181 13.5417 23.8851 13.652 23.9308C13.7624 23.9765 13.8807 24 14.0001 24C14.1195 24 14.2378 23.9765 14.3482 23.9308C14.4585 23.8851 14.5588 23.8181 14.6432 23.7336C14.7277 23.6491 14.7947 23.5489 14.8404 23.4385C14.8861 23.3282 14.9096 23.2099 14.9096 23.0904C14.9096 22.971 14.8861 22.8527 14.8404 22.7424C14.7947 22.632 14.7277 22.5318 14.6432 22.4473L6.1949 14Z" fill="white"/>
</svg>
