<svg width="28" height="28" viewBox="0 0 28 28" fill="none" xmlns="http://www.w3.org/2000/svg">
<path d="M4.2664 22.4473C4.18194 22.5318 4.11494 22.632 4.06924 22.7424C4.02353 22.8527 4 22.971 4 23.0904C4 23.2099 4.02353 23.3282 4.06924 23.4385C4.11494 23.5489 4.18194 23.6491 4.2664 23.7336C4.35086 23.8181 4.45112 23.8851 4.56147 23.9308C4.67183 23.9765 4.7901 24 4.90954 24C5.02898 24 5.14726 23.9765 5.25761 23.9308C5.36796 23.8851 5.46823 23.8181 5.55268 23.7336L14.643 14.6431C14.7276 14.5587 14.7946 14.4585 14.8404 14.3481C14.8861 14.2378 14.9096 14.1195 14.9096 14C14.9096 13.8805 14.8861 13.7622 14.8404 13.6519C14.7946 13.5415 14.7276 13.4413 14.643 13.3568L5.55268 4.2664C5.38211 4.09583 5.15077 4 4.90954 4C4.66832 4 4.43697 4.09583 4.2664 4.2664C4.09583 4.43697 4 4.66832 4 4.90955C4 5.15078 4.09583 5.38213 4.2664 5.5527L12.7147 14L4.2664 22.4473ZM21.8051 14L13.3568 5.5527C13.1862 5.38213 13.0904 5.15078 13.0904 4.90955C13.0904 4.66832 13.1862 4.43697 13.3568 4.2664C13.5273 4.09583 13.7587 4 13.9999 4C14.2411 4 14.4725 4.09583 14.643 4.2664L23.7334 13.3568C23.8179 13.4413 23.885 13.5415 23.9307 13.6519C23.9765 13.7622 24 13.8805 24 14C24 14.1195 23.9765 14.2378 23.9307 14.3481C23.885 14.4585 23.8179 14.5587 23.7334 14.6431L14.643 23.7336C14.5586 23.8181 14.4583 23.8851 14.348 23.9308C14.2376 23.9765 14.1193 24 13.9999 24C13.8805 24 13.7622 23.9765 13.6518 23.9308C13.5415 23.8851 13.4412 23.8181 13.3568 23.7336C13.2723 23.6491 13.2053 23.5489 13.1596 23.4385C13.1139 23.3282 13.0904 23.2099 13.0904 23.0904C13.0904 22.971 13.1139 22.8527 13.1596 22.7424C13.2053 22.632 13.2723 22.5318 13.3568 22.4473L21.8051 14Z" fill="black"/>
</svg>
