<svg width="36" height="36" viewBox="0 0 36 36" fill="none" xmlns="http://www.w3.org/2000/svg">
<mask id="mask0_181_159" style="mask-type:alpha" maskUnits="userSpaceOnUse" x="0" y="0" width="36" height="36">
<rect width="36" height="36" fill="#D9D9D9"/>
</mask>
<g mask="url(#mask0_181_159)">
<path d="M7.49996 28.5H9.39225L24.7471 13.1451L22.8548 11.2528L7.49996 26.6077V28.5ZM6.60577 30.7499C6.22165 30.7499 5.89966 30.62 5.63981 30.3601C5.37994 30.1003 5.25 29.7783 5.25 29.3942V26.7952C5.25 26.4294 5.3202 26.0807 5.4606 25.7492C5.60097 25.4177 5.79424 25.1289 6.04039 24.8827L25.0356 5.89616C25.2624 5.69014 25.5129 5.53094 25.787 5.41856C26.061 5.30619 26.3484 5.25 26.6492 5.25C26.9499 5.25 27.2413 5.30338 27.5232 5.41013C27.8051 5.51685 28.0547 5.68655 28.272 5.91923L30.1038 7.77401C30.3365 7.99131 30.5023 8.24136 30.6014 8.52416C30.7004 8.80694 30.7499 9.08971 30.7499 9.37249C30.7499 9.67411 30.6984 9.96196 30.5954 10.236C30.4924 10.5101 30.3285 10.7606 30.1038 10.9874L11.1172 29.9595C10.8711 30.2057 10.5822 30.399 10.2507 30.5393C9.91921 30.6797 9.57055 30.7499 9.20475 30.7499H6.60577ZM23.7844 12.2156L22.8548 11.2528L24.7471 13.1451L23.7844 12.2156Z" fill="#C8C8C8"/>
</g>
</svg>
