<svg width="40" height="40" viewBox="0 0 40 40" fill="none" xmlns="http://www.w3.org/2000/svg">
<mask id="mask0_170_393" style="mask-type:alpha" maskUnits="userSpaceOnUse" x="0" y="0" width="40" height="40">
<rect width="40" height="40" fill="white"/>
</mask>
<g mask="url(#mask0_170_393)">
<path d="M7.13691 34.1667C6.7628 34.1667 6.45204 34.043 6.20462 33.7956C5.9572 33.5482 5.8335 33.2374 5.8335 32.8633V30.4606C5.8335 30.1068 5.90401 29.7664 6.04504 29.4394C6.18607 29.1124 6.37625 28.8328 6.61558 28.6006L28.7705 6.44459C28.9698 6.26412 29.1982 6.11999 29.4557 6.01221C29.7133 5.90446 29.9828 5.85059 30.2642 5.85059C30.5343 5.85059 30.7978 5.90132 31.0548 6.00279C31.3118 6.10429 31.5461 6.25441 31.7576 6.45313L33.5727 8.27684C33.7828 8.48123 33.9343 8.71417 34.0273 8.97567C34.1203 9.23717 34.1667 9.49867 34.1667 9.76017C34.1667 10.0312 34.1152 10.2983 34.0121 10.5615C33.9091 10.8248 33.7626 11.056 33.5727 11.2554L11.3996 33.3846C11.1675 33.624 10.8878 33.8141 10.5608 33.9552C10.2338 34.0962 9.89337 34.1667 9.53962 34.1667H7.13691ZM29.9691 11.8259L32.0557 9.75542L30.2726 7.96163L28.1914 10.0482L29.9691 11.8259Z" fill="white"/>
</g>
</svg>
