<svg width="20" height="20" viewBox="0 0 20 20" fill="none" xmlns="http://www.w3.org/2000/svg">
<mask id="mask0_82_474" style="mask-type:alpha" maskUnits="userSpaceOnUse" x="0" y="0" width="20" height="20">
<rect width="20" height="20" fill="#D9D9D9"/>
</mask>
<g mask="url(#mask0_82_474)">
<path d="M8.84615 13.3974H5.89744C4.95748 13.3974 4.15625 13.0663 3.49375 12.4039C2.83125 11.7416 2.5 10.9406 2.5 10.0009C2.5 9.06118 2.83125 8.25987 3.49375 7.59694C4.15625 6.934 4.95748 6.60254 5.89744 6.60254H8.84615V7.43587H5.89744C5.19231 7.43587 4.58868 7.68694 4.08654 8.18908C3.5844 8.69122 3.33333 9.29485 3.33333 9.99998C3.33333 10.7051 3.5844 11.3087 4.08654 11.8109C4.58868 12.313 5.19231 12.5641 5.89744 12.5641H8.84615V13.3974ZM7.08333 10.4166V9.58331H12.9167V10.4166H7.08333ZM11.1539 13.3974V12.5641H14.1026C14.8077 12.5641 15.4113 12.313 15.9135 11.8109C16.4156 11.3087 16.6667 10.7051 16.6667 9.99998C16.6667 9.29485 16.4156 8.69122 15.9135 8.18908C15.4113 7.68694 14.8077 7.43587 14.1026 7.43587H11.1539V6.60254H14.1026C15.0425 6.60254 15.8438 6.9337 16.5063 7.59602C17.1688 8.25835 17.5 9.05937 17.5 9.99908C17.5 10.9388 17.1688 11.7401 16.5063 12.403C15.8438 13.066 15.0425 13.3974 14.1026 13.3974H11.1539Z" fill="white"/>
</g>
</svg>
