<svg width="30" height="30" viewBox="0 0 30 30" fill="none" xmlns="http://www.w3.org/2000/svg">
<mask id="mask0_32_338" style="mask-type:alpha" maskUnits="userSpaceOnUse" x="0" y="0" width="30" height="30">
<rect width="30" height="30" fill="#D9D9D9"/>
</mask>
<g mask="url(#mask0_32_338)">
<path d="M11.238 17.4495H21.9663L18.6707 13.0192L15.4519 17.0697L13.375 14.6154L11.238 17.4495ZM9.27884 21.8269C8.79847 21.8269 8.38992 21.6586 8.05319 21.3218C7.71644 20.9851 7.54806 20.5765 7.54806 20.0962V5.48075C7.54806 5.00039 7.71644 4.59184 8.05319 4.25509C8.38992 3.91837 8.79847 3.75 9.27884 3.75H23.8943C24.3746 3.75 24.7832 3.91837 25.1199 4.25509C25.4566 4.59184 25.625 5.00039 25.625 5.48075V20.0962C25.625 20.5765 25.4566 20.9851 25.1199 21.3218C24.7832 21.6586 24.3746 21.8269 23.8943 21.8269H9.27884ZM9.27884 20.8654H23.8943C24.0865 20.8654 24.2628 20.7853 24.4231 20.625C24.5833 20.4648 24.6635 20.2885 24.6635 20.0962V5.48075C24.6635 5.28846 24.5833 5.11218 24.4231 4.95191C24.2628 4.79166 24.0865 4.71153 23.8943 4.71153H9.27884C9.08653 4.71153 8.91025 4.79166 8.75 4.95191C8.58975 5.11218 8.50963 5.28846 8.50963 5.48075V20.0962C8.50963 20.2885 8.58975 20.4648 8.75 20.625C8.91025 20.7853 9.08653 20.8654 9.27884 20.8654ZM6.10575 25C5.6254 25 5.21684 24.8316 4.88009 24.4949C4.54336 24.1582 4.375 23.7496 4.375 23.2692V7.69231H5.33653V23.2692C5.33653 23.4616 5.41666 23.6378 5.57691 23.7981C5.73718 23.9583 5.91346 24.0385 6.10575 24.0385H21.6827V25H6.10575Z" fill="#1C1B1F"/>
</g>
</svg>
