<svg width="40" height="40" viewBox="0 0 40 40" fill="none" xmlns="http://www.w3.org/2000/svg">
<path d="M9.61656 23.0132V19.9999H12.6282V23.0132H9.61656ZM6.60156 19.9999V16.9866H9.61323V19.9999H6.60156ZM19.9999 9.61656V6.60156H23.0132V9.61323L19.9999 9.61656ZM8.07656 14.1666H14.1666V8.07656H8.07656V14.1666ZM8.07656 31.9232H14.4232V25.8332H8.07656V31.9232ZM25.8332 14.1666H31.9232V8.07656H25.8332V14.1666ZM15.6416 23.0132V19.9999H12.6282V16.9866H18.6532V23.0132H15.6416ZM16.9866 15.6416V9.6149L19.9999 9.61656V12.6282H23.0132V15.6416H16.9866ZM10.0632 12.1799V10.0632H12.1799V12.1799H10.0632ZM10.2882 29.7116V27.5949H12.4049V29.7116H10.2882ZM27.8216 12.1782V10.0649H29.9366V12.1816L27.8216 12.1782ZM26.7299 28.3966H22.5632C22.3277 28.3966 22.1299 28.3171 21.9699 28.1582C21.8099 27.9982 21.7299 27.7999 21.7299 27.5632C21.7299 27.3266 21.8099 27.1288 21.9699 26.9699C22.1299 26.8099 22.3277 26.7299 22.5632 26.7299H26.7299V22.5632C26.7299 22.3277 26.8099 22.1299 26.9699 21.9699C27.1299 21.8099 27.3282 21.7299 27.5649 21.7299C27.8016 21.7299 27.9993 21.8099 28.1582 21.9699C28.3171 22.1299 28.3966 22.3277 28.3966 22.5632V26.7299H32.5632C32.7999 26.7299 32.9982 26.8099 33.1582 26.9699C33.3182 27.1299 33.3977 27.3282 33.3966 27.5649C33.3966 27.8016 33.3171 27.9993 33.1582 28.1582C32.9982 28.3171 32.7999 28.3966 32.5632 28.3966H28.3966V32.5632C28.3966 32.7999 28.3171 32.9982 28.1582 33.1582C27.9993 33.3182 27.801 33.3977 27.5632 33.3966C27.3266 33.3966 27.1288 33.3171 26.9699 33.1582C26.811 32.9993 26.731 32.801 26.7299 32.5632V28.3966ZM6.60323 14.2949V7.94823C6.60323 7.56712 6.73212 7.24767 6.9899 6.9899C7.24767 6.73212 7.56712 6.60323 7.94823 6.60323H14.2949C14.676 6.60323 14.9955 6.73212 15.2532 6.9899C15.5121 7.24767 15.6416 7.56712 15.6416 7.94823V14.2949C15.6416 14.676 15.5121 14.9955 15.2532 15.2532C14.9955 15.5121 14.676 15.6416 14.2949 15.6416H7.94823C7.56712 15.6416 7.24767 15.5121 6.9899 15.2532C6.73212 14.9955 6.60323 14.676 6.60323 14.2949ZM6.60323 32.0516V25.7049C6.60323 25.3238 6.73212 25.0043 6.9899 24.7466C7.24767 24.4877 7.56712 24.3582 7.94823 24.3582H14.5516C14.9327 24.3582 15.2521 24.4877 15.5099 24.7466C15.7677 25.0043 15.8966 25.3238 15.8966 25.7049V32.0516C15.8966 32.4327 15.7677 32.7521 15.5099 33.0099C15.2521 33.2677 14.9327 33.3966 14.5516 33.3966H7.94823C7.56712 33.3966 7.24767 33.2677 6.9899 33.0099C6.73212 32.7521 6.60323 32.4327 6.60323 32.0516ZM24.3582 14.2949V7.94823C24.3582 7.56712 24.4877 7.24767 24.7466 6.9899C25.0043 6.73212 25.3238 6.60323 25.7049 6.60323H32.0516C32.4327 6.60323 32.7521 6.73212 33.0099 6.9899C33.2677 7.24767 33.3966 7.56712 33.3966 7.94823V14.2949C33.3966 14.676 33.2677 14.9955 33.0099 15.2532C32.7521 15.5121 32.4327 15.6416 32.0516 15.6416H25.7049C25.3238 15.6416 25.0043 15.5121 24.7466 15.2532C24.4877 14.9955 24.3582 14.676 24.3582 14.2949Z" fill="white"/>
</svg>
