<svg width="30" height="30" viewBox="0 0 30 30" fill="none" xmlns="http://www.w3.org/2000/svg">
<mask id="mask0_41_2354" style="mask-type:alpha" maskUnits="userSpaceOnUse" x="0" y="0" width="30" height="30">
<rect width="30" height="30" fill="#D9D9D9"/>
</mask>
<g mask="url(#mask0_41_2354)">
<path d="M11.625 22.5C9.99839 22.5 8.61177 21.9255 7.46515 20.7764C6.3185 19.6274 5.74518 18.242 5.74518 16.6202C5.74518 14.9984 6.3185 13.621 7.46515 12.488C8.61177 11.355 9.99839 10.7885 11.625 10.7885H21.8942L18.0433 6.9375L18.7308 6.25L23.75 11.2692L18.7308 16.2885L18.0433 15.601L21.8942 11.75H11.6178C10.2396 11.75 9.0765 12.2224 8.12858 13.1671C7.18067 14.1118 6.70671 15.2628 6.70671 16.6202C6.70671 17.9936 7.18067 19.1566 8.12858 20.1094C9.0765 21.0621 10.2396 21.5385 11.6178 21.5385H21.0409V22.5H11.625Z" fill="white"/>
</g>
</svg>
