<svg width="30" height="30" viewBox="0 0 30 30" fill="none" xmlns="http://www.w3.org/2000/svg">
<mask id="mask0_32_335" style="mask-type:alpha" maskUnits="userSpaceOnUse" x="0" y="0" width="30" height="30">
<rect width="30" height="30" fill="#D9D9D9"/>
</mask>
<g mask="url(#mask0_32_335)">
<path d="M11.6249 22.5C9.99833 22.5 8.61171 21.9255 7.46509 20.7764C6.31844 19.6274 5.74512 18.242 5.74512 16.6202C5.74512 14.9984 6.31844 13.621 7.46509 12.488C8.61171 11.355 9.99833 10.7885 11.6249 10.7885H21.8941L18.0432 6.9375L18.7307 6.25L23.7499 11.2692L18.7307 16.2885L18.0432 15.601L21.8941 11.75H11.6177C10.2395 11.75 9.07644 12.2224 8.12852 13.1671C7.18061 14.1118 6.70665 15.2628 6.70665 16.6202C6.70665 17.9936 7.18061 19.1566 8.12852 20.1094C9.07644 21.0621 10.2395 21.5385 11.6177 21.5385H21.0408V22.5H11.6249Z" fill="#1C1B1F"/>
</g>
</svg>
