<svg width="40" height="40" viewBox="0 0 40 40" fill="none" xmlns="http://www.w3.org/2000/svg">
<mask id="mask0_34_1490" style="mask-type:alpha" maskUnits="userSpaceOnUse" x="0" y="0" width="40" height="40">
<rect width="40" height="40" fill="#D9D9D9"/>
</mask>
<g mask="url(#mask0_34_1490)">
<path d="M15.8695 26.7586L30.8428 11.7639C30.9794 11.6428 31.1433 11.577 31.3346 11.5663C31.526 11.5556 31.7 11.622 31.8567 11.7654C31.9991 11.923 32.0703 12.0956 32.0703 12.283C32.0703 12.4704 31.9991 12.6354 31.8567 12.7778L16.7242 27.9103C16.482 28.1525 16.1971 28.2735 15.8695 28.2735C15.5419 28.2735 15.257 28.1525 15.0148 27.9103L8.13659 21.0321C8.00126 20.8955 7.92985 20.7316 7.92238 20.5403C7.91491 20.3489 7.99001 20.1749 8.14767 20.0182C8.30534 19.8758 8.47431 19.8045 8.65459 19.8045C8.8349 19.8045 9.0034 19.8758 9.16009 20.0182L15.8695 26.7586Z" fill="#C8C8C8"/>
</g>
</svg>
