<svg width="30" height="30" viewBox="0 0 30 30" fill="none" xmlns="http://www.w3.org/2000/svg">
<mask id="mask0_82_358" style="mask-type:alpha" maskUnits="userSpaceOnUse" x="0" y="0" width="30" height="30">
<rect width="30" height="30" fill="#D9D9D9"/>
</mask>
<g mask="url(#mask0_82_358)">
<path d="M5 23.2692V6.73075C5 6.26721 5.17257 5.86287 5.51772 5.51772C5.86286 5.17257 6.26721 5 6.73075 5H23.2693C23.7328 5 24.1371 5.17257 24.4823 5.51772C24.8274 5.86287 25 6.26721 25 6.73075V23.2692C25 23.7328 24.8274 24.1371 24.4823 24.4823C24.1371 24.8274 23.7328 25 23.2693 25H6.73075C6.26721 25 5.86286 24.8274 5.51772 24.4823C5.17257 24.1371 5 23.7328 5 23.2692ZM5.96153 11.1538H24.0385V6.73075C24.0385 6.50639 23.9664 6.3221 23.8221 6.17788C23.6779 6.03365 23.4936 5.96153 23.2693 5.96153H6.73075C6.5064 5.96153 6.3221 6.03365 6.17788 6.17788C6.03365 6.3221 5.96153 6.50639 5.96153 6.73075V11.1538ZM12.3077 17.5962H17.6923V12.1154H12.3077V17.5962ZM12.3077 24.0385H17.6923V18.5577H12.3077V24.0385ZM5.96153 17.5962H11.3462V12.1154H5.96153V17.5962ZM18.6538 17.5962H24.0385V12.1154H18.6538V17.5962ZM6.73075 24.0385H11.3462V18.5577H5.96153V23.2692C5.96153 23.4936 6.03365 23.6779 6.17788 23.8221C6.3221 23.9664 6.5064 24.0385 6.73075 24.0385ZM18.6538 24.0385H23.2693C23.4936 24.0385 23.6779 23.9664 23.8221 23.8221C23.9664 23.6779 24.0385 23.4936 24.0385 23.2692V18.5577H18.6538V24.0385Z" fill="#1C1B1F"/>
</g>
</svg>
