<svg width="20" height="21" viewBox="0 0 20 21" fill="none" xmlns="http://www.w3.org/2000/svg">
<mask id="mask0_82_449" style="mask-type:alpha" maskUnits="userSpaceOnUse" x="0" y="0" width="20" height="21">
<rect y="0.306396" width="20" height="20" fill="#D9D9D9"/>
</mask>
<g mask="url(#mask0_82_449)">
<path d="M4.7439 16.3477V15.5143H15.2567V16.3477H4.7439ZM10.0003 13.6874C8.81122 13.6874 7.87852 13.3381 7.20223 12.6393C6.52595 11.9406 6.18781 10.9919 6.18781 9.7932V3.49512H7.13173V9.82203C7.13173 10.728 7.38493 11.4454 7.89133 11.9743C8.39775 12.5031 9.10074 12.7676 10.0003 12.7676C10.8999 12.7676 11.6029 12.5031 12.1093 11.9743C12.6157 11.4454 12.8689 10.728 12.8689 9.82203V3.49512H13.8128V9.7932C13.8128 10.9919 13.4747 11.9406 12.7984 12.6393C12.1221 13.3381 11.1894 13.6874 10.0003 13.6874Z" fill="white"/>
</g>
</svg>
