<svg width="20" height="20" viewBox="0 0 20 20" fill="none" xmlns="http://www.w3.org/2000/svg">
<mask id="mask0_82_388" style="mask-type:alpha" maskUnits="userSpaceOnUse" x="0" y="0" width="20" height="20">
<rect width="20" height="20" fill="#D9D9D9"/>
</mask>
<g mask="url(#mask0_82_388)">
<path d="M4.7439 16.0413V15.2079H15.2567V16.0413H4.7439ZM10.0003 13.381C8.81122 13.381 7.87852 13.0317 7.20223 12.3329C6.52595 11.6342 6.18781 10.6855 6.18781 9.4868V3.18872H7.13173V9.51564C7.13173 10.4216 7.38493 11.139 7.89133 11.6679C8.39775 12.1967 9.10074 12.4612 10.0003 12.4612C10.8999 12.4612 11.6029 12.1967 12.1093 11.6679C12.6157 11.139 12.8689 10.4216 12.8689 9.51564V3.18872H13.8128V9.4868C13.8128 10.6855 13.4747 11.6342 12.7984 12.3329C12.1221 13.0317 11.1894 13.381 10.0003 13.381Z" fill="#1C1B1F"/>
</g>
</svg>
