<svg width="30" height="30" viewBox="0 0 40 40" fill="none" xmlns="http://www.w3.org/2000/svg">
<mask id="mask0_41_2351" style="mask-type:alpha" maskUnits="userSpaceOnUse" x="0" y="0" width="40" height="40">
<rect width="40" height="40" fill="#D9D9D9"/>
</mask>
<g mask="url(#mask0_41_2351)">
<path d="M11.9455 30.0002V28.7181H24.5416C26.3579 28.7181 27.898 28.083 29.1619 26.8127C30.4257 25.5424 31.0577 23.9916 31.0577 22.1604C31.0577 20.3506 30.4257 18.8159 29.1619 17.5562C27.898 16.2966 26.3579 15.6668 24.5416 15.6668H10.8077L15.9423 20.8015L15.0256 21.7181L8.33331 15.0258L15.0256 8.3335L15.9423 9.25016L10.8077 14.3848H24.5C26.6688 14.3848 28.5176 15.1401 30.0464 16.6508C31.5753 18.1615 32.3397 19.998 32.3397 22.1604C32.3397 24.3228 31.5753 26.17 30.0464 27.7021C28.5176 29.2341 26.6688 30.0002 24.5 30.0002H11.9455Z" fill="white"/>
</g>
</svg>
