<svg width="30" height="30" viewBox="0 0 30 30" fill="none" xmlns="http://www.w3.org/2000/svg">
<mask id="mask0_32_332" style="mask-type:alpha" maskUnits="userSpaceOnUse" x="0" y="0" width="30" height="30">
<rect width="30" height="30" fill="#D9D9D9"/>
</mask>
<g mask="url(#mask0_32_332)">
<path d="M8.95912 22.5V21.5385H18.4063C19.7684 21.5385 20.9235 21.0621 21.8714 20.1094C22.8193 19.1566 23.2933 17.9936 23.2933 16.6202C23.2933 15.2628 22.8193 14.1118 21.8714 13.1671C20.9235 12.2224 19.7684 11.75 18.4063 11.75H8.10578L11.9567 15.601L11.2692 16.2885L6.25 11.2692L11.2692 6.25L11.9567 6.9375L8.10578 10.7885H18.375C20.0016 10.7885 21.3882 11.355 22.5348 12.488C23.6815 13.621 24.2548 14.9984 24.2548 16.6202C24.2548 18.242 23.6815 19.6274 22.5348 20.7764C21.3882 21.9255 20.0016 22.5 18.375 22.5H8.95912Z" fill="#1C1B1F"/>
</g>
</svg>
