<svg width="40" height="40" viewBox="0 0 40 40" fill="none" xmlns="http://www.w3.org/2000/svg">
<g clip-path="url(#clip0_991_834)">
<path d="M33.6773 14.4443V14.0887C33.6016 11.0787 32.3381 8.2209 30.1627 6.13918C27.9873 4.05746 25.0767 2.9209 22.0662 2.97761C19.8242 2.95932 17.6247 3.5893 15.7323 4.79175C13.8399 5.9942 12.3353 7.71789 11.3996 9.75539C8.7649 10.0493 6.32975 11.3 4.5561 13.2703C2.78244 15.2406 1.79366 17.7933 1.77734 20.4443C1.78026 21.8489 2.05999 23.2392 2.60055 24.5356C3.1411 25.8321 3.93188 27.0093 4.92768 27.9999C5.92348 28.9905 7.10476 29.7752 8.404 30.309C9.70324 30.8428 11.0949 31.1153 12.4996 31.1109H16.6662V28.8887H12.4996C10.3519 28.7725 8.32823 27.8464 6.83633 26.2972C5.34444 24.748 4.49529 22.6909 4.46006 20.5404C4.42483 18.3899 5.20613 16.306 6.64648 14.7088C8.08683 13.1115 10.0791 12.1197 12.2218 11.9332H12.9662L13.2218 11.2332C13.9109 9.44331 15.1329 7.90815 16.7226 6.83512C18.3122 5.76209 20.193 5.20292 22.1107 5.23317C24.5318 5.17628 26.8774 6.07868 28.636 7.74371C30.3947 9.40873 31.424 11.7014 31.4996 14.1221C31.5149 14.4182 31.5149 14.7148 31.4996 15.0109L31.4107 15.8109L32.1329 16.1443C33.5298 16.7736 34.6672 17.8648 35.354 19.2343C36.0407 20.6039 36.2348 22.1682 35.9035 23.664C35.5723 25.1598 34.7359 26.4959 33.5352 27.4475C32.3345 28.399 30.8426 28.908 29.3107 28.8887H23.3329V31.1109H29.3107C31.2868 31.1251 33.2112 30.4804 34.78 29.2787C36.3487 28.077 37.4723 26.3867 37.9731 24.4751C38.474 22.5635 38.3235 20.5395 37.5456 18.723C36.7676 16.9064 35.4065 15.4009 33.6773 14.4443Z" fill="white"/>
<path d="M24.756 24.2778C24.9777 24.2814 25.1953 24.2185 25.3809 24.0974C25.5666 23.9762 25.7117 23.8023 25.7978 23.598C25.8838 23.3937 25.9067 23.1684 25.8636 22.9509C25.8206 22.7335 25.7134 22.5339 25.556 22.3778L20.0005 16.8223L14.4449 22.3778C14.2629 22.5904 14.1678 22.8638 14.1786 23.1434C14.1894 23.4231 14.3053 23.6883 14.5032 23.8862C14.7011 24.0841 14.9663 24.2 15.246 24.2108C15.5256 24.2216 15.799 24.1265 16.0116 23.9445L18.8894 21.1112V34.7223C18.8894 35.017 19.0064 35.2996 19.2148 35.5079C19.4232 35.7163 19.7058 35.8334 20.0005 35.8334C20.2952 35.8334 20.5778 35.7163 20.7861 35.5079C20.9945 35.2996 21.1116 35.017 21.1116 34.7223V21.1112L23.9671 23.9667C24.1786 24.1706 24.4623 24.2825 24.756 24.2778Z" fill="white"/>
</g>
<defs>
<clipPath id="clip0_991_834">
<rect width="40" height="40" fill="white"/>
</clipPath>
</defs>
</svg>
