<svg width="40" height="40" viewBox="0 0 40 40" fill="none" xmlns="http://www.w3.org/2000/svg">
<mask id="mask0_991_805" style="mask-type:alpha" maskUnits="userSpaceOnUse" x="0" y="0" width="40" height="40">
<rect width="40" height="40" fill="#D9D9D9"/>
</mask>
<g mask="url(#mask0_991_805)">
<path d="M25.4957 32.4576V29.4767H21.5598C20.8458 29.4767 20.2328 29.2226 19.7209 28.7142C19.209 28.2058 18.953 27.5911 18.953 26.87V12.6071H14.5213V15.6841C14.5213 16.277 14.3134 16.7796 13.8977 17.1918C13.4819 17.604 12.9811 17.8101 12.3953 17.8101H5.876C5.29019 17.8101 4.7894 17.604 4.37363 17.1918C3.95788 16.7796 3.75 16.277 3.75 15.6841V7.54299C3.75 6.95719 3.95788 6.4564 4.37363 6.04062C4.7894 5.62487 5.29019 5.41699 5.876 5.41699H12.3953C12.9811 5.41699 13.4819 5.62487 13.8977 6.04062C14.3134 6.4564 14.5213 6.95719 14.5213 7.54299V10.5131H25.4957V7.54299C25.4957 6.95719 25.7036 6.4564 26.1194 6.04062C26.5351 5.62487 27.0359 5.41699 27.6217 5.41699H34.1239C34.7097 5.41699 35.2105 5.62487 35.6263 6.04062C36.042 6.4564 36.2499 6.95719 36.2499 7.54299V15.6841C36.2499 16.277 36.042 16.7796 35.6263 17.1918C35.2105 17.604 34.7097 17.8101 34.1239 17.8101H27.6217C27.0359 17.8101 26.5351 17.604 26.1194 17.1918C25.7036 16.7796 25.4957 16.277 25.4957 15.6841V12.6071H21.0469V26.87C21.0469 27.0195 21.095 27.1424 21.1912 27.2385C21.2873 27.3347 21.4102 27.3828 21.5598 27.3828H25.4957V24.3058C25.4957 23.72 25.7036 23.2192 26.1194 22.8035C26.5351 22.3877 27.0359 22.1798 27.6217 22.1798H34.1239C34.7097 22.1798 35.2105 22.3877 35.6263 22.8035C36.042 23.2192 36.2499 23.72 36.2499 24.3058V32.4576C36.2499 33.0434 36.042 33.5442 35.6263 33.96C35.2105 34.3757 34.7097 34.5836 34.1239 34.5836H27.6217C27.0359 34.5836 26.5351 34.3757 26.1194 33.96C25.7036 33.5442 25.4957 33.0434 25.4957 32.4576ZM27.5897 15.7161H34.156V7.51095H27.5897V15.7161ZM27.5897 32.4896H34.156V24.2737H27.5897V32.4896ZM5.84396 15.7161H12.4273V7.51095H5.84396V15.7161Z" fill="white"/>
</g>
</svg>
